<svg width="676" height="742" viewBox="0 0 676 742" fill="none" xmlns="http://www.w3.org/2000/svg">
<path d="M674.778 347.462C689.125 618.259 230.904 723.319 0 742V0C181.585 192.786 656.843 8.9668 674.778 347.462Z" fill="#F5F5F5"/>
<path d="M492.937 525.884H353.324C342.997 525.884 334.626 517.512 334.626 507.186V234.814C334.626 224.488 342.997 216.117 353.324 216.117H492.938C503.265 216.117 511.636 224.488 511.636 234.814V507.185C511.636 517.512 503.264 525.884 492.937 525.884Z" fill="#B5FCFF"/>
<path d="M492.938 216.117H474.24C484.567 216.117 492.938 224.488 492.938 234.814V507.185C492.938 517.512 484.566 525.883 474.24 525.883H492.938C503.265 525.883 511.636 517.511 511.636 507.185V234.814C511.636 224.488 503.265 216.117 492.938 216.117Z" fill="#71F6FC"/>
<path d="M511.635 478.515H334.626V497.212H511.635V478.515Z" fill="#3BE3EB"/>
<path d="M511.636 478.515H492.938V497.212H511.636V478.515Z" fill="#2BC3D4"/>
<path d="M492.937 525.884H353.324C342.997 525.884 334.626 517.512 334.626 507.186V497.213H511.636V507.186C511.636 517.512 503.264 525.884 492.937 525.884Z" fill="#50536E"/>
<path d="M435.597 516.086H410.666C408.16 516.086 406.128 514.054 406.128 511.548C406.128 509.042 408.16 507.011 410.666 507.011H435.597C438.103 507.011 440.134 509.042 440.134 511.548C440.134 514.054 438.103 516.086 435.597 516.086Z" fill="#B5FCFF"/>
<path d="M492.938 497.213V507.186C492.938 517.513 484.566 525.884 474.24 525.884H492.938C503.265 525.884 511.636 517.512 511.636 507.186V497.213H492.938Z" fill="#484B63"/>
<path d="M353.325 216.117H492.938C503.265 216.117 511.636 224.488 511.636 234.814V244.787H334.626V234.814C334.626 224.488 342.998 216.117 353.325 216.117Z" fill="#50536E"/>
<path d="M492.938 216.117H474.24C484.567 216.117 492.938 224.488 492.938 234.814V244.787H511.636V234.814C511.636 224.488 503.265 216.117 492.938 216.117Z" fill="#484B63"/>
<path d="M542.716 385.958H486.824C474.006 385.958 463.616 396.335 463.616 409.136V434.849C463.616 435.989 462.824 436.971 461.712 437.214C456.195 438.42 440.445 440.692 438.172 428.01C438.056 427.362 437.136 427.344 436.996 427.987C435.291 435.815 433.938 455.198 461.404 457.81C462.654 457.93 463.616 458.965 463.616 460.221V480.58C463.616 493.38 474.006 503.757 486.824 503.757H542.716C555.534 503.757 565.925 493.381 565.925 480.58V409.136C565.925 396.336 555.534 385.958 542.716 385.958Z" fill="#FFD659"/>
<path d="M542.716 385.958H524.009C536.827 385.958 547.218 396.335 547.218 409.136V480.58C547.218 493.38 536.827 503.757 524.009 503.757H542.716C555.534 503.757 565.925 493.381 565.925 480.58V409.136C565.925 396.336 555.534 385.958 542.716 385.958Z" fill="#FFBD54"/>
<path d="M542.229 434.558H486.107C483.601 434.558 481.57 436.59 481.57 439.096C481.57 441.603 483.601 443.634 486.107 443.634H542.229C544.735 443.634 546.766 441.603 546.766 439.096C546.766 436.59 544.735 434.558 542.229 434.558Z" fill="#50536E"/>
<path d="M510.424 453.097H486.107C483.601 453.097 481.57 455.128 481.57 457.635C481.57 460.141 483.601 462.172 486.107 462.172H510.424C512.93 462.172 514.961 460.141 514.961 457.635C514.961 455.128 512.93 453.097 510.424 453.097Z" fill="#50536E"/>
<path d="M486.107 424.777H542.229C544.735 424.777 546.766 422.746 546.766 420.239C546.766 417.732 544.735 415.701 542.229 415.701H486.107C483.601 415.701 481.57 417.732 481.57 420.239C481.57 422.746 483.601 424.777 486.107 424.777Z" fill="#50536E"/>
<path d="M544.669 300.57C544.669 306.409 538.559 311.368 537.12 316.753C535.631 322.325 538.399 329.667 535.577 334.546C532.713 339.495 524.945 340.75 520.928 344.766C516.912 348.782 515.657 356.551 510.708 359.414C505.829 362.236 498.488 359.468 492.916 360.957C487.531 362.397 482.572 368.507 476.733 368.507C470.894 368.507 465.935 362.397 460.55 360.957C454.978 359.468 447.637 362.236 442.758 359.414C437.809 356.55 436.553 348.782 432.537 344.765C428.521 340.749 420.752 339.494 417.889 334.545C415.067 329.666 417.836 322.325 416.346 316.753C414.907 311.368 408.797 306.409 408.797 300.57C408.797 294.731 414.907 289.773 416.346 284.387C417.836 278.815 415.067 271.474 417.889 266.595C420.753 261.646 428.521 260.391 432.538 256.375C436.554 252.359 437.809 244.59 442.758 241.727C447.637 238.904 454.978 241.673 460.55 240.183C465.935 238.744 470.894 232.634 476.733 232.634C482.572 232.634 487.531 238.744 492.916 240.183C498.488 241.673 505.829 238.904 510.708 241.727C515.657 244.59 516.913 252.359 520.929 256.375C524.945 260.391 532.714 261.647 535.577 266.596C538.399 271.475 535.631 278.815 537.12 284.387C538.559 289.773 544.669 294.731 544.669 300.57Z" fill="#FF2C5C"/>
<path d="M432.624 404.045L363.163 439.58L329.264 405.698L364.817 336.27C365.248 335.429 366.373 335.252 367.041 335.919L432.975 401.821C433.643 402.49 433.465 403.614 432.624 404.045Z" fill="#FFD659"/>
<path d="M336.293 459.88L334.523 461.649C326.976 469.192 314.744 469.192 307.198 461.649C299.646 454.101 299.646 441.86 307.198 434.312L308.955 432.555L336.293 459.88Z" fill="#FF2C5C"/>
<path d="M379.568 479.207C375.916 482.857 369.998 482.857 366.346 479.207L327.982 440.862L341.21 427.64L379.568 465.98C383.222 469.632 383.222 475.555 379.568 479.207Z" fill="#50536E"/>
<path d="M364.817 336.27L356.732 352.059L416.828 412.126L432.624 404.045C433.465 403.614 433.643 402.49 432.975 401.822L367.041 335.919C366.372 335.252 365.247 335.429 364.817 336.27Z" fill="#FFBD54"/>
<path d="M364.5 441.381L341.728 464.143C340.711 465.159 339.063 465.159 338.046 464.143L304.691 430.804C303.674 429.787 303.674 428.138 304.691 427.121L327.464 404.359C328.481 403.343 330.129 403.343 331.145 404.359L364.5 437.698C365.518 438.715 365.518 440.364 364.5 441.381Z" fill="#4FC6F5"/>
<path d="M327.463 404.36L314.235 417.581C315.252 416.565 316.902 416.565 317.919 417.581L351.274 450.92C352.291 451.936 352.291 453.585 351.274 454.601L364.502 441.38C365.519 440.364 365.519 438.715 364.502 437.699L331.147 404.36C330.13 403.343 328.48 403.343 327.463 404.36Z" fill="#3BB3E3"/>
<path d="M456.165 288.728C461.672 288.728 466.137 284.263 466.137 278.755C466.137 273.248 461.672 268.783 456.165 268.783C450.657 268.783 446.192 273.248 446.192 278.755C446.192 284.263 450.657 288.728 456.165 288.728Z" fill="#B5FCFF"/>
<path d="M498.547 330.487C504.055 330.487 508.52 326.022 508.52 320.515C508.52 315.007 504.055 310.542 498.547 310.542C493.04 310.542 488.575 315.007 488.575 320.515C488.575 326.022 493.04 330.487 498.547 330.487Z" fill="#B5FCFF"/>
<path d="M504.28 272.711C502.508 270.939 499.635 270.939 497.864 272.711L450.432 320.142C448.66 321.915 448.66 324.787 450.432 326.559C451.318 327.445 452.48 327.888 453.641 327.888C454.802 327.888 455.963 327.445 456.849 326.559L504.28 279.128C506.052 277.356 506.052 274.483 504.28 272.711Z" fill="#B5FCFF"/>
</svg>
