<svg width="587" height="645" viewBox="0 0 587 645" fill="none" xmlns="http://www.w3.org/2000/svg">
<path d="M0.286255 342.961C-12.1887 107.565 386.231 16.2387 587 0V645C429.114 477.417 15.88 637.205 0.286255 342.961Z" fill="#F5F5F5"/>
<g clip-path="url(#clip0)">
<path d="M189.835 492.738C279.161 492.738 351.573 420.326 351.573 331C351.573 241.675 279.161 169.262 189.835 169.262C100.51 169.262 28.0972 241.675 28.0972 331C28.0972 420.326 100.51 492.738 189.835 492.738Z" fill="#1A2B63"/>
<path d="M350.543 249.443H192.618V310.546C192.618 312.362 191.132 313.847 189.317 313.847H167.848V373.316C167.848 375.768 169.854 377.773 172.304 377.773H350.543C352.994 377.773 354.999 375.768 354.999 373.316V253.9C354.999 251.448 352.994 249.443 350.543 249.443Z" fill="#91E0E8"/>
<path d="M180.947 373.316V313.846H167.849V373.316C167.849 375.768 169.855 377.773 172.305 377.773H185.403C182.954 377.774 180.947 375.768 180.947 373.316Z" fill="#5DC1D8"/>
<path d="M312.255 319.216C310.675 317.342 308.091 317.342 306.511 319.216L283.346 346.701C281.766 348.575 279.181 348.575 277.602 346.701L233.875 294.827C232.296 292.952 229.711 292.952 228.131 294.827L167.849 366.342V373.316C167.849 375.768 169.855 377.773 172.305 377.773H350.543C352.994 377.773 355 375.767 355 373.316V369.924L312.255 319.216Z" fill="#0F9390"/>
<path d="M323.774 299.314C333.003 299.314 340.484 291.833 340.484 282.604C340.484 273.376 333.003 265.895 323.774 265.895C314.545 265.895 307.064 273.376 307.064 282.604C307.064 291.833 314.545 299.314 323.774 299.314Z" fill="white"/>
<path d="M316.298 282.603C316.298 274.976 321.41 268.547 328.392 266.543C326.926 266.123 325.379 265.893 323.777 265.893C314.549 265.893 307.068 273.373 307.068 282.603C307.068 291.833 314.549 299.314 323.777 299.314C325.379 299.314 326.926 299.083 328.392 298.663C321.41 296.659 316.298 290.231 316.298 282.603Z" fill="#D9EAFC"/>
<path d="M193.278 311.206C193.278 313.022 191.793 314.507 189.977 314.507H20.3008C18.4853 314.507 17 313.022 17 311.206V181.804C17 179.989 18.4853 178.503 20.3008 178.503H189.977C191.793 178.503 193.278 179.989 193.278 181.804V311.206Z" fill="#FE3745"/>
<path d="M71.4602 214.218C71.4602 210.587 74.0328 209.102 77.1771 210.918L133.101 243.204C136.245 245.02 136.245 247.99 133.101 249.806L77.1771 282.093C74.0328 283.909 71.4602 282.424 71.4602 278.793V214.218Z" fill="white"/>
<path d="M84.559 215.179L77.1771 210.918C74.0328 209.102 71.4602 210.587 71.4602 214.218V278.793C71.4602 282.424 74.0328 283.909 77.1771 282.093L84.559 277.831V215.179Z" fill="#D9EAFC"/>
<path d="M183.033 203.927C183.033 205.016 182.142 205.908 181.053 205.908H167.19C166.101 205.908 165.21 205.016 165.21 203.927V190.065C165.21 188.976 166.101 188.085 167.19 188.085H181.053C182.142 188.085 183.033 188.976 183.033 190.065V203.927Z" fill="#B7092B"/>
<path d="M183.033 228.682C183.033 229.771 182.142 230.662 181.053 230.662H167.19C166.101 230.662 165.21 229.771 165.21 228.682V214.82C165.21 213.73 166.101 212.839 167.19 212.839H181.053C182.142 212.839 183.033 213.73 183.033 214.82V228.682Z" fill="#B7092B"/>
<path d="M183.033 253.436C183.033 254.525 182.142 255.417 181.053 255.417H167.19C166.101 255.417 165.21 254.525 165.21 253.436V239.574C165.21 238.485 166.101 237.594 167.19 237.594H181.053C182.142 237.594 183.033 238.485 183.033 239.574V253.436Z" fill="#B7092B"/>
<path d="M183.033 278.191C183.033 279.28 182.142 280.171 181.053 280.171H167.19C166.101 280.171 165.21 279.28 165.21 278.191V264.329C165.21 263.239 166.101 262.348 167.19 262.348H181.053C182.142 262.348 183.033 263.239 183.033 264.329V278.191Z" fill="#B7092B"/>
<path d="M183.033 302.945C183.033 304.034 182.142 304.926 181.053 304.926H167.19C166.101 304.926 165.21 304.034 165.21 302.945V289.083C165.21 287.994 166.101 287.103 167.19 287.103H181.053C182.142 287.103 183.033 287.994 183.033 289.083V302.945Z" fill="#B7092B"/>
<path d="M45.0677 203.927C45.0677 205.016 44.1765 205.908 43.0873 205.908H29.2253C28.1361 205.908 27.2449 205.016 27.2449 203.927V190.065C27.2449 188.976 28.1361 188.085 29.2253 188.085H43.0873C44.1765 188.085 45.0677 188.976 45.0677 190.065V203.927Z" fill="#B7092B"/>
<path d="M45.0677 228.682C45.0677 229.771 44.1765 230.662 43.0873 230.662H29.2253C28.1361 230.662 27.2449 229.771 27.2449 228.682V214.82C27.2449 213.73 28.1361 212.839 29.2253 212.839H43.0873C44.1765 212.839 45.0677 213.73 45.0677 214.82V228.682Z" fill="#B7092B"/>
<path d="M45.0677 253.436C45.0677 254.525 44.1765 255.417 43.0873 255.417H29.2253C28.1361 255.417 27.2449 254.525 27.2449 253.436V239.574C27.2449 238.485 28.1361 237.594 29.2253 237.594H43.0873C44.1765 237.594 45.0677 238.485 45.0677 239.574V253.436Z" fill="#B7092B"/>
<path d="M45.0677 278.191C45.0677 279.28 44.1765 280.171 43.0873 280.171H29.2253C28.1361 280.171 27.2449 279.28 27.2449 278.191V264.329C27.2449 263.239 28.1361 262.348 29.2253 262.348H43.0873C44.1765 262.348 45.0677 263.239 45.0677 264.329V278.191Z" fill="#B7092B"/>
<path d="M45.0677 302.945C45.0677 304.034 44.1765 304.926 43.0873 304.926H29.2253C28.1361 304.926 27.2449 304.034 27.2449 302.945V289.083C27.2449 287.994 28.1361 287.103 29.2253 287.103H43.0873C44.1765 287.103 45.0677 287.994 45.0677 289.083V302.945Z" fill="#B7092B"/>
<path d="M152.956 330.31H38.1514C36.3359 330.31 34.8506 331.796 34.8506 333.611V377.344C39.4215 392.653 46.1973 407.009 54.8117 420.046H96.4536L123.373 446.965C124.657 448.249 125.707 447.814 125.707 445.999V420.046H152.957C154.772 420.046 156.258 418.561 156.258 416.745V333.611C156.257 331.796 154.772 330.31 152.956 330.31Z" fill="#52BBEF"/>
<path d="M47.9494 333.611C47.9494 331.796 49.4347 330.31 51.2502 330.31H38.1514C36.3359 330.31 34.8506 331.796 34.8506 333.611V377.344C38.1269 388.318 42.5421 398.798 47.9494 408.658V333.611Z" fill="#1E99D6"/>
<path d="M128.316 363.127H62.7903C60.0559 363.127 57.8391 360.911 57.8391 358.176C57.8391 355.442 60.0559 353.225 62.7903 353.225H128.316C131.05 353.225 133.267 355.442 133.267 358.176C133.267 360.911 131.05 363.127 128.316 363.127Z" fill="white"/>
<path d="M128.316 380.365H62.7903C60.0559 380.365 57.8391 378.149 57.8391 375.414C57.8391 372.68 60.0559 370.463 62.7903 370.463H128.316C131.05 370.463 133.267 372.68 133.267 375.414C133.267 378.149 131.05 380.365 128.316 380.365Z" fill="white"/>
<path d="M95.6838 397.603H62.7903C60.0559 397.603 57.8391 395.386 57.8391 392.651C57.8391 389.917 60.0559 387.7 62.7903 387.7H95.6838C98.4182 387.7 100.635 389.917 100.635 392.651C100.635 395.386 98.4182 397.603 95.6838 397.603Z" fill="white"/>
<path d="M275.523 394.743H171.479C169.664 394.743 168.179 396.228 168.179 398.044V476.809C168.179 478.624 169.664 480.11 171.479 480.11H252.596C261.807 476.228 270.577 471.512 278.824 466.067V398.044C278.824 396.228 277.339 394.743 275.523 394.743Z" fill="#EF8318"/>
<path d="M181.278 476.808V398.044C181.278 396.228 182.763 394.743 184.578 394.743H171.479C169.664 394.743 168.179 396.228 168.179 398.044V476.809C168.179 478.624 169.664 480.11 171.479 480.11H184.578C182.763 480.109 181.278 478.623 181.278 476.808Z" fill="#DB722C"/>
<path d="M205.161 419.618C205.161 415.987 207.733 414.501 210.878 416.317L241.723 434.125C244.867 435.941 244.867 438.911 241.723 440.727L210.878 458.535C207.733 460.35 205.161 458.865 205.161 455.234V419.618Z" fill="white"/>
</g>
<defs>
<clipPath id="clip0">
<rect x="17" y="162" width="338" height="338" fill="white"/>
</clipPath>
</defs>
</svg>
