<svg width="656" height="721" viewBox="0 0 656 721" fill="none" xmlns="http://www.w3.org/2000/svg">
<path d="M655.68 337.628C669.621 600.761 224.369 702.848 0 721V0C176.445 187.329 638.253 8.71301 655.68 337.628Z" fill="#F5F5F5"/>
<path d="M351.21 369.214C356.281 372.878 362.516 375.039 369.258 375.039H426.928V403.002L463.485 375.039H479.255C496.256 375.039 510.038 361.299 510.038 344.35V234.689C510.039 217.74 496.257 204 479.255 204H369.257C352.256 204 338.475 217.74 338.475 234.689V369.214H351.21Z" fill="#F7F3F1"/>
<path d="M479.255 204H452.889C469.89 204 483.672 217.74 483.672 234.689V344.35C483.672 361.299 469.89 375.039 452.889 375.039H437.119L426.928 382.834V403.002L463.484 375.039H479.255C496.256 375.039 510.038 361.299 510.038 344.35V234.689C510.039 217.74 496.256 204 479.255 204V204Z" fill="#EFE7E3"/>
<path d="M400.537 330.057L403.709 332.625C408.74 336.697 415.016 338.919 421.487 338.919H466.529C470.799 338.919 474.237 335.357 474.033 331.042C473.843 327.002 474.042 290.2 474.042 286.051C474.042 281.902 470.679 278.538 466.529 278.538L435.986 278.446L439.726 269.589C443.611 260.387 442.983 249.898 438.027 241.225C435.34 237.071 428.815 238.599 428.688 243.705C428.688 251.647 425.788 259.316 420.533 265.271L401.058 287.309H393.958V330.056H400.537V330.057Z" fill="#EF8318"/>
<path d="M397.496 336.834H376.932C375.573 336.834 374.471 335.732 374.471 334.372V281.95C374.471 280.591 375.573 279.489 376.932 279.489H397.496C398.855 279.489 399.958 280.591 399.958 281.95V334.372C399.957 335.731 398.855 336.834 397.496 336.834Z" fill="#52BBEF"/>
<path d="M351.254 424.171V313.492C351.254 300.127 340.386 289.292 326.979 289.292H240.237C226.83 289.292 215.961 300.127 215.961 313.492V399.97C215.961 413.336 226.829 424.171 240.237 424.171H287.89V446.429L316.718 424.171H351.254Z" fill="#72D1FB"/>
<path d="M326.98 289.292H292.605C306.011 289.292 316.88 300.127 316.88 313.492V424.171H351.255V313.492C351.255 300.127 340.386 289.292 326.98 289.292Z" fill="#62A6FD"/>
<path d="M315.419 363.842H297.973L299.884 352.282H315.419C321.531 352.282 321.531 342.806 315.419 342.806H301.451L304.06 327.024C305.057 320.994 295.708 319.448 294.71 325.479L291.846 342.806H280.415L283.024 327.024C284.021 320.994 274.673 319.447 273.674 325.479L270.81 342.806H251.797C245.685 342.806 245.685 352.282 251.797 352.282H269.243L267.332 363.842H251.797C245.685 363.842 245.685 373.319 251.797 373.319H265.765L263.156 389.1C262.169 395.066 271.507 396.685 272.506 390.645L275.37 373.319H286.801L284.192 389.1C283.205 395.066 292.543 396.685 293.542 390.645L296.406 373.319H315.419C321.531 373.319 321.531 363.842 315.419 363.842ZM288.368 363.842H276.938L278.849 352.282H290.28L288.368 363.842Z" fill="#F7F3F1"/>
<path d="M398.212 406.488H336.655C327.141 406.488 319.428 414.177 319.428 423.662V485.03C319.428 494.515 327.141 502.204 336.655 502.204H370.472V518L390.93 502.205H398.212C407.726 502.205 415.439 494.516 415.439 485.031V423.662C415.439 414.177 407.726 406.488 398.212 406.488Z" fill="#FE3745"/>
<path d="M398.212 406.488H371.677C381.191 406.488 388.904 414.177 388.904 423.662V485.031C388.904 494.516 381.191 502.205 371.677 502.205H370.472V518L390.93 502.205H398.212C407.726 502.205 415.439 494.516 415.439 485.031V423.662C415.439 414.177 407.726 406.488 398.212 406.488Z" fill="#EF8318"/>
<path d="M367.433 475.198C382.246 467.346 389.921 460.664 389.921 450.313C389.921 436.035 372.43 432.465 367.433 443.174C361.722 432.109 344.946 436.035 344.946 450.313C344.946 460.664 352.62 467.345 367.433 475.198Z" fill="#F7F3F1"/>
</svg>
