<svg width="109" height="109" viewBox="0 0 109 109" fill="none" xmlns="http://www.w3.org/2000/svg">
<path d="M109 101.104H0V7.89587H109V101.104Z" fill="#326ED3"/>
<path d="M14.3373 16.5497H7.9502V22.9364H14.3373V16.5497Z" fill="#FC5755"/>
<path d="M24.9825 16.5497H18.5953V22.9364H24.9825V16.5497Z" fill="#F3C86A"/>
<path d="M35.6277 16.5497H29.2406V22.9364H35.6277V16.5497Z" fill="#9FFCFE"/>
<path d="M14.3373 16.5497H7.9502V22.9364H14.3373V16.5497Z" fill="#FC5755"/>
<path d="M24.9825 16.5497H18.5953V22.9364H24.9825V16.5497Z" fill="#F3C86A"/>
<path d="M35.6277 16.5497H29.2406V22.9364H35.6277V16.5497Z" fill="#9CC0FA"/>
<path d="M109 7.89587H54.5V101.104H109V7.89587Z" fill="#0841A3"/>
<path d="M109 101.104H0V31.3153H109V101.104Z" fill="#EDF5FF"/>
<path d="M109 31.3153H54.5V101.104H109V31.3153Z" fill="#D7E9FF"/>
<path d="M100.911 16.5497H50.6639V22.9364H100.911V16.5497Z" fill="#9CC0FA"/>
<path d="M100.911 16.5497H54.5V22.9364H100.911V16.5497Z" fill="#6598EA"/>
<path d="M26.262 82.3426L45.4666 62.3554L67.9475 76.2474L83.4408 60.4102V65.4594H89.8275V49.3861H73.7543V55.7728H79.0429L66.9567 68.1271L44.4356 54.2106L21.9586 77.6035V47.2131H15.5719V88.7294H90.846V82.3426H26.262Z" fill="#FC5755"/>
<path d="M54.5 60.4298V67.9374L67.9474 76.2474L83.4408 60.4102V65.4593H89.8275V49.3861H73.7542V55.7728H79.0429L66.9567 68.1271L54.5 60.4298Z" fill="#FC0E3C"/>
<path d="M90.846 82.3428H54.5V88.7295H90.846V82.3428Z" fill="#FC0E3C"/>
</svg>
