<svg width="157" height="409" viewBox="0 0 157 409" fill="none" xmlns="http://www.w3.org/2000/svg">
<path d="M23.3147 81.038C23.3147 81.038 28.557 85.5565 40.1384 86.0171C40.1384 86.0171 56.611 86.9164 66.9421 85.0301C66.9421 85.0301 75.7158 85.6223 81.4407 83.056C87.1655 80.4897 87.3849 78.9762 87.3849 78.9762C89.4568 72.8481 90.0579 66.3186 89.1396 59.9153C86.3759 39.0338 76.3519 8.25995 62.5552 7.62385C41.4106 6.59294 30.3995 18.7226 28.0964 31.269C25.7933 43.8155 21.5161 67.3949 21.5161 72.1546C21.4835 75.2094 22.0964 78.2366 23.3147 81.038V81.038Z" fill="#573B3D"/>
<path d="M34.4792 372.896C34.4792 372.896 24.543 291.344 23.5121 271.998H48.0785C48.0785 271.998 44.2619 347.803 43.4504 372.896C43.4284 372.896 37.3746 377.612 34.4792 372.896Z" fill="#C07457"/>
<path d="M68.6528 374.366C68.6528 374.366 77.7117 292.353 78.5452 272.963L53.9788 273.227C53.9788 273.227 58.8482 349.47 59.923 374.629C59.8791 374.629 65.6917 379.147 68.6528 374.366Z" fill="#C07457"/>
<path d="M133.951 110.672C134.456 109.926 132.745 107.645 132.613 105.144C132.467 103.128 131.993 101.15 131.21 99.2876C131.21 99.2876 131.451 98.7173 132.482 99.2876C133.513 99.8579 133.864 101.262 134.193 102.095C134.522 102.929 135.838 104.749 136.276 104.442C136.959 103.447 137.423 102.318 137.636 101.13C138.404 97.2838 139.385 93.4833 140.576 89.7462C141.168 89.1101 141.76 89.3294 141.935 89.8558C142.111 90.3823 140.268 99.3973 140.488 99.7044C140.551 99.768 140.626 99.8186 140.709 99.853C140.792 99.8875 140.881 99.9053 140.97 99.9053C141.06 99.9053 141.149 99.8875 141.232 99.853C141.315 99.8186 141.39 99.768 141.453 99.7044C141.76 99.4631 146.695 89.2198 147.353 88.7372C148.011 88.2546 148.911 88.3424 148.867 89.461C148.823 90.5797 144.304 100.691 144.304 100.691C144.304 100.691 144.524 102.183 145.445 101.722C146.366 101.262 152.705 93.4311 153.012 93.5847C153.319 93.7382 154.416 93.2337 153.802 94.9446C151.841 97.899 149.64 100.687 147.222 103.28C147.222 103.28 146.739 104.618 147.726 104.398L155.403 100.275C155.403 100.275 156.215 100.143 156.456 100.691C156.537 100.919 156.538 101.167 156.458 101.394C156.378 101.622 156.223 101.815 156.017 101.942C155.666 102.205 149.24 106.504 148.253 107.184C146.713 109.533 145.036 111.789 143.23 113.94C142.327 114.644 141.235 115.064 140.093 115.146C140.093 115.146 119.343 156.163 111.644 158.05C111.644 158.05 107.981 162.239 86.0249 115.826L98.6152 107.623L111.776 140.02C111.776 140.02 117.786 134.426 133.951 110.672Z" fill="#D17558"/>
<path d="M59.1994 372.699C59.2409 376.624 58.9252 380.544 58.2562 384.412C58.2562 384.412 59.66 390.049 64.0469 390.049C68.4337 390.049 69.3989 385.662 69.8375 384.412C68.911 380.569 68.3528 376.647 68.1705 372.699H59.1994Z" fill="#C07457"/>
<path d="M59.5503 382.964C59.5503 382.964 58.2562 382.372 57.1156 385.004C55.975 387.636 56.6769 395.62 54.3738 399.809C53.6938 401.06 51.6539 404.898 52.3558 406.39C53.0577 407.881 67.3589 410.777 75.7817 406.39C76.0601 403.81 75.6357 401.203 74.5534 398.844C72.9693 394.597 71.88 390.181 71.3071 385.684C70.9561 382.613 68.9382 382.525 68.9382 382.525L59.5503 382.964Z" fill="#001D2F"/>
<path d="M59.7477 384.412C59.7477 384.412 66.2183 384.237 68.5214 383.929C68.5214 383.929 70.1007 388.426 67.9072 390.049C67.9072 390.049 61.5901 390.334 59.287 390.51C59.1993 390.444 58.6948 385.904 59.7477 384.412Z" fill="#C07457"/>
<path d="M34.4794 372.896C34.5217 376.822 34.1986 380.743 33.5143 384.609C33.5143 384.609 34.9181 390.246 39.3049 390.246C43.6918 390.246 44.6569 385.859 45.0956 384.609C44.1691 380.767 43.6109 376.845 43.4286 372.896H34.4794Z" fill="#C07457"/>
<path d="M79.9272 296.959C84.314 264.365 86.7049 248.879 86.7049 232.67C86.7049 211.701 82.4935 202.817 82.4935 202.817L51.1055 203.453L19.7394 202.817C19.7394 202.817 15.5938 211.701 15.5719 232.67C15.5719 248.879 17.7653 264.365 22.3496 296.959C41.073 302.961 61.2038 302.961 79.9272 296.959V296.959Z" fill="#001D2F"/>
<path d="M87.1656 93.1242C86.8705 92.0615 86.2396 91.1227 85.367 90.4482C83.4587 89.3953 63.4327 82.4202 63.4327 82.4202C59.6819 77.1779 60.4716 69.4351 60.4716 69.4351L52.8603 65.9695H52.7287L45.1175 69.4351C45.1175 69.4351 45.1175 78.9985 42.1564 82.4202C42.1564 82.4202 20.3976 88.7373 18.4673 89.7902C18.2041 89.9437 17.919 90.7333 17.6558 91.9836L54.6151 111.615L87.1656 93.1242Z" fill="#D17558"/>
<path d="M5.87698 119.445L19.6737 128.087C16.9757 138.023 13.5321 157.326 13.5321 157.326C13.1153 176.036 5.24089 211.065 5.24089 211.065L0.656616 210.823C2.30169 176.014 4.38545 157.15 4.38545 157.15C5.15315 152.237 5.30669 141.577 5.87698 119.445Z" fill="#D17558"/>
<path d="M17.853 135.567C17.6149 135.253 17.3586 134.952 17.0853 134.668L5.52592 132.891C5.39432 138.879 5.26271 143.639 5.1311 147.39C8.53062 148.026 12.0188 148.026 15.4183 147.39C16.1202 143.683 16.9976 139.471 17.853 135.567Z" fill="#D17558"/>
<path d="M25.7056 87.3115C25.7056 87.3115 13.4882 89.505 9.01362 96.8749C5.72347 102.337 3.04749 137.278 3.04749 137.278C4.55855 139.691 6.74971 141.604 9.3452 142.775C11.9407 143.945 14.8245 144.323 17.6338 143.858L25.8153 122.67L25.7056 87.3115Z" fill="#6BACD3"/>
<path d="M17.6337 143.858L25.8152 122.67V97.1601C25.5959 96.0634 25.4424 95.6466 25.3546 96.1292C24.7185 100.012 20.4633 101.481 14.4971 115.673C11.0346 124.615 10.2719 134.377 12.3037 143.749C14.0587 144.111 15.8653 144.148 17.6337 143.858V143.858Z" fill="#589EC2"/>
<path d="M76.6812 86.2368C82.4372 87.9075 87.9799 90.2408 93.1977 93.19C98.5497 96.6775 110.328 130.281 110.328 130.281C109.562 133.026 107.998 135.481 105.835 137.336C103.672 139.191 101.006 140.362 98.1768 140.7L84.3801 122.67L76.6812 86.2368Z" fill="#6BACD3"/>
<path d="M98.5715 122.187C96.5097 114.576 80.6731 98.7173 80.6731 98.7173L79.6202 105.999L84.4458 122.67L98.2425 140.7C100.12 140.48 101.938 139.899 103.594 138.989C102.958 137.278 100.414 128.987 98.5715 122.187Z" fill="#589EC2"/>
<path d="M44.5254 75.467C48.0568 77.836 54.001 81.4332 57.0499 80.8409C58.628 80.4785 60.1189 79.8076 61.4367 78.8669C60.4492 75.8265 60.0618 72.6232 60.2962 69.4351L52.685 65.9695H52.5534L44.9421 69.4351C44.9386 71.4528 44.7994 73.468 44.5254 75.467V75.467Z" fill="#C66A42"/>
<path d="M26.0784 168.907C25.1132 178.361 21.516 193.583 19.8709 204.002C19.8709 204.002 29.4343 212.074 52.7724 212.074C78.0407 212.118 83.6998 204.002 83.6998 204.002C82.9979 199.615 82.0986 193.89 81.309 187.332C79.291 170.727 79.3568 154.935 82.4495 144.011C84.7699 136.576 86.3351 128.927 87.1215 121.178C87.955 109.684 81.309 87.7499 81.309 87.7499L70.8463 84.2185C70.8463 84.2185 61.0197 105.824 53.6717 105.955C49.57 105.955 39.217 91.2156 35.7953 84.2843L24.7842 87.5745C24.7842 87.5745 11.9088 116.089 21.3844 142.125C21.4721 142.125 26.9777 158.971 26.0784 168.907Z" fill="#6BACD3"/>
<path d="M6.16218 216.022C6.16218 217.075 6.46926 222.12 7.71951 223.677C8.96977 225.234 10.7464 227.823 9.71554 228.305C8.68462 228.788 6.33765 226.814 4.47323 223.699C3.67709 222.242 3.0163 220.715 2.49915 219.137L6.16218 216.022Z" fill="#CF6744"/>
<path d="M5.41622 216.636C5.41622 217.689 6.35939 223.765 7.60965 225.41C8.85991 227.055 10.6366 229.556 9.62761 230.038C8.61863 230.521 6.24972 228.547 4.38531 225.432C3.57608 223.978 2.9077 222.45 2.38928 220.87L5.41622 216.636Z" fill="#DB7B58"/>
<path d="M5.39452 210.582C7.36516 212.836 9.13401 215.258 10.6807 217.821C11.746 219.346 12.8957 220.81 14.1244 222.207C14.8482 222.822 13.5102 224.401 10.6149 221.33C7.71955 218.259 5.7016 217.645 5.17517 217.908C5.17517 217.908 5.37258 224.072 6.68864 226.024C9.29882 229.906 11.251 232.012 10.1762 232.407C9.10141 232.802 4.05652 227.823 2.47725 224.554C0.897981 221.286 0.43736 212.644 0.656703 210.166L5.39452 210.582Z" fill="#D17558"/>
<g opacity="0.3">
<path opacity="0.3" d="M22.9421 67.5924C22.9421 67.9433 22.9421 68.1407 22.9421 68.1407C22.9421 68.1407 22.9421 67.6801 22.9421 67.4388C22.9314 67.4895 22.9314 67.5418 22.9421 67.5924V67.5924Z" fill="#9D4325"/>
</g>
<path d="M34.8084 383.161C34.8084 383.161 33.5142 382.569 32.3736 385.201C31.2331 387.833 31.935 395.817 29.6319 400.007C28.9519 401.257 26.912 405.096 27.6139 406.587C28.3158 408.079 42.617 410.974 51.0398 406.587C51.3182 404.007 50.8937 401.4 49.8114 399.042C48.2274 394.794 47.1381 390.378 46.5652 385.881C46.2142 382.81 44.1962 382.723 44.1962 382.723L34.8084 383.161Z" fill="#001D2F"/>
<path d="M35.006 384.609C35.006 384.609 41.4766 384.434 43.7797 384.126C43.7797 384.126 45.359 388.513 43.1655 390.246C43.1655 390.246 36.8484 390.531 34.5673 390.707C34.4795 390.707 33.9531 386.057 35.006 384.609Z" fill="#C07457"/>
<path d="M25.8153 187.288C25.8153 182.331 32.3956 171.496 34.5891 167.547C36.7825 163.599 25.8153 150 25.8153 150C30.4654 150 38.8224 146.052 43.3628 142.104C47.9032 138.155 63.6301 135.765 63.6301 135.765C58.3659 133.571 49.4167 137.958 36.8922 139.735C33.5815 140.239 30.1966 139.873 27.07 138.673C23.9435 137.473 21.1829 135.481 19.0596 132.891C19.6179 136.064 20.4471 139.182 21.5381 142.213C21.5381 142.213 26.9779 158.971 26.0786 168.907C25.1134 178.361 21.5162 193.583 19.8711 204.002C19.8711 204.002 29.4345 212.074 52.7726 212.074C59.1039 212.181 65.4243 211.51 71.5923 210.078C35.0278 210.232 25.8153 193.035 25.8153 187.288Z" fill="#589EC2"/>
<path d="M57.0716 72.1989C56.0417 72.9294 54.8234 73.3482 53.5621 73.4053C52.1244 73.4547 50.7092 73.0393 49.5262 72.2208C49.5262 72.2208 34.0186 64.8729 32.3077 47.5447V30.3044C32.359 27.6015 32.9431 24.9352 34.0264 22.4584C35.1098 19.9816 36.6711 17.7428 38.621 15.8703C40.5709 13.9978 42.8711 12.5284 45.3898 11.5463C47.9084 10.5641 50.5961 10.0885 53.2989 10.1467V10.1467C57.0247 10.124 60.6901 11.0882 63.9225 12.9413C67.1548 14.7944 69.8389 17.4704 71.7018 20.6971C73.3559 23.6289 74.2248 26.9382 74.2242 30.3044V47.6105C73.4346 65.2238 57.0716 72.1989 57.0716 72.1989Z" fill="#D17558"/>
<path d="M40.9719 45.2415C42.1725 45.7359 43.4712 45.9461 44.7665 45.8556C45.5783 45.8067 46.3811 45.6594 47.1574 45.4169L48.9779 45.1757C48.9779 45.1757 45.271 40.5256 42.6389 40.6791C40.9566 40.8149 39.3636 41.4922 38.0985 42.6094C38.5201 42.9132 38.8967 43.2751 39.2172 43.6841C39.6142 44.3826 40.2312 44.9302 40.9719 45.2415V45.2415Z" fill="white"/>
<path d="M45.7756 43.3771C45.7199 43.7988 45.5428 44.1953 45.2658 44.5182C44.9888 44.8411 44.6239 45.0765 44.2155 45.1957C43.8071 45.3148 43.3728 45.3127 42.9656 45.1894C42.5584 45.0662 42.1959 44.8272 41.9221 44.5015C41.6483 44.1759 41.4752 43.7777 41.4237 43.3554C41.3722 42.933 41.4447 42.5049 41.6323 42.123C41.8198 41.7412 42.1144 41.4221 42.4801 41.2047C42.8457 40.9873 43.2668 40.8809 43.6918 40.8985C43.9962 40.9111 44.2946 40.987 44.568 41.1213C44.8415 41.2556 45.0839 41.4454 45.28 41.6785C45.476 41.9117 45.6213 42.1832 45.7066 42.4756C45.792 42.7681 45.8155 43.0751 45.7756 43.3771V43.3771Z" fill="#481816"/>
<path d="M44.8325 43.2894C44.7991 43.6408 44.6282 43.9647 44.3571 44.1907C44.0859 44.4167 43.7365 44.5263 43.3849 44.4958C43.2099 44.4848 43.0389 44.4389 42.8819 44.3608C42.725 44.2828 42.5852 44.1742 42.4707 44.0414C42.3563 43.9086 42.2696 43.7542 42.2156 43.5874C42.1617 43.4206 42.1416 43.2447 42.1565 43.0701C42.1704 42.8942 42.2188 42.7227 42.2992 42.5656C42.3796 42.4085 42.4902 42.2688 42.6248 42.1547C42.7593 42.0405 42.9151 41.9541 43.0832 41.9004C43.2513 41.8467 43.4284 41.8268 43.6042 41.8418C43.9573 41.8752 44.2833 42.0453 44.5128 42.3158C44.7423 42.5862 44.857 42.9356 44.8325 43.2894Z" fill="#311615"/>
<path d="M49.3728 45.4608C49.3728 45.4608 46.631 41.074 43.3628 40.3721C43.2259 40.0804 43.1549 39.7621 43.1549 39.4399C43.1549 39.1176 43.2259 38.7993 43.3628 38.5076C43.1153 38.7259 42.9271 39.0033 42.8158 39.314C42.7046 39.6247 42.6739 39.9586 42.7267 40.2843C42.4494 40.2619 42.1706 40.2619 41.8932 40.2843C41.6781 40.042 41.5193 39.7551 41.4283 39.4441C41.3372 39.1331 41.3162 38.8058 41.3668 38.4857C41.1701 38.7662 41.0419 39.0889 40.9924 39.4279C40.9428 39.7669 40.9734 40.1128 41.0817 40.4379C40.7525 40.5244 40.43 40.6344 40.1166 40.7669C39.9835 40.6481 39.8722 40.5071 39.7875 40.3501C39.6101 40.0059 39.5486 39.6135 39.6121 39.2315C39.4333 39.6068 39.3648 40.0252 39.4147 40.4379C39.4397 40.6367 39.4991 40.8296 39.5901 41.0082C39.3023 41.1511 39.0239 41.3123 38.7566 41.4907C38.4591 41.3284 38.2033 41.0993 38.0092 40.8215C37.8151 40.5437 37.6881 40.2247 37.638 39.8895C37.4891 40.3381 37.4891 40.8228 37.638 41.2714C37.7511 41.4978 37.8991 41.7051 38.0767 41.8855C37.6012 42.2375 37.0859 42.532 36.5413 42.7629C37.907 43.7373 39.3787 44.5541 40.9281 45.1976C40.4282 44.8899 40.0075 44.4692 39.6998 43.9693C39.4819 43.5748 39.2402 43.1939 38.976 42.8287C39.4449 42.253 40.0484 41.8018 40.7332 41.5148C41.418 41.2279 42.163 41.1142 42.9022 41.1836C45.0017 41.9083 46.8508 43.2171 48.2323 44.9563L47.1136 45.3731L49.3728 45.4608Z" fill="#481816"/>
<path d="M67.7757 45.2193C66.5654 45.7718 65.2453 46.0418 63.9153 46.0089C63.0778 45.9946 62.2452 45.8767 61.4367 45.658L59.5723 45.4825C59.5723 45.4825 63.1695 40.5692 65.8674 40.6131C67.5998 40.6838 69.2624 41.315 70.6052 42.4117C70.1802 42.7299 69.8098 43.1151 69.5085 43.5523C69.1349 44.2871 68.5244 44.8744 67.7757 45.2193V45.2193Z" fill="white"/>
<path d="M62.7746 43.5088C62.8309 43.9708 63.0233 44.4055 63.3273 44.7579C63.6313 45.1103 64.0332 45.3643 64.4819 45.4877C64.9306 45.6111 65.4059 45.5984 65.8473 45.451C66.2888 45.3037 66.6764 45.0285 66.9611 44.6603C67.2457 44.2921 67.4145 43.8476 67.4459 43.3833C67.4774 42.919 67.37 42.4558 67.1376 42.0526C66.9052 41.6494 66.5581 41.3245 66.1406 41.119C65.723 40.9135 65.2538 40.8368 64.7925 40.8986C64.4882 40.9365 64.1944 41.0342 63.928 41.1861C63.6616 41.338 63.4279 41.5411 63.2404 41.7838C63.0528 42.0264 62.9151 42.3037 62.8351 42.5997C62.7552 42.8958 62.7346 43.2047 62.7746 43.5088Z" fill="#481816"/>
<path d="M63.7396 43.399C63.7726 43.6712 63.8858 43.9275 64.0649 44.1351C64.244 44.3428 64.4808 44.4925 64.7452 44.5651C65.0096 44.6378 65.2897 44.6302 65.5497 44.5432C65.8098 44.4562 66.0381 44.2939 66.2056 44.0767C66.373 43.8596 66.4722 43.5976 66.4903 43.324C66.5084 43.0504 66.4447 42.7775 66.3073 42.5402C66.1699 42.3029 65.965 42.1119 65.7187 41.9914C65.4723 41.8709 65.1957 41.8264 64.9241 41.8636C64.7449 41.8852 64.5718 41.9423 64.4148 42.0315C64.2579 42.1206 64.1203 42.2402 64.0101 42.3831C63.8998 42.526 63.8191 42.6894 63.7727 42.8639C63.7263 43.0383 63.715 43.2202 63.7396 43.399V43.399Z" fill="#311615"/>
<path d="M59.1992 45.8117C59.1992 45.8117 61.7875 41.0739 65.1215 40.3281C65.2525 40.0271 65.3201 39.7023 65.3201 39.374C65.3201 39.0457 65.2525 38.7209 65.1215 38.4198C65.3764 38.6396 65.5736 38.9184 65.696 39.2319C65.8183 39.5454 65.8621 39.8841 65.8234 40.2185H66.7008C66.9069 39.9636 67.0533 39.6659 67.1292 39.347C67.2051 39.0282 67.2086 38.6964 67.1394 38.376C67.3544 38.6515 67.5003 38.9744 67.5652 39.3178C67.63 39.6612 67.6119 40.0151 67.5123 40.3501C67.8627 40.4189 68.2073 40.5142 68.5432 40.6352C68.6631 40.5021 68.7663 40.3547 68.8503 40.1965C69.0025 39.8368 69.0482 39.4409 68.9819 39.0559C69.18 39.4333 69.2638 39.8601 69.2232 40.2843C69.2108 40.4874 69.1664 40.6872 69.0916 40.8765L69.947 41.3152C70.2473 41.1391 70.5015 40.8942 70.6883 40.6005C70.8752 40.3068 70.9895 39.9728 71.0218 39.6262C71.1806 40.0882 71.1806 40.59 71.0218 41.052C70.9335 41.2945 70.7995 41.5179 70.627 41.71C71.1307 42.0421 71.6672 42.3215 72.2282 42.5435C70.8726 43.5996 69.4007 44.4974 67.8413 45.2195C68.3413 44.8817 68.7546 44.4308 69.0477 43.9034C69.5083 43.048 69.7277 42.719 69.7277 42.719C69.225 42.15 68.5896 41.7141 67.8778 41.4501C67.166 41.1861 66.4 41.102 65.6479 41.2055C63.531 42.0303 61.6961 43.4465 60.3617 45.2853L61.5023 45.6582L59.1992 45.8117Z" fill="#481816"/>
<path d="M58.9361 40.1307C59.0686 40.2871 59.2552 40.3875 59.4586 40.4119C59.6621 40.4363 59.8672 40.3829 60.0328 40.2623C62.3481 38.495 64.923 37.0965 67.666 36.1168C69.8995 36.009 72.133 36.3291 74.2463 37.0599C74.2463 37.0599 68.9382 34.691 66.3719 35.1078C63.7698 35.9931 61.3262 37.289 59.1335 38.9463C59.0084 39.0279 58.909 39.1434 58.8469 39.2793C58.7847 39.4152 58.7625 39.5659 58.7826 39.714C58.8067 39.8691 58.8753 40.0138 58.98 40.1307H58.9361Z" fill="#481816"/>
<path d="M49.7237 40.3063C49.5943 40.466 49.4092 40.5707 49.2056 40.5992C49.002 40.6277 48.7952 40.5779 48.627 40.4599C46.2739 38.7401 43.6697 37.3936 40.9061 36.4678C38.6627 36.4093 36.4289 36.7816 34.3258 37.5645C34.3258 37.5645 39.59 35.064 42.1564 35.3711C44.7799 36.2094 47.253 37.4608 49.4824 39.078C49.6062 39.1569 49.7063 39.268 49.772 39.3993C49.8376 39.5307 49.8664 39.6774 49.8553 39.8238C49.8352 39.9801 49.7661 40.1259 49.6579 40.2405L49.7237 40.3063Z" fill="#481816"/>
<path opacity="0.44" d="M79.0059 49.4746C78.5613 50.6172 77.8252 51.6234 76.8708 52.3931C75.9164 53.1628 74.7771 53.669 73.5662 53.8614C70.1664 54.2124 70.1883 49.4746 70.3199 47.1715C70.4102 45.5275 70.6228 43.8925 70.956 42.2801C71.4166 40.0867 71.7676 36.7746 74.7726 37.0817C75.504 37.2028 76.1975 37.4915 76.7988 37.9253C77.4 38.3591 77.8927 38.9262 78.2382 39.5822C78.9156 40.9519 79.311 42.4437 79.4007 43.9691C79.6971 45.8101 79.562 47.6947 79.0059 49.4746Z" fill="#F47D70"/>
<path opacity="0.44" d="M27.219 49.4746C27.6598 50.6196 28.3948 51.6282 29.3499 52.3984C30.3049 53.1686 31.4463 53.6733 32.6587 53.8614C36.0366 54.2124 36.0147 49.4746 35.905 47.1715C35.8074 45.5269 35.5874 43.892 35.247 42.2801C34.8083 40.0867 34.4573 36.7746 31.4304 37.0817C30.699 37.2028 30.0055 37.4915 29.4042 37.9253C28.803 38.3591 28.3103 38.9262 27.9648 39.5822C27.2944 40.9532 26.9065 42.4451 26.8242 43.9691C26.517 45.8096 26.6524 47.6967 27.219 49.4746V49.4746Z" fill="#F47D70"/>
<path d="M57.0497 52.4797C55.931 52.6771 55.2291 53.5983 54.1763 53.9054C53.1235 54.2125 51.5661 53.2035 50.4694 52.6552C50.3623 52.6062 50.2414 52.5964 50.1277 52.6272C50.0141 52.658 49.9148 52.7277 49.8471 52.824C49.7794 52.9204 49.7475 53.0374 49.757 53.1548C49.7665 53.2722 49.8168 53.3825 49.8991 53.4667C50.8862 54.366 52.0925 55.6602 53.5402 55.4408C54.971 54.9686 56.2969 54.2237 57.4445 53.2474C57.9271 53.028 57.5542 52.3919 57.0497 52.4797Z" fill="#F47D70"/>
<path d="M56.4136 61.1001C55.4485 61.3544 54.4461 61.4361 53.4525 61.3414C52.7226 61.4008 51.989 61.4008 51.2591 61.3414C49.2264 60.893 47.2934 60.0752 45.5562 58.9286C47.7496 62.8987 49.285 66.3205 53.4744 66.1888C57.6639 66.0572 60.0547 62.811 61.6998 59.455C60.0374 60.2835 58.2526 60.8389 56.4136 61.1001Z" fill="#D64229"/>
<path d="M47.7715 60.3981C49.2994 61.9089 51.3287 62.8064 53.4744 62.9205C55.7273 62.7657 57.8683 61.8801 59.5721 60.3981C59.5721 60.3981 51.281 62.6134 47.7715 60.3981Z" fill="white"/>
<path d="M57.028 58.2925C55.7738 58.505 54.6081 59.0764 53.672 59.9376C53.8256 59.8059 52.2682 58.6215 52.0708 58.5557C50.5826 58.1589 49.0102 58.2123 47.5523 58.7092C47.1575 58.7092 45.4686 59.1479 45.1615 58.8408C45.3636 59.0381 45.602 59.1945 45.8634 59.3015C48.6922 60.9153 51.9077 61.7268 55.1635 61.6484C57.477 61.3447 59.7108 60.6001 61.7438 59.455C60.2282 58.8671 58.6432 58.4763 57.028 58.2925V58.2925Z" fill="#D64229"/>
<path d="M62.3797 59.2356C56.4355 60.4859 50.7984 62.1968 45.2271 58.5995C45.0077 58.446 44.7664 58.775 44.9639 58.9286C49.8552 63.0303 57.1813 62.5477 62.5113 59.4769C62.5272 59.4683 62.5411 59.4566 62.5525 59.4426C62.5638 59.4285 62.5722 59.4124 62.5773 59.3951C62.5824 59.3777 62.5841 59.3596 62.5821 59.3416C62.5802 59.3237 62.5748 59.3063 62.5661 59.2905C62.5575 59.2746 62.5458 59.2606 62.5318 59.2493C62.5177 59.238 62.5016 59.2295 62.4843 59.2244C62.4493 59.2142 62.4117 59.2182 62.3797 59.2356Z" fill="#C33427"/>
<path d="M52.2244 63.8417C51.9074 63.7149 51.5629 63.6725 51.2246 63.7187C50.8863 63.7648 50.5657 63.8979 50.2942 64.1049C50.2348 64.1522 50.1868 64.2122 50.1539 64.2806C50.1209 64.349 50.1038 64.4239 50.1038 64.4998C50.1038 64.5757 50.1209 64.6506 50.1539 64.7189C50.1868 64.7873 50.2348 64.8473 50.2942 64.8946C50.5629 65.1143 50.8831 65.2619 51.2247 65.3233C51.5664 65.3847 51.918 65.3579 52.2464 65.2455C52.3814 65.1832 52.4954 65.0831 52.5745 64.9572C52.6537 64.8313 52.6946 64.6852 52.6922 64.5365C52.6899 64.3878 52.6445 64.243 52.5614 64.1197C52.4784 63.9964 52.3613 63.8998 52.2244 63.8417V63.8417Z" fill="#F0624A"/>
<path d="M88.7886 55.1338C87.8454 50.9004 87.5164 46.5574 86.7268 42.3022C84.9144 32.0379 81.2978 22.1759 76.0447 13.1734C74.5512 10.1434 72.531 7.40287 70.0786 5.07965C68.9813 4.12889 67.6605 3.47228 66.2401 3.17136C65.5285 3.02852 64.7932 3.05748 64.0951 3.25585C63.3969 3.45422 62.7562 3.81628 62.2261 4.31195C61.8704 3.04846 61.1034 1.93967 60.0467 1.16102C58.99 0.382374 57.7038 -0.0216686 56.3916 0.0128228C51.1054 -0.20652 45.5341 2.4256 41.1253 5.03578C35.6637 8.28206 30.1581 12.8225 27.548 18.5254C26.6809 20.6506 26.0198 22.8541 25.5739 25.1057C22.5908 37.674 20.6825 50.4617 18.7084 63.2275C18.0285 67.6144 17.3924 72.3083 19.3445 76.3881C20.2856 78.2397 21.6449 79.8468 23.3146 81.082C23.3146 79.086 23.4243 77.09 23.5778 75.1159C23.6563 77.4452 24.0097 79.757 24.6307 82.0033C25.77 82.7155 26.9745 83.3178 28.2279 83.8019C29.4499 84.2639 30.7033 84.6377 31.9787 84.9206C30.6101 81.2536 30.1803 77.3025 30.7284 73.427C31.3429 77.5648 32.5546 81.5915 34.3257 85.3812C36.2339 85.6883 38.1642 85.8857 40.0944 86.0611C35.3213 77.0056 32.6592 66.9873 32.3077 56.7569C31.9787 48.542 32.2867 40.3139 33.2289 32.1466C37.5918 27.9857 42.5436 24.4899 47.9249 21.7717C45.515 24.51 42.7313 26.8951 39.6557 28.8564C38.6348 29.5834 37.4902 30.1185 36.2778 30.4357C40.3678 31.491 44.6885 31.2065 48.6049 29.6241C52.4295 28.0709 55.8229 25.618 58.4973 22.4736C59.8283 20.9346 60.822 19.1339 61.4145 17.1874C63.9375 18.7509 66.29 20.574 68.4335 22.6271C71.1559 25.571 73.1867 29.0855 74.3777 32.9143C76.2227 38.851 76.6804 45.1319 75.7157 51.2733C75.2551 54.7828 74.4655 58.2484 73.6978 61.7141C73.2152 63.7978 72.7327 65.8816 72.272 67.9653C71.1657 73.8754 69.3618 79.6332 66.8981 85.118C70.6567 85.2613 74.419 84.9594 78.1066 84.2187C80.8515 80.2959 82.4813 75.7021 82.8224 70.9265C83.0191 75.0495 82.5375 79.1769 81.3967 83.1439L82.296 82.7271C83.5551 82.1119 84.7523 81.3774 85.8713 80.5337C86.803 78.1224 87.4579 75.6131 87.8235 73.0541C87.7138 75.094 87.5822 77.1558 87.3848 79.1738C89.4862 77.2026 91.004 74.6906 91.7716 71.9135C93.1754 66.057 90.0388 60.5735 88.7886 55.1338Z" fill="#9C4622"/>
<path d="M88.7886 55.1338C87.8454 50.9004 87.5164 46.5574 86.7268 42.3022C84.9144 32.0379 81.2978 22.1759 76.0447 13.1734C74.5512 10.1434 72.531 7.40287 70.0786 5.07965C68.9813 4.12889 67.6605 3.47228 66.2401 3.17136C65.5285 3.02852 64.7932 3.05748 64.0951 3.25585C63.3969 3.45422 62.7562 3.81628 62.2261 4.31195C61.8704 3.04846 61.1034 1.93967 60.0467 1.16102C58.99 0.382374 57.7038 -0.0216686 56.3916 0.0128228C51.1054 -0.20652 45.5341 2.4256 41.1253 5.03578C35.6637 8.28206 30.1581 12.8225 27.548 18.5254C26.6809 20.6506 26.0198 22.8541 25.5739 25.1057C22.5908 37.674 20.6825 50.4617 18.7084 63.2275C18.0285 67.6144 17.3924 72.3083 19.3445 76.3881C20.2856 78.2397 21.6449 79.8468 23.3146 81.082C23.3146 79.086 23.4243 77.09 23.5778 75.1159C23.6563 77.4452 24.0097 79.757 24.6307 82.0033C25.77 82.7155 26.9745 83.3178 28.2279 83.8019C29.4499 84.2639 30.7033 84.6377 31.9787 84.9206C30.6101 81.2536 30.1803 77.3025 30.7284 73.427C31.3429 77.5648 32.5546 81.5915 34.3257 85.3812C36.2339 85.6883 38.1642 85.8857 40.0944 86.0611C35.0934 77.0681 34.9618 67.7679 34.3695 57.5465C33.9089 49.3431 32.4174 40.2404 33.2289 32.0589C37.5918 27.898 42.5436 24.4022 47.9249 21.6839C45.515 24.4223 42.7313 26.8073 39.6557 28.7687C38.6348 29.4957 37.4902 30.0308 36.2778 30.348C40.3678 31.4032 44.6885 31.1188 48.6049 29.5364C52.4295 27.9832 55.8229 25.5303 58.4973 22.3858C59.8177 20.8727 60.8109 19.1028 61.4145 17.1874C63.9375 18.7509 66.29 20.574 68.4335 22.6271C71.1559 25.571 73.1867 29.0855 74.3777 32.9143C76.3957 38.8585 75.1235 45.0878 74.3777 51.2733C73.9171 54.7828 73.632 58.2484 72.8423 61.7141C72.3817 63.7978 71.4824 66.3203 71.0218 68.404C69.6838 74.2605 69.618 79.7002 66.9201 85.118C70.6786 85.2613 74.4409 84.9594 78.1285 84.2187C80.8734 80.2959 82.5032 75.7021 82.8444 70.9265C83.0411 75.0495 82.5594 79.1769 81.4186 83.1439L82.3179 82.7271C83.577 82.1119 84.7743 81.3774 85.8932 80.5337C86.8249 78.1224 87.4799 75.6131 87.8454 73.0541C87.7357 75.094 87.6041 77.1558 87.4067 79.1738C89.5082 77.2026 91.026 74.6906 91.7936 71.9135C93.1754 66.057 90.0388 60.5735 88.7886 55.1338Z" fill="#704B45"/>
</svg>
