<svg width="416" height="551" viewBox="0 0 416 551" fill="none" xmlns="http://www.w3.org/2000/svg">
<path d="M177.295 332.261C66.8948 276.261 13.9615 355.594 1.29485 402.261C-10.7051 508.261 60.2948 537.261 231.295 549.261C402.295 561.261 449.295 426.261 393.295 388.261C337.295 350.261 315.295 402.261 177.295 332.261Z" fill="#F1F1F1"/>
<path d="M250.669 76.0859C250.669 76.0859 255.584 80.339 266.429 80.8116C274.828 81.2773 283.252 80.9688 291.594 79.89C296.212 80.1574 300.838 79.5069 305.204 77.9761C310.591 75.6133 310.851 74.1483 310.851 74.1483C312.792 68.3969 313.351 62.2691 312.481 56.2615C309.882 36.6263 300.478 7.75224 287.506 7.09065C267.682 6.16913 257.309 17.4872 255.159 29.2778C253.008 41.0684 248.944 63.2792 248.944 67.745C248.93 70.6153 249.518 73.4567 250.669 76.0859Z" fill="#573B3D"/>
<path d="M309.953 83.198C308.134 82.2056 288.688 76.6529 288.688 76.6529C286.553 73.4947 285.493 69.7334 285.663 65.9256L278.575 62.6648H278.433L271.344 65.9256C271.344 65.9256 271.344 74.9044 268.556 78.1179C268.556 78.1179 262.649 79.8191 256.907 81.5676V93.1692C256.907 93.1692 276.023 106.141 281.623 106.118C285.876 106.118 311.607 87.2148 311.607 87.2148C311.235 85.809 310.679 84.4584 309.953 83.198Z" fill="#D17558"/>
<path d="M304.046 80.9769C303.196 82.2292 287.365 105.338 281.41 105.385H280.678C274.723 105.385 258.892 82.2292 258.042 80.9769C249.913 83.6469 238.241 85.4191 231.2 90.9245C232.368 93.283 233.363 95.7231 234.177 98.2257C237.225 107.441 241.265 116.183 243.345 125.753C247.042 144.621 249.466 163.717 250.599 182.91H250.906C260.56 186.403 270.796 188.007 281.056 187.636C291.315 188.002 301.55 186.397 311.206 182.91H311.489C312.63 163.716 315.062 144.621 318.767 125.753C320.893 116.302 324.887 107.441 327.935 98.2257C328.751 95.7273 329.738 93.2878 330.888 90.9245C323.871 85.4191 312.198 83.6469 304.046 80.9769Z" fill="#E95F69"/>
<path d="M273.329 120.507C273.329 120.909 273.448 121.302 273.671 121.636C273.895 121.971 274.212 122.231 274.583 122.385C274.955 122.539 275.363 122.579 275.757 122.5C276.152 122.422 276.514 122.228 276.798 121.944C277.082 121.66 277.276 121.298 277.354 120.904C277.432 120.51 277.392 120.101 277.238 119.73C277.085 119.358 276.824 119.041 276.49 118.818C276.156 118.595 275.763 118.475 275.361 118.475C275.093 118.472 274.828 118.523 274.58 118.624C274.332 118.725 274.106 118.874 273.917 119.063C273.728 119.253 273.578 119.478 273.477 119.726C273.376 119.974 273.326 120.24 273.329 120.507Z" fill="#C2424E"/>
<path d="M273.329 133.881C273.329 134.283 273.448 134.676 273.671 135.01C273.895 135.344 274.212 135.605 274.583 135.759C274.955 135.912 275.363 135.953 275.757 135.874C276.152 135.796 276.514 135.602 276.798 135.318C277.082 135.034 277.276 134.672 277.354 134.278C277.432 133.883 277.392 133.475 277.238 133.103C277.085 132.732 276.824 132.415 276.49 132.192C276.156 131.968 275.763 131.849 275.361 131.849C275.093 131.846 274.828 131.896 274.58 131.997C274.332 132.098 274.106 132.248 273.917 132.437C273.728 132.627 273.578 132.852 273.477 133.1C273.376 133.348 273.326 133.613 273.329 133.881Z" fill="#C2424E"/>
<path d="M273.329 147.302C273.329 147.704 273.448 148.097 273.671 148.431C273.895 148.765 274.212 149.026 274.583 149.18C274.955 149.333 275.363 149.374 275.757 149.295C276.152 149.217 276.514 149.023 276.798 148.739C277.082 148.455 277.276 148.093 277.354 147.699C277.432 147.304 277.392 146.896 277.238 146.524C277.084 146.153 276.824 145.836 276.49 145.613C276.156 145.389 275.763 145.27 275.361 145.27C274.822 145.27 274.305 145.484 273.924 145.865C273.543 146.246 273.329 146.763 273.329 147.302Z" fill="#C2424E"/>
<path d="M273.329 160.676C273.329 161.078 273.448 161.471 273.671 161.805C273.895 162.139 274.212 162.399 274.583 162.553C274.955 162.707 275.363 162.747 275.757 162.669C276.152 162.59 276.514 162.397 276.798 162.113C277.082 161.829 277.276 161.466 277.354 161.072C277.432 160.678 277.392 160.27 277.238 159.898C277.084 159.527 276.824 159.21 276.49 158.986C276.156 158.763 275.763 158.644 275.361 158.644C274.822 158.644 274.305 158.858 273.924 159.239C273.543 159.62 273.329 160.137 273.329 160.676Z" fill="#C2424E"/>
<path d="M281.056 109.024C281.056 109.024 279.071 152.051 281.269 179.909C281.269 180.004 282.025 119.326 281.056 109.024Z" fill="#CA3549"/>
<g style="mix-blend-mode:multiply" opacity="0.65">
<path d="M320.161 118.334C314.443 122.87 311.088 134.141 308.016 140.592C306.384 144.726 303.909 148.474 300.748 151.599C297.587 154.723 293.81 157.155 289.657 158.738C287.322 159.809 284.764 160.304 282.198 160.18C279.633 160.057 277.134 159.319 274.913 158.029C266.926 158.313 262.13 155.312 256.861 147.822C251.614 139.941 247.472 131.379 244.55 122.374C241.885 114.772 238.622 107.392 234.792 100.305C238.102 108.617 240.926 117.114 243.251 125.753C246.98 144.619 249.435 163.715 250.599 182.91H250.906C260.561 186.403 270.796 188.007 281.056 187.636C291.316 188.002 301.55 186.397 311.206 182.91H311.49C312.631 163.716 315.062 144.621 318.767 125.753C319.371 123.039 320.112 120.358 320.988 117.719L320.161 118.334Z" fill="#D0B7B6"/>
</g>
<path d="M243.534 312.465C242.823 317.167 241.463 321.747 239.493 326.075C237.131 330.801 234.035 336.306 233.185 341.245C231.271 352.374 232.027 403.506 230.822 407.405C229.617 411.303 226.214 431.246 227.372 436.231C228.53 441.217 243.723 444.95 244.101 441.099C244.479 437.247 240.698 408.562 240.817 405.491C241.667 386.73 258.113 353.508 257.735 344.387C257.357 335.267 269.549 315.49 269.549 315.49C269.549 315.49 252.749 307.007 243.534 312.465Z" fill="#D17558"/>
<g style="mix-blend-mode:multiply" opacity="0.32">
<path d="M248.944 331.699C253.007 332.622 257.235 332.533 261.255 331.439C263.715 325.948 266.525 320.621 269.667 315.49C269.667 315.49 252.725 307.007 243.51 312.465C242.806 317.166 241.455 321.746 239.493 326.075L239.115 326.831C242.115 328.962 245.432 330.604 248.944 331.699Z" fill="#DAAB89"/>
</g>
<path d="M288.924 315.49C288.924 315.49 293.933 333.235 293.154 336.755C292.374 340.276 289.491 349.822 293.154 369.835C296.816 389.849 298.068 399.82 296.911 406.341C295.753 412.863 292.185 442.304 299.982 444.501C305.157 445.99 308.347 443.556 308.488 431.931C308.793 425.097 308.341 418.251 307.142 411.516C306.571 408.685 306.459 405.781 306.811 402.915C307.378 397.599 308.488 388.738 310.308 379.287C313.214 364.33 317.869 348.286 316.12 336.306C312.671 312.489 313.049 308.638 313.049 308.638C313.049 308.638 301.613 302.612 288.924 315.49Z" fill="#D17558"/>
<g style="mix-blend-mode:multiply" opacity="0.32">
<path d="M315.105 327.871C312.931 311.544 313.214 308.638 313.214 308.638C313.214 308.638 301.684 302.612 288.995 315.49C288.995 315.49 291.358 324.232 292.658 330.636C300.479 331.652 308.89 331.912 315.105 327.871Z" fill="#DAAB89"/>
</g>
<path d="M229.428 414.233C229.428 414.233 229.971 435.641 235.5 436.137C245.59 437.058 241.289 412.036 241.289 412.036C241.289 412.036 246.015 439.09 246.157 444.974C246.157 447.644 241.006 454 237.816 454C234.626 454 228.695 447.951 227.183 442.776C225.671 437.602 227.986 421.062 229.428 414.233Z" fill="#333333"/>
<path d="M307.662 414.233C307.662 414.233 307.166 436.019 301.613 436.137C292.965 436.35 296.202 412.036 296.202 412.036C296.202 412.036 291.075 439.09 290.957 444.974C290.957 447.006 296.108 454 299.297 454C302.487 454 308.418 447.951 309.907 442.776C311.395 437.602 309.127 421.062 307.662 414.233Z" fill="#333333"/>
<path d="M251.308 180.004C251.308 180.004 230.042 216.061 236.114 251.315C242.849 290.136 231.105 306.96 225.907 315.49C225.907 315.49 259.719 339.378 321.98 322.082C318.761 309.151 317.849 295.753 319.287 282.504C321.98 262.515 330.51 221.259 311.678 180.004C311.678 180.004 272.408 190.897 251.308 180.004Z" fill="#333333"/>
<path d="M330.888 90.9245C330.888 90.9245 326.706 94.1853 320.539 108.41C317.68 115.026 314.584 125.233 315.104 132.487C315.553 138.04 316.9 152.642 316.144 154.603C314.915 157.746 262.153 159.683 262.153 159.683L264.87 182.603C264.87 182.603 326.115 184.115 335.755 176.365C341.332 171.876 338.898 98.7456 330.888 90.9245Z" fill="#E95F69"/>
<g style="mix-blend-mode:multiply" opacity="0.65">
<path d="M288.026 174.498C293.508 172.75 298.801 170.387 304.212 168.473C304.197 167.693 304.419 166.927 304.849 166.276C305.393 165.591 312.222 164.716 313.261 163.369C314.073 162.534 314.588 161.455 314.726 160.298C314.887 159.179 314.831 158.04 314.561 156.943C314.515 157.424 314.42 157.899 314.277 158.36C313.214 161.101 277.417 162.944 262.673 163.606L264.634 180.146C272.573 178.421 280.323 176.932 288.026 174.498Z" fill="#D0B7B6"/>
</g>
<path d="M307.591 163.039C310.379 162.164 313.616 161.243 314.679 158.833C315.053 156.485 315.053 154.092 314.679 151.744C313.138 151.151 311.56 150.662 309.954 150.279C306.338 149.665 297.052 156.281 297.052 156.281C296.91 158.791 297.296 161.302 298.187 163.653C298.376 164.244 302.629 163.842 303.219 163.818C304.704 163.748 306.173 163.486 307.591 163.039Z" fill="#D17558"/>
<g style="mix-blend-mode:multiply" opacity="0.35">
<path d="M314.703 151.768C314.185 151.559 313.656 151.378 313.12 151.224C313.592 155.808 313.616 160.18 307.638 161.385C305.464 161.834 299.817 161.999 297.69 162.259C297.832 162.732 297.95 163.204 298.115 163.677C298.281 164.149 302.558 163.866 303.148 163.842C304.658 163.77 306.151 163.5 307.591 163.039C310.379 162.164 313.616 161.243 314.679 158.833C315.058 156.494 315.066 154.11 314.703 151.768Z" fill="#D39380"/>
</g>
<path d="M231.2 90.9245C231.2 90.9245 227.679 95.0595 222.788 121.098C219.787 137.425 215.983 166.134 219.882 174.38C228.033 191.582 300.03 166.016 300.03 166.016L297.667 153.965C297.667 153.965 239.021 160.132 239.021 156.824C239.021 155.312 241.006 149.24 241.714 145.979C242.919 140.568 245.282 134.023 244.077 128.565C241.714 116.987 234.39 90.9245 231.2 90.9245Z" fill="#E95F69"/>
<g style="mix-blend-mode:multiply" opacity="0.65">
<path d="M233.799 136.693C236.918 133.149 240.25 137.449 240.888 138.182C240.833 140.977 240.517 143.762 239.942 146.499C239.322 149.861 238.959 153.265 238.856 156.683C237.934 155.95 226.214 145.294 233.799 136.693Z" fill="#D0B7B6"/>
</g>
<path d="M235.145 145.057C233.586 144.727 232.782 145.766 233.515 147.42C233.869 148.295 237.437 152.382 241.265 157.793C245.184 158.339 249.16 158.339 253.079 157.793C251.827 151.224 242.376 139.41 239.871 137.993C237.366 136.575 236.823 138.607 236.823 138.607C233.42 137.638 234.46 140.592 234.46 140.592C231.79 141.773 235.145 145.057 235.145 145.057Z" fill="#D17558"/>
<g style="mix-blend-mode:multiply" opacity="0.65">
<path d="M235.074 145.034C235.074 145.034 240.745 151.295 241.431 152.595C241.738 153.186 241.95 152.926 241.265 151.886C239.4 149.43 237.329 147.137 235.074 145.034Z" fill="#D17558"/>
</g>
<g style="mix-blend-mode:multiply" opacity="0.65">
<path d="M234.389 140.592C237.672 143.449 240.613 146.676 243.156 150.208C243.51 150.823 243.817 150.634 242.943 149.263C240.546 145.958 237.662 143.034 234.389 140.592Z" fill="#D17558"/>
</g>
<g style="mix-blend-mode:multiply" opacity="0.65">
<path d="M236.8 138.583C239.981 141.734 242.86 145.175 245.4 148.862C245.755 149.476 246.062 149.287 245.188 147.916C242.799 144.462 239.981 141.325 236.8 138.583Z" fill="#D17558"/>
</g>
<g style="mix-blend-mode:multiply" opacity="0.35">
<path d="M252.441 155.312C251.298 155.631 250.127 155.844 248.944 155.95C243.179 156.966 237.768 152.619 237.272 152.406C238.453 153.942 239.8 155.737 241.194 157.699C245.113 158.245 249.089 158.245 253.009 157.699C252.892 156.888 252.702 156.089 252.441 155.312Z" fill="#D17558"/>
</g>
<path d="M270.659 70.8876C273.967 73.1323 279.567 76.5112 282.473 75.9441C284.169 75.7811 285.824 75.3254 287.365 74.5973C286.374 71.5351 285.778 68.3589 285.592 65.1459L278.504 61.8851H278.362L271.274 65.1459C271.206 67.072 271.001 68.9908 270.659 70.8876Z" fill="#C66A42"/>
<path d="M282.379 67.7922C281.41 68.484 280.26 68.8782 279.071 68.9264C277.724 68.9761 276.397 68.5864 275.29 67.8159C275.29 67.8159 260.759 60.9163 259.105 44.6363V28.3563C259.216 23.2464 261.348 18.3889 265.032 14.8463C268.716 11.3038 273.653 9.36479 278.764 9.45348C282.261 9.42909 285.702 10.3326 288.736 12.0718C291.771 13.811 294.29 16.3237 296.036 19.3538C297.587 22.1092 298.401 25.2181 298.399 28.3799V44.6363C297.737 61.2471 282.379 67.7922 282.379 67.7922Z" fill="#D17558"/>
<path d="M267.257 42.5334C268.387 42.9924 269.607 43.1864 270.824 43.1005C271.588 43.0591 272.343 42.9161 273.069 42.6751L274.77 42.4389C274.77 42.4389 271.297 38.0912 268.816 38.233C267.232 38.3625 265.731 39.0007 264.539 40.0524C264.941 40.3283 265.3 40.6628 265.603 41.0448C265.967 41.7159 266.551 42.2414 267.257 42.5334Z" fill="white"/>
<path d="M271.746 40.714C271.698 41.1289 271.529 41.5206 271.26 41.8401C270.991 42.1596 270.634 42.3928 270.233 42.5106C269.833 42.6285 269.406 42.6257 269.007 42.5027C268.608 42.3797 268.254 42.1419 267.989 41.8189C267.724 41.4959 267.56 41.1021 267.518 40.6866C267.475 40.2711 267.556 39.8523 267.75 39.4825C267.944 39.1126 268.243 38.8081 268.609 38.6069C268.975 38.4057 269.392 38.3168 269.808 38.3511C270.094 38.3713 270.372 38.4496 270.626 38.581C270.88 38.7124 271.105 38.8942 271.286 39.1154C271.467 39.3366 271.602 39.5924 271.681 39.8673C271.76 40.1421 271.782 40.4302 271.746 40.714Z" fill="#481816"/>
<path d="M270.871 40.6431C270.836 40.9733 270.672 41.2766 270.416 41.4884C270.161 41.7002 269.832 41.8038 269.501 41.7772C269.255 41.7529 269.022 41.6564 268.83 41.4997C268.639 41.343 268.499 41.1332 268.426 40.8968C268.354 40.6604 268.354 40.4079 268.425 40.1711C268.496 39.9343 268.635 39.7238 268.826 39.5662C269.016 39.4086 269.249 39.3109 269.495 39.2854C269.741 39.2599 269.989 39.3077 270.207 39.4228C270.426 39.538 270.606 39.7153 270.724 39.9325C270.842 40.1496 270.894 40.3969 270.871 40.6431Z" fill="#311615"/>
<path d="M275.125 42.6751C275.125 42.6751 272.573 38.4693 269.502 37.8077C269.36 37.5409 269.277 37.2473 269.256 36.946C269.236 36.6447 269.279 36.3426 269.383 36.0592C269.156 36.2701 268.984 36.533 268.881 36.8252C268.778 37.1174 268.748 37.4302 268.793 37.7368C268.533 37.7128 268.272 37.7128 268.013 37.7368C267.81 37.5118 267.661 37.2444 267.575 36.9541C267.489 36.6639 267.469 36.3581 267.517 36.0592C267.337 36.3222 267.22 36.6231 267.175 36.9386C267.13 37.2541 267.158 37.5757 267.257 37.8786L266.335 38.1857C266.215 38.0756 266.111 37.9482 266.028 37.8077C265.862 37.4794 265.812 37.1047 265.886 36.7444C265.7 37.0916 265.626 37.4876 265.674 37.8786C265.704 38.0664 265.759 38.2493 265.839 38.422L265.083 38.871C264.798 38.7225 264.552 38.5076 264.367 38.2444C264.182 37.9813 264.063 37.6775 264.02 37.3587C263.877 37.7802 263.877 38.2368 264.02 38.6583C264.112 38.8808 264.248 39.0819 264.421 39.249C264.015 39.5929 263.581 39.9012 263.122 40.1705C264.433 41.1099 265.843 41.9023 267.328 42.5334C266.858 42.2417 266.462 41.8455 266.17 41.3756C265.975 40.9559 265.745 40.5529 265.485 40.1705C265.924 39.6281 266.49 39.2021 267.133 38.9301C267.776 38.6581 268.476 38.5486 269.171 38.611C271.143 39.2928 272.881 40.5221 274.18 42.1553L273.14 42.5334L275.125 42.6751Z" fill="#481816"/>
<path d="M292.421 42.5334C291.276 43.0409 290.034 43.291 288.782 43.2659C287.984 43.2494 287.191 43.1384 286.419 42.9351L284.671 42.7697C284.671 42.7697 288.05 38.1621 290.602 38.1857C292.218 38.2701 293.765 38.8658 295.02 39.887C294.626 40.1916 294.276 40.5495 293.981 40.9503C293.656 41.6398 293.106 42.1981 292.421 42.5334Z" fill="white"/>
<path d="M287.743 40.8557C287.78 41.2936 287.948 41.7103 288.224 42.052C288.5 42.3937 288.873 42.6446 289.293 42.7724C289.714 42.9002 290.163 42.8989 290.583 42.7688C291.003 42.6387 291.374 42.3858 291.648 42.0426C291.923 41.6994 292.088 41.2818 292.123 40.8437C292.158 40.4056 292.06 39.9672 291.843 39.585C291.626 39.2028 291.3 38.8945 290.906 38.6998C290.512 38.5051 290.068 38.433 289.633 38.4929C289.073 38.564 288.562 38.8504 288.209 39.2914C287.856 39.7325 287.689 40.2935 287.743 40.8557Z" fill="#481816"/>
<path d="M288.641 40.7376C288.661 40.9057 288.715 41.0681 288.798 41.2153C288.882 41.3625 288.994 41.4916 289.129 41.5949C289.263 41.6983 289.416 41.7739 289.58 41.8174C289.744 41.8609 289.914 41.8713 290.082 41.8481C290.416 41.7955 290.718 41.6167 290.924 41.3486C291.131 41.0805 291.227 40.7435 291.193 40.4068C291.145 40.0699 290.968 39.7648 290.699 39.5572C290.429 39.3496 290.089 39.2559 289.751 39.2963C289.583 39.3166 289.421 39.3702 289.273 39.454C289.126 39.5378 288.997 39.65 288.894 39.7842C288.791 39.9184 288.715 40.0717 288.671 40.2354C288.628 40.3991 288.617 40.5698 288.641 40.7376Z" fill="#311615"/>
<path d="M284.388 43.0059C284.388 43.0059 286.751 38.5638 289.94 37.8549C290.177 37.2797 290.177 36.6344 289.94 36.0592C290.177 36.2703 290.361 36.5346 290.476 36.8303C290.591 37.126 290.634 37.4447 290.602 37.7604H291.476C291.668 37.5162 291.805 37.2338 291.878 36.9322C291.952 36.6306 291.96 36.3168 291.902 36.0119C292.097 36.2763 292.229 36.5824 292.286 36.9063C292.344 37.2302 292.325 37.563 292.232 37.8786C292.563 37.9447 292.887 38.0395 293.201 38.1621C293.322 38.0397 293.418 37.8954 293.485 37.7368C293.654 37.4006 293.696 37.0146 293.603 36.6499C293.786 37.007 293.868 37.4074 293.839 37.8077C293.814 38.0016 293.767 38.192 293.697 38.3747C293.977 38.4929 294.246 38.6352 294.501 38.8001C294.782 38.628 295.02 38.3937 295.196 38.1151C295.372 37.8365 295.482 37.5211 295.517 37.1933C295.67 37.6292 295.67 38.1043 295.517 38.5401C295.437 38.7699 295.308 38.9795 295.139 39.1545C295.607 39.4643 296.106 39.7255 296.627 39.9342C295.329 40.9584 293.918 41.8305 292.421 42.5334C292.892 42.21 293.28 41.7812 293.556 41.2811C293.749 40.9002 293.962 40.5295 294.194 40.1705C293.723 39.6356 293.127 39.226 292.459 38.9786C291.79 38.7311 291.071 38.6535 290.366 38.7528C288.383 39.5095 286.66 40.8222 285.404 42.5334L286.467 42.8878L284.388 43.0059Z" fill="#481816"/>
<path d="M284.104 37.6659C284.231 37.8102 284.406 37.904 284.597 37.93C284.788 37.956 284.982 37.9126 285.143 37.8077C287.292 36.1516 289.683 34.8366 292.232 33.909C294.309 33.8033 296.387 34.1002 298.352 34.7832C296.039 33.693 293.534 33.0668 290.98 32.9402C288.609 33.7983 286.385 35.0177 284.387 36.5554C284.269 36.634 284.175 36.7445 284.117 36.874C284.058 37.0036 284.037 37.147 284.057 37.2879C284.072 37.4279 284.129 37.5599 284.222 37.6659H284.104Z" fill="#481816"/>
<path d="M275.479 37.8077C275.352 37.952 275.177 38.0457 274.986 38.0717C274.795 38.0978 274.601 38.0544 274.44 37.9494C272.231 36.3286 269.784 35.0611 267.186 34.1925C265.108 34.1452 263.04 34.4899 261.09 35.2085C263.381 34.0616 265.88 33.3867 268.438 33.2238C270.899 34.011 273.22 35.1834 275.314 36.6971C275.425 36.7773 275.514 36.8845 275.571 37.0086C275.629 37.1326 275.655 37.2694 275.645 37.406C275.625 37.5519 275.568 37.6904 275.479 37.8077Z" fill="#481816"/>
<path opacity="0.44" d="M302.959 46.4557C302.557 47.5437 301.873 48.5048 300.975 49.2399C300.078 49.9751 299.001 50.4577 297.856 50.6379C294.666 50.9687 294.689 46.4557 294.808 44.3764C294.887 42.7874 295.092 41.2072 295.422 39.6507C295.824 37.6186 296.178 34.4761 298.99 34.7832C299.68 34.8942 300.335 35.1658 300.902 35.5763C301.468 35.9867 301.93 36.5244 302.25 37.1461C302.868 38.4585 303.221 39.8795 303.29 41.3283C303.573 43.0403 303.46 44.7942 302.959 46.4557Z" fill="#F47D70"/>
<path opacity="0.44" d="M254.332 46.4557C254.734 47.5437 255.419 48.5048 256.316 49.2399C257.213 49.9751 258.29 50.4577 259.436 50.6379C262.625 50.9687 262.602 46.4557 262.484 44.3764C262.404 42.7874 262.199 41.2072 261.869 39.6507C261.468 37.6186 261.113 34.4761 258.301 34.7832C257.611 34.8942 256.956 35.1658 256.39 35.5763C255.823 35.9867 255.361 36.5244 255.041 37.1461C254.419 38.426 254.05 39.814 253.954 41.2338C253.672 42.9801 253.801 44.7682 254.332 46.4557Z" fill="#F47D70"/>
<path d="M282.355 49.2675C281.316 49.4565 280.654 50.3071 279.662 50.6143C278.669 50.9215 277.299 49.9527 276.188 49.4329C275.716 49.2202 275.243 49.8346 275.645 50.189C276.566 51.0396 277.653 52.221 279.047 52.0556C280.387 51.642 281.632 50.9675 282.71 50.0709C282.793 50.0106 282.853 49.9237 282.88 49.8245C282.907 49.7253 282.899 49.6198 282.857 49.5258C282.816 49.4318 282.744 49.3548 282.652 49.3078C282.561 49.2608 282.456 49.2466 282.355 49.2675Z" fill="#F47D70"/>
<path d="M281.765 57.3484C280.858 57.6016 279.912 57.6818 278.976 57.5847C278.316 57.6437 277.652 57.6437 276.992 57.5847C275.071 57.1426 273.251 56.3409 271.628 55.2219C273.613 58.9552 275.125 62.1687 279.071 62.0505C283.017 61.9324 285.214 59.0733 286.75 55.8598C285.182 56.6272 283.497 57.1302 281.765 57.3484Z" fill="#D64229"/>
<path d="M273.636 56.7105C275.072 58.1321 276.982 58.9735 279 59.0733C281.112 58.9251 283.118 58.096 284.718 56.7105C284.718 56.7105 276.921 58.7898 273.636 56.7105Z" fill="white"/>
<path d="M282.332 54.7257C281.15 54.9219 280.051 55.4552 279.165 56.2615C279.307 56.2615 277.866 55.0565 277.677 54.962C276.273 54.6047 274.796 54.6621 273.424 55.1274C273.069 55.1274 271.486 55.5291 271.179 55.2455C271.376 55.4267 271.599 55.578 271.841 55.6945C274.509 57.1868 277.526 57.9451 280.583 57.8919C282.748 57.6089 284.841 56.9194 286.75 55.8599C285.331 55.2984 283.846 54.9174 282.332 54.7257Z" fill="#D64229"/>
<path d="M287.364 55.5999C281.764 56.7814 276.472 58.4117 271.25 55.0092C271.061 54.8911 270.824 55.1746 270.99 55.34C275.715 59.1915 282.473 58.7189 287.53 55.8362C287.577 55.7653 287.482 55.5763 287.364 55.5999Z" fill="#C33427"/>
<path d="M277.819 59.9476C277.52 59.8255 277.194 59.7852 276.874 59.8309C276.554 59.8766 276.252 60.0066 276 60.2075C275.941 60.249 275.893 60.3039 275.86 60.3676C275.827 60.4313 275.81 60.502 275.81 60.5737C275.81 60.6454 275.827 60.7161 275.86 60.7799C275.893 60.8436 275.941 60.8985 276 60.94C276.251 61.1423 276.551 61.2768 276.869 61.3306C277.188 61.3844 277.515 61.3556 277.819 61.2471C277.945 61.192 278.053 61.1011 278.129 60.9857C278.204 60.8703 278.245 60.7353 278.245 60.5973C278.245 60.4594 278.204 60.3244 278.129 60.209C278.053 60.0936 277.945 60.0027 277.819 59.9476Z" fill="#F0624A"/>
<path d="M312.151 51.7721C311.253 47.7789 310.969 43.7148 310.213 39.698C308.522 30.0446 305.121 20.7707 300.171 12.3125C298.776 9.47396 296.888 6.9058 294.595 4.72778C293.562 3.83127 292.318 3.21317 290.979 2.93202C290.314 2.79232 289.624 2.81609 288.97 3.00128C288.316 3.18646 287.716 3.52755 287.223 3.9953C286.878 2.81756 286.154 1.78698 285.162 1.06454C284.17 0.342103 282.967 -0.0315045 281.741 0.00208182C276.603 0.196341 271.624 1.83414 267.375 4.72778C262.271 7.77586 257.025 12.029 254.662 17.3927C253.841 19.3747 253.216 21.4323 252.796 23.5361C250.055 35.3503 248.07 47.3772 246.345 59.3569C245.707 63.4919 245.093 67.8868 246.936 71.6909C247.83 73.4207 249.107 74.9237 250.669 76.0858C250.669 74.2192 250.669 72.3525 250.906 70.4859C250.991 72.6745 251.324 74.8464 251.898 76.9601C252.968 77.6268 254.099 78.1887 255.277 78.6377C256.424 79.074 257.6 79.4293 258.797 79.701C257.526 76.2524 257.128 72.5426 257.64 68.9028C258.211 72.789 259.35 76.5705 261.019 80.1263C262.791 80.4099 264.61 80.5989 266.429 80.7643C261.942 72.2601 259.445 62.8474 259.128 53.2371C258.809 45.5317 259.094 37.8131 259.979 30.152C264.065 26.2282 268.717 22.9388 273.778 20.3935C271.509 22.9647 268.892 25.2073 266.004 27.0567C265.046 27.7326 263.973 28.229 262.838 28.5217C266.68 29.5043 270.735 29.2395 274.416 27.7656C278.011 26.3044 281.203 24.0034 283.726 21.0551C284.963 19.6235 285.889 17.9497 286.443 16.1403C288.819 17.6065 291.029 19.3257 293.035 21.2677C295.542 23.9797 297.429 27.2048 298.564 30.7191C300.293 36.298 300.714 42.2003 299.793 47.9679C299.327 51.2661 298.696 54.5388 297.903 57.7738C297.454 59.7349 297.005 61.6725 296.579 63.6336C295.538 69.1865 293.841 74.5959 291.523 79.7483C295.049 79.8831 298.579 79.5976 302.038 78.8976C304.614 75.2056 306.148 70.8879 306.48 66.3982C306.691 70.3013 306.26 74.2126 305.204 77.9761L306.054 77.5744C307.244 76.9755 308.369 76.2549 309.41 75.4242C310.296 73.1406 310.914 70.7618 311.253 68.3357C311.253 70.2496 311.016 72.1635 310.851 74.0774C312.806 72.2264 314.213 69.8716 314.915 67.2724C316.286 62.0269 313.332 56.8759 312.151 51.7721Z" fill="#9C4622"/>
<path d="M312.151 51.7721C311.253 47.7789 310.969 43.7148 310.213 39.698C308.522 30.0446 305.121 20.7707 300.171 12.3125C298.776 9.47396 296.888 6.9058 294.595 4.72778C293.562 3.83127 292.318 3.21317 290.979 2.93202C290.314 2.79232 289.624 2.81609 288.97 3.00128C288.316 3.18646 287.716 3.52755 287.223 3.9953C286.878 2.81756 286.154 1.78698 285.162 1.06454C284.17 0.342103 282.967 -0.0315045 281.741 0.00208182C276.603 0.196341 271.624 1.83414 267.375 4.72778C262.271 7.77586 257.025 12.029 254.662 17.3927C253.841 19.3747 253.216 21.4323 252.796 23.5361C250.055 35.3503 248.07 47.3772 246.345 59.3569C245.707 63.4919 245.093 67.8868 246.936 71.6909C247.83 73.4207 249.107 74.9237 250.669 76.0858C250.669 74.2192 250.669 72.3525 250.906 70.4859C250.991 72.6745 251.324 74.8464 251.898 76.9601C252.968 77.6268 254.099 78.1887 255.277 78.6377C256.424 79.074 257.6 79.4293 258.797 79.701C257.526 76.2524 257.128 72.5426 257.64 68.9028C258.211 72.789 259.35 76.5705 261.019 80.1263C262.791 80.4099 264.61 80.5989 266.429 80.7643C261.704 72.3053 261.704 63.5864 261.066 54.0641C260.617 46.3612 259.223 37.8313 259.979 30.152C264.065 26.2282 268.717 22.9388 273.778 20.3935C271.509 22.9647 268.892 25.2073 266.004 27.0567C265.046 27.7326 263.973 28.229 262.838 28.5217C266.68 29.5043 270.735 29.2395 274.416 27.7656C278.011 26.3044 281.203 24.0034 283.726 21.0551C284.963 19.6235 285.889 17.9497 286.443 16.1403C288.819 17.6065 291.029 19.3257 293.035 21.2677C295.542 23.9797 297.429 27.2048 298.564 30.7191C300.455 36.2955 299.249 42.1553 298.564 47.9679C298.139 51.2759 297.879 54.513 297.147 57.7738C296.698 59.7349 295.871 62.0978 295.422 64.0589C294.169 69.5407 294.098 74.6681 291.57 79.7483C295.096 79.8831 298.626 79.5976 302.085 78.8976C304.661 75.2056 306.195 70.8879 306.527 66.3982C306.723 70.3039 306.276 74.2152 305.204 77.9761L306.054 77.5744C307.244 76.9755 308.369 76.2549 309.41 75.4242C310.296 73.1406 310.914 70.7618 311.253 68.3357C311.253 70.2496 311.016 72.1635 310.851 74.0774C312.806 72.2264 314.213 69.8716 314.915 67.2724C316.286 62.0269 313.332 56.8759 312.151 51.7721Z" fill="#704B45"/>
<path d="M64.4115 263.548C64.4115 263.548 67.4895 265.817 67.7764 265.531C68.0898 264.706 68.072 263.792 67.7268 262.98C67.3816 262.168 66.7357 261.521 65.9244 261.174C65.9244 261.174 65.6635 259.427 65.0636 256.714L66.3678 250.349L64.6984 249.932L60.5249 255.671L64.4115 263.548Z" fill="#C77350"/>
<path d="M65.7416 267.226C66.4157 267.549 67.1246 267.795 67.8544 267.956C68.2196 267.956 69.5499 266.104 64.7243 262.74C64.7243 262.74 64.0722 258.227 63.9679 256.479C63.9679 256.479 65.5068 253.245 68.0109 248.836C68.6631 247.663 66.4198 247.167 66.4198 247.167L61.542 257.184L63.6288 266.261L65.7416 267.226Z" fill="#DF8A64"/>
<path d="M68.7677 234.803C69.3011 237.182 70.0341 239.512 70.9588 241.768C71.7947 243.478 72.3579 245.309 72.6282 247.193C73.1065 250.781 73.2984 254.4 73.202 258.018C72.7401 259.586 72.1915 261.128 71.5587 262.635C71.5587 262.635 68.9502 261.748 69.5763 257.862C69.779 254.843 68.849 251.858 66.9678 249.489C64.9805 252.067 63.5584 255.036 62.7943 258.201C62.7943 258.201 63.4725 262.4 63.942 264.383C63.942 264.383 69.2893 268.113 67.3591 270.826C67.3591 270.826 62.1422 267.409 60.1337 266.261C58.6208 265.426 57.9165 253.375 57.9165 252.201C57.9165 251.028 59.6642 236.551 59.8989 235.377L68.7677 234.803Z" fill="#F4A27A"/>
<path d="M82.1229 100.337C82.1229 100.337 72.9411 103.728 69.3937 108.737C65.4549 114.267 64.1768 146.246 63.1334 154.019C62.09 161.792 61.1249 163.358 62.2987 171.783C60.9155 173.868 60.0976 176.277 59.925 178.773C60.1144 181.831 60.1144 184.898 59.925 187.955C59.925 192.937 58.1512 221.656 58.8555 227.447C59.4033 232.064 71.2457 228.569 71.2457 228.569C71.2457 228.569 73.9845 207.31 75.6539 196.485C76.8799 188.503 78.758 177.548 79.3579 173.4C79.9579 169.253 85.566 146.246 88.4875 146.168L82.1229 100.337Z" fill="#0E3251"/>
<path d="M58.8296 227.447C58.8296 227.291 58.8296 227.082 58.8296 226.873C60.9164 226.873 63.0292 222.935 64.8029 222.178C66.5767 221.422 68.1418 224.917 70.1763 225.36C72.2109 225.804 67.8027 218.526 67.3331 216.883C66.8636 215.24 70.3068 212.318 70.9589 210.257C71.7875 207.715 72.347 205.092 72.6283 202.432C72.6283 201.519 64.4638 211.327 63.9422 209.71C63.4205 208.092 71.2197 200.319 72.6805 196.928C74.1412 193.537 75.2889 188.868 73.9847 188.399C72.6805 187.929 61.2033 202.145 60.7598 200.684C60.3164 199.224 75.0542 184.382 75.0542 184.382C75.0542 184.382 71.2197 177.887 70.5676 176.269C69.9155 174.652 77.5322 168.914 78.393 167.218C79.2538 165.523 76.4888 156.654 75.2367 150.472C73.9847 144.29 85.6705 129.891 85.6705 129.891C86.2966 129.891 86.2183 132.239 86.74 132.708L88.592 146.168C85.6705 146.168 80.0885 169.279 79.4624 173.4C78.8364 177.521 76.854 188.503 75.7584 196.485C74.089 207.31 71.3502 228.569 71.3502 228.569C71.3502 228.569 59.3774 232.064 58.8296 227.447Z" fill="#00263F"/>
<path d="M70.5931 236.472L71.9756 227.369L58.2551 226.795L58.516 236.081L70.5931 236.472Z" fill="#7ED2F1"/>
<path d="M171.697 264.331C171.697 264.331 168.619 266.6 168.332 266.313C168.019 265.481 168.04 264.561 168.39 263.744C168.74 262.928 169.392 262.278 170.21 261.931C170.21 261.931 170.445 260.209 171.045 257.497L169.74 251.132L171.41 250.715L175.662 256.453L171.697 264.331Z" fill="#C77350"/>
<path d="M170.315 268.009C169.641 268.332 168.932 268.577 168.202 268.739C167.837 268.739 166.506 266.887 171.332 263.522C171.332 263.522 171.984 259.009 172.088 257.262C172.088 257.262 170.549 254.001 168.045 249.593C167.393 248.445 169.663 247.95 169.663 247.95L174.566 257.966L172.48 267.017L170.315 268.009Z" fill="#DF8A64"/>
<path d="M167.471 235.586C166.955 237.963 166.239 240.293 165.332 242.55C164.496 244.261 163.933 246.091 163.663 247.976C163.184 251.563 162.992 255.183 163.089 258.801C163.535 260.359 164.066 261.892 164.68 263.392C164.68 263.392 167.288 262.505 166.662 258.618C166.46 255.6 167.39 252.614 169.271 250.245C171.271 252.829 172.702 255.807 173.471 258.983C173.471 258.983 172.688 263.183 172.166 265.244C172.166 265.244 166.949 268.974 168.749 271.687C168.749 271.687 173.966 268.269 175.975 267.122C177.488 266.287 178.114 254.236 178.192 252.958C178.27 251.68 176.444 237.307 176.209 236.133L167.471 235.586Z" fill="#C07457"/>
<path d="M153.985 101.12C153.985 101.12 163.167 104.511 166.715 109.493C170.653 115.049 171.931 147.029 173.027 154.802C174.123 162.575 175.036 164.14 173.862 172.539C175.244 174.635 176.061 177.052 176.235 179.556C176.046 182.614 176.046 185.68 176.235 188.738C176.235 193.72 178.009 222.413 177.305 228.23C176.757 232.847 164.915 229.351 164.915 229.351C164.915 229.351 162.306 208.092 160.506 197.267C159.28 189.286 157.402 178.33 156.802 174.183C156.202 170.035 150.594 147.029 147.673 146.95L153.985 101.12Z" fill="#0E3251"/>
<path d="M177.279 228.23V227.656C175.166 227.656 173.079 223.717 171.306 222.961C169.532 222.204 167.967 225.569 165.932 226.143C163.898 226.717 168.306 219.309 168.775 217.665C169.245 216.022 165.802 213.075 165.045 211.04C164.229 208.494 163.67 205.872 163.376 203.215C163.376 202.302 171.54 212.109 172.062 210.492C172.584 208.875 164.784 201.102 163.324 197.711C161.863 194.32 160.715 189.651 162.019 189.181C163.324 188.712 174.801 202.928 175.244 201.467C175.688 200.006 161.054 185.269 161.054 185.269C161.054 185.269 164.889 178.669 165.541 177.052C166.193 175.435 158.576 169.696 157.716 168.001C156.855 166.305 159.594 157.567 160.846 151.254C162.098 144.942 150.542 130.674 150.542 130.674C149.916 130.804 149.968 133.021 149.499 133.491L147.621 146.95C150.542 146.95 156.124 170.061 156.75 174.183C157.376 178.304 159.359 189.286 160.454 197.267C162.254 208.092 164.863 229.351 164.863 229.351C164.863 229.351 176.731 232.847 177.279 228.23Z" fill="#00263F"/>
<path d="M100.695 427.698C100.695 427.698 101.269 441.366 100.2 443.349C99.1301 445.331 96.1304 446.114 93.7306 446.609C92.307 446.249 90.8602 445.987 89.4006 445.827C88.2007 445.827 88.1225 446.479 85.7227 448.253C82.2209 451.004 78.1186 452.89 73.7499 453.756C71.1415 454.461 65.9246 453.756 64.9594 450.078C64.537 448.989 64.4554 447.797 64.7256 446.661C64.9958 445.524 65.6049 444.496 66.4723 443.714C69.5242 440.427 80.9232 432.758 83.2447 429.289C85.5662 425.82 85.8531 425.611 86.74 425.22C91.4347 425.782 96.0939 426.609 100.695 427.698Z" fill="#122129"/>
<path d="M132.336 427.698C132.336 427.698 131.736 441.366 132.805 443.349C133.875 445.331 136.875 446.114 139.3 446.609C140.715 446.248 142.153 445.987 143.604 445.827C144.804 445.827 144.883 446.479 147.282 448.253C150.787 451 154.888 452.886 159.255 453.756C161.864 454.461 167.08 453.756 168.072 450.078C168.494 448.989 168.576 447.797 168.306 446.661C168.035 445.524 167.426 444.496 166.559 443.714C163.481 440.427 152.082 432.758 149.76 429.289C147.439 425.82 147.152 425.611 146.265 425.22C141.579 425.782 136.928 426.609 132.336 427.698Z" fill="#122129"/>
<path d="M86.1662 428.559C86.1662 428.559 90.7049 433.541 102.13 430.019L115.172 267.956H119.789L132.831 430.019C144.23 433.541 148.795 428.559 148.795 428.559C148.795 428.559 153.464 283.685 152.969 260.94C152.603 245.289 151.377 221.813 151.377 221.813L117.468 223.926L84.7315 220.378C84.7315 220.378 82.3317 245.237 82.1231 260.94C81.8361 273.252 83.0882 321.482 84.2881 363.061C84.2881 363.061 84.888 398.301 83.949 400.779C83.595 401.277 83.392 401.867 83.3642 402.477C83.3365 403.088 83.4851 403.694 83.7925 404.222C84.3793 405.573 84.749 407.008 84.888 408.474C84.888 408.474 82.4882 411.239 83.1143 412.752C83.7228 414.013 84.4569 415.21 85.3054 416.325C85.3054 416.325 82.9838 417.708 83.1143 418.934C83.2447 420.16 85.4619 422.664 85.1749 423.472C84.8784 423.862 84.6676 424.309 84.5564 424.786C84.4452 425.263 84.4361 425.757 84.5297 426.238C84.6233 426.718 84.8175 427.173 85.0996 427.573C85.3816 427.973 85.7451 428.309 86.1662 428.559Z" fill="#523932"/>
<path d="M86.1662 428.559C86.1662 428.559 90.7049 433.541 102.13 430.019L115.172 267.956H119.789L132.831 430.019C144.23 433.541 150.517 427.698 150.517 427.698C150.517 427.698 153.464 283.685 152.969 260.94C152.603 245.289 151.377 221.813 151.377 221.813L117.468 223.926L84.7315 220.378C84.7315 220.378 82.3317 245.237 82.1231 260.94C81.8361 273.252 83.0882 321.482 84.2881 363.061C84.2881 363.061 84.888 398.301 83.949 400.779C83.595 401.277 83.392 401.867 83.3642 402.477C83.3365 403.088 83.4851 403.694 83.7925 404.222C84.3793 405.573 84.749 407.008 84.888 408.474C84.888 408.474 82.4882 411.239 83.1143 412.752C83.7228 414.013 84.4569 415.21 85.3054 416.325C85.3054 416.325 82.9838 417.708 83.1143 418.934C83.2447 420.16 85.4619 422.664 85.1749 423.472C84.8784 423.862 84.6676 424.309 84.5564 424.786C84.4452 425.263 84.4361 425.757 84.5297 426.238C84.6233 426.718 84.8175 427.173 85.0996 427.573C85.3816 427.973 85.7451 428.309 86.1662 428.559Z" fill="#0E3251"/>
<path opacity="0.6" d="M152.056 240.907C152.056 238.872 151.69 232.586 151.612 230.864C140.97 232.586 102.782 237.959 83.7925 230.212C83.7925 231.412 83.6099 232.821 83.4795 234.047C83.4795 234.203 83.4795 234.36 83.4795 234.542C83.4795 234.725 83.4795 234.986 83.4795 235.194V236.159C83.4795 236.316 83.4795 236.446 83.4795 236.603C82.8795 244.428 82.2796 253.662 82.1231 260.94C81.8361 273.252 83.0882 321.482 84.2881 363.061C84.2881 363.061 84.888 398.301 83.949 400.779C83.595 401.277 83.392 401.867 83.3642 402.477C83.3365 403.088 83.4851 403.694 83.7925 404.222C84.3793 405.573 84.749 407.008 84.888 408.474C84.888 408.474 82.4882 411.239 83.1143 412.752C83.7228 414.013 84.4569 415.21 85.3054 416.325C85.3054 416.325 82.9838 417.708 83.1143 418.934C83.2447 420.16 85.4619 422.664 85.1749 423.472C84.6313 424.457 84.4468 425.601 84.6533 426.707C87.8616 426.707 90.6527 428.272 93.0264 427.489C96.3391 426.368 85.201 423.472 87.4443 420.603C89.6876 417.734 94.9566 422.794 95.7653 420.603C96.5739 418.412 87.9399 413.43 85.6184 411.499C83.2969 409.569 87.2356 406.83 89.2702 404.352C91.3048 401.874 87.2356 385.624 85.6184 380.668C84.0011 375.712 86.9748 363.347 89.0876 360.296C91.2005 357.244 86.1401 353.983 85.6184 350.383C85.0967 346.784 88.6181 341.854 89.2702 336.637C89.9223 331.42 85.8531 320.125 84.0533 317.908C82.2535 315.691 85.8792 287.076 87.4704 284.311C89.0615 281.546 86.1662 277.712 85.6445 273.043C85.1228 268.374 93.3133 256.531 94.4349 250.558C95.0349 246.411 126.884 259.583 152.056 240.907Z" fill="#002037"/>
<path opacity="0.6" d="M136.17 421.959C133.692 420.055 134.5 418.125 136.978 410.143C139.456 402.161 138.361 394.727 136.978 392.797C135.596 390.867 127.823 369.321 130.979 368.851C134.135 368.382 142.508 383.433 145.638 381.894C148.769 380.355 126.962 358.757 130.979 357.661C134.996 356.565 141.674 371.147 143.812 369.216C145.951 367.286 131.475 350.957 129.831 346.366C128.188 341.776 133.953 342.793 134.605 339.767C135.257 336.741 130.379 326.542 127.797 319.108C125.214 311.674 136.17 301.501 135.883 292.685C135.596 283.868 119.684 267.852 119.684 267.852L131.631 429.993C136.548 431.807 141.967 431.705 146.812 429.706C147.067 429.033 147.174 428.312 147.125 427.594C146.969 425.09 138.596 423.89 136.17 421.959Z" fill="#002037"/>
<path d="M151.821 233.003C151.508 226.482 151.273 221.865 151.273 221.865L117.363 223.978L84.7315 220.378C84.7315 220.378 84.2098 225.804 83.6099 233.186C93.3394 235.638 122.137 241.428 151.821 233.003Z" fill="#000814"/>
<path d="M154.429 103.52C154.142 102.137 153.829 101.303 153.542 101.146C151.508 100.05 128.762 93.3206 128.762 93.3206C127.458 91.1295 127.379 79.7567 127.379 79.7567L117.702 76.131H117.572L107.868 79.7567C107.868 79.7567 107.868 91.1295 106.512 93.3206C106.512 93.3206 85.3574 99.5288 83.3228 100.624C82.6973 101.475 82.302 102.472 82.175 103.52L117.415 105.476L154.429 103.52Z" fill="#C07457"/>
<path d="M122.241 91.7556C124.323 91.2879 126.263 90.3312 127.901 88.9645C127.484 84.9475 127.432 79.835 127.432 79.835L117.755 76.2092H117.624L107.921 79.835C107.921 79.835 107.921 82.313 107.764 85.0519C111.025 87.4777 118.589 92.4599 122.241 91.7556Z" fill="#C66A42"/>
<path d="M141.387 51.0898C142.036 49.9322 142.938 48.9366 144.027 48.1777C145.116 47.4187 146.362 46.9162 147.673 46.7076C149.942 46.7076 149.264 56.0198 146.916 58.4196C146.521 58.9322 146.004 59.3379 145.412 59.6C144.821 59.8621 144.173 59.9722 143.527 59.9204C142.882 59.8686 142.26 59.6565 141.718 59.3033C141.175 58.9501 140.73 58.467 140.421 57.8979L141.387 51.0898Z" fill="#C07457"/>
<path opacity="0.4" d="M141.778 57.5849C142.515 57.8617 143.326 57.8753 144.072 57.6234C144.818 57.3715 145.454 56.8695 145.873 56.2024C147.099 53.8287 148.299 50.9855 147.334 48.8727C147.334 48.8727 144.725 49.4726 142.273 54.4026C142.273 54.4026 143.995 56.5676 141.778 57.5849Z" fill="#CF6244"/>
<path d="M147.725 51.8724C147.72 50.9923 147.606 50.1162 147.386 49.2639C147.386 49.0552 147.204 48.9509 147.126 49.0552L146.578 49.4204C146.212 49.6543 145.871 49.9252 145.56 50.229C144.907 50.8206 144.305 51.4664 143.761 52.1593C143.478 52.4915 143.241 52.86 143.056 53.2548L142.378 54.4026V54.1939C142.867 54.7763 143.118 55.5213 143.082 56.2806L142.9 56.8545L142.482 57.2458C142.482 57.4023 142.169 57.4284 142.013 57.5066L141.517 57.7153L141.987 57.4545C142.117 57.4545 142.326 57.2979 142.404 57.1414L142.717 56.7502V56.2546C142.681 55.5802 142.403 54.9415 141.935 54.4547L142.587 53.2288C142.79 52.8136 143.034 52.4203 143.317 52.055C143.884 51.3317 144.521 50.6676 145.221 50.0725C145.562 49.7717 145.929 49.5011 146.317 49.2639L146.917 48.9248C146.995 48.8763 147.086 48.8506 147.178 48.8506C147.27 48.8506 147.36 48.8763 147.439 48.9248L147.621 49.29C147.795 50.1396 147.83 51.0116 147.725 51.8724Z" fill="#91554A"/>
<path d="M146.916 52.2897C146.513 51.908 145.985 51.6856 145.43 51.6637C145.23 51.6377 145.029 51.6377 144.83 51.6637H144.282H143.708L144.204 51.3507C144.589 51.1495 145.022 51.0592 145.456 51.0898C145.916 51.1155 146.347 51.3217 146.656 51.6637C146.798 51.8444 146.889 52.061 146.916 52.2897Z" fill="#91554A"/>
<path d="M121.041 86.0692C121.041 86.0692 132.623 80.5132 136.692 74.279C139.978 69.8968 142.665 47.5684 143.056 44.0992C143.056 44.0992 143.056 43.8905 143.056 43.7601V43.5253C143.095 42.7955 143.095 42.0641 143.056 41.3342C142.85 35.0552 140.211 29.1024 135.696 24.7336C131.182 20.3648 125.145 17.9223 118.863 17.9223C112.581 17.9223 106.544 20.3648 102.03 24.7336C97.5152 29.1024 94.8759 35.0552 94.6697 41.3342C94.6697 42.2211 94.6697 43.0819 94.8001 43.9427C94.8001 43.9427 97.6172 69.6098 101.191 74.279C105.416 81.4261 116.842 86.0692 116.842 86.0692C118.211 86.4788 119.671 86.4788 121.041 86.0692Z" fill="#C07457"/>
<path d="M106.59 27.8746C104.697 28.3093 102.847 28.9116 101.06 29.6745C100.591 30.1961 105.443 20.8579 112.068 26.4661L106.59 27.8746Z" fill="black"/>
<path d="M96.3128 52.1071C95.6654 50.9507 94.7626 49.9573 93.6732 49.2024C92.5838 48.4475 91.3366 47.9511 90.0265 47.751C87.7571 47.751 88.4353 57.0371 90.7568 59.4369C91.155 59.9492 91.6744 60.3545 92.2681 60.6162C92.8619 60.8779 93.5114 60.9878 94.1582 60.9361C94.805 60.8843 95.4288 60.6725 95.9734 60.3198C96.518 59.967 96.9663 59.4843 97.278 58.9152L96.3128 52.1071Z" fill="#C07457"/>
<path opacity="0.4" d="M95.7908 58.6022C95.0711 58.8554 94.2867 58.8564 93.5663 58.6052C92.8459 58.354 92.2322 57.8655 91.826 57.2197C90.6 54.846 89.4001 52.0028 90.3392 49.8899C90.3392 49.8899 92.9476 50.4899 95.4257 55.4199C95.2952 55.4199 93.4954 57.637 95.7908 58.6022Z" fill="#CF6244"/>
<path d="M89.8438 52.8897C89.6875 51.9834 89.6875 51.0571 89.8438 50.1508C89.8779 50.0174 89.9401 49.8929 90.0263 49.7856C90.0996 49.7363 90.1858 49.7099 90.2741 49.7099C90.3624 49.7099 90.4487 49.7363 90.5219 49.7856L91.1219 50.1247C91.514 50.3558 91.8811 50.6267 92.2174 50.9333C92.9255 51.5279 93.5722 52.1921 94.1477 52.9157C94.4163 53.2857 94.652 53.6785 94.852 54.0895L95.5041 55.3155C95.0435 55.8048 94.7749 56.4439 94.7476 57.1153V57.611L95.0607 58.0022C95.0607 58.1587 95.3215 58.2109 95.478 58.3152L95.9214 58.5761L95.4258 58.3674C95.2693 58.3674 95.0607 58.3674 94.9563 58.1066L94.565 57.7153L94.4346 57.2979C94.3975 56.5348 94.6385 55.7841 95.1128 55.1851V55.3938L94.4346 54.2461C94.2307 53.8619 93.9951 53.4955 93.7303 53.1505C93.1782 52.4642 92.5766 51.819 91.9305 51.2203C91.6144 50.923 91.2741 50.6525 90.9132 50.4116L90.3394 50.0465C90.3394 50.0465 90.1828 50.0465 90.1046 50.2551C89.8964 51.117 89.8086 52.0037 89.8438 52.8897Z" fill="#91554A"/>
<path d="M90.6526 53.307C90.6901 53.1095 90.7702 52.9226 90.8873 52.7592C91.196 52.4173 91.6273 52.211 92.0872 52.1854C92.5211 52.149 92.9561 52.2396 93.3393 52.4462L93.8349 52.7592H93.261H92.7393C92.5402 52.733 92.3385 52.733 92.1394 52.7592C91.5932 52.7525 91.0638 52.9475 90.6526 53.307Z" fill="#91554A"/>
<path d="M121.876 61.7845C121.876 61.7845 121.876 66.0623 120.989 66.5058C120.102 66.9492 121.041 64.0277 121.876 61.7845Z" fill="#5F221B"/>
<path d="M113.32 43.5253C111.919 42.06 110.171 40.9733 108.237 40.3666C106.303 39.76 104.246 39.6531 102.26 40.0561C102.26 40.0561 100.173 42.0646 100.069 43.0558C104.477 42.3886 108.97 42.5479 113.32 43.5253Z" fill="#231114"/>
<path d="M124.927 43.5253C124.927 43.5253 130.509 38.8562 134.813 39.9517C135.551 40.2097 136.227 40.619 136.798 41.1536C137.368 41.6882 137.821 42.3361 138.126 43.0558C133.735 42.3988 129.26 42.5579 124.927 43.5253Z" fill="#231114"/>
<path d="M116.737 86.0692C117.877 86.4221 119.088 86.4848 120.258 86.2517C104.06 80.8523 97.2258 60.5063 97.2258 60.5063C98.2953 66.4536 99.6778 72.2183 101.191 74.279C105.416 81.4261 116.737 86.0692 116.737 86.0692Z" fill="#C66A42"/>
<path d="M86.1401 227.578C85.7319 229.911 85.5484 232.278 85.5923 234.646C85.9498 234.948 86.3668 235.172 86.8161 235.302C87.2655 235.432 87.7372 235.467 88.2007 235.403C88.7667 233.111 89.1075 230.77 89.218 228.412C89.218 228.412 89.3745 227.578 88.8529 227.369C87.8356 227.004 86.2705 226.508 86.1401 227.578Z" fill="#316C8E"/>
<path d="M98.9992 230.16C98.59 232.493 98.4066 234.86 98.4514 237.229C98.8145 237.521 99.232 237.739 99.6798 237.869C100.128 237.999 100.597 238.038 101.06 237.985C101.568 235.678 101.865 233.33 101.947 230.969C101.947 230.969 102.129 230.16 101.608 229.951C100.695 229.586 99.1296 229.064 98.9992 230.16Z" fill="#316C8E"/>
<path d="M146.76 228.464C147.169 230.798 147.352 233.165 147.308 235.533C146.95 235.834 146.533 236.056 146.084 236.186C145.635 236.317 145.163 236.352 144.7 236.29C144.19 233.992 143.893 231.652 143.813 229.299C143.813 229.299 143.63 228.464 144.152 228.256C145.039 227.891 146.604 227.369 146.76 228.464Z" fill="#316C8E"/>
<path d="M133.9 231.021C134.31 233.363 134.493 235.739 134.448 238.116C133.712 238.701 132.775 238.973 131.84 238.872C131.331 236.565 131.034 234.216 130.953 231.855C130.953 231.855 130.77 231.021 131.292 230.838C132.205 230.447 133.77 229.951 133.9 231.021Z" fill="#316C8E"/>
<path d="M123.258 230.89H110.242C109.94 230.89 109.694 231.136 109.694 231.438V237.881C109.694 238.184 109.94 238.429 110.242 238.429H123.258C123.561 238.429 123.806 238.184 123.806 237.881V231.438C123.806 231.136 123.561 230.89 123.258 230.89Z" fill="#91AFB8"/>
<path d="M109.694 235.742V237.881C109.694 238.026 109.752 238.166 109.855 238.268C109.957 238.371 110.097 238.429 110.242 238.429H123.284C123.43 238.429 123.569 238.371 123.672 238.268C123.774 238.166 123.832 238.026 123.832 237.881V235.742H109.694Z" fill="#74969D"/>
<path d="M123.78 231.751V231.334C123.78 231.262 123.766 231.191 123.738 231.124C123.711 231.058 123.67 230.997 123.619 230.946C123.569 230.896 123.508 230.855 123.442 230.828C123.375 230.8 123.304 230.786 123.232 230.786H110.19C110.118 230.786 110.047 230.8 109.98 230.828C109.914 230.855 109.853 230.896 109.803 230.946C109.752 230.997 109.711 231.058 109.684 231.124C109.656 231.191 109.642 231.262 109.642 231.334V231.647L123.78 231.751Z" fill="#D5E5E9"/>
<path d="M165.515 237.255L164.132 228.151L177.853 227.578L177.592 236.864L165.515 237.255Z" fill="#7ED2F1"/>
<path d="M146.787 98.7201L128.527 92.6164C128.448 95.5981 127.379 98.4687 125.491 100.777C123.602 103.086 121 104.702 118.094 105.372C116.581 105.737 107.425 100.781 106.903 92.6164L86.8184 98.9288V238.507H146.813L146.787 98.7201Z" fill="#7ED2F1"/>
<path d="M137.031 238.507C138.779 233.942 143.552 220.665 146.787 208.64V186.234C144.491 186.625 140.761 189.546 135.101 196.094C102.495 233.76 92.9743 170.009 92.9743 170.009L91.4614 238.429L137.031 238.507Z" fill="#5AB6CA"/>
<path d="M111.076 107.876C111.076 107.876 115.302 116.823 115.954 116.275C116.606 115.727 119.815 116.275 119.815 116.275C119.815 116.275 121.875 110.902 122.71 107.458L118.067 105.372L111.076 107.876Z" fill="#0E3251"/>
<path d="M106.929 93.0859C106.454 93.1641 106.001 93.3419 105.599 93.6076C102.99 95.7987 104.399 116.562 105.599 116.197C106.799 115.832 118.067 105.293 118.067 105.293C116.606 105.711 107.816 100.911 106.929 93.0859Z" fill="#C9EAF6"/>
<path d="M128.345 93.5554C128.1 96.3826 126.954 99.0566 125.076 101.184C123.198 103.311 120.686 104.779 117.911 105.372L131.318 116.275C131.762 113.067 129.623 93.6858 129.623 93.6858L128.345 93.5554Z" fill="#C9EAF6"/>
<path d="M154.716 101.355L129.179 92.8511V243.254C137.725 242.702 146.188 241.251 154.429 238.924C154.429 238.924 154.429 235.481 152.734 205.875C152.264 197.476 154.56 178.382 152.734 165.105C152.734 165.105 155.134 142.62 155.968 131.352C156.308 121.336 155.889 111.308 154.716 101.355Z" fill="#0E3251"/>
<path d="M106.59 92.6946L81.3923 100.65C79.8759 119.552 80.6643 138.568 83.7399 157.28C83.7399 157.28 82.2531 187.121 82.0705 193.798C81.914 200.111 78.21 239.29 80.2968 241.142C89.0533 242.426 97.8751 243.219 106.72 243.515L106.59 92.6946Z" fill="#0E3251"/>
<path d="M107.477 89.721C104.643 90.9664 102.154 92.8821 100.225 95.3031C97.5123 98.9288 92.8171 142.646 92.8171 142.646L100.982 147.603L97.2776 160.28C97.2776 160.28 104.868 187.851 106.59 187.564L107.477 89.721Z" fill="#2B557A"/>
<path d="M127.901 89.721C130.731 90.9735 133.218 92.888 135.153 95.3031C137.761 98.9288 142.457 142.699 142.457 142.699L134.318 147.655L138.022 160.332C138.022 160.332 130.953 188.112 129.18 187.851L127.901 89.721Z" fill="#2B557A"/>
<path d="M115.537 114.475L112.381 165.966L116.789 173.27L120.649 165.549L119.684 114.475H115.537Z" fill="#0E3251"/>
<path d="M113.815 53.7765C112.98 52.4501 111.774 51.3981 110.346 50.7507C106.903 49.1857 100.669 49.8117 100.982 52.7071C100.982 52.7071 101.217 55.3155 105.599 55.759C108.491 56.1893 111.437 55.4784 113.815 53.7765Z" fill="white"/>
<path d="M110.346 50.7507C108.512 50.0077 106.516 49.7559 104.555 50.0204C104.03 50.3232 103.592 50.7555 103.281 51.2761C102.971 51.7967 102.799 52.3881 102.782 52.994C102.788 53.4582 102.891 53.916 103.084 54.3382C103.277 54.7604 103.556 55.1377 103.903 55.4459C104.454 55.6193 105.023 55.7245 105.599 55.759C107.296 55.901 109.004 55.7689 110.659 55.3677C111.293 54.7384 111.658 53.8872 111.677 52.994C111.674 52.3333 111.474 51.6883 111.103 51.142L110.346 50.7507Z" fill="#231114"/>
<path d="M113.816 53.7765L113.45 53.3592C113.1 52.9854 112.716 52.6448 112.303 52.3419C112.045 52.0996 111.766 51.8813 111.468 51.6898L110.373 51.0898C109.951 50.845 109.493 50.6689 109.016 50.5681C108.501 50.4313 107.979 50.3268 107.451 50.2551C106.37 50.0978 105.272 50.0978 104.19 50.2551C103.729 50.3391 103.275 50.4613 102.834 50.6203C102.486 50.7227 102.166 50.9008 101.895 51.142C101.515 51.3998 101.231 51.7757 101.086 52.2115C101.096 52.3591 101.096 52.5072 101.086 52.6549V52.2115C101.088 51.9803 101.137 51.752 101.232 51.541C101.326 51.3299 101.463 51.1408 101.634 50.9855C101.917 50.6971 102.254 50.4667 102.625 50.3073C103.096 50.0814 103.597 49.9233 104.112 49.8378C105.341 49.5974 106.6 49.5534 107.842 49.7074C108.442 49.7976 109.034 49.9283 109.616 50.0986C110.131 50.2233 110.623 50.4256 111.077 50.6986C111.468 50.9333 111.833 51.1942 112.172 51.4289C112.448 51.637 112.702 51.873 112.929 52.1332C113.278 52.4649 113.569 52.8529 113.79 53.2809C113.811 53.4452 113.82 53.6109 113.816 53.7765Z" fill="#231114"/>
<path d="M123.963 53.7765C124.812 52.4522 126.026 51.4015 127.458 50.7507C130.901 49.1857 137.135 49.8117 136.796 52.7071C136.796 52.7071 136.561 55.3155 132.205 55.759C129.305 56.1852 126.352 55.475 123.963 53.7765Z" fill="white"/>
<path d="M127.458 50.7507C126.637 51.1236 125.887 51.6354 125.241 52.2636C125.213 52.4802 125.213 52.6992 125.241 52.9157C125.239 53.6584 125.498 54.3781 125.971 54.9503C127.989 55.6865 130.145 55.9627 132.283 55.759H132.623C133.077 55.4462 133.451 55.0302 133.714 54.5451C133.977 54.06 134.122 53.5195 134.135 52.9679C134.115 52.3561 133.939 51.7596 133.624 51.2347C133.31 50.7098 132.866 50.2739 132.336 49.9682C130.672 49.8588 129.004 50.1263 127.458 50.7507Z" fill="#231114"/>
<path d="M123.963 53.7765C124.024 53.6206 124.103 53.4719 124.197 53.3331C124.416 52.9104 124.697 52.5235 125.032 52.1854C125.259 51.9252 125.513 51.6891 125.789 51.4811C126.128 51.2463 126.493 50.9855 126.91 50.7507C127.353 50.4749 127.837 50.2723 128.345 50.1508C128.935 49.9781 129.536 49.8474 130.145 49.7595C131.378 49.6052 132.629 49.6493 133.849 49.8899C134.372 49.9758 134.881 50.1338 135.362 50.3595C135.725 50.5324 136.06 50.7613 136.353 51.0377C136.528 51.1886 136.665 51.3776 136.756 51.5901C136.846 51.8026 136.887 52.033 136.874 52.2636V52.7071C136.874 52.7071 136.874 52.5506 136.874 52.2636C136.742 51.8289 136.466 51.4519 136.092 51.1942C135.811 50.9538 135.482 50.776 135.127 50.6725C134.618 50.5015 134.094 50.3792 133.562 50.3073C132.489 50.1503 131.4 50.1503 130.327 50.3073C129.791 50.379 129.26 50.4835 128.736 50.6203C128.269 50.7257 127.82 50.9016 127.406 51.142L126.31 51.7419C126.009 51.9402 125.722 52.158 125.449 52.3941C125.049 52.7029 124.674 53.0431 124.328 53.4114L123.963 53.7765Z" fill="#231114"/>
<path d="M106.173 52.055C106.173 52.3158 105.416 52.6027 104.321 52.681C103.225 52.7592 102.312 52.681 102.26 52.3158C102.208 51.9506 103.042 51.768 104.112 51.6898C105.181 51.6115 106.12 51.768 106.173 52.055Z" fill="white"/>
<path d="M135.779 52.3158C135.779 52.5767 134.735 52.681 133.666 52.5506C132.596 52.4201 131.814 52.081 131.944 51.8202C132.075 51.5594 132.988 51.4289 134.057 51.5854C135.126 51.7419 135.909 52.0289 135.779 52.3158Z" fill="white"/>
<path d="M127.249 69.7402C126.328 71.0075 125.094 72.0147 123.668 72.6638C122.242 73.3129 120.672 73.5818 119.111 73.4442C117.835 73.4764 116.577 73.1453 115.482 72.4895C114.388 71.8337 113.502 70.8802 112.929 69.7402C112.929 69.7402 125.11 70.0011 127.249 69.7402Z" fill="white"/>
<path d="M95.8952 51.5072C97.1604 47.8001 98.0346 43.971 98.5037 40.0822C98.5037 36.639 98.5037 29.8831 100.147 29.0745C104.285 27.4217 108.8 26.9521 113.189 27.7181C118.563 28.9441 129.257 31.5004 136.665 29.8831C137.827 30.815 138.749 32.0119 139.352 33.3736C139.956 34.7352 140.224 36.2218 140.135 37.7085C140.148 41.9027 140.754 46.074 141.934 50.0986L143.552 48.5075C143.552 48.5075 149.082 36.8999 145.925 26.1009C145.925 26.1009 148.951 18.5364 144.569 16.1105C138.266 12.893 131.756 10.0959 125.084 7.73739C119.993 6.46353 114.629 6.84733 109.772 8.83294C106.381 10.8414 94.1215 19.1102 92.6607 19.9189C91.3589 21.2828 90.434 22.9617 89.9767 24.7908C89.5195 26.62 89.5455 28.5366 90.0523 30.3527C90.0523 30.3527 86.583 35.1 90.8348 47.9336C90.7826 47.8814 94.8257 48.977 95.8952 51.5072Z" fill="#331917"/>
<path opacity="0.6" d="M95.8954 51.5072C97.1606 47.8001 98.0348 43.971 98.5039 40.0822C98.5039 36.639 98.5039 29.8831 100.147 29.0745C104.285 27.4217 108.8 26.9521 113.189 27.7181C118.563 28.9441 129.257 31.5004 136.665 29.8831C137.827 30.815 138.749 32.0119 139.353 33.3736C139.956 34.7352 140.224 36.2218 140.135 37.7085C140.148 41.9027 140.754 46.074 141.935 50.0986L143.552 48.5075C144.1 47.2657 144.579 45.9943 144.986 44.6991C141.83 46.5511 144.23 32.2047 142.926 23.8315C141.517 14.3629 119.971 21.7969 117.911 22.6577C115.85 23.5185 111.155 20.0493 102.938 21.1709C94.7216 22.2925 98.1126 37.6302 94.0434 39.4301C92.2957 40.2387 90.4177 37.8128 88.8265 34.7609C88.615 39.2013 89.3072 43.6383 90.8611 47.8032C90.8611 47.8032 94.8259 48.977 95.8954 51.5072Z" fill="#260B0D"/>
<path opacity="0.5" d="M142.9 15.0671C137.099 12.3003 131.152 9.85339 125.084 7.73739C119.994 6.46353 114.629 6.84733 109.772 8.83294C107.164 10.3198 99.8602 15.2497 95.6084 18.0408C100.434 16.1105 107.007 13.2934 111.729 11.5196C119.554 8.54601 135.596 19.0841 140.813 17.2061C141.316 17.0607 141.773 16.7871 142.139 16.4122C142.504 16.0372 142.767 15.5738 142.9 15.0671Z" fill="#493123"/>
</svg>
