<svg width="175" height="474" viewBox="0 0 175 474" fill="none" xmlns="http://www.w3.org/2000/svg">
<path d="M167.59 275.47C166.899 275.843 166.169 276.138 165.414 276.351C165.028 276.351 163.541 274.506 168.416 270.677C168.416 270.677 168.857 265.884 168.857 264.038C168.857 264.038 167.067 260.678 164.147 256.188C163.403 255.003 165.744 254.342 165.744 254.342L171.529 264.617L169.821 274.313L167.59 275.47Z" fill="#DF8A64"/>
<path d="M162.522 241.395C162.125 243.933 161.507 246.431 160.676 248.86C159.896 250.72 159.413 252.691 159.244 254.7C158.939 258.505 158.939 262.327 159.244 266.132C159.792 267.748 160.436 269.33 161.172 270.87C161.172 270.87 163.926 269.823 163.017 265.746C162.619 262.576 163.425 259.371 165.276 256.766C167.522 259.387 169.201 262.445 170.207 265.746C170.207 265.746 169.739 270.209 169.325 272.33C169.325 272.33 163.816 276.572 166.103 279.326C166.103 279.326 171.336 275.415 173.457 274.093C175 273.101 175 260.32 175 259.025C175 257.73 172.245 242.497 171.942 241.395H162.522Z" fill="#D17558"/>
<path d="M140.898 100.029C140.898 100.029 150.484 102.646 154.671 108.486C158.858 114.326 162.522 147.766 164.009 155.893C165.497 164.019 166.764 165.644 165.91 174.569C167.478 176.697 168.473 179.191 168.802 181.813C168.778 185.052 168.944 188.29 169.298 191.51C169.656 196.771 173.099 226.934 172.686 233.104C172.356 237.98 159.684 234.977 159.684 234.977C159.684 234.977 155.58 212.72 153.211 201.399C151.448 193.135 148.859 181.593 147.977 177.268C147.096 172.944 139.879 148.978 136.794 149.089L140.898 100.029Z" fill="#421851"/>
<path opacity="0.4" d="M172.686 233.104C172.686 232.911 172.686 232.691 172.686 232.471C170.482 232.471 168.031 228.587 166.13 227.87C164.229 227.154 162.769 230.956 160.621 231.534C158.472 232.112 162.742 224.179 163.127 222.444C163.513 220.708 159.767 217.789 158.803 215.64C157.78 212.971 157.041 210.201 156.599 207.376C156.599 206.412 165.717 216.273 166.158 214.538C166.598 212.803 157.894 205.035 156.213 201.564C154.533 198.093 152.908 193.3 154.368 192.639C155.828 191.978 168.609 206.412 168.995 204.842C169.38 203.272 153.101 188.562 153.101 188.562C153.101 188.562 156.792 181.4 157.37 179.665C157.949 177.929 149.63 172.42 148.748 170.795C147.867 169.17 150.098 159.556 151.062 152.973C152.026 146.389 139.052 131.845 139.052 131.845C138.364 132.038 138.584 134.352 138.088 134.875L136.876 149.199C139.961 149.199 147.178 173.054 148.06 177.378C148.941 181.703 151.531 193.162 153.294 201.509C155.58 212.72 159.767 234.977 159.767 234.977C159.767 234.977 172.355 237.98 172.686 233.104Z" fill="#396F36"/>
<path d="M28.8407 89.1485C28.8407 89.1485 30.1078 84.1075 31.0168 83.6393C33.1678 83.3956 35.2476 82.7211 37.1321 81.6559C38.7891 80.1919 40.6436 78.9679 42.6413 78.0199C42.6413 78.0199 42.9994 77.1384 41.7047 76.9731C40.4754 76.9045 39.2475 77.1312 38.1237 77.6342C37.1872 77.9648 33.8541 78.4055 33.799 77.827C33.799 77.827 33.1379 77.1659 35.5069 74.2736C38.1149 70.8077 40.5334 67.2031 42.7515 63.4756C42.7515 62.5115 42.2281 62.1809 41.6496 62.4564C41.0711 62.7318 35.011 70.7202 34.5978 70.7202C34.1846 70.7202 33.8816 70.4172 33.8265 69.9764C33.7714 69.5357 38.5645 58.1592 38.5645 57.1951C38.5645 56.231 37.7381 55.5974 36.8291 56.4789C35.92 57.3603 30.9067 68.4889 30.9067 68.4889C30.9067 68.4889 29.5569 69.398 29.2539 68.2961C28.9509 67.1943 30.7414 56.231 30.4108 56.0932C30.0803 55.9555 29.6395 54.6608 28.703 56.4513C27.7057 60.2356 27.0239 64.0961 26.6646 67.9931C26.6646 67.9931 25.9208 69.3704 25.3699 68.4063L23.1111 59.0406C23.1111 59.0406 22.6153 58.2694 22.0093 58.4897C21.7597 58.5826 21.5509 58.7607 21.4198 58.9925C21.2888 59.2244 21.2439 59.4951 21.2931 59.7568C21.2931 60.2527 22.5327 68.7093 22.6979 70.0315C21.8913 73.0382 21.2749 76.0926 20.8524 79.1768C20.948 80.4517 21.4391 81.6651 22.2572 82.6476L20.329 88.1568L28.8407 89.1485Z" fill="#D17558"/>
<path d="M65.3668 99.8639C60.1028 100.616 55.3142 103.32 51.9518 107.439C45.5612 114.711 39.5286 118.21 35.7548 122.589C31.981 126.969 24.7363 129.559 23.1111 131.597C23.1111 131.597 23.8273 127.52 26.1687 112.122C28.5102 96.7236 29.6671 89.2862 29.6671 89.2862L19.7781 87.661C19.7781 87.661 0 137.74 0 151.513C0 161.842 19.0619 158.62 22.8357 156.857C27.0212 156.332 31.0897 155.113 34.8733 153.248C43.6605 149.171 53.4944 146.582 55.5328 143.965C57.5712 141.348 64.1272 145.26 67.9285 144.158C71.7299 143.056 65.3668 99.8639 65.3668 99.8639Z" fill="#421851"/>
<path opacity="0.4" d="M55.5328 143.855C57.5712 141.238 64.1272 145.15 67.9285 144.048C68.0912 144 68.2292 143.891 68.3142 143.745L63.3559 120.578C63.3559 120.578 52.5303 124.545 47.875 131.597C43.2197 138.649 39.0878 147.684 34.5703 147.491C30.0527 147.298 27.7113 145.921 26.3064 146.72C24.9016 147.519 21.0727 156.003 18.3732 155.81C16.2797 155.81 7.35477 158.95 1.34973 155.286C5.83974 160.575 19.6128 158.041 22.7806 156.609C26.966 156.085 31.0346 154.865 34.8182 153C43.6605 149.061 53.4944 146.472 55.5328 143.855Z" fill="#396F36"/>
<path d="M85.861 445.264C85.861 445.264 86.467 459.67 85.3376 461.791C84.2082 463.912 81.0404 464.739 78.5062 465.235C77.0016 464.866 75.4739 464.599 73.9335 464.436C72.6664 464.436 72.6113 465.124 70.0771 466.998C66.3526 469.877 62.0181 471.865 57.4059 472.81C54.6513 473.526 49.1421 472.672 48.1229 468.926C47.6768 467.775 47.5906 466.517 47.876 465.317C48.1613 464.116 48.8046 463.031 49.7206 462.204C52.9434 458.706 64.9811 450.635 67.4602 446.944C69.9394 443.253 70.2148 443.088 71.1238 442.674C76.0811 443.259 81.0013 444.123 85.861 445.264Z" fill="#122129"/>
<path d="M119.274 445.264C119.274 445.264 118.668 459.67 119.77 461.791C120.872 463.912 123.957 464.766 126.712 465.262C128.207 464.893 129.725 464.626 131.257 464.463C132.524 464.463 132.607 465.152 135.141 467.025C138.859 469.898 143.183 471.886 147.784 472.837C150.539 473.553 156.048 472.7 157.095 468.953C157.541 467.803 157.627 466.544 157.342 465.344C157.057 464.144 156.413 463.059 155.497 462.232C152.247 458.734 140.209 450.663 137.758 446.972C135.306 443.28 135.003 443.115 134.094 442.702C129.109 443.272 124.161 444.127 119.274 445.264Z" fill="#122129"/>
<path d="M70.518 446.255C70.518 446.255 75.311 451.517 87.3762 447.798L101.149 276.654C101.452 276.654 105.722 276.654 106.025 276.654L119.798 447.798C131.863 451.517 136.656 446.255 136.656 446.255C136.656 446.255 141.587 293.265 141.063 269.217C140.705 252.689 139.383 227.898 139.383 227.898L103.573 230.129L69.0029 226.3C69.0029 226.3 66.4687 252.552 66.1106 269.134C65.8076 282.164 67.1298 333.096 68.3969 377.005C68.3969 377.005 69.058 414.219 68.0388 416.836C67.6674 417.358 67.4543 417.976 67.425 418.616C67.3956 419.256 67.5514 419.891 67.8736 420.445C68.493 421.883 68.8923 423.405 69.058 424.962C69.058 424.962 66.4963 427.882 67.1574 429.48C67.8057 430.815 68.5904 432.08 69.4988 433.254C69.4988 433.254 67.0196 434.714 67.1574 436.008C67.2951 437.303 69.6365 439.947 69.3335 440.801C69.0204 441.226 68.8013 441.713 68.691 442.23C68.5807 442.746 68.5816 443.28 68.6936 443.796C68.8057 444.312 69.0263 444.798 69.3409 445.222C69.6555 445.646 70.0567 445.998 70.518 446.255Z" fill="#523932"/>
<path d="M70.518 446.255C70.518 446.255 75.311 451.517 87.3762 447.798L101.149 276.654C101.452 276.654 105.722 276.654 106.025 276.654L119.798 447.798C131.863 451.517 138.474 445.346 138.474 445.346C138.474 445.346 141.587 293.265 141.063 269.217C140.705 252.689 139.383 227.898 139.383 227.898L103.573 230.129L69.0029 226.3C69.0029 226.3 66.4687 252.552 66.1106 269.134C65.8076 282.164 67.1298 333.096 68.3969 377.005C68.3969 377.005 69.058 414.219 68.0388 416.836C67.6674 417.358 67.4543 417.976 67.425 418.616C67.3956 419.256 67.5514 419.891 67.8736 420.445C68.493 421.883 68.8923 423.405 69.058 424.962C69.058 424.962 66.4963 427.882 67.1574 429.48C67.8057 430.815 68.5904 432.08 69.4988 433.254C69.4988 433.254 67.0196 434.714 67.1574 436.008C67.2951 437.303 69.6365 439.947 69.3335 440.801C69.0204 441.226 68.8013 441.713 68.691 442.23C68.5807 442.746 68.5816 443.28 68.6936 443.796C68.8057 444.312 69.0263 444.798 69.3409 445.222C69.6555 445.646 70.0567 445.998 70.518 446.255Z" fill="#846141"/>
<path opacity="0.5" d="M69.8018 428.158C67.24 426.119 71.5096 423.227 73.6582 420.61C75.8068 417.993 71.5096 400.832 69.8018 395.598C68.0939 390.364 71.2342 377.28 73.4654 374.085C75.6966 370.889 70.3527 367.391 69.8018 363.617C69.2509 359.843 72.9696 354.61 73.6582 349.1C74.3469 343.591 70.0772 331.636 68.149 329.322C66.2208 327.009 70.0772 296.763 71.73 293.843C73.3828 290.923 70.3527 286.874 69.8018 281.943C69.2509 277.012 77.9003 264.479 79.0848 258.199C79.5009 253.483 78.6945 248.739 76.7434 244.426L67.7358 240.845C67.0472 249.604 66.3034 260.705 66.1106 269.244C65.8076 282.274 67.1298 333.206 68.3969 377.115C68.3969 377.115 69.058 414.329 68.0388 416.946C67.6674 417.468 67.4543 418.086 67.425 418.726C67.3956 419.366 67.5514 420.001 67.8736 420.555C68.493 421.993 68.8923 423.516 69.058 425.072C69.058 425.072 66.4963 427.992 67.1574 429.59C67.8057 430.925 68.5904 432.19 69.4988 433.364C69.4988 433.364 67.0196 434.824 67.1574 436.118C67.2951 437.413 69.6365 440.057 69.3335 440.911C68.7594 441.952 68.5646 443.159 68.7826 444.327C72.1707 444.327 75.1182 445.952 77.6249 445.126C81.1232 443.969 69.361 440.911 71.73 437.854C74.099 434.796 79.6633 440.195 80.5172 437.854C81.3711 435.512 72.3911 430.196 69.8018 428.158Z" fill="#6D4C32"/>
<path opacity="0.5" d="M139.906 243.379C139.906 241.23 139.714 239.219 139.631 237.374C128.392 239.192 88.0647 244.894 68.0112 236.713C67.8459 238.779 67.6806 241.037 67.4878 243.434C91.067 250.808 116.338 250.789 139.906 243.379Z" fill="#6D4C32"/>
<path d="M139.741 239.66C139.411 232.801 139.163 227.925 139.163 227.925L103.353 230.157L69.0028 226.3C69.0028 226.3 68.4519 232.057 67.8184 239.853C78.093 242.415 108.504 248.557 139.741 239.66Z" fill="#000814"/>
<path d="M142.688 102.894C142.595 101.979 142.263 101.105 141.724 100.36C139.576 99.2028 115.555 92.0959 115.555 92.0959C114.206 89.782 114.096 77.7444 114.096 77.7444L103.876 73.9431H103.738L93.4911 77.7444C93.4911 77.7444 93.4911 89.782 92.0587 92.0959C92.0587 92.0959 68.011 99.0651 65.89 100.36C65.587 100.553 65.284 101.434 64.981 102.894L103.545 105.043L142.688 102.894Z" fill="#D17558"/>
<path d="M108.614 90.4982C110.804 89.9814 112.848 88.9736 114.592 87.5508C114.151 83.2812 114.096 77.8822 114.096 77.8822L103.876 74.0808H103.738L93.4913 77.8822C93.4913 77.8822 93.4913 80.6368 93.326 83.5566C96.7693 85.9807 104.675 91.242 108.614 90.4982Z" fill="#C66A42"/>
<path d="M128.695 47.554C128.695 47.554 131.284 42.9813 135.334 42.9262C137.73 42.9262 137.014 52.7326 134.535 55.2944C134.117 55.8357 133.571 56.2642 132.946 56.541C132.321 56.8178 131.637 56.9341 130.956 56.8793C130.274 56.8246 129.618 56.6006 129.045 56.2276C128.472 55.8546 128.001 55.3445 127.676 54.7435L128.695 47.554Z" fill="#D17558"/>
<path opacity="0.4" d="M129.246 54.4129C130.025 54.7053 130.881 54.7197 131.669 54.4536C132.457 54.1876 133.129 53.6575 133.571 52.953C134.865 50.4463 136.133 47.4438 135.113 45.2126C135.113 45.2126 132.359 45.8461 129.769 51.0523C129.769 51.0523 131.643 53.3937 129.246 54.4129Z" fill="#D17558"/>
<path d="M135.526 48.3528C135.521 47.4233 135.401 46.4981 135.168 45.5982C135.168 45.3503 134.976 45.2676 134.92 45.3778L134.314 45.7359C133.933 46.0007 133.574 46.2955 133.24 46.6174C132.544 47.2359 131.908 47.9183 131.339 48.6558C131.035 49.0022 130.785 49.3922 130.596 49.8127L129.907 51.0247V50.7768C130.42 51.4042 130.685 52.1983 130.651 53.0081C130.651 53.2009 130.651 53.4213 130.458 53.5865L130.045 54.0273C130.045 54.1925 129.687 54.2201 129.521 54.3027L128.998 54.5231L129.494 54.2476C129.494 54.2476 129.852 54.0824 129.935 53.9171L130.265 53.4763V52.9805C130.236 52.2714 129.953 51.5966 129.466 51.0798V50.9421L130.155 49.675C130.363 49.2331 130.622 48.8171 130.926 48.4354C131.517 47.6655 132.192 46.9633 132.937 46.3419C133.297 46.0158 133.684 45.7209 134.094 45.4604L134.728 45.1299C134.81 45.0787 134.906 45.0515 135.003 45.0515C135.1 45.0515 135.196 45.0787 135.279 45.1299C135.354 45.2527 135.418 45.3817 135.471 45.5155C135.653 46.451 135.672 47.4109 135.526 48.3528Z" fill="#D17558"/>
<path d="M134.673 48.8211C134.247 48.418 133.689 48.1831 133.103 48.16C132.892 48.1326 132.679 48.1326 132.469 48.16H131.891H131.285C131.446 48.0305 131.622 47.9196 131.808 47.8294C132.223 47.6133 132.691 47.5179 133.158 47.5539C133.394 47.568 133.625 47.6287 133.838 47.7328C134.051 47.8368 134.241 47.982 134.397 48.16C134.548 48.3508 134.643 48.5796 134.673 48.8211Z" fill="#D17558"/>
<path d="M107.43 84.4657C107.43 84.4657 119.633 78.5983 123.957 72.0148C127.428 67.3871 130.265 43.8352 130.678 40.1716C130.678 40.1716 130.678 39.9237 130.678 39.8135C130.686 39.7494 130.686 39.6848 130.678 39.6207C130.678 38.877 130.678 38.1057 130.678 37.3344C130.461 30.7036 127.674 24.4172 122.906 19.8036C118.138 15.19 111.764 12.6107 105.13 12.6107C98.4951 12.6107 92.1206 15.19 87.3531 19.8036C82.5855 24.4172 79.7983 30.7036 79.5806 37.3344C79.5806 38.2434 79.5806 39.1524 79.7183 40.089C79.7183 40.089 82.6382 66.9464 86.3844 72.0148C90.8469 79.5625 102.912 84.4657 102.912 84.4657C104.383 84.9251 105.959 84.9251 107.43 84.4657Z" fill="#D17558"/>
<path d="M81.2333 48.6283C81.2333 48.6283 78.644 44.0832 74.5947 44.0832C72.1982 44.0832 72.9144 53.8896 75.366 56.4513C75.7865 56.9924 76.3349 57.4203 76.9619 57.6967C77.589 57.9731 78.2749 58.0892 78.9579 58.0345C79.641 57.9799 80.2997 57.7562 80.8748 57.3837C81.4499 57.0111 81.9234 56.5014 82.2525 55.9004L81.2333 48.6283Z" fill="#D17558"/>
<path opacity="0.4" d="M80.6824 55.4872C79.9038 55.7796 79.048 55.794 78.2599 55.5279C77.4718 55.2619 76.7999 54.7318 76.3577 54.0273C75.063 51.5206 73.7959 48.5181 74.7876 46.2869C74.7876 46.2869 77.5422 46.9204 80.2968 52.1266C80.1591 52.1266 78.2584 54.468 80.6824 55.4872Z" fill="#D17558"/>
<path d="M74.3743 49.4271C74.2201 48.5154 74.2201 47.5842 74.3743 46.6725C74.399 46.5277 74.4661 46.3935 74.5671 46.2869C74.6486 46.2324 74.7445 46.2033 74.8425 46.2033C74.9406 46.2033 75.0365 46.2324 75.118 46.2869L75.724 46.6174C76.1429 46.8775 76.5391 47.1723 76.9085 47.4989C77.6407 48.1345 78.3137 48.8352 78.9193 49.5924C79.218 49.9782 79.4764 50.3936 79.6906 50.832L80.3793 52.1266C79.8929 52.6433 79.6092 53.3182 79.5805 54.0273V54.5507L79.911 54.9639C79.911 55.1291 80.1865 55.1842 80.3517 55.2944L80.82 55.5699L80.2966 55.3495C80.1443 55.2941 80.0041 55.2099 79.8835 55.1016L79.4703 54.6608L79.2774 54.0824C79.2434 53.2726 79.5081 52.4786 80.0212 51.8512V52.0991L79.3325 50.887C79.1372 50.47 78.887 50.081 78.5888 49.7301C78.0128 48.9992 77.377 48.3174 76.6881 47.6917C76.354 47.3698 75.9948 47.075 75.6138 46.8102L75.0078 46.4521C75.0078 46.4521 74.8701 46.4521 74.7599 46.6725C74.5181 47.5712 74.3885 48.4965 74.3743 49.4271Z" fill="#D17558"/>
<path d="M75.2556 49.8954C75.2986 49.6829 75.3932 49.4843 75.5311 49.3169C75.6853 49.1365 75.8748 48.9897 76.088 48.8854C76.3013 48.7812 76.5336 48.7218 76.7707 48.7109C77.2375 48.6749 77.705 48.7703 78.1204 48.9864L78.6162 49.3169H78.0378H77.4593C77.249 49.2892 77.036 49.2892 76.8257 49.3169C76.249 49.3098 75.6899 49.5158 75.2556 49.8954Z" fill="#D17558"/>
<path d="M108.228 58.8478C108.228 58.8478 108.228 63.3379 107.292 63.8337C106.355 64.3295 107.43 61.2168 108.228 58.8478Z" fill="#D17558"/>
<path d="M113.683 67.7452C113.116 69.5301 112.024 71.1027 110.55 72.2575C109.076 73.4124 107.288 74.0958 105.419 74.2185C103.531 74.3457 101.666 73.746 100.207 72.5424C98.7471 71.3388 97.8031 69.6225 97.5682 67.7452C97.5682 67.7452 111.424 68.0482 113.683 67.7452Z" fill="#D17558"/>
<path d="M99.1657 39.5656C97.7031 38.0253 95.8782 36.8755 93.8574 36.2212C91.8366 35.5668 89.6842 35.4287 87.5963 35.8194C87.5963 35.8194 85.3927 37.9129 85.2825 38.9871C89.9065 38.3266 94.6126 38.5227 99.1657 39.5656Z" fill="#231114"/>
<path d="M111.451 39.5656C111.451 39.5656 117.346 34.6073 121.919 35.7918C122.694 36.0659 123.403 36.4992 124.001 37.0637C124.598 37.6283 125.072 38.3116 125.389 39.0698C120.752 38.3759 116.027 38.544 111.451 39.5656Z" fill="#231114"/>
<path d="M102.802 84.4656C104.011 84.8569 105.301 84.9328 106.548 84.686C89.4143 78.984 82.1973 57.4981 82.1973 57.4981C83.3267 63.7786 84.7866 69.8662 86.3843 72.0148C90.9018 79.5624 102.802 84.4656 102.802 84.4656Z" fill="#E38A62"/>
<path d="M65.3667 99.8639C65.3667 99.8639 58.8107 129.476 69.2782 158.179C69.2782 158.179 70.1597 183.466 69.9669 190.656C69.7741 197.322 63.3558 231.534 68.8651 234.151C68.8651 234.151 105.308 244.563 138.254 234.784C138.254 234.784 144.562 236.189 141.008 211.122C139.741 202.335 138.777 180.464 136.876 166.47C136.876 166.47 143.57 144.433 144.424 132.451C144.764 121.872 144.304 111.282 143.047 100.773L115.225 91.4072C115.225 91.4072 105.556 104.271 103.546 104.216C101.535 104.161 96.3285 95.4014 92.3894 91.4072L65.3667 99.8639Z" fill="#421851"/>
<path opacity="0.4" d="M106.107 235.308C92.3343 235.308 78.5613 230.763 73.3275 226.796C68.0938 222.829 73.3275 214.483 73.3275 214.483C80.1865 217.596 100.02 224.372 101.177 222.747C102.334 221.122 98.5597 219.441 98.5597 219.441C90.5163 216.521 75.3935 205.668 73.7683 203.933C72.1431 202.197 71.234 196.964 73.4377 196C75.6414 195.035 85.7783 208.202 89.6623 205.668C93.5463 203.134 75.5037 189.802 73.7683 185.339C72.0329 180.877 83.3267 153.248 85.3927 148.207C87.0455 143.91 68.8651 125.867 63.3559 120.661C63.0673 133.448 65.0731 146.183 69.2783 158.261C69.2783 158.261 70.1597 183.549 69.9669 190.738C69.7741 197.322 63.3559 231.534 68.8651 234.151C68.8651 234.151 104.675 244.37 137.317 235.06C132.937 233.572 117.071 235.253 106.107 235.308Z" fill="#396F36"/>
<path d="M99.7166 50.0882C98.7873 48.8352 97.5147 47.8784 96.053 47.3336C92.4169 45.8736 85.8334 46.4521 86.164 49.1792C86.164 49.1792 86.4394 51.7134 91.0396 51.9338C94.0594 52.3693 97.1355 51.715 99.7166 50.0882Z" fill="white"/>
<path d="M99.7166 50.0882C98.7873 48.8352 97.5147 47.8784 96.053 47.3336C92.4169 45.8736 85.8334 46.4521 86.164 49.1792C86.164 49.1792 86.4394 51.7134 91.0396 51.9338C94.0594 52.3693 97.1355 51.715 99.7166 50.0882Z" fill="white"/>
<path d="M96.0529 47.2509C94.0925 46.5631 92.002 46.3277 89.9377 46.5623C89.4096 46.8145 88.9579 47.2024 88.6288 47.6864C88.2997 48.1704 88.105 48.733 88.0646 49.3169C88.0761 49.7628 88.1888 50.2002 88.3939 50.5962C88.5991 50.9923 88.8915 51.3366 89.2491 51.6032C89.8345 51.7627 90.4342 51.8642 91.0395 51.9062C92.8366 52.0579 94.6461 51.9465 96.411 51.5757C96.7337 51.3035 96.996 50.9668 97.181 50.5873C97.366 50.2078 97.4697 49.7939 97.4853 49.372C97.488 48.7412 97.2741 48.1286 96.8793 47.6366L96.0529 47.2509Z" fill="#231114"/>
<path d="M99.7165 50.0882L99.3309 49.5924C98.9462 49.2475 98.5415 48.9255 98.1188 48.6283C97.8422 48.4104 97.5473 48.2169 97.2374 48.0498L96.0804 47.4713C95.6268 47.2439 95.1452 47.0772 94.648 46.9755C94.1059 46.837 93.553 46.7448 92.9953 46.7C91.8526 46.548 90.6947 46.548 89.552 46.7C89.0665 46.7717 88.5875 46.8823 88.1196 47.0306C87.7683 47.1506 87.4348 47.3173 87.128 47.5264C86.7374 47.7612 86.4368 48.12 86.274 48.5456V48.9588V48.5181C86.2793 48.2984 86.334 48.0828 86.4342 47.8873C86.5343 47.6917 86.6773 47.5213 86.8525 47.3887C87.1586 47.1137 87.5137 46.8988 87.8993 46.7551C88.4137 46.5489 88.9496 46.4011 89.4969 46.3144C90.7945 46.1334 92.1109 46.1334 93.4085 46.3144C94.0406 46.3886 94.6666 46.5083 95.2816 46.6725C95.8219 46.7869 96.3419 46.9819 96.8242 47.251L97.9811 47.9121C98.2628 48.1131 98.5297 48.3341 98.78 48.5732C99.1385 48.8803 99.4455 49.243 99.689 49.6475C99.7079 49.7936 99.7171 49.9408 99.7165 50.0882Z" fill="#231114"/>
<path d="M110.46 50.0882C111.389 48.8352 112.661 47.8784 114.123 47.3336C117.759 45.8736 124.343 46.4521 123.985 49.1792C123.985 49.1792 123.737 51.7134 119.137 51.9338C116.117 52.3693 113.041 51.715 110.46 50.0882Z" fill="white"/>
<path d="M114.123 47.251C113.279 47.6044 112.491 48.0776 111.782 48.6558C111.755 48.8661 111.755 49.079 111.782 49.2894C111.778 50.0081 112.054 50.7001 112.553 51.2176C114.708 51.8872 116.97 52.1396 119.219 51.9613H119.577C120.06 51.6799 120.46 51.278 120.74 50.7951C121.02 50.3123 121.17 49.7649 121.175 49.2067C121.132 48.62 120.933 48.0553 120.599 47.5711C120.265 47.0869 119.808 46.7006 119.274 46.4521C117.521 46.3725 115.77 46.6441 114.123 47.251Z" fill="#231114"/>
<path d="M110.46 50.0882C110.507 49.9382 110.582 49.7982 110.68 49.675C110.921 49.2764 111.218 48.9146 111.561 48.6007C111.809 48.4079 112.03 48.16 112.36 47.9396L113.545 47.2785C114.016 47.0065 114.527 46.8112 115.06 46.7C115.684 46.5363 116.319 46.4166 116.96 46.3419C118.258 46.161 119.574 46.161 120.872 46.3419C121.419 46.4286 121.955 46.5765 122.47 46.7827C122.849 46.9392 123.202 47.1529 123.516 47.4162C123.693 47.5457 123.835 47.7161 123.931 47.9129C124.027 48.1097 124.074 48.3268 124.067 48.5456V48.9864C124.067 48.9864 124.067 48.8486 124.067 48.5732C123.917 48.1484 123.626 47.7884 123.241 47.554C122.924 47.3455 122.581 47.1788 122.222 47.0581C121.754 46.9098 121.275 46.7993 120.789 46.7276C119.656 46.5757 118.507 46.5757 117.374 46.7276C116.807 46.7724 116.245 46.8645 115.693 47.003C115.206 47.1091 114.734 47.2756 114.289 47.4989L113.132 48.0773C112.817 48.2512 112.513 48.4444 112.223 48.6558C111.672 49.0414 111.314 49.3995 111.038 49.6199C110.83 49.7566 110.637 49.9134 110.46 50.0882Z" fill="#231114"/>
<path d="M91.6456 48.766C91.6456 49.2618 90.8467 49.8127 89.6898 49.9505C88.5329 50.0882 87.5963 49.7852 87.5136 49.2618C87.431 48.7384 88.34 48.2151 89.4694 48.0773C90.5988 47.9396 91.5905 48.2426 91.6456 48.766Z" fill="white"/>
<path d="M122.91 49.2343C122.91 49.7301 121.809 49.9505 120.679 49.7025C119.55 49.4546 118.723 48.8211 118.861 48.3252C118.999 47.8294 119.963 47.5815 121.092 47.857C122.222 48.1324 123.048 48.7109 122.91 49.2343Z" fill="white"/>
<path d="M93.1882 85.9256C93.1882 85.9256 91.8385 85.3471 90.6815 87.3029L87.4862 92.9498C87.4862 92.9498 89.5797 107.136 90.6815 110.992C90.6815 110.992 96.962 100.966 99.7167 102.343C101.517 103.428 102.874 105.116 103.546 107.108C103.679 105.469 103.586 103.819 103.27 102.205C102.774 99.8639 93.8218 90.9114 93.1882 85.9256Z" fill="#F5F8E6"/>
<path d="M114.371 85.9256C114.371 85.9256 115.721 85.3471 116.85 87.3029L120.073 92.9498C120.073 92.9498 117.952 107.136 116.85 110.992C116.85 110.992 110.597 100.966 107.843 102.343C105.969 103.47 104.473 105.129 103.545 107.108C103.428 105.487 103.521 103.858 103.821 102.26C104.344 99.9465 113.737 90.9114 114.371 85.9256Z" fill="#F5F8E6"/>
<path d="M70.4904 233.93C70.072 236.396 69.8784 238.895 69.9119 241.395C70.2937 241.707 70.7345 241.938 71.2078 242.076C71.6811 242.213 72.1772 242.253 72.6665 242.194C73.2034 239.767 73.5169 237.296 73.6031 234.812C73.6031 234.812 73.7684 233.93 73.245 233.71C72.2809 233.324 70.6281 232.774 70.4904 233.93Z" fill="#9E7453"/>
<path d="M84.0707 236.63C83.6396 239.094 83.4459 241.594 83.4922 244.095C83.8697 244.414 84.31 244.65 84.7846 244.787C85.2591 244.925 85.7573 244.961 86.2468 244.894C86.7854 242.467 87.0989 239.996 87.1834 237.511C87.1834 237.511 87.3762 236.63 86.8253 236.41C86.2743 236.189 84.2084 235.501 84.0707 236.63Z" fill="#9E7453"/>
<path d="M134.507 234.867C134.908 237.362 135.065 239.89 134.976 242.415C134.197 243.03 133.208 243.317 132.221 243.214C131.684 240.777 131.371 238.297 131.285 235.804C131.285 235.804 131.119 234.95 131.67 234.729C132.221 234.509 134.37 233.71 134.507 234.867Z" fill="#9E7453"/>
<path d="M120.927 237.567C121.367 240.076 121.561 242.622 121.506 245.169C121.129 245.489 120.689 245.726 120.214 245.864C119.739 246.002 119.241 246.037 118.751 245.968C118.213 243.541 117.899 241.07 117.815 238.586C117.815 238.586 117.622 237.704 118.173 237.484C119.137 236.905 120.79 236.437 120.927 237.567Z" fill="#9E7453"/>
<path d="M109.688 237.429H95.9429C95.6234 237.429 95.3644 237.688 95.3644 238.007V244.811C95.3644 245.131 95.6234 245.39 95.9429 245.39H109.688C110.008 245.39 110.267 245.131 110.267 244.811V238.007C110.267 237.688 110.008 237.429 109.688 237.429Z" fill="#91AFB8"/>
<path d="M95.3644 242.552V244.784C95.3607 244.862 95.3729 244.94 95.4003 245.013C95.4277 245.087 95.4697 245.154 95.5238 245.211C95.5779 245.267 95.6429 245.312 95.715 245.343C95.787 245.374 95.8646 245.39 95.9429 245.39H109.716C109.872 245.383 110.019 245.316 110.127 245.203C110.234 245.09 110.295 244.94 110.294 244.784V242.552H95.3644Z" fill="#74969D"/>
<path d="M110.184 238.338V238.007C110.184 237.854 110.123 237.707 110.015 237.598C109.906 237.49 109.759 237.429 109.606 237.429H95.8326C95.6792 237.429 95.5321 237.49 95.4236 237.598C95.3151 237.707 95.2542 237.854 95.2542 238.007V238.338H110.184Z" fill="#D5E5E9"/>
<path opacity="0.5" d="M123.268 439.204C120.514 437.165 121.505 435.127 124.15 426.698C126.794 418.269 125.582 410.418 124.15 408.407C122.718 406.396 114.454 383.616 117.787 383.092C121.12 382.569 129.962 398.518 133.268 396.865C136.573 395.213 113.545 372.46 117.787 371.303C122.029 370.146 129.081 385.544 131.339 383.505C133.598 381.467 118.31 364.223 116.575 359.375C114.839 354.527 120.927 355.601 121.616 352.406C122.304 349.211 117.153 338.44 114.426 330.59C111.699 322.739 123.268 311.996 122.965 302.685C122.662 293.375 105.914 276.682 105.914 276.682L118.448 447.798C123.64 449.714 129.363 449.606 134.48 447.495C134.747 446.783 134.86 446.022 134.81 445.264C134.728 442.509 125.885 441.242 123.268 439.204Z" fill="#6D4C32"/>
<path opacity="0.4" d="M19.8607 83.2536L16.5828 92.3714L29.86 95.1811L31.5678 85.6226L19.8607 83.2536Z" fill="#47ADCB"/>
<path opacity="0.4" d="M160.786 243.269L158.803 233.765L173.265 232.388L173.513 242.167L160.786 243.269Z" fill="#47ADCB"/>
<path d="M80.6824 47.9396C82.0207 43.9406 82.9437 39.8145 83.437 35.6265C83.437 31.9078 83.437 24.6081 85.2 23.7817C89.6173 21.9593 94.4671 21.4523 99.1658 22.3218C104.84 23.6165 116.162 26.3986 123.957 24.6357C125.169 25.6329 126.131 26.8993 126.767 28.3339C127.403 29.7686 127.696 31.3319 127.621 32.8995C127.614 37.4258 128.235 41.9312 129.466 46.2868L131.174 44.5514C131.174 44.5514 137.042 32.0731 133.709 20.4211C133.709 20.4211 136.904 12.295 132.249 9.67815C125.582 6.25369 118.689 3.29013 111.617 0.808328C106.226 -0.578804 100.531 -0.172679 95.392 1.96526C91.7835 4.1414 78.8644 12.9837 77.2392 13.9202C75.8429 15.3766 74.8457 17.1684 74.3438 19.1226C73.842 21.0769 73.8525 23.1274 74.3744 25.0764C74.3744 25.0764 70.7383 30.3101 75.2559 44.0832C75.2559 44.0832 79.5255 45.185 80.6824 47.9396Z" fill="#331917"/>
<path d="M112.03 69.4806C112.388 69.4806 112.829 68.2961 112.939 67.8003C109.744 67.9656 99.9372 67.8003 97.8712 67.8003C97.9105 68.1194 98.0167 68.4267 98.1829 68.702C98.349 68.9773 98.5713 69.2144 98.8353 69.398C103.203 70.1086 107.654 70.1365 112.03 69.4806Z" fill="white"/>
<path d="M109.661 72.979C108.364 71.9432 106.762 71.3654 105.102 71.3355C103.443 71.3056 101.821 71.8253 100.488 72.8137C101.936 73.7133 103.603 74.1991 105.308 74.2185C106.849 74.2399 108.362 73.8089 109.661 72.979Z" fill="#F3747B"/>
<path opacity="0.6" d="M80.6825 47.9396C82.0207 43.9406 82.9438 39.8145 83.4371 35.6265C83.4371 31.9078 83.4371 24.6081 85.2001 23.7817C89.6174 21.9593 94.4672 21.4523 99.1659 22.3218C104.84 23.6164 116.162 26.3986 123.957 24.6356C125.169 25.6329 126.131 26.8993 126.767 28.3339C127.403 29.7686 127.696 31.3319 127.621 32.8995C127.614 37.4258 128.235 41.9312 129.467 46.2868L131.174 44.5514C131.77 43.2249 132.285 41.8634 132.717 40.4746C129.384 42.4579 131.918 27.0046 130.513 18.1072C128.943 7.94275 106.08 15.9311 103.821 16.785C101.562 17.639 96.7419 13.7825 88.1475 15.1874C79.5531 16.5922 82.9413 33.0647 78.6166 34.9654C76.771 35.8469 74.7877 33.23 73.1074 29.952C72.8925 34.7329 73.6323 39.5087 75.2835 44.0005C75.2835 44.0005 79.5256 45.185 80.6825 47.9396Z" fill="#260B0D"/>
<path opacity="0.5" d="M130.486 8.6865C124.346 5.71433 118.047 3.08425 111.617 0.808328C106.226 -0.578804 100.531 -0.172679 95.3921 1.96526C92.6375 3.59048 84.8695 8.87932 80.3795 11.8818C85.4755 9.81588 92.4447 6.78582 97.4581 4.88514C105.722 1.6898 122.745 13.0112 128.31 10.9728C128.843 10.8203 129.326 10.5279 129.709 10.1259C130.092 9.72396 130.36 9.22698 130.486 8.6865Z" fill="#493123"/>
<path d="M129.687 43.8628L126.712 43.2293C123.103 39.5105 111.809 41.604 109.688 43.2293L109.275 43.5598C106.399 43.9781 103.473 43.8942 100.626 43.3119C98.5047 41.6591 87.2384 39.5656 83.6023 43.3119C83.6023 43.3119 81.1783 43.7802 80.5447 43.9455C80.1949 44.8303 80.1949 45.8152 80.5447 46.7001L82.6382 47.554C82.7727 50.3523 83.5153 53.0877 84.8144 55.5699C86.1366 57.1125 95.8328 58.5449 99.1107 55.5699C100.954 53.7142 102.077 51.2634 102.279 48.6558C105.364 44.1934 108.008 48.2977 108.008 48.2977C108.189 50.9968 109.321 53.5443 111.203 55.4872C114.537 58.4071 124.205 56.9747 125.5 55.4872C126.801 53.0044 127.553 50.2705 127.704 47.4713L129.769 46.5899C130.083 45.7024 130.054 44.7297 129.687 43.8628ZM98.3395 55.1016C95.3645 57.7185 86.4396 56.2861 85.2826 54.9363C83.7125 53.0907 83.5197 46.5348 83.5197 46.5348C83.5197 39.8686 97.2927 42.2101 99.6617 43.973C100.284 44.419 100.824 44.9688 101.259 45.5982L101.425 46.094C101.232 47.7193 101.232 52.5949 98.3395 55.1016ZM124.894 54.8261C123.709 56.1759 114.812 57.5807 111.837 54.9914C109.815 52.6229 108.737 49.5929 108.807 46.4797L109.716 44.5515C109.959 44.3045 110.227 44.083 110.515 43.8904C112.774 42.0999 126.657 39.786 126.629 46.4246C126.712 46.4797 126.464 53.0632 124.894 54.8812V54.8261Z" fill="#000718"/>
</svg>
