<svg width="347" height="388" viewBox="0 0 347 388" fill="none" xmlns="http://www.w3.org/2000/svg">
<path d="M147.986 320.014C55.8363 302.529 11.6535 327.299 1.0808 341.869C-8.93545 374.964 50.3273 384.019 193.059 387.765C335.79 391.512 375.021 349.362 328.278 337.498C281.536 325.634 263.173 341.869 147.986 320.014Z" fill="#F1F1F1"/>
<path d="M143.875 192.901L148.422 187.748L146.778 183.353L140.6 191.898L142.453 204.395L144.155 204.454L143.875 192.901Z" fill="#D9916F"/>
<path d="M146.254 189.473L142.919 190.884L144.773 203.393L146.475 203.451L146.254 189.473Z" fill="#D9916F"/>
<path d="M145.647 191.001L143.432 192.808L147.862 201.737L149.18 201.399L145.647 191.001Z" fill="#D9916F"/>
<path d="M159.287 190.184L147.21 207.904L138.186 199.091L137.837 197.844L150.742 181.278L159.077 189.473L159.287 190.184Z" fill="#A3A5A8"/>
<path d="M159.077 189.473L147.011 207.042L137.837 197.844L150.392 180.031L159.077 189.473Z" fill="#BCBEC0"/>
<path d="M157.911 189.916L147.851 204.559L139.714 196.363L150.182 181.511L157.911 189.916Z" fill="#9B9DA0"/>
<path d="M157.573 190.033L147.886 204.127L140.052 196.247L150.124 181.954L157.573 190.033Z" fill="#56B9D6"/>
<path d="M147.886 204.127L140.052 196.247L150.124 181.954L147.886 204.127Z" fill="#4DA4BD"/>
<path d="M146.755 177.326L151.173 185.253L152.013 191.665L149.39 192.295L145.927 185.556L141.812 191.84L141.742 204.559L140.203 204.151L137.837 190.861L138.874 179.005L146.755 177.326Z" fill="#D17558"/>
<path d="M152.304 108.79C152.304 108.79 151.675 113.15 150.824 119.736C150.404 123.024 149.926 126.871 149.483 130.963C149.261 133.014 149.04 135.125 148.853 137.246C148.667 139.368 148.492 141.536 148.41 143.576L148.34 145.08V146.386C148.34 147.552 148.399 148.624 148.434 149.743C148.515 151.9 148.492 154.208 148.527 156.353C148.562 158.499 148.527 160.539 148.527 162.486C148.527 164.432 148.457 166.263 148.422 167.953C148.329 171.334 148.236 174.143 148.177 176.114C148.119 178.084 148.061 179.226 148.061 179.226L137.79 179.156C137.79 179.156 137.79 177.99 137.685 176.125C137.58 174.26 137.475 171.462 137.324 168.105C137.231 166.449 137.126 164.666 137.021 162.765C136.916 160.865 136.683 158.895 136.589 156.843C136.496 154.791 136.286 152.786 136.03 150.571C135.925 149.487 135.808 148.403 135.703 147.307L135.517 145.279V143.39C135.517 140.965 135.517 138.669 135.61 136.395C135.703 134.122 135.797 131.93 135.902 129.809C136.123 125.565 136.391 121.648 136.636 118.267C137.126 111.529 137.534 107.018 137.534 107.029L152.304 108.79Z" fill="#4374BA"/>
<path d="M152.386 114.828L150.054 124.481C150.054 124.481 140.32 125.787 136.823 119.491C136.823 109.081 136.927 87.9337 151.08 81.1372C159.485 77.1036 152.386 114.828 152.386 114.828Z" fill="#4374BA"/>
<path d="M201.454 152.262C201.454 152.262 201.722 164.281 202.106 182.292C202.27 191.292 202.444 201.807 202.526 213.08C202.526 218.723 202.584 224.552 202.526 230.509C202.468 236.466 202.444 242.47 202.141 248.742V249.908L202.048 251.073L201.885 253.312C201.78 254.804 201.675 256.296 201.558 257.777C201.349 260.761 201.127 263.722 200.917 266.66C200.509 272.489 200.043 278.318 199.577 283.96C198.667 295.175 197.816 305.655 197.094 314.62L194.587 344.488L184.095 343.846C184.095 343.846 184.515 331.885 185.156 313.921C185.447 304.956 185.785 294.499 186.147 283.296C186.333 277.7 186.52 271.918 186.636 266.007C186.718 263.069 186.788 260.097 186.858 257.112L186.963 252.624L187.021 250.386V249.325V248.31C187.021 242.61 186.846 236.653 186.636 230.824C186.427 224.995 186.158 219.166 185.867 213.628C185.307 202.46 184.701 192.015 184.153 183.073L182.241 153.183L201.454 152.262Z" fill="#D17558"/>
<path d="M209.847 158.895C209.847 158.895 209.276 170.098 208.402 186.874C207.994 195.267 207.411 205.118 206.816 215.645C206.222 226.172 205.58 237.41 204.939 248.648V249.698L204.858 250.863L204.683 252.962L204.333 257.147C204.1 259.937 203.867 262.708 203.634 265.459C203.191 270.95 202.713 276.382 202.211 281.64C201.244 292.132 200.334 301.948 199.565 310.353C197.968 327.117 196.895 338.332 196.895 338.332L182.603 337.458C182.603 337.458 182.871 326.255 183.279 309.479C183.454 301.085 183.664 291.304 183.885 280.824C184.002 275.59 184.095 270.181 184.153 264.655C184.153 261.892 184.223 259.106 184.258 256.319C184.258 254.92 184.258 253.521 184.316 252.123V250.012V247.996C184.316 236.816 184.2 225.636 184.142 215.156C184.083 204.675 184.06 194.918 183.955 186.489L183.664 158.51L209.847 158.895Z" fill="#37444A"/>
<path d="M179.012 153.346C179.012 153.346 177.975 165.237 176.599 183.12C175.923 192.061 175.153 202.483 174.442 213.64C174.081 219.224 173.755 224.983 173.463 230.812C173.172 236.641 172.915 242.61 172.95 248.299V249.371V250.432L173.008 252.67C173.008 254.174 173.078 255.667 173.125 257.159C173.195 260.143 173.265 263.112 173.335 266.065C173.463 271.964 173.65 277.723 173.824 283.354C174.198 294.557 174.536 305.026 174.827 313.991L175.876 343.916L165.384 344.557L162.901 314.643C162.167 305.667 161.316 295.187 160.406 283.972C159.952 278.353 159.485 272.547 159.077 266.672C158.856 263.722 158.646 260.761 158.424 257.777C158.32 256.296 158.203 254.804 158.098 253.312L157.935 251.073L157.853 249.908V248.742C157.55 242.412 157.585 236.408 157.608 230.427C157.632 224.447 157.725 218.618 157.853 212.941C158.086 201.656 158.413 191.14 158.716 182.129C159.322 164.118 159.882 152.098 159.882 152.098L179.012 153.346Z" fill="#D17558"/>
<path d="M177.59 169.643C177.59 169.643 177.264 180.135 176.786 195.908C176.576 203.766 176.343 212.952 176.086 222.721C175.935 227.664 175.911 232.666 175.841 237.795C175.841 240.36 175.771 242.948 175.736 245.536C175.736 246.807 175.736 248.077 175.736 249.36V253.3C175.806 258.558 175.876 263.792 175.935 269.003C175.993 274.214 176.133 279.239 176.226 284.158C176.436 293.997 176.634 303.184 176.797 311.053L177.485 337.4L163.181 338.274C163.181 338.274 162.19 327.782 160.686 312.067C159.952 304.186 159.101 294.988 158.191 285.138C157.748 280.206 157.247 275.088 156.827 269.982C156.408 264.876 155.953 259.572 155.51 254.326L155.184 250.397L154.939 246.34L154.484 238.448C154.193 233.225 153.855 228.049 153.656 223.13C153.213 213.244 152.805 204.011 152.491 196.095L151.441 169.76L177.59 169.643Z" fill="#37444A"/>
<path d="M155.592 357.171L175.748 343.683C176.331 345.618 178.313 355.947 178.313 355.947C178.313 355.947 178.639 359.223 177.998 359.888C175.666 362.336 168.672 366.754 166.935 368.538C158.319 377.234 146.265 373.108 145.508 369.202C145.441 368.387 145.441 367.569 145.508 366.754C149.136 363.853 152.509 360.647 155.592 357.171Z" fill="#E8E9EA"/>
<path d="M155.592 354.735C159 350.519 162.116 346.074 164.918 341.433C168.526 341.806 172.166 341.743 175.76 341.247C176.564 343.881 180.015 355.119 177.613 357.568C175.212 360.016 168.707 364.306 166.993 366.055C158.378 374.74 146.324 370.613 145.566 366.707C144.808 362.802 151.616 359.701 155.592 354.735Z" fill="#1B75BC"/>
<path d="M151.593 358.71C152.81 359.026 153.984 359.488 155.09 360.086C158.743 362.013 161.538 365.242 162.924 369.132C154.974 373.865 146.125 370.088 145.437 366.801C144.971 364.003 148.235 361.625 151.593 358.71Z" fill="white"/>
<path d="M160.768 357.568L160.919 357.393C161.187 357.09 161.584 356.623 162.085 356.04L162.33 355.749L163.671 354.094C163.88 353.837 164.09 353.581 164.3 353.301L165.396 351.914L165.804 351.412L167.11 349.734C167.284 349.489 167.483 349.256 167.669 349.011L168.742 347.612L169.581 346.446C170.047 345.832 170.479 345.249 170.875 344.697C172.216 342.844 173.032 341.55 172.717 341.573C170.113 341.707 167.502 341.648 164.906 341.398C164.906 341.398 164.568 341.969 163.927 342.96C163.647 343.38 163.332 343.881 162.948 344.441C162.9 344.533 162.842 344.62 162.773 344.697C162.423 345.222 162.038 345.863 161.607 346.446L161.001 347.32C160.686 347.787 160.336 348.276 159.987 348.778L159.555 349.372C159.171 349.908 158.763 350.48 158.331 351.063C158.238 351.179 158.156 351.307 158.063 351.436L156.991 352.87L156.559 353.441L155.603 354.7C155.501 354.829 155.408 354.966 155.324 355.108C153.307 358.407 158.168 360.435 160.768 357.568Z" fill="#58595B"/>
<path d="M162.948 344.476L163.216 344.732L165.046 346.481L167.669 348.999L168.742 347.6L167.576 346.434L165.746 344.686L163.927 342.949C163.647 343.415 163.332 343.905 162.948 344.476Z" fill="#DEDFE0"/>
<path d="M161.595 346.481H169.581C170.047 345.867 170.479 345.284 170.875 344.732H162.773C162.423 345.257 162.038 345.84 161.595 346.481Z" fill="white"/>
<path d="M159.998 348.813L160.593 349.454L162.33 351.272L164.277 353.301L165.373 351.914L164.86 351.377L163.111 349.559L160.989 347.402C160.674 347.822 160.325 348.311 159.998 348.813Z" fill="#DEDFE0"/>
<path d="M158.32 351.098L162.318 351.272L164.848 351.377H165.769L167.11 349.734L163.111 349.57L160.581 349.465H159.555C159.159 349.943 158.751 350.515 158.32 351.098Z" fill="white"/>
<path d="M156.979 352.905L157.562 353.569L159.241 355.481L160.919 357.393C161.187 357.09 161.584 356.623 162.085 356.04L161.782 355.691L160.103 353.791L158.075 351.459L156.979 352.905Z" fill="#DEDFE0"/>
<path d="M155.335 355.143L159.264 355.481L161.782 355.691L162.33 355.749L163.671 354.094L160.103 353.79L157.585 353.569L156.571 353.476L155.615 354.735C155.513 354.864 155.419 355.001 155.335 355.143Z" fill="white"/>
<path d="M204.368 357.101L184.2 343.613C183.617 345.548 181.635 355.866 181.635 355.866C181.635 355.866 181.309 359.153 181.95 359.818C184.352 362.266 191.276 366.672 193.025 368.468C201.629 377.153 213.683 373.038 214.452 369.121C214.513 368.309 214.513 367.495 214.452 366.684C210.821 363.786 207.447 360.58 204.368 357.101Z" fill="#E8E9EA"/>
<path d="M204.368 354.653C200.962 350.44 197.846 346 195.042 341.363C191.433 341.729 187.794 341.667 184.2 341.177C183.407 343.811 179.957 355.05 182.346 357.498C184.736 359.946 191.241 364.236 193.025 366.02C201.628 374.716 213.683 370.589 214.452 366.684C215.222 362.779 208.332 359.631 204.368 354.653Z" fill="#1B75BC"/>
<path d="M208.355 358.64C207.138 358.958 205.964 359.42 204.858 360.016C201.205 361.943 198.409 365.172 197.023 369.062C204.974 373.784 213.822 370.018 214.51 366.731C214.988 363.921 211.724 361.543 208.355 358.64Z" fill="white"/>
<path d="M199.192 357.498L199.029 357.311C198.772 357.02 198.376 356.553 197.863 355.971L197.606 355.667C197.222 355.178 196.767 354.618 196.277 354.024L195.671 353.231L194.575 351.855L194.179 351.354L192.85 349.664L192.29 348.929C191.917 348.463 191.556 347.985 191.206 347.53L190.367 346.364L189.073 344.616C187.744 342.762 186.916 341.468 187.231 341.48C189.835 341.614 192.445 341.56 195.042 341.317C195.042 341.317 195.38 341.876 196.033 342.879C196.301 343.298 196.627 343.788 197.012 344.359C197.059 344.449 197.114 344.535 197.175 344.616L198.341 346.364L198.947 347.239C199.273 347.705 199.611 348.195 199.973 348.696L200.404 349.291C200.789 349.827 201.185 350.398 201.57 350.969L201.838 351.354L202.899 352.788L203.342 353.359C203.645 353.767 203.972 354.187 204.298 354.607C204.399 354.741 204.493 354.881 204.578 355.026C206.63 358.325 201.78 360.366 199.192 357.498Z" fill="#58595B"/>
<path d="M197.012 344.406L196.744 344.662L194.972 346.411L192.29 348.917C191.917 348.451 191.556 347.973 191.206 347.519L192.372 346.353L194.214 344.604L196.033 342.867C196.301 343.345 196.627 343.835 197.012 344.406Z" fill="#DEDFE0"/>
<path d="M198.352 346.411H190.367L189.073 344.662H197.233L198.352 346.411Z" fill="white"/>
<path d="M199.985 348.743L199.378 349.372L197.641 351.191L195.671 353.231L194.575 351.855L195.1 351.307L196.849 349.489L198.959 347.297C199.285 347.752 199.635 348.241 199.985 348.743Z" fill="#DEDFE0"/>
<path d="M201.64 351.016L197.63 351.191L195.112 351.296H194.191L192.862 349.605L196.86 349.43L199.379 349.326H200.416C200.801 349.873 201.197 350.445 201.64 351.016Z" fill="white"/>
<path d="M202.969 352.835L202.386 353.499L200.707 355.411L199.029 357.311C198.772 357.02 198.376 356.553 197.863 355.971L198.154 355.621L199.821 353.709L201.861 351.377L202.969 352.835Z" fill="#DEDFE0"/>
<path d="M204.648 355.073L200.708 355.411L198.201 355.621H197.653C197.269 355.131 196.814 354.572 196.324 353.977L199.88 353.662L202.398 353.452L203.424 353.359C203.727 353.767 204.053 354.187 204.38 354.607C204.479 354.756 204.568 354.912 204.648 355.073Z" fill="white"/>
<path d="M207.889 196.468C208.728 187.911 210.372 178.538 210.22 174.003C209.975 165.074 203.61 152.798 203.61 152.798L159.555 151.69C159.555 151.69 151.721 164.292 151.255 174.493C151.115 177.664 152.117 186.151 152.339 195.629C152.339 195.629 168.065 198.415 179.152 198.415C190.239 198.415 207.889 196.468 207.889 196.468Z" fill="#37444A"/>
<path d="M150.392 173.7L155.184 137.025L151.08 81.1372L166.993 76.8587H196.791L212.459 81.1838L207.795 140.895L210.861 173.933C210.861 173.933 200.276 178.014 181.356 178.014C162.715 178.014 150.392 173.7 150.392 173.7Z" fill="#4374BA"/>
<path d="M166.993 76.8587C166.993 76.8587 172.099 84.2964 180.539 84.2964C188.98 84.2964 195.52 76.8587 195.52 76.8587L189.015 75.3432L189.306 57.9847L173.568 58.7308L173.125 75.3432L166.993 76.8587Z" fill="#D17558"/>
<path d="M178.325 187.69V119.468L168.998 75.6696L151.08 81.1372L153.004 138.365L149.227 181.674C158.477 185.439 168.339 187.477 178.325 187.69Z" fill="#6C757D"/>
<path d="M178.324 147.086V119.468L168.998 75.6696L157.771 79.097L167.972 116.635L174.069 120.342L170.292 122.534L178.324 147.086Z" fill="#58595B"/>
<path d="M184.048 187.352V119.142L193.375 75.3432L211.293 80.8107L209.427 138.039L213.193 181.348C203.926 185.11 194.048 187.145 184.048 187.352Z" fill="#6C757D"/>
<path d="M184.048 146.759V119.142L193.386 75.3432L204.601 78.7706L194.4 116.297L188.303 120.016L192.081 122.208L184.048 146.759Z" fill="#58595B"/>
<path d="M212.505 176.09L202.806 179.191L196.242 183.353L207.364 190.861L214.592 186.337L216.947 180.031L212.505 176.09Z" fill="#D17558"/>
<path d="M197.295 181.276L195.097 184.13L208.047 194.102L210.244 191.248L197.295 181.276Z" fill="#202C31"/>
<path d="M224.117 106.749C224.117 106.749 224.746 111.343 225.539 118.186C225.947 121.683 226.39 125.623 226.81 129.96C227.229 134.297 227.614 138.902 227.777 143.775C227.777 144.369 227.777 145.045 227.777 145.675C227.777 146.304 227.777 146.922 227.777 147.68V148.764V149.219V149.522L227.707 149.942L227.381 151.55C227.171 152.716 226.914 154.162 226.646 155.316C226.378 156.47 226.098 157.647 225.784 158.72C225.189 160.947 224.513 163.01 223.86 164.957C223.207 166.904 222.519 168.699 221.89 170.366C220.619 173.7 219.453 176.382 218.591 178.27L217.588 180.462L217.203 181.266L207.877 177.104L208.915 174.33C209.568 172.511 210.465 169.9 211.421 166.741C211.899 165.167 212.389 163.453 212.855 161.646C213.321 159.839 213.776 157.927 214.137 155.98C214.347 155.001 214.487 154.022 214.65 153.031C214.814 152.04 214.884 151.259 214.988 150.221C214.988 149.662 215.07 149.056 215.105 148.531V148.111C215.105 148.461 215.105 148.193 215.105 148.263V147.389C215.105 147.016 215.105 146.479 215.105 145.978C215.105 145.477 215.105 145.01 215.012 144.462C214.65 140.242 214.033 135.777 213.415 131.639C212.797 127.5 212.156 123.583 211.573 120.249C210.407 113.569 209.591 109.151 209.591 109.151L224.117 106.749Z" fill="#4374BA"/>
<path d="M209.742 113.814L212.459 125.81C212.459 125.81 222.461 127.197 225.959 120.902C224.117 110.83 226.67 87.992 212.459 81.1838C204.112 77.1618 209.742 113.814 209.742 113.814Z" fill="#4374BA"/>
<path d="M184.748 73.8277C186.387 73.399 187.897 72.5744 189.143 71.4262C188.817 67.9288 188.793 63.5455 188.793 63.5455L181.204 60.4329H181.146L173.521 63.5455C173.521 63.5455 173.521 65.6905 173.382 68.2086C175.946 70.1555 181.88 74.4339 184.748 73.8277Z" fill="#C66A42"/>
<path d="M201.279 38.7843C201.279 38.7843 203.389 35.0771 206.688 35.0188C208.646 35.0188 208.063 43.0277 206.047 45.1028C204.03 47.1779 201.104 46.4901 200.439 44.6482L201.279 38.7843Z" fill="#D17558"/>
<path opacity="0.4" d="M201.733 44.3917C201.733 44.3917 204.193 45.2544 205.231 43.2259C206.268 41.1974 207.318 38.7027 206.49 36.8957C206.49 36.8957 204.228 37.432 202.13 41.6638C202.153 41.6404 203.692 43.5523 201.733 44.3917Z" fill="#D17558"/>
<path d="M206.863 39.4488C206.855 38.6846 206.749 37.9245 206.548 37.1871C206.478 37.0006 206.408 36.9307 206.35 37.0123L205.86 37.3154C205.55 37.5337 205.254 37.7712 204.974 38.0265C204.419 38.5208 203.904 39.0588 203.435 39.6353C203.198 39.9304 202.995 40.2511 202.829 40.5912L202.258 41.5705V41.384C202.675 41.8958 202.891 42.5427 202.864 43.2026C202.819 43.361 202.764 43.5167 202.701 43.6689L202.363 44.0186C202.258 44.1585 202.083 44.1702 201.955 44.2518L201.523 44.4383L201.92 44.1935C202.036 44.1119 202.2 44.0769 202.281 43.937L202.538 43.5873L202.631 43.1793C202.595 42.6116 202.36 42.0748 201.966 41.6638L201.885 41.5705V41.4772L202.456 40.4397C202.623 40.0793 202.83 39.739 203.074 39.4255C203.561 38.7986 204.112 38.2243 204.718 37.7117C205.015 37.4471 205.335 37.2091 205.674 37.0006L206.187 36.7325C206.249 36.6861 206.325 36.6611 206.402 36.6611C206.48 36.6611 206.556 36.6861 206.618 36.7325C206.69 36.827 206.746 36.9336 206.781 37.0473C206.943 37.8375 206.97 38.6493 206.863 39.4488Z" fill="#D17558"/>
<path d="M206.152 39.8218C205.804 39.4923 205.348 39.3015 204.869 39.2856C204.699 39.2622 204.527 39.2622 204.356 39.2856C204.201 39.2673 204.045 39.2673 203.89 39.2856H203.4C203.533 39.1891 203.674 39.1034 203.82 39.0291C204.157 38.8518 204.536 38.7711 204.916 38.7959C205.31 38.8253 205.677 39.0047 205.942 39.2972C206.057 39.4505 206.129 39.6315 206.152 39.8218Z" fill="#D17558"/>
<path d="M183.874 68.9198C183.874 68.9198 193.806 64.1167 197.303 58.7541C200.125 54.9887 202.444 35.7532 202.771 32.7688C202.771 32.6639 202.771 32.5706 202.771 32.4657C202.768 32.4191 202.768 32.3724 202.771 32.3258C202.829 31.708 202.864 31.0901 202.864 30.4489C202.735 25.0045 200.482 19.8264 196.586 16.0214C192.69 12.2163 187.46 10.0861 182.014 10.0861C176.568 10.0861 171.338 12.2163 167.442 16.0214C163.546 19.8264 161.293 25.0045 161.164 30.4489C161.163 31.1811 161.202 31.9127 161.281 32.6406C161.281 32.6406 163.612 54.5923 166.76 58.7192C170.385 64.8861 180.155 68.8848 180.155 68.8848C181.362 69.2744 182.659 69.2866 183.874 68.9198Z" fill="#D17558"/>
<path d="M162.54 39.6353C162.54 39.6353 160.43 35.9164 157.142 35.8698C155.172 35.8698 155.755 43.8671 157.772 45.9422C159.789 48.0173 162.726 47.3295 163.379 45.4875L162.54 39.6353Z" fill="#D17558"/>
<path opacity="0.4" d="M162.097 45.266C162.097 45.266 159.637 46.1287 158.599 44.1002C157.562 42.0718 156.501 39.5887 157.329 37.77C157.329 37.77 159.602 38.3063 161.689 42.5381C161.665 42.5148 160.138 44.4267 162.097 45.266Z" fill="#D17558"/>
<path d="M156.967 40.3231C156.846 39.5506 156.846 38.764 156.967 37.9915C157.003 37.8779 157.058 37.7713 157.13 37.6768C157.188 37.6205 157.262 37.5845 157.342 37.574C157.422 37.5635 157.503 37.5791 157.573 37.6185L158.086 37.8983C158.429 38.0963 158.746 38.3351 159.031 38.6094C159.64 39.1177 160.195 39.6881 160.686 40.3114C160.93 40.625 161.137 40.9653 161.304 41.3257L161.875 42.3632V42.4565L161.793 42.5614C161.398 42.9849 161.163 43.5334 161.129 44.1119L161.222 44.5316L161.49 44.8697C161.56 45.0096 161.723 45.0445 161.84 45.1378L162.236 45.3709L161.817 45.1844C161.677 45.1145 161.502 45.0912 161.409 44.9629L161.059 44.6132L160.896 44.1352C160.873 43.474 161.093 42.8273 161.514 42.3166V42.5031L160.942 41.5239C160.776 41.1837 160.573 40.8631 160.336 40.5679C159.877 39.9791 159.375 39.4257 158.832 38.9125C158.565 38.6478 158.272 38.4096 157.958 38.2014L157.468 37.8866C157.41 37.8167 157.34 37.8866 157.259 38.0615C157.072 38.8011 156.974 39.5603 156.967 40.3231Z" fill="#D17558"/>
<path d="M157.667 40.6962C157.701 40.5271 157.773 40.3678 157.877 40.2298C158.139 39.9334 158.508 39.753 158.902 39.7286C159.279 39.7034 159.654 39.7842 159.987 39.9617C160.132 40.0421 160.272 40.1316 160.406 40.2298C160.243 40.2386 160.08 40.2386 159.917 40.2298C159.777 40.2298 159.625 40.2298 159.45 40.2298C159.28 40.2065 159.108 40.2065 158.937 40.2298C158.471 40.2251 158.019 40.391 157.667 40.6962Z" fill="#D17558"/>
<path d="M184.573 48.0056C184.573 48.0056 184.573 51.6778 183.827 52.0742C183.081 52.4706 183.862 49.9408 184.573 48.0056Z" fill="#D17558"/>
<path d="M189.014 55.2684C189.014 55.2684 187.394 60.5494 182.148 60.5494C179.478 60.5494 175.899 58.8824 175.748 55.2684C175.794 55.2684 187.184 55.5016 189.014 55.2684Z" fill="#8E191B"/>
<path d="M168.719 46.0704C168.776 45.9713 168.842 45.8777 168.917 45.7906L169.406 45.2311L169.978 44.7531C170.071 44.6857 170.169 44.6234 170.269 44.5666C170.208 44.6635 170.142 44.7569 170.071 44.8463L169.57 45.4059C169.371 45.5808 169.162 45.744 168.998 45.8722C168.909 45.9435 168.815 46.0097 168.719 46.0704Z" fill="#85453E"/>
<path d="M170.607 44.8813C170.554 45.0367 170.492 45.1886 170.42 45.336L169.942 46.3152C169.732 46.6533 169.523 46.9914 169.359 47.2362C169.269 47.3732 169.172 47.5055 169.068 47.6326C169.12 47.4771 169.182 47.3253 169.254 47.1779L169.732 46.1987L170.315 45.2777C170.406 45.1406 170.503 45.0083 170.607 44.8813Z" fill="#85453E"/>
<path d="M171.528 45.3127C171.447 45.6096 171.329 45.8954 171.178 46.1637C171.015 46.4288 170.824 46.6751 170.607 46.8981C170.701 46.604 170.822 46.3191 170.968 46.0471C171.133 45.7861 171.32 45.5403 171.528 45.3127Z" fill="#85453E"/>
<path d="M195.252 47.0147L194.972 46.8282L194.401 46.3502L193.899 45.7906C193.825 45.7036 193.759 45.61 193.701 45.5108C193.802 45.5677 193.899 45.6299 193.993 45.6974C194.144 45.8373 194.354 46.0121 194.564 46.1753L195.053 46.7349C195.125 46.8243 195.191 46.9178 195.252 47.0147Z" fill="#85453E"/>
<path d="M193.363 45.8256C193.363 45.8256 193.491 45.9772 193.666 46.222L194.237 47.1546L194.715 48.1222C194.789 48.273 194.851 48.4288 194.902 48.5885C194.798 48.4615 194.701 48.3292 194.61 48.1921L194.028 47.2595L193.55 46.2919C193.433 46.0238 193.363 45.8256 193.363 45.8256Z" fill="#85453E"/>
<path d="M192.43 46.2686C192.645 46.489 192.837 46.7313 193.002 46.9914C193.154 47.2607 193.275 47.5461 193.363 47.8424C193.148 47.6203 192.961 47.3738 192.803 47.108C192.65 46.8423 192.524 46.5609 192.43 46.2686Z" fill="#85453E"/>
<path d="M177.217 32.2675C177.217 32.2675 173.265 27.9775 167.751 29.2948C167.751 29.2948 165.944 31.0085 165.851 31.8712C169.632 31.3038 173.485 31.4382 177.217 32.2675Z" fill="#231114"/>
<path d="M187.219 32.2675C187.219 32.2675 192.023 28.2339 195.741 29.2015C196.376 29.4221 196.958 29.7738 197.448 30.2338C197.938 30.6937 198.325 31.2516 198.586 31.8712C194.805 31.3044 190.952 31.4387 187.219 32.2675Z" fill="#231114"/>
<path d="M180.155 68.9198C181.139 69.2283 182.184 69.2884 183.197 69.0946C169.208 64.4315 163.379 46.9448 163.379 46.9448C164.312 52.0742 165.489 57.0521 166.806 58.8008C170.385 64.9211 180.155 68.9198 180.155 68.9198Z" fill="#E38A62"/>
<path d="M177.637 39.7169C176.935 38.5044 175.893 37.5237 174.641 36.8957C171.668 35.4501 166.305 36.0214 166.585 38.726C166.585 38.726 166.795 41.2324 170.549 41.5588C173.58 41.827 176.517 41.0109 177.637 39.7169Z" fill="white"/>
<path d="M177.637 39.7169C176.935 38.5044 175.893 37.5237 174.641 36.8957C171.668 35.4501 166.305 36.0214 166.585 38.726C166.585 38.726 166.795 41.2324 170.549 41.5588C173.58 41.827 176.517 41.0109 177.637 39.7169Z" fill="white"/>
<path d="M174.641 36.8957C173.077 36.2106 171.354 35.9725 169.663 36.2079C169.205 36.5132 168.829 36.9254 168.567 37.4089C168.305 37.8924 168.165 38.4325 168.159 38.9825C168.156 39.415 168.239 39.8439 168.403 40.2442C168.567 40.6445 168.809 41.0081 169.115 41.314C169.591 41.4704 170.084 41.5682 170.584 41.6055C172.051 41.7426 173.532 41.6163 174.955 41.2324C175.443 40.7099 175.742 40.0387 175.803 39.3265C175.864 38.6142 175.685 37.902 175.293 37.3037L174.641 36.8957Z" fill="#231114"/>
<path d="M177.637 39.7169C177.537 39.5813 177.428 39.4527 177.31 39.3322C177.014 38.9877 176.691 38.668 176.343 38.3762C176.114 38.1585 175.869 37.9597 175.608 37.7817C175.305 37.6068 174.967 37.4203 174.652 37.2105C174.29 36.9922 173.897 36.831 173.486 36.7325C173.041 36.5989 172.584 36.5053 172.122 36.4527C171.196 36.2948 170.25 36.2948 169.325 36.4527C168.926 36.5208 168.535 36.6302 168.159 36.7791C167.857 36.8946 167.577 37.0601 167.331 37.2688C167.007 37.5268 166.767 37.876 166.643 38.2713C166.643 38.5395 166.562 38.691 166.562 38.691L166.492 38.2597C166.483 38.0435 166.52 37.8279 166.601 37.6271C166.681 37.4262 166.803 37.2445 166.958 37.0939C167.195 36.8301 167.485 36.6195 167.809 36.476C168.229 36.2996 168.673 36.1857 169.126 36.1379C170.178 35.927 171.257 35.8916 172.321 36.033C172.843 36.1055 173.357 36.2225 173.859 36.3828C174.306 36.5068 174.731 36.6995 175.118 36.954C175.457 37.1755 175.771 37.4087 176.074 37.6185C176.306 37.822 176.521 38.0442 176.716 38.283C177.011 38.6017 177.262 38.9585 177.462 39.3438C177.534 39.4609 177.593 39.5861 177.637 39.7169Z" fill="#231114"/>
<path d="M186.392 39.7169C187.09 38.5013 188.132 37.5197 189.388 36.8957C192.349 35.4501 197.723 36.0214 197.443 38.726C197.443 38.726 197.233 41.2324 193.48 41.5588C190.449 41.827 187.511 41.0109 186.392 39.7169Z" fill="white"/>
<path d="M189.388 36.8957C188.676 37.2511 188.03 37.724 187.476 38.2946C187.429 38.4973 187.406 38.7046 187.406 38.9125C187.41 39.5929 187.63 40.2543 188.035 40.8011C189.765 41.48 191.631 41.7358 193.479 41.5472H193.771C194.202 41.2295 194.549 40.8101 194.779 40.3262C195.01 39.8424 195.117 39.3091 195.092 38.7739C195.066 38.2386 194.909 37.7179 194.634 37.258C194.359 36.7982 193.974 36.4134 193.514 36.1379C192.099 36.0662 190.686 36.3257 189.388 36.8957Z" fill="#231114"/>
<path d="M186.392 39.7169C186.431 39.57 186.49 39.4289 186.566 39.2972C186.766 38.9143 187.013 38.5579 187.301 38.2364C187.503 38.0005 187.721 37.7785 187.954 37.5719C188.257 37.362 188.56 37.1289 188.91 36.9074C189.293 36.653 189.714 36.4603 190.157 36.3361C190.659 36.1772 191.174 36.0602 191.696 35.9864C192.763 35.8447 193.846 35.8802 194.902 36.0913C195.353 36.1783 195.789 36.3315 196.196 36.546C196.52 36.6894 196.81 36.9 197.047 37.1638C197.201 37.3146 197.322 37.4966 197.4 37.6976C197.479 37.8987 197.513 38.1141 197.502 38.3296C197.502 38.6094 197.443 38.761 197.443 38.761L197.303 38.3063C197.189 37.9092 196.953 37.5582 196.627 37.3037C196.379 37.0977 196.1 36.9324 195.799 36.8141C195.422 36.6679 195.032 36.5586 194.634 36.4877C193.703 36.3354 192.754 36.3354 191.824 36.4877C191.366 36.5414 190.914 36.635 190.472 36.7675C190.061 36.8672 189.668 37.0284 189.306 37.2454C188.991 37.4553 188.665 37.6418 188.35 37.8167C188.095 37.9974 187.854 38.1961 187.627 38.4112C187.279 38.703 186.956 39.0227 186.66 39.3672C186.563 39.4782 186.474 39.595 186.392 39.7169Z" fill="#231114"/>
<path d="M171.05 37.6884C171.108 38.1081 170.397 38.5395 169.465 38.656C168.532 38.7726 167.728 38.5278 167.681 38.0965C167.634 37.6651 168.345 37.2454 169.278 37.1289C170.211 37.0123 171.003 37.3037 171.05 37.6884Z" fill="white"/>
<path d="M196.569 38.0731C196.476 38.4928 195.648 38.656 194.739 38.4579C193.829 38.2597 193.153 37.7467 193.246 37.2921C193.34 36.8374 194.156 36.7092 195.077 36.919C195.998 37.1289 196.662 37.6535 196.569 38.0731Z" fill="white"/>
<path d="M162.097 39.099C162.097 39.099 164.428 32.1043 164.428 29.05C164.428 25.9956 164.428 20.0968 165.862 19.3856C169.461 17.9159 173.406 17.5113 177.228 18.2199C181.892 19.2807 191.113 21.5307 197.466 20.1084C198.451 20.9164 199.232 21.9434 199.748 23.1073C200.264 24.2713 200.501 25.5399 200.439 26.8117C200.124 31.1251 201.966 37.7467 201.966 37.7467L203.365 36.3361C203.365 36.3361 208.192 26.1472 205.464 16.6577C205.464 16.6577 208.087 10.0244 204.298 7.89102C198.822 5.08956 193.158 2.67061 187.347 0.651512C184.212 -0.444324 177.019 -0.176194 174.093 1.5958C171.166 3.36779 160.534 10.6306 159.299 11.3417C159.299 11.3417 155.801 14.2912 156.967 20.4582C156.967 20.4582 153.948 24.6317 157.643 35.9048C157.667 35.9048 161.164 36.8607 162.097 39.099Z" fill="#331917"/>
<path d="M187.686 56.6907C187.965 56.6091 188.338 55.7114 188.432 55.3151C185.809 55.455 177.823 55.3151 176.121 55.3151C176.15 55.5744 176.235 55.8243 176.37 56.0477C176.505 56.271 176.686 56.4626 176.902 56.6091C180.472 57.1833 184.108 57.2108 187.686 56.6907Z" fill="white"/>
<path d="M185.75 59.5469C182.976 57.0055 179.607 58.5909 178.266 59.407C179.446 60.1447 180.804 60.5476 182.195 60.5728C183.453 60.575 184.687 60.2192 185.75 59.5469Z" fill="#F3747B"/>
<path opacity="0.6" d="M162.097 39.099C162.097 39.099 164.428 32.1043 164.428 29.05C164.428 25.9956 164.428 20.0968 165.862 19.3856C169.461 17.9159 173.406 17.5113 177.229 18.2199C181.892 19.2807 191.113 21.5307 197.467 20.1084C198.451 20.9164 199.232 21.9434 199.748 23.1073C200.264 24.2713 200.501 25.5399 200.439 26.8117C200.125 31.1251 201.966 37.7467 201.966 37.7467L203.365 36.3361C203.847 35.2504 204.263 34.1371 204.613 33.002C201.885 34.6341 203.96 22.0203 202.829 14.7691C201.535 6.45711 182.894 12.9855 181.029 13.6966C179.164 14.4078 175.2 11.3651 168.089 12.3909C160.978 13.4168 163.95 26.8117 160.418 28.5254C158.914 29.2365 157.282 27.1031 155.906 24.4335C155.72 28.3365 156.318 32.2373 157.667 35.9048C157.667 35.9048 161.164 36.8607 162.097 39.099Z" fill="#260B0D"/>
<path opacity="0.5" d="M202.747 7.07498C197.739 4.64501 192.598 2.50042 187.347 0.651512C184.212 -0.444324 177.019 -0.176194 174.093 1.5958C171.924 2.91313 165.524 7.23819 161.852 9.68633C166.014 8.0076 171.703 5.52449 175.841 3.97399C182.708 1.36264 196.476 10.6073 200.999 8.95189C201.428 8.81799 201.815 8.57447 202.122 8.24534C202.429 7.9162 202.644 7.51282 202.747 7.07498Z" fill="#493123"/>
<path d="M202.095 35.7882C201.57 35.66 199.588 35.2753 199.588 35.2753C196.651 32.2209 187.441 33.9463 185.704 35.2753L185.366 35.5434C183.041 35.8785 180.675 35.8154 178.371 35.3569C176.634 33.9929 167.436 32.2792 164.487 35.3569C164.487 35.3569 162.505 35.7416 161.992 35.8698C161.704 36.5881 161.704 37.3898 161.992 38.1081L163.682 38.8192C163.892 40.6262 164.405 44.1352 165.466 45.3709C166.527 46.6067 174.407 47.7841 177.124 45.3709C178.622 43.8478 179.538 41.8466 179.712 39.7169C182.23 36.0797 184.375 39.4255 184.375 39.4255C184.532 41.6152 185.457 43.6793 186.986 45.2544C189.714 47.6559 197.583 46.4202 198.644 45.2544C199.705 44.0886 200.23 40.5213 200.428 38.7143L202.13 38.0032C202.395 37.2863 202.382 36.4964 202.095 35.7882ZM176.448 44.9862C174.023 47.1313 166.76 45.9655 165.804 44.858C164.522 43.3658 164.382 38.0032 164.382 38.0032C164.382 32.5706 175.69 34.5058 177.532 35.9164C178.066 36.2926 178.529 36.7627 178.896 37.3037L179.012 37.7001C178.861 38.9125 178.861 42.9111 176.494 44.9862H176.448ZM198.119 44.7764C197.175 45.9422 189.901 47.108 187.476 44.9046C185.319 43.0161 185.144 39.5187 184.993 37.9099L185.751 36.3361C185.925 36.1729 186.135 35.9864 186.392 35.7882C188.28 34.3893 199.635 32.489 199.635 37.9216C199.635 37.9216 199.46 43.2842 198.166 44.7764H198.119Z" fill="#000718"/>
</svg>
