<svg width="187" height="119" viewBox="0 0 187 119" fill="none" xmlns="http://www.w3.org/2000/svg">
<path d="M142.383 119C160.211 119 174.663 115.763 174.663 111.771C174.663 107.778 160.211 104.541 142.383 104.541C124.555 104.541 110.103 107.778 110.103 111.771C110.103 115.763 124.555 119 142.383 119Z" fill="#0F79D1" fill-opacity="0.1"/>
<path d="M105.674 4.50885C105.674 30.7531 122.138 51.9889 142.493 51.9889L105.674 4.50885Z" fill="#0F79D1" fill-opacity="0.1"/>
<path d="M106.068 21.8674C94.1729 21.9582 82.7438 19.2699 71.8157 16.2739C60.8876 13.2779 50.0487 9.90869 38.3943 8.53343C30.8926 7.64742 22.3552 7.78696 16.4591 11.2234C10.7849 14.5287 9.10532 19.9474 8.27647 24.9474C7.65272 28.71 7.34842 32.6576 9.54412 36.0806C11.0606 38.4562 13.68 40.4064 15.5294 42.6694C21.9618 50.5427 17.9722 60.6755 11.5936 68.8144C8.60263 72.6325 5.10396 76.296 2.83428 80.3276C0.564598 84.3592 -0.390349 88.9187 1.86084 92.8697C4.09353 96.7836 9.18097 99.5946 14.6534 101.52C25.7715 105.403 38.7305 106.177 51.3483 106.422C79.2804 106.969 107.285 105.308 135.214 103.648C145.548 103.033 155.93 102.414 166.061 100.765C171.687 99.8485 177.48 98.5052 181.485 95.6185C186.571 91.9534 187.652 86.0169 184.007 81.7768C177.892 74.6668 161.646 73.4244 157.275 65.7159C154.869 61.4724 157.011 56.575 160.133 52.4475C166.848 43.5975 178.349 35.6351 178.627 25.7796C178.812 19.0126 172.911 12.4507 164.054 9.5674C154.765 6.54116 142.065 7.41709 135.498 13.2006C128.734 19.1555 116.572 21.7884 106.068 21.8674Z" fill="white" fill-opacity="0.1"/>
<path d="M159.786 5.2438V92.4012C159.786 94.9937 157.285 97.1087 154.198 97.1087H35.9359C32.8491 97.1087 30.3491 95.0004 30.3491 92.4012V5.2438C30.3491 2.64628 32.8491 0 35.9359 0L154.183 0.287493C157.265 0.287493 159.786 2.64628 159.786 5.2438Z" fill="white"/>
<path d="M159.786 5.2707V9.30569H30.3491V5.2707C30.3491 2.37997 32.7274 0.000840622 35.6181 0H154.507C154.509 0 154.512 0 154.514 0C157.406 0 159.786 2.37896 159.786 5.2707Z" fill="#3F3D56"/>
<path d="M36.6187 6.51256C37.6475 6.51256 38.4815 5.67855 38.4815 4.64974C38.4815 3.62094 37.6475 2.78693 36.6187 2.78693C35.5899 2.78693 34.7559 3.62094 34.7559 4.64974C34.7559 5.67855 35.5899 6.51256 36.6187 6.51256Z" fill="#FA5959" fill-opacity="0.8"/>
<path d="M42.034 6.51256C43.0628 6.51256 43.8968 5.67855 43.8968 4.64974C43.8968 3.62094 43.0628 2.78693 42.034 2.78693C41.0052 2.78693 40.1711 3.62094 40.1711 4.64974C40.1711 5.67855 41.0052 6.51256 42.034 6.51256Z" fill="#FED253" fill-opacity="0.8"/>
<path d="M47.4602 6.51256C48.489 6.51256 49.323 5.67855 49.323 4.64974C49.323 3.62094 48.489 2.78693 47.4602 2.78693C46.4314 2.78693 45.5974 3.62094 45.5974 4.64974C45.5974 5.67855 46.4314 6.51256 47.4602 6.51256Z" fill="#8CCF4D" fill-opacity="0.8"/>
<path fill-rule="evenodd" clip-rule="evenodd" d="M89.1901 30.1477C89.1901 29.3524 88.5445 28.7068 87.7492 28.7068H78.8605C78.0653 28.7068 77.4197 29.3524 77.4197 30.1477V32.8511C77.4197 33.6463 78.0653 34.2919 78.8605 34.2919H87.7492C88.5445 34.2919 89.1901 33.6463 89.1901 32.8511V30.1477Z" fill="#0F79D1" fill-opacity="0.2"/>
<path fill-rule="evenodd" clip-rule="evenodd" d="M113.037 30.1477C113.037 29.3524 112.392 28.7068 111.596 28.7068H102.708C101.912 28.7068 101.267 29.3524 101.267 30.1477V32.8511C101.267 33.6463 101.912 34.2919 102.708 34.2919H111.596C112.392 34.2919 113.037 33.6463 113.037 32.8511V30.1477Z" fill="#0F79D1" fill-opacity="0.2"/>
<path d="M83.2767 34.149L95.0589 49.5341L107.196 34.0767" stroke="#3F3D56" stroke-width="0.000905797" stroke-miterlimit="10"/>
<path fill-rule="evenodd" clip-rule="evenodd" d="M104.058 50.4942C104.058 49.6989 103.412 49.0533 102.617 49.0533H87.5043C86.7091 49.0533 86.0635 49.6989 86.0635 50.4942V56.1516C86.0635 56.9468 86.7091 57.5924 87.5043 57.5924H102.617C103.412 57.5924 104.058 56.9468 104.058 56.1516V50.4942Z" fill="black" fill-opacity="0.1"/>
<path fill-rule="evenodd" clip-rule="evenodd" d="M103.689 50.6755C103.689 49.8803 103.044 49.2347 102.248 49.2347H87.867C87.0717 49.2347 86.4261 49.8803 86.4261 50.6755V55.9866C86.4261 56.7818 87.0717 57.4274 87.867 57.4274H102.248C103.044 57.4274 103.689 56.7818 103.689 55.9866V50.6755Z" fill="#0F79D1"/>
<path d="M83.3505 28.7079L83.1975 23.2691" stroke="#3F3D56" stroke-width="0.000905797" stroke-miterlimit="10"/>
<path d="M114.11 23.5182L107.193 28.6914L99.9187 23.5182" stroke="#3F3D56" stroke-width="0.000905797" stroke-miterlimit="10"/>
<path fill-rule="evenodd" clip-rule="evenodd" d="M89.1223 19.3857C89.1223 18.5904 88.4767 17.9448 87.6815 17.9448H78.7928C77.9975 17.9448 77.3519 18.5904 77.3519 19.3857V22.0891C77.3519 22.8843 77.9975 23.5299 78.7928 23.5299H87.6815C88.4767 23.5299 89.1223 22.8843 89.1223 22.0891V19.3857Z" fill="#0F79D1" fill-opacity="0.2"/>
<path fill-rule="evenodd" clip-rule="evenodd" d="M119.993 19.3857C119.993 18.5904 119.347 17.9448 118.552 17.9448H109.663C108.868 17.9448 108.222 18.5904 108.222 19.3857V22.0891C108.222 22.8843 108.868 23.5299 109.663 23.5299H118.552C119.347 23.5299 119.993 22.8843 119.993 22.0891V19.3857Z" fill="#0F79D1" fill-opacity="0.2"/>
<path fill-rule="evenodd" clip-rule="evenodd" d="M105.809 19.3857C105.809 18.5904 105.164 17.9448 104.369 17.9448H95.4798C94.6845 17.9448 94.0389 18.5904 94.0389 19.3857V22.0891C94.0389 22.8843 94.6845 23.5299 95.4798 23.5299H104.369C105.164 23.5299 105.809 22.8843 105.809 22.0891V19.3857Z" fill="#0F79D1" fill-opacity="0.2"/>
<path d="M95.0586 57.4139L95.0132 72.293" stroke="#3F3D56" stroke-width="0.000905797" stroke-miterlimit="10"/>
<path d="M78.3375 82.9101L94.9818 77.7604L111.693 82.8731" stroke="#3F3D56" stroke-width="0.000905797" stroke-miterlimit="10"/>
<path fill-rule="evenodd" clip-rule="evenodd" d="M100.893 73.7406C100.893 72.9453 100.247 72.2997 99.4518 72.2997H90.563C89.7678 72.2997 89.1222 72.9453 89.1222 73.7406V76.444C89.1222 77.2392 89.7678 77.8848 90.563 77.8848H99.4518C100.247 77.8848 100.893 77.2392 100.893 76.444V73.7406Z" fill="#0F79D1" fill-opacity="0.2"/>
<path fill-rule="evenodd" clip-rule="evenodd" d="M144.642 50.5372C145.437 50.5372 146.083 49.8916 146.083 49.0964V40.2077C146.083 39.4124 145.437 38.7668 144.642 38.7668H141.939C141.143 38.7668 140.498 39.4124 140.498 40.2077V49.0964C140.498 49.8916 141.143 50.5372 141.939 50.5372H144.642Z" fill="#0F79D1" fill-opacity="0.2"/>
<path fill-rule="evenodd" clip-rule="evenodd" d="M141.939 57.1987C141.144 57.1987 140.498 57.8443 140.498 58.6395V67.5282C140.498 68.3235 141.144 68.9691 141.939 68.9691H144.642C145.437 68.9691 146.083 68.3235 146.083 67.5282V58.6395C146.083 57.8443 145.437 57.1987 144.642 57.1987H141.939Z" fill="#0F79D1" fill-opacity="0.2"/>
<path fill-rule="evenodd" clip-rule="evenodd" d="M117.58 84.2761C117.58 83.4809 116.934 82.8353 116.139 82.8353H107.25C106.455 82.8353 105.81 83.4809 105.81 84.2761V86.9795C105.81 87.7748 106.455 88.4204 107.25 88.4204H116.139C116.934 88.4204 117.58 87.7748 117.58 86.9795V84.2761Z" fill="#0F79D1" fill-opacity="0.2"/>
<path fill-rule="evenodd" clip-rule="evenodd" d="M72.4466 86.9684C72.4466 87.7636 73.0922 88.4092 73.8875 88.4092L82.7762 88.4092C83.5714 88.4092 84.217 87.7636 84.217 86.9684V84.2649C84.217 83.4697 83.5714 82.8241 82.7762 82.8241L73.8875 82.8241C73.0922 82.8241 72.4466 83.4697 72.4466 84.2649V86.9684Z" fill="#0F79D1" fill-opacity="0.2"/>
<path fill-rule="evenodd" clip-rule="evenodd" d="M89.4171 86.9684C89.4171 87.7636 90.0627 88.4092 90.8579 88.4092L99.7467 88.4092C100.542 88.4092 101.188 87.7636 101.188 86.9684V84.2649C101.188 83.4697 100.542 82.8241 99.7467 82.8241L90.8579 82.8241C90.0627 82.8241 89.4171 83.4697 89.4171 84.2649V86.9684Z" fill="#0F79D1" fill-opacity="0.2"/>
<path d="M135.253 53.8792L140.491 63.0403" stroke="#3F3D56" stroke-width="0.000905797" stroke-miterlimit="10"/>
<path d="M124.173 53.7659H129.673" stroke="#3F3D56" stroke-width="0.000905797" stroke-miterlimit="10"/>
<path d="M103.691 53.3127L118.701 53.7549" stroke="#3F3D56" stroke-width="0.000905797" stroke-miterlimit="10"/>
<path d="M140.5 44.6579L135.287 53.8341" stroke="#3F3D56" stroke-width="0.000905797" stroke-miterlimit="10"/>
<path fill-rule="evenodd" clip-rule="evenodd" d="M122.846 59.6229C123.641 59.6229 124.287 58.9773 124.287 58.1821V49.2934C124.287 48.4981 123.641 47.8525 122.846 47.8525H120.142C119.347 47.8525 118.702 48.4981 118.702 49.2934V58.1821C118.702 58.9773 119.347 59.6229 120.142 59.6229H122.846Z" fill="#0F79D1" fill-opacity="0.2"/>
<path fill-rule="evenodd" clip-rule="evenodd" d="M133.812 59.7587C134.607 59.7587 135.253 59.1131 135.253 58.3179V49.4292C135.253 48.6339 134.607 47.9883 133.812 47.9883H131.108C130.313 47.9883 129.667 48.6339 129.667 49.4292V58.3179C129.667 59.1131 130.313 59.7587 131.108 59.7587H133.812Z" fill="#0F79D1" fill-opacity="0.2"/>
<path fill-rule="evenodd" clip-rule="evenodd" d="M48.1783 50.5372C48.9735 50.5372 49.6191 49.8916 49.6191 49.0964L49.6191 40.2077C49.6191 39.4124 48.9735 38.7668 48.1783 38.7668H45.4749C44.6796 38.7668 44.034 39.4124 44.034 40.2077V49.0964C44.034 49.8916 44.6796 50.5372 45.4749 50.5372H48.1783Z" fill="#0F79D1" fill-opacity="0.2"/>
<path fill-rule="evenodd" clip-rule="evenodd" d="M45.4751 57.1987C44.6799 57.1987 44.0343 57.8443 44.0343 58.6395L44.0343 67.5282C44.0343 68.3235 44.6799 68.9691 45.4751 68.9691H48.1786C48.9738 68.9691 49.6194 68.3235 49.6194 67.5282V58.6395C49.6194 57.8443 48.9738 57.1987 48.1786 57.1987H45.4751Z" fill="#0F79D1" fill-opacity="0.2"/>
<path d="M54.8596 53.8792L49.6191 63.0403" stroke="#3F3D56" stroke-width="0.000905797" stroke-miterlimit="10"/>
<path d="M65.9357 53.7659H60.438" stroke="#3F3D56" stroke-width="0.000905797" stroke-miterlimit="10"/>
<path d="M86.4255 53.3127L71.4154 53.7549" stroke="#3F3D56" stroke-width="0.000905797" stroke-miterlimit="10"/>
<path d="M49.6191 44.6579L54.8327 53.8341" stroke="#3F3D56" stroke-width="0.000905797" stroke-miterlimit="10"/>
<path fill-rule="evenodd" clip-rule="evenodd" d="M69.9746 59.6229C70.7698 59.6229 71.4154 58.9773 71.4154 58.1821V49.2934C71.4154 48.4981 70.7698 47.8525 69.9746 47.8525H67.2711C66.4759 47.8525 65.8303 48.4981 65.8303 49.2934V58.1821C65.8303 58.9773 66.4759 59.6229 67.2711 59.6229H69.9746Z" fill="#0F79D1" fill-opacity="0.2"/>
<path fill-rule="evenodd" clip-rule="evenodd" d="M58.9972 59.7587C59.7924 59.7587 60.438 59.1131 60.438 58.3179L60.438 49.4292C60.438 48.6339 59.7924 47.9883 58.9972 47.9883H56.2937C55.4985 47.9883 54.8529 48.6339 54.8529 49.4292V58.3179C54.8529 59.1131 55.4985 59.7587 56.2937 59.7587H58.9972Z" fill="#0F79D1" fill-opacity="0.2"/>
<path d="M18.7484 84.376C18.7484 92.8226 24.0477 99.6585 30.5961 99.6585L18.7484 84.376Z" fill="#3F3D56"/>
<path d="M30.5984 99.6718C30.5984 91.1294 36.513 84.2178 43.8214 84.2178L30.5984 99.6718Z" fill="#0F79D1"/>
<path d="M23.0421 85.1466C23.0421 93.1695 26.4214 99.6625 30.5959 99.6625L23.0421 85.1466Z" fill="#0F79D1"/>
<path d="M30.5984 99.6587C30.5984 88.7441 37.4343 79.9125 45.8809 79.9125L30.5984 99.6587Z" fill="#3F3D56"/>
<path d="M30.0774 102.591C31.7041 102.591 33.0229 102.368 33.0229 102.093C33.0229 101.818 31.7041 101.596 30.0774 101.596C28.4506 101.596 27.1318 101.818 27.1318 102.093C27.1318 102.368 28.4506 102.591 30.0774 102.591Z" fill="#0F79D1" fill-opacity="0.1"/>
<path d="M28.1061 99.7617C28.1061 99.7617 29.7873 99.7096 30.2917 99.3498C30.7961 98.99 32.8758 98.558 33.0019 99.1363C33.128 99.7147 35.5237 102.013 33.629 102.028C31.7342 102.043 29.2207 101.732 28.7164 101.424C28.212 101.117 28.1061 99.7617 28.1061 99.7617Z" fill="#A8A8A8"/>
<path d="M33.6643 101.827C31.7678 101.842 29.2577 101.532 28.7517 101.223C28.3667 100.989 28.2137 100.149 28.1616 99.7603H28.1061C28.1061 99.7603 28.212 101.115 28.7181 101.423C29.2241 101.731 31.7342 102.042 33.6306 102.027C34.1787 102.027 34.367 101.827 34.3569 101.539C34.2813 101.716 34.0728 101.823 33.6643 101.827Z" fill="black" fill-opacity="0.2"/>
<path d="M161.355 109.066L156.703 102.321C156.703 102.321 156.616 100.652 156.311 100.26C156.007 99.8681 156.246 99.0022 156.246 99.0022C156.246 99.0022 156.572 98.5248 156.289 98.4827C156.007 98.4407 156.246 97.3765 156.246 97.3765L156.224 95.6835C156.224 95.6835 156.484 94.0577 156.268 93.666C156.138 93.4506 156.147 93.1784 156.289 92.9716C156.432 92.7648 156.55 92.0385 156.289 91.7947C156.029 91.551 156.093 90.1034 156.158 88.9551C156.224 87.8068 155.703 87.1545 155.703 86.9813C155.703 86.8082 153.984 85.1152 153.984 84.9639C153.984 84.8125 152.898 84.1837 152.246 84.0089C151.594 83.834 151.267 83.7063 151.289 83.6189C151.311 83.5314 150.267 83.1851 150.267 83.1851C150.267 83.1851 149.354 83.1212 149.006 82.6656C148.658 82.21 147.594 82.0772 147.565 82.0738C147.565 82.0435 147.55 82.0133 147.545 81.983L147.525 81.8855C147.607 81.7476 147.683 81.6064 147.752 81.4601L147.813 81.3273C148.195 81.3285 148.569 81.211 148.882 80.9911C149.192 80.7313 149.381 80.3542 149.403 79.9504C149.421 79.5497 149.334 79.1515 149.149 78.7954C148.957 78.4036 148.678 78.0001 148.774 77.5765C148.816 77.3932 148.926 77.2402 148.983 77.0536C149.067 76.7041 149.011 76.335 148.826 76.0264C148.658 75.712 148.433 75.4346 148.25 75.1286C148.016 74.7399 147.86 74.3093 147.791 73.8609C147.776 73.6223 147.719 73.3883 147.623 73.1699C147.524 73.0159 147.394 72.8846 147.241 72.7849C146.561 72.2989 145.739 72.0502 144.904 72.0771C144.312 72.0973 143.727 72.257 143.135 72.1847C142.784 72.1228 142.438 72.0322 142.101 71.914C141.373 71.6988 140.531 71.6097 139.897 72.0267C139.263 72.4436 139.01 73.2641 138.579 73.9063C138.197 74.4746 137.641 74.9504 137.352 75.5522C137.352 75.5405 137.352 75.5287 137.36 75.5169C137.288 75.6563 137.231 75.8036 137.192 75.9557C137.081 76.4282 137.174 76.9225 137.288 77.3932C137.348 77.637 137.429 77.8976 137.639 78.0354C137.849 78.1733 138.144 78.1414 138.399 78.1851C138.389 78.2271 138.379 78.2675 138.371 78.3095C137.833 80.8303 139.345 83.3717 141.817 84.1014C141.817 84.1451 141.817 84.1905 141.817 84.2325C141.817 84.362 141.807 84.4864 141.794 84.6057C141.78 84.7251 139.608 84.1569 139.021 84.4595C138.435 84.7621 137.281 85.0025 137.108 85.1757C136.935 85.3489 136.499 85.2194 136.108 86.2382C135.716 87.2571 135.674 88.2994 135.173 88.7752C134.672 89.251 134.413 89.5789 134.391 89.9252C134.369 90.2715 134.455 90.359 134.26 90.4682C134.065 90.5775 133.783 91.0315 133.868 91.2046C133.868 91.2046 133.978 91.6384 133.63 91.8553C133.42 92.0029 133.305 92.2509 133.325 92.5059C133.346 92.761 133.194 92.9834 132.89 93.091C132.585 93.1986 132.385 93.9165 132.385 93.9165L131.4 95.0496L129.445 92.8875C129.142 92.5535 128.618 92.5269 128.283 92.8287L127.34 93.703C126.97 93.7924 126.635 93.9916 126.38 94.2746C126.169 94.4891 125.998 94.7396 125.876 95.0143L125.351 95.4884C125.185 95.6357 125.087 95.845 125.08 96.0668C124.941 96.3645 124.995 96.7184 125.217 96.9612L126.467 98.3466V98.3583C126.023 98.3951 125.601 98.5671 125.257 98.8509C123.387 100.499 123.366 102.017 123.648 102.718C123.93 103.419 126.299 106.08 126.299 106.08C126.299 106.08 127.676 107.871 129.662 108.822L129.648 108.838C129.608 108.88 129.569 108.925 129.531 108.974L129.499 109.016L129.468 109.058L129.433 109.11L129.406 109.152L129.368 109.214C129.361 109.229 129.353 109.243 129.344 109.256C129.329 109.283 129.314 109.312 129.3 109.34L129.285 109.369C129.267 109.406 129.25 109.446 129.231 109.486C129.213 109.527 129.22 109.517 129.215 109.53C129.21 109.544 129.191 109.587 129.181 109.618L129.161 109.673C129.151 109.7 129.142 109.729 129.132 109.757C129.122 109.786 129.12 109.798 129.114 109.819L129.089 109.914L129.073 109.972C129.06 110.023 129.05 110.075 129.038 110.129L129.028 110.191C129.028 110.226 129.015 110.263 129.009 110.302C129.004 110.341 129.001 110.354 128.998 110.381C128.994 110.408 128.998 110.452 128.984 110.488C128.971 110.525 128.984 110.544 128.976 110.571C128.967 110.598 128.976 110.653 128.976 110.695C128.976 110.737 128.976 110.744 128.976 110.771C128.976 110.838 128.976 110.909 128.967 110.981C128.924 113.518 129.072 113.886 129.072 113.886C129.072 113.886 129.379 114.695 130.227 114.752C130.351 114.761 130.476 114.754 130.598 114.732C131.728 114.537 134.381 114.081 135.316 114.256C135.877 114.36 136.918 114.206 137.658 114.066L137.855 114.028L137.989 114.46L138.419 114.342L138.784 114.552L139.015 114.685C139.443 116.139 141.185 115.643 141.185 115.643L141.599 115.882L145.802 115.99C146.273 116.275 146.77 116.515 147.288 116.704C147.357 116.724 147.427 116.739 147.498 116.749C147.887 116.78 148.277 116.788 148.667 116.771C148.989 116.771 149.238 116.749 149.238 116.749C149.238 116.749 149.195 115.611 149.134 114.335C150.736 114.268 152.16 114.167 153.019 114.017C155.249 113.624 156.182 111.58 156.526 110.49C156.629 110.933 156.702 111.382 156.745 111.835C156.836 112.234 156.953 112.627 157.093 113.012C157.216 113.32 157.377 113.611 157.572 113.88C159.225 113.316 158.224 112.471 157.876 112.102C157.528 111.734 158.115 111.43 158.115 111.43C158.115 111.43 158.572 111.126 158.529 110.843C158.485 110.561 158.463 110.258 159.941 110.28C161.419 110.302 161.355 109.066 161.355 109.066ZM138.399 95.2178C138.418 95.3422 138.625 96.6771 138.811 97.0285C138.863 97.2628 138.879 97.5037 138.86 97.743C137.984 97.6741 137.071 97.6354 137.071 97.6354C137.098 97.6673 137.114 97.7067 137.118 97.748L136.98 97.7161C136.916 97.701 136.849 97.6858 136.78 97.6673L138.394 95.2144L138.399 95.2178ZM135.205 100.304L136.718 100.544L136.846 100.564C136.803 100.801 136.776 101.04 136.767 101.28C136.767 101.302 136.8 101.329 136.849 101.361C136.829 101.479 136.819 101.599 136.821 101.719C136.844 101.84 137.554 102.099 138.367 102.314C138.356 102.358 138.344 102.398 138.334 102.439C137.616 102.06 136.484 101.884 136.353 101.598C136.222 101.312 132.384 99.979 132.384 99.979C132.384 99.979 132.243 99.9034 132 99.7874L133.009 99.979L133.288 99.9505C133.918 100.109 134.557 100.227 135.202 100.304H135.205Z" fill="url(#paint0_linear)"/>
<path d="M156.399 110.015C156.399 110.015 155.796 113.655 152.736 114.194C149.676 114.734 139.464 114.625 139.464 114.625C139.464 114.625 133.625 113.784 131.513 108.851C129.402 103.919 128.045 101.958 129.854 101.869C131.663 101.78 141.424 105.166 141.984 105.21C142.544 105.254 156.937 97.7116 156.399 110.015Z" fill="#65617D"/>
<path d="M156.399 110.015C156.399 110.015 155.796 113.655 152.736 114.194C149.676 114.734 139.464 114.625 139.464 114.625C139.464 114.625 133.625 113.784 131.513 108.851C129.402 103.919 128.045 101.958 129.854 101.869C131.663 101.78 141.424 105.166 141.984 105.21C142.544 105.254 156.937 97.7116 156.399 110.015Z" fill="black" fill-opacity="0.05"/>
<path d="M129.019 114.066C129.019 114.066 129.323 114.868 130.162 114.927C130.285 114.936 130.409 114.929 130.53 114.907C131.652 114.712 134.28 114.259 135.206 114.433C135.764 114.535 136.795 114.382 137.529 114.244C138.017 114.152 138.37 114.066 138.37 114.066C138.37 114.066 137.509 111.208 137.4 111.114C137.291 111.02 133.523 108.76 133.523 108.76L130.532 108.552C130.132 108.613 129.771 108.826 129.523 109.147C129.209 109.528 128.938 110.155 128.92 111.181C128.868 113.699 129.019 114.066 129.019 114.066Z" fill="#3F3D56"/>
<path d="M129.02 114.082C129.02 114.082 129.324 114.884 130.163 114.942C129.87 114.566 129.6 114.173 129.352 113.766L129.368 111.676C129.245 110.515 129.683 109.362 130.544 108.574H130.533C130.533 108.574 128.961 108.682 128.917 111.203C128.873 113.725 129.02 114.082 129.02 114.082Z" fill="black" fill-opacity="0.05"/>
<path d="M141.961 109.494L144.74 107.318L149.111 103.009C149.111 103.009 148.639 102.985 147.926 102.955C147.758 103.068 147.254 103.423 147.233 103.855C147.213 104.383 146.057 103.892 145.448 104.191C144.839 104.49 141.9 108.273 141.383 108.246C140.865 108.219 140.456 107.984 140.241 108.35L140.226 108.374L141.961 109.494Z" fill="black" fill-opacity="0.1"/>
<path d="M129.521 109.145C129.62 109.192 129.721 109.239 129.821 109.283C131.933 110.187 134.541 112.084 134.734 112.428C134.853 112.639 136.365 113.557 137.532 114.244C138.019 114.152 138.372 114.066 138.372 114.066C138.372 114.066 137.511 111.208 137.402 111.114C137.293 111.02 133.525 108.76 133.525 108.76L130.529 108.552C130.129 108.613 129.768 108.825 129.521 109.145Z" fill="black" fill-opacity="0.1"/>
<path d="M123.657 102.985C123.938 103.674 126.286 106.324 126.286 106.324C126.286 106.324 127.773 108.264 129.884 109.169C131.996 110.073 134.602 111.97 134.797 112.314C134.921 112.536 136.604 113.55 137.79 114.246L138.055 114.401L138.644 114.737L138.955 114.917C138.955 114.917 139.676 114.337 140.395 113.753C141.115 113.17 141.809 112.6 141.821 112.577C141.841 112.513 142.122 111.78 142.057 111.736C142.023 111.714 141.875 111.415 141.604 111.063C141.315 110.679 140.938 110.368 140.506 110.156C139.514 109.703 139.084 108.673 139.084 108.673C139.084 108.673 138.99 108.605 138.847 108.515C138.553 108.312 138.224 108.165 137.877 108.083C137.403 108.024 136.52 107.054 136.52 107.054C136.52 107.054 135.917 106.665 135.68 106.171C135.442 105.677 132.112 103.404 131.803 103.19L139.903 108.394L141.841 109.639L144.622 107.464L148.993 103.155C148.993 103.155 148.405 103.126 147.551 103.089C145.424 102.997 141.65 102.852 141.172 102.96C140.787 103.05 140.389 103.076 139.995 103.037C139.601 102.998 138.919 103.086 138.208 102.711C137.497 102.336 136.376 102.16 136.246 101.882C136.117 101.605 132.304 100.266 132.304 100.266C132.304 100.266 127.112 97.5092 125.258 99.1467C123.403 100.784 123.378 102.296 123.657 102.985Z" fill="#65617D"/>
<path d="M140.396 87.1547L141.068 89.3723L141.931 94.3723L145.097 94.5875L146.015 93.0744L146.929 91.5613C146.929 91.5613 147.499 89.5438 147.909 87.5868C148.271 85.8585 148.508 84.1806 148.114 83.999C147.765 83.8309 147.534 83.2542 147.385 82.6288C147.366 82.5515 147.348 82.4724 147.333 82.3951C147.228 81.8645 147.158 81.3275 147.123 80.7878C147.088 80.2482 140.487 80.4432 141.406 83.1803C141.572 83.6471 141.657 84.1391 141.657 84.6345C141.655 84.7581 141.647 84.8815 141.633 85.0044C141.538 85.8617 141.089 86.6416 140.396 87.1547Z" fill="#EE8E9E"/>
<path d="M139.014 86.7835L139.253 90.5528L139.791 93.764L140.394 95.2502L140.932 103.384C140.932 103.384 146.127 103.984 147.392 103.374C147.482 103.335 147.561 103.273 147.62 103.194C149.145 100.891 148.646 94.2163 148.646 94.2163L149.227 89.9072L148.839 87.6712L147.903 87.5703L147.181 87.4947C147.181 87.4947 147.013 87.6947 146.783 87.999C146.144 88.8397 144.969 90.5007 145.048 91.1934C145.155 92.1416 144.918 93.11 144.544 93.2613C144.169 93.4126 143.871 93.6715 143.812 93.4126C143.753 93.1537 143.683 93.0898 143.747 92.7233C143.81 92.3568 143.466 91.2354 143.466 91.2354C143.466 91.2354 142.884 89.9224 142.928 89.3608C142.972 88.7993 142.864 88.1554 142.691 88.0041C142.518 87.8528 142.282 87.7031 142.476 87.0138C142.669 86.3245 141.627 84.9879 141.627 84.9879L139.014 86.7835Z" fill="#E3E8F4"/>
<path d="M145.876 96.216L146.093 102.659L147.337 103.348C147.428 103.309 147.506 103.248 147.566 103.17C149.091 100.865 148.591 94.1901 148.591 94.1901L149.173 89.8811L148.785 87.645L147.848 87.5442C148.21 85.8159 148.447 84.138 148.053 83.9564C147.704 83.7883 147.473 83.2116 147.324 82.5862L146.651 87.144C146.651 87.144 146.707 87.5559 146.727 87.9847C146.754 88.2532 146.736 88.5242 146.673 88.7866C146.522 89.175 146.629 89.8643 146.629 89.8643C146.241 90.5486 146.046 91.8162 145.957 93.0402C145.829 94.6642 145.876 96.216 145.876 96.216Z" fill="black" fill-opacity="0.1"/>
<path d="M147.347 82.4728C147.347 82.4728 148.433 82.6073 148.778 83.0612C149.122 83.5151 150.027 83.5774 150.027 83.5774C150.027 83.5774 151.061 83.9136 151.036 84.0078C151.01 84.1019 151.337 84.2246 151.982 84.3961C152.628 84.5676 153.707 85.193 153.707 85.3443C153.707 85.4957 155.417 87.1752 155.417 87.3484C155.417 87.5216 155.935 88.1672 155.869 89.3087C155.804 90.4503 155.74 91.8945 155.999 92.1315C156.258 92.3686 155.999 93.2949 155.999 93.2949C155.857 93.5001 155.848 93.7706 155.977 93.9843C156.192 94.3726 155.935 95.9883 155.935 95.9883L155.955 97.6695C155.955 97.6695 155.718 98.7254 155.999 98.7691C156.279 98.8128 155.955 99.2869 155.955 99.2869C155.955 99.2869 155.718 100.148 156.02 100.536C156.323 100.924 156.409 102.582 156.409 102.582L161.019 109.284C161.019 109.284 161.084 110.511 159.618 110.491C158.152 110.471 158.174 110.77 158.218 111.051C158.262 111.331 157.809 111.632 157.809 111.632C157.809 111.632 157.228 111.933 157.572 112.305C157.917 112.676 158.907 113.512 157.27 114.072C157.077 113.805 156.917 113.515 156.796 113.209C156.657 112.829 156.541 112.44 156.451 112.046C156.36 111.651 156.3 110.408 155.999 110.196C155.698 109.985 155.74 108.947 155.74 108.947C155.74 108.947 156.172 108.107 155.572 107.762C154.971 107.417 146.221 102.569 146.221 102.569L146.002 96.1178C146.002 96.1178 145.851 91.3565 146.755 89.761C146.755 89.761 146.648 89.0717 146.799 88.6833C146.95 88.2949 146.777 87.0458 146.777 87.0458L147.347 82.4728Z" fill="#3F3D56"/>
<path d="M141.696 85.0563C141.696 85.0563 139.529 84.6091 138.947 84.9117C138.366 85.2144 137.224 85.4497 137.051 85.6229C136.878 85.7961 136.449 85.6649 136.061 86.6787C135.672 87.6925 135.63 88.7248 135.134 89.2006C134.638 89.6764 134.379 89.9975 134.358 90.3421C134.336 90.6868 134.423 90.7725 134.23 90.8818C134.036 90.9911 133.756 91.4417 133.841 91.6132C133.927 91.7847 138.322 95.5775 138.322 95.5775C138.322 95.5775 138.539 97.0217 138.732 97.3882C138.926 97.7547 138.517 102.795 138.087 103.141C137.656 103.488 140.995 103.454 140.995 103.454C140.995 103.454 141.145 100.145 141.274 99.974C141.404 99.8025 141.188 96.2753 141.188 96.2753C141.188 96.2753 141.167 93.2591 141.447 92.4622C141.728 91.6653 141.696 89.0156 141.696 89.0156C141.696 89.0156 141.943 87.4252 142.244 87.0536C142.545 86.6821 141.696 85.0563 141.696 85.0563Z" fill="black" fill-opacity="0.1"/>
<path d="M141.633 84.9879C141.633 84.9879 139.467 84.5423 138.886 84.8433C138.304 85.1442 137.167 85.3796 136.996 85.5477C136.824 85.7158 136.392 85.5914 136.004 86.6035C135.616 87.6156 135.574 88.6513 135.078 89.1254C134.582 89.5995 134.324 89.9223 134.303 90.267C134.281 90.6116 134.366 90.6974 134.173 90.805C133.98 90.9126 133.699 91.3648 133.785 91.538C133.871 91.7112 138.27 95.5091 138.27 95.5091C138.27 95.5091 138.486 96.9516 138.681 97.3181C138.876 97.6846 138.464 102.727 138.033 103.071C137.603 103.416 140.942 103.384 140.942 103.384C140.942 103.384 141.093 100.077 141.223 99.9039C141.352 99.7307 141.135 96.2051 141.135 96.2051C141.135 96.2051 141.115 93.189 141.394 92.3921C141.673 91.5951 141.633 88.9371 141.633 88.9371C141.633 88.9371 141.88 87.3466 142.181 86.9768C142.482 86.6069 141.633 84.9879 141.633 84.9879Z" fill="#3F3D56"/>
<path d="M141.403 83.1802C141.569 83.6471 141.653 84.1391 141.653 84.6345C143.826 85.2811 146.178 84.3519 147.322 82.3951C147.217 81.8645 147.147 81.3275 147.112 80.7878C147.077 80.2482 140.476 80.4432 141.403 83.1802Z" fill="black" fill-opacity="0.1"/>
<path d="M138.13 79.7728C138.13 82.4794 140.358 84.7065 143.065 84.7065C145.772 84.7065 147.999 82.4791 147.999 79.7721C147.999 77.0651 145.772 74.8376 143.065 74.8376C140.743 74.8376 138.72 76.4762 138.238 78.7472C138.166 79.0843 138.13 79.4281 138.13 79.7728Z" fill="#EE8E9E"/>
<path d="M134.965 91.1962L133.788 91.5627C133.788 91.5627 133.897 91.9931 133.551 92.2083C133.343 92.3556 133.229 92.602 133.25 92.8556C133.271 93.1091 133.12 93.3297 132.819 93.4373C132.518 93.5449 132.323 94.256 132.323 94.256L131.331 95.3976C131.331 95.3976 130.967 95.6985 131.03 95.8498C131.094 96.0012 130.642 96.0432 130.642 96.0432L130.867 99.8798L132.915 100.266L134.186 100.137L135.22 99.7503L136.125 99.2107L136.535 98.1548L138.344 95.3976L134.965 91.1962Z" fill="#3F3D56"/>
<path d="M130.94 96.3346C130.94 96.3346 128.31 92.5417 126.35 94.5894C124.39 96.6372 127.147 99.9543 127.794 99.8467C128.441 99.7391 131.521 99.5659 131.521 99.5659L130.94 96.3346Z" fill="#EE8E9E"/>
<path fill-rule="evenodd" clip-rule="evenodd" d="M137.329 95.0978C137.394 94.9706 137.343 94.8145 137.216 94.7495L125.424 88.7306C125.296 88.6656 125.14 88.7162 125.075 88.8435L120.454 97.8971C120.389 98.0244 120.44 98.1805 120.567 98.2454L132.36 104.264C132.487 104.329 132.643 104.279 132.708 104.152L137.329 95.0978Z" fill="#3F3D56"/>
<path d="M136.036 95.2292L125.737 89.9723L121.775 97.7336L132.075 102.991L136.036 95.2292Z" fill="#0F79D1"/>
<path d="M123.366 93.8416C123.471 93.8416 123.556 93.7566 123.556 93.6517C123.556 93.5467 123.471 93.4617 123.366 93.4617C123.261 93.4617 123.176 93.5467 123.176 93.6517C123.176 93.7566 123.261 93.8416 123.366 93.8416Z" fill="#E6E8EC"/>
<path d="M134.523 99.661C134.696 99.661 134.836 99.5209 134.836 99.3482C134.836 99.1755 134.696 99.0355 134.523 99.0355C134.351 99.0355 134.211 99.1755 134.211 99.3482C134.211 99.5209 134.351 99.661 134.523 99.661Z" fill="#E6E8EC"/>
<path d="M129.237 97.1315C129.217 99.9761 135.098 100.578 135.098 100.578L136.601 100.817L137.274 100.924L137.554 98.1436C137.554 98.1436 137.247 98.0982 136.862 98.0091C136.292 97.8763 135.554 97.6459 135.399 97.3248C135.142 96.7868 129.259 94.2868 129.237 97.1315Z" fill="#EE8E9E"/>
<path d="M138.243 78.7354C138.38 78.7464 138.508 78.806 138.605 78.9036C138.773 79.0801 138.773 79.3928 138.997 79.5004C139.077 79.5364 139.167 79.547 139.254 79.5307C139.827 79.45 140.158 78.8027 140.708 78.6245C141.029 78.5421 141.369 78.5717 141.671 78.7085C141.795 78.7459 141.905 78.8161 141.991 78.912C142.176 79.1507 142.046 79.5021 142.132 79.7896C142.25 80.1897 142.727 80.3494 143.141 80.4016C143.554 80.4537 144.02 80.4822 144.298 80.795C144.483 81.0329 144.558 81.339 144.503 81.6356C144.478 81.7366 144.478 81.8422 144.503 81.9433C144.617 82.2677 145.175 82.219 145.321 81.9634C145.429 81.7785 145.397 81.6272 145.648 81.5734C145.829 81.5581 146.01 81.5894 146.176 81.6642C146.614 81.8145 147.076 81.8851 147.539 81.8726C147.848 81.2156 148.008 80.4982 148.008 79.7721C148.008 77.0651 145.781 74.8376 143.074 74.8376C140.752 74.8376 138.728 76.477 138.247 78.7489L138.243 78.7354Z" fill="black" fill-opacity="0.1"/>
<path d="M144.501 81.8202C144.477 81.7184 144.477 81.6125 144.501 81.5108C144.556 81.2142 144.481 80.9081 144.296 80.6702C144.018 80.3575 143.553 80.3339 143.139 80.2768C142.725 80.2196 142.248 80.0649 142.13 79.6648C142.045 79.3773 142.174 79.0259 141.989 78.7889C141.904 78.6922 141.793 78.6212 141.67 78.5838C141.368 78.4469 141.028 78.4173 140.706 78.4997C140.157 78.6779 139.825 79.3252 139.252 79.4059C139.165 79.4222 139.075 79.4116 138.995 79.3756C138.778 79.268 138.769 78.9553 138.603 78.7788C138.341 78.5014 137.845 78.6813 137.524 78.4745C137.315 78.34 137.235 78.0777 137.176 77.8373C137.063 77.3682 136.971 76.8773 137.082 76.4082C137.268 75.6063 137.984 75.0632 138.442 74.3722C138.869 73.735 139.114 72.928 139.748 72.5044C140.382 72.0807 141.211 72.1782 141.934 72.3934C142.267 72.5108 142.609 72.6002 142.957 72.6607C143.539 72.733 144.124 72.575 144.711 72.5548C145.539 72.5287 146.352 72.7759 147.026 73.2576C147.178 73.3571 147.307 73.4879 147.404 73.6409C147.502 73.8573 147.559 74.0898 147.572 74.3268C147.642 74.7725 147.796 75.2008 148.028 75.5878C148.208 75.8904 148.437 76.1644 148.6 76.4788C148.782 76.786 148.837 77.1522 148.754 77.4994C148.699 77.6759 148.586 77.8356 148.548 78.0189C148.452 78.4392 148.729 78.841 148.919 79.2293C149.102 79.5834 149.189 79.9794 149.171 80.3776C149.15 80.7785 148.962 81.1527 148.654 81.4099C148.334 81.6342 147.952 81.7521 147.562 81.7462C147.09 81.7606 146.619 81.6882 146.172 81.5327C146.007 81.4578 145.825 81.4266 145.644 81.4419C145.394 81.4923 145.426 81.647 145.318 81.8319C145.173 82.0942 144.615 82.143 144.501 81.8202Z" fill="#3F3D56"/>
<path d="M141.843 109.642L144.624 107.466L148.995 103.157C148.995 103.157 148.406 103.128 147.552 103.091C147.383 103.244 147.274 103.453 147.246 103.68C147.226 104.206 146.069 103.717 145.461 104.016C144.852 104.315 141.908 108.096 141.391 108.073C140.873 108.049 140.464 107.811 140.249 108.177L140.234 108.201C140.146 108.3 140.028 108.369 139.898 108.396L141.843 109.642Z" fill="black" fill-opacity="0.1"/>
<path d="M136.239 109.483L137.636 113.942L137.854 114.641L138.527 114.459L139.993 114.056L146.523 112.262C147.343 112.226 148.147 112.012 148.876 111.635C150.111 110.944 151.525 110.636 152.935 110.751C153.797 110.831 154.757 110.46 155.554 108.987C155.554 108.987 157.363 103.644 152.795 102.114C148.227 100.584 148.011 102.928 148.011 102.928L147.948 102.966C147.78 103.079 147.276 103.434 147.256 103.866C147.236 104.394 146.079 103.903 145.47 104.202C144.862 104.501 141.906 108.284 141.388 108.257C140.87 108.23 140.462 107.995 140.247 108.361L140.231 108.385C140.072 108.605 139.591 108.656 139.275 108.666C139.107 108.666 138.976 108.666 138.976 108.666L138.935 108.678L138.599 108.777L136.239 109.483Z" fill="#65617D"/>
<path d="M136.601 100.824L137.274 100.931L137.554 98.1505C137.554 98.1505 137.247 98.1051 136.862 98.016C136.963 98.4027 136.732 99.9023 136.601 100.824Z" fill="black" fill-opacity="0.1"/>
<path d="M154.219 87.8411C154.219 87.8411 156.223 87.2594 155.732 92.9487C155.241 98.638 151.529 102.234 151.529 102.234C151.529 102.234 147.263 104.109 145.345 103.808C144.246 103.63 143.139 103.508 142.028 103.441C141.424 103.136 140.763 102.96 140.088 102.924C139.012 102.882 136.749 102.212 136.705 101.997C136.661 101.782 137.267 98.6145 137.008 98.3775C137.008 98.3775 140.024 98.5019 140.325 98.7137C140.626 98.9255 141.058 98.7759 141.381 98.7137C141.703 98.6515 142.695 97.7907 144.656 98.5456C144.656 98.5456 145.328 98.6095 145.582 98.438C145.836 98.2665 146.254 98.3943 146.254 98.3943C146.421 98.3369 146.579 98.2573 146.724 98.1572C146.787 98.0715 147.305 98.1572 147.305 98.1572C147.337 98.1725 147.371 98.1806 147.406 98.1806C147.511 98.1806 147.603 98.1081 147.628 98.0059C147.695 97.8292 147.798 97.668 147.929 97.5318C148.06 97.3956 148.511 94.2567 149.61 93.0294C149.61 93.0294 149.933 92.7487 149.847 92.404C149.762 92.0593 151.633 87.1518 154.219 87.8411Z" fill="black" fill-opacity="0.1"/>
<path d="M154.169 87.388C154.169 87.388 156.173 86.8063 155.682 92.4957C155.191 98.185 151.479 101.781 151.479 101.781C151.479 101.781 147.212 103.656 145.295 103.355C143.378 103.054 141.97 102.988 141.97 102.988C141.366 102.683 140.706 102.507 140.031 102.47C138.953 102.428 136.692 101.759 136.648 101.544C136.605 101.329 137.208 98.1615 136.949 97.9244C136.949 97.9244 139.965 98.0488 140.268 98.2606C140.571 98.4725 141.001 98.3212 141.324 98.2606C141.647 98.2001 142.639 97.336 144.599 98.0925C144.599 98.0925 145.272 98.1564 145.525 97.9849C145.779 97.8134 146.198 97.9412 146.198 97.9412C146.364 97.8842 146.521 97.8044 146.665 97.7042C146.729 97.6184 147.247 97.7042 147.247 97.7042C147.278 97.7195 147.313 97.7275 147.347 97.7275C147.453 97.7275 147.545 97.6551 147.57 97.5529C147.639 97.3765 147.741 97.2154 147.872 97.0787C148.003 96.9421 148.454 93.8037 149.554 92.5764C149.554 92.5764 149.878 92.2956 149.791 91.9509C149.703 91.6063 151.583 86.6987 154.169 87.388Z" fill="#3F3D56"/>
<path d="M138.606 108.766L141.451 112.209C141.463 112.199 141.469 112.192 141.469 112.189C141.491 112.125 141.77 111.392 141.706 111.348C141.643 111.304 141.147 110.227 140.155 109.775C139.652 109.528 139.229 109.143 138.937 108.665L138.606 108.766Z" fill="black" fill-opacity="0.1"/>
<path d="M138.645 114.733L138.956 114.913C138.956 114.913 139.677 114.333 140.397 113.749C141.116 113.166 141.811 112.596 141.822 112.573C141.843 112.509 142.123 111.776 142.058 111.732C142.024 111.71 141.876 111.411 141.606 111.059C139.675 110.518 140.904 111.858 141.068 111.919C141.068 111.919 138.714 111.381 138.589 113.936C138.573 114.203 138.591 114.471 138.645 114.733Z" fill="black" fill-opacity="0.1"/>
<path d="M141.023 115.819L141.433 116.056L145.591 116.163C146.058 116.447 146.551 116.684 147.064 116.871C147.132 116.893 147.202 116.908 147.272 116.918C147.658 116.948 148.044 116.956 148.431 116.94C148.75 116.94 148.995 116.918 148.995 116.918C148.995 116.918 148.799 111.673 148.659 111.121C148.589 110.857 148.239 110.916 147.896 111.047C147.638 111.152 147.389 111.278 147.151 111.424C146.914 111.57 145.384 111.592 145.103 111.749C144.823 111.905 144.027 111.661 143.531 111.749C143.035 111.836 142.153 111.165 142.153 111.165C139.739 110.368 141.097 111.854 141.268 111.918C141.268 111.918 138.915 111.38 138.792 113.936C138.669 116.491 141.023 115.819 141.023 115.819Z" fill="#3F3D56"/>
<path d="M147.037 113.788C147.082 114.874 147.928 116.222 148.432 116.935C148.751 116.935 148.997 116.913 148.997 116.913C148.997 116.913 148.8 111.667 148.661 111.116C148.59 110.852 148.24 110.911 147.897 111.042C147.472 111.824 147 112.913 147.037 113.788Z" fill="#565387"/>
<path d="M147.037 113.788C147.082 114.874 147.928 116.222 148.432 116.935C148.751 116.935 148.997 116.913 148.997 116.913C148.997 116.913 148.8 111.667 148.661 111.116C148.59 110.852 148.24 110.911 147.897 111.042C147.472 111.824 147 112.913 147.037 113.788Z" fill="black" fill-opacity="0.1"/>
<path d="M146.324 113.932C146.61 114.98 146.607 116.155 147.064 116.866C147.132 116.887 147.202 116.903 147.273 116.913C147.658 116.943 148.045 116.95 148.431 116.935C148.75 116.935 148.996 116.913 148.996 116.913C148.996 116.913 148.799 111.667 148.66 111.116C148.589 110.852 148.239 110.911 147.896 111.042C147.638 111.147 147.389 111.273 147.152 111.419C146.914 111.565 145.958 112.59 146.324 113.932Z" fill="black" fill-opacity="0.05"/>
<path d="M131.979 103.295C131.979 103.295 134.045 103.967 135.795 106.348L131.979 103.295Z" fill="black" fill-opacity="0.1"/>
<path d="M148.761 77.4431C148.761 77.4599 148.761 77.475 148.75 77.4901C148.729 77.5513 148.704 77.6113 148.677 77.67C148.698 77.592 148.727 77.516 148.761 77.4431Z" fill="black"/>
<path d="M137.069 76.4055C137.108 76.2544 137.165 76.1083 137.237 75.9701C137.225 76.0071 137.215 76.0441 137.205 76.0827C137.096 76.5518 137.187 77.0427 137.301 77.5101C137.36 77.7522 137.441 78.0145 137.649 78.149C137.97 78.3541 138.466 78.1759 138.728 78.4533C138.897 78.6214 138.897 78.9425 139.12 79.0501C139.201 79.0861 139.291 79.0967 139.377 79.0804C139.949 78.9997 140.282 78.3524 140.832 78.1742C141.153 78.0918 141.493 78.1214 141.795 78.2583C141.918 78.2959 142.029 78.3669 142.114 78.4634C142.298 78.7004 142.17 79.0518 142.254 79.3393C142.373 79.7394 142.851 79.8975 143.263 79.9513C143.675 80.0051 144.142 80.032 144.419 80.3447C144.605 80.5826 144.68 80.8887 144.625 81.1853C144.599 81.2864 144.599 81.3919 144.625 81.493C144.739 81.8158 145.297 81.7687 145.443 81.5132C145.551 81.3282 145.517 81.1769 145.77 81.1214C145.95 81.1075 146.132 81.1392 146.297 81.2139C146.745 81.3671 147.217 81.4377 147.689 81.4224C148.08 81.4283 148.462 81.3104 148.781 81.0861C148.92 80.9757 149.035 80.837 149.117 80.6793C149.044 80.9661 148.881 81.222 148.651 81.4089C148.332 81.6332 147.95 81.7511 147.56 81.7452C147.085 81.7574 146.612 81.6823 146.165 81.5232C145.999 81.4484 145.818 81.4172 145.637 81.4325C145.386 81.4829 145.418 81.6376 145.311 81.8225C145.164 82.0781 144.606 82.1268 144.492 81.804C144.468 81.7023 144.468 81.5964 144.492 81.4947C144.547 81.1981 144.472 80.8919 144.287 80.654C144.009 80.3413 143.544 80.3178 143.13 80.2606C142.716 80.2035 142.239 80.0488 142.121 79.6487C142.035 79.3612 142.165 79.0098 141.98 78.7727C141.894 78.6764 141.784 78.6054 141.661 78.5676C141.358 78.4308 141.018 78.4012 140.697 78.4836C140.147 78.6618 139.815 79.309 139.243 79.3897C139.156 79.4061 139.066 79.3955 138.986 79.3595C138.769 79.2519 138.76 78.9392 138.594 78.7626C138.332 78.4852 137.836 78.6651 137.515 78.4583C137.306 78.3238 137.225 78.0616 137.167 77.8211C137.051 77.3655 136.96 76.8746 137.069 76.4055Z" fill="black"/>
<path d="M149.094 93.6594C148.699 94.1924 148.254 94.685 147.899 95.2482C147.544 95.8114 147.304 96.4705 147.376 97.1295C147.738 96.7597 147.902 96.2469 148.131 95.7845C148.516 94.9977 149.093 94.3303 149.58 93.5989C149.673 93.4611 150.268 92.6625 149.967 92.6238C149.718 92.5952 149.229 93.4779 149.094 93.6594Z" fill="black" fill-opacity="0.1"/>
<defs>
<linearGradient id="paint0_linear" x1="142.441" y1="116.771" x2="142.441" y2="71.7442" gradientUnits="userSpaceOnUse">
<stop stop-color="#808080" stop-opacity="0.247059"/>
<stop offset="0.54" stop-color="#808080" stop-opacity="0.117647"/>
<stop offset="1" stop-color="#808080" stop-opacity="0.0980392"/>
</linearGradient>
</defs>
</svg>
