<svg width="376" height="254" viewBox="0 0 376 254" fill="none" xmlns="http://www.w3.org/2000/svg">
<g opacity="0.8">
<path opacity="0.4" d="M311.429 74.5839L247.349 37.5865L311.429 0.518311L311.994 0.848013L375.58 37.5394L311.429 74.5839ZM251.87 37.5865L311.429 71.9699L371.105 37.5865L311.547 3.20304L251.87 37.5865Z" fill="#BCBEC0"/>
<path opacity="0.4" d="M249.609 110.286L185.529 73.2651L249.609 36.2676L313.713 73.2651L249.609 110.286ZM190.074 73.2651L249.609 107.649L309.168 73.2651L249.609 38.8817L190.074 73.2651Z" fill="#BCBEC0"/>
<path opacity="0.4" d="M311.429 145.965L310.864 145.635L247.278 108.967L311.358 71.9697L311.924 72.2994L375.509 108.967L311.429 145.965ZM251.894 108.967L311.429 143.351L371.105 108.967L311.547 74.5838L251.894 108.967Z" fill="#BCBEC0"/>
<path opacity="0.4" d="M187.79 145.965L123.827 108.967L187.908 71.9697L252.012 108.967L187.79 145.965ZM128.231 108.967L187.79 143.351L247.349 108.967L187.79 74.5838L128.231 108.967Z" fill="#BCBEC0"/>
<path opacity="0.4" d="M249.609 181.667L249.044 181.338L185.458 144.646L249.539 107.649L250.104 107.978L313.69 144.646L249.609 181.667ZM190.074 144.646L249.609 179.03L309.168 144.646L249.609 110.286L190.074 144.646Z" fill="#BCBEC0"/>
<path opacity="0.4" d="M64.1509 145.965L63.5858 145.635L0 108.967L64.0803 71.9697L128.161 108.967L64.1509 145.965ZM4.59226 108.967L64.1509 143.351L123.827 108.967L64.2687 74.5838L4.59226 108.967Z" fill="#BCBEC0"/>
<path opacity="0.4" d="M125.97 181.667L61.8901 144.646L125.97 107.649L190.074 144.646L125.97 181.667ZM66.4118 144.646L125.97 179.03L185.529 144.646L125.97 110.286L66.4118 144.646Z" fill="white"/>
<path opacity="0.4" d="M187.79 217.346L187.225 217.016L123.639 180.349L187.719 143.351L188.285 143.681L251.87 180.349L187.79 217.346ZM128.231 180.349L187.79 214.826L247.349 180.443L187.79 146.059L128.231 180.349Z" fill="#BCBEC0"/>
<path opacity="0.4" d="M64.1509 217.346L63.5858 217.016L0 180.349L64.0803 143.351L128.161 180.349L64.1509 217.346ZM4.59226 180.349L64.1509 214.826L123.827 180.349L64.2687 145.965L4.59226 180.349Z" fill="#BCBEC0"/>
<path opacity="0.4" d="M125.97 253.048L61.8901 216.051L125.97 179.03L126.536 179.359L190.121 216.051L125.97 253.048ZM66.4118 216.051L125.97 250.434L185.529 216.051L125.97 181.667L66.4118 216.051Z" fill="#BCBEC0"/>
</g>
</svg>
