<svg width="108" height="108" viewBox="0 0 108 108" fill="none" xmlns="http://www.w3.org/2000/svg">
<path d="M72.9844 0H3.16406C1.39169 0 0 1.39169 0 3.16406V47.6719C0 49.4442 1.39169 50.8359 3.16406 50.8359H72.9844C74.7567 50.8359 76.1484 49.4442 76.1484 47.6719V3.16406C76.1484 1.39169 74.7567 0 72.9844 0Z" fill="#7C8388"/>
<path d="M76.1484 3.16406V47.6719C76.1484 49.4442 74.7567 50.8359 72.9844 50.8359H47.6719V0H72.9844C74.7567 0 76.1484 1.39169 76.1484 3.16406Z" fill="#575F64"/>
<path d="M6.32812 6.32812V44.5078H69.8203V6.32812H6.32812Z" fill="#FAECD8"/>
<path d="M47.6719 6.32812H69.8203V44.5078H47.6719V6.32812Z" fill="#F4D7AF"/>
<path d="M108 57.1641V104.836C108 106.608 106.608 108 104.836 108H91.9688L88.8047 106.165L69.8203 95.1328V57.1641C69.8203 46.6592 78.2998 38.1797 88.8047 38.1797C94.0575 38.1797 98.8036 40.3311 102.221 43.7481C105.638 47.1651 108 51.912 108 57.1641Z" fill="#FF637B"/>
<path d="M108 57.1641V104.836C108 106.608 106.608 108 104.836 108H91.9688L88.8047 106.165V38.1797C94.0575 38.1797 98.8036 40.3311 102.221 43.7481C105.638 47.1651 108 51.912 108 57.1641Z" fill="#E63950"/>
<path d="M79.3125 57.1641C72.3516 57.1641 66.6562 62.8594 66.6562 69.8203C66.6562 76.7812 72.3516 82.4766 79.3125 82.4766C86.2734 82.4766 91.9688 76.7812 91.9688 69.8203C91.9688 62.8594 86.2734 57.1641 79.3125 57.1641Z" fill="#7C8388"/>
<path d="M95.1328 98.2969V104.836C95.1328 106.584 93.7164 108 91.9688 108H63.4922L57.1641 104.045L63.4922 98.2969C63.4922 89.5644 70.58 82.4766 79.3125 82.4766C83.6787 82.4766 87.666 84.2489 90.5136 87.0958C93.3604 89.9434 95.1328 93.9306 95.1328 98.2969Z" fill="#64E1DC"/>
<path d="M79.3125 82.4766V57.1641C86.2734 57.1641 91.9688 62.8594 91.9688 69.8203C91.9688 76.7812 86.2734 82.4766 79.3125 82.4766Z" fill="#575F64"/>
<path d="M95.1328 98.2969V104.836C95.1328 106.584 93.7164 108 91.9688 108H79.3125V82.4766C83.6787 82.4766 87.666 84.2489 90.5136 87.0958C93.3604 89.9434 95.1328 93.9306 95.1328 98.2969Z" fill="#00C8C8"/>
<path d="M47.6719 57.1641C40.7109 57.1641 35.0156 62.8594 35.0156 69.8203C35.0156 76.7812 40.7109 82.4766 47.6719 82.4766C54.6328 82.4766 60.3281 76.7812 60.3281 69.8203C60.3281 62.8594 54.6328 57.1641 47.6719 57.1641Z" fill="#7C8388"/>
<path d="M63.4922 98.2969V108H31.8516L25.5234 104.045L31.8516 98.2969C31.8516 89.5644 38.9394 82.4766 47.6719 82.4766C52.0381 82.4766 56.0253 84.2489 58.873 87.0958C61.7198 89.9434 63.4922 93.9306 63.4922 98.2969Z" fill="#64E1DC"/>
<path d="M47.6719 82.4766V57.1641C54.6328 57.1641 60.3281 62.8594 60.3281 69.8203C60.3281 76.7812 54.6328 82.4766 47.6719 82.4766Z" fill="#575F64"/>
<path d="M63.4922 98.2969V108H47.6719V82.4766C52.0381 82.4766 56.0253 84.2489 58.873 87.0958C61.7198 89.9434 63.4922 93.9306 63.4922 98.2969Z" fill="#00C8C8"/>
<path d="M16.0312 38.1797C14.2828 38.1797 12.8672 36.7641 12.8672 35.0156V28.6875C12.8672 26.939 14.2828 25.5234 16.0312 25.5234C17.7797 25.5234 19.1953 26.939 19.1953 28.6875V35.0156C19.1953 36.7641 17.7797 38.1797 16.0312 38.1797Z" fill="#00C8C8"/>
<path d="M28.6875 38.1797C26.939 38.1797 25.5234 36.7641 25.5234 35.0156V22.3594C25.5234 20.6109 26.939 19.1953 28.6875 19.1953C30.436 19.1953 31.8516 20.6109 31.8516 22.3594V35.0156C31.8516 36.7641 30.436 38.1797 28.6875 38.1797Z" fill="#7FE881"/>
<path d="M41.3438 38.1797C39.5953 38.1797 38.1797 36.7641 38.1797 35.0156V16.0312C38.1797 14.2828 39.5953 12.8672 41.3438 12.8672C43.0922 12.8672 44.5078 14.2828 44.5078 16.0312V35.0156C44.5078 36.7641 43.0922 38.1797 41.3438 38.1797Z" fill="#FF637B"/>
<path d="M16.0312 57.1641C9.07031 57.1641 3.16406 62.8594 3.16406 69.8203C3.16406 76.7812 9.07031 82.4766 16.0312 82.4766C22.9922 82.4766 28.6875 76.7812 28.6875 69.8203C28.6875 62.8594 22.9922 57.1641 16.0312 57.1641Z" fill="#7C8388"/>
<path d="M31.8516 98.2968V108H3.16406C1.41641 108 0 106.584 0 104.836V99.3078C0 90.0793 7.78162 81.9533 16.9937 82.5053C20.9809 82.7443 24.5948 84.459 27.2324 87.0957C30.0792 89.9434 31.8516 93.9306 31.8516 98.2968Z" fill="#64E1DC"/>
<path d="M16.0312 82.4766V57.1641C22.9922 57.1641 28.6875 62.8594 28.6875 69.8203C28.6875 76.7812 22.9922 82.4766 16.0312 82.4766Z" fill="#575F64"/>
<path d="M31.8516 98.2969V108H16.0312V82.4766C20.3975 82.4766 24.3847 84.2489 27.2324 87.0958C30.0792 89.9434 31.8516 93.9306 31.8516 98.2969Z" fill="#00C8C8"/>
<path d="M88.8047 12.8672C81.8438 12.8672 76.1484 18.5625 76.1484 25.5234C76.1484 32.4844 81.8438 38.1797 88.8047 38.1797C95.7656 38.1797 101.461 32.4844 101.461 25.5234C101.461 18.5625 95.7656 12.8672 88.8047 12.8672Z" fill="#FFBD86"/>
<path d="M88.8047 38.1797V12.8672C95.7656 12.8672 101.461 18.5625 101.461 25.5234C101.461 32.4844 95.7656 38.1797 88.8047 38.1797Z" fill="#F6A96C"/>
</svg>
