<svg width="82" height="89" viewBox="0 0 82 89" fill="none" xmlns="http://www.w3.org/2000/svg">
<path d="M43.1153 54.2708V39.6823H40.0358V54.2708L25.0254 64.5901L26.7698 67.1285L41.5756 56.9489L56.3814 67.1285L58.1257 64.5901L43.1153 54.2708Z" fill="#E4EAF6"/>
<path d="M47.9722 29.1403V24.1655H35.1797V29.1403L41.576 34.8259L47.9722 29.1403Z" fill="#E6AF78"/>
<path d="M57.8618 31.4672L49.0676 29.3982C48.9348 29.367 48.8126 29.3138 48.6982 29.2495L41.5753 33.4045L34.7301 29.0486C34.5528 29.2155 34.3331 29.3394 34.0831 29.3982L25.289 31.4672C24.0047 31.7693 23.0972 32.9152 23.0972 34.2346V39.8007C23.0972 40.5857 23.7336 41.2221 24.5186 41.2221H58.6318C59.4168 41.2221 60.0532 40.5857 60.0532 39.8007V34.2346C60.0535 32.9154 59.146 31.7695 57.8618 31.4672Z" fill="#707487"/>
<path d="M35.1797 24.1655V29.4144C43.2373 32.3174 47.9722 25.0519 47.9722 25.0519V24.1655H35.1797Z" fill="#D29B6E"/>
<path d="M32.3369 7.81946L32.9563 21.4445C33.0141 22.7174 33.6382 23.8975 34.6575 24.6622L37.5961 26.8662C38.3342 27.4198 39.232 27.719 40.1545 27.719H42.9973C43.9198 27.719 44.8178 27.4196 45.5557 26.8662L48.4942 24.6622C49.5136 23.8977 50.1376 22.7174 50.1955 21.4445L50.8148 7.81946H32.3369Z" fill="#F0C087"/>
<path d="M39.4437 10.6622C42.2865 10.6622 46.5507 9.95163 47.5622 7.81946H32.3369L32.9561 21.4445C33.014 22.7174 33.638 23.8975 34.6573 24.6622L37.5959 26.8662C38.334 27.4198 39.2318 27.719 40.1543 27.719H41.5757C40.1543 27.719 37.3115 24.8762 37.3115 21.3226C37.3115 19.5847 37.3115 14.9262 37.3115 12.7942C37.3117 12.0836 38.0223 10.6622 39.4437 10.6622Z" fill="#E6AF78"/>
<path d="M54.8364 36.6096L59.4417 32.4727C59.8276 32.9613 60.0539 33.5761 60.0539 34.2344V39.8006C60.0539 40.5856 59.4175 41.2219 58.6325 41.2219H53.6577V39.253C53.6577 38.2444 54.0864 37.2837 54.8364 36.6096Z" fill="#5B5D6E"/>
<path d="M28.3151 36.6096L23.7099 32.4727C23.324 32.9613 23.0977 33.5761 23.0977 34.2344V39.8006C23.0977 40.5856 23.734 41.2219 24.519 41.2219H29.4938V39.253C29.494 38.2444 29.0653 37.2837 28.3151 36.6096Z" fill="#5B5D6E"/>
<path d="M43.3524 41.222H39.7988L40.2431 34.8258H42.9083L43.3524 41.222Z" fill="#5B5D6E"/>
<path d="M43.3524 33.4044H39.7988V33.815C39.7988 34.7658 40.5696 35.5366 41.5204 35.5366H41.6306C42.5815 35.5366 43.3522 34.7658 43.3522 33.815V33.4044H43.3524Z" fill="#515262"/>
<path d="M35.0798 27.5579L41.5757 33.4042C41.5757 33.4042 39.7564 34.3226 37.5113 36.1737C37.0482 36.5556 36.3475 36.4009 36.0993 35.8543L33.0474 29.1401L34.0128 27.6919C34.2532 27.3315 34.7575 27.2681 35.0798 27.5579Z" fill="#5B5D6E"/>
<path d="M48.0716 27.5579L41.5757 33.4042C41.5757 33.4042 43.395 34.3226 45.6401 36.1737C46.1032 36.5556 46.8039 36.4009 47.0521 35.8543L50.104 29.1401L49.1386 27.6919C48.8982 27.3315 48.3939 27.2681 48.0716 27.5579Z" fill="#5B5D6E"/>
<path d="M45.8843 3.11119L46.5506 7.81967C49.5919 8.42789 50.0303 13.2009 50.0933 14.5642C50.1048 14.8116 50.1837 15.0506 50.3179 15.2586L51.4784 17.0586C51.4784 17.0586 51.0812 14.0825 52.8998 12.0838C52.8998 12.0837 53.5242 0.268402 45.8843 3.11119Z" fill="#785550"/>
<path d="M52.1915 16.7544L51.3889 19.9649C51.2938 20.3452 50.9519 20.612 50.5599 20.612C50.129 20.612 49.7655 20.2911 49.712 19.8637L49.3016 16.5803C49.1919 15.7023 49.8765 14.9266 50.7614 14.9266H50.7644C51.7211 14.9265 52.4234 15.8258 52.1915 16.7544Z" fill="#F0C087"/>
<path d="M33.0175 1.83798L34.0688 2.55606C29.3162 6.06513 30.2044 12.0838 30.2044 12.0838C31.6258 13.5051 31.6258 17.0585 31.6258 17.0585L33.0472 15.6371C33.0472 15.6371 32.4986 11.5312 35.1794 9.95175C37.6669 8.48603 39.8434 9.24114 42.0642 9.24114C48.0162 9.24114 49.6819 6.99806 49.3931 4.26635C49.2438 2.85278 47.0826 -0.0913432 41.5756 0.00217634C39.353 0.039897 35.1792 0.712786 33.0175 1.83798Z" fill="#694B4B"/>
<path d="M32.6031 8.61916C32.6031 8.61916 31.848 5.64304 34.0688 2.55603C29.3162 6.0651 30.2044 12.0837 30.2044 12.0837C31.6258 13.5051 31.6258 17.0585 31.6258 17.0585L33.0472 15.6371C33.0472 15.6371 32.4986 11.5311 35.1794 9.95172C37.6669 8.486 39.8434 9.24111 42.0642 9.24111C43.0322 9.24111 43.8758 9.17627 44.6271 9.0652C40.0431 9.21869 37.3409 5.74665 32.6031 8.61916Z" fill="#5A4146"/>
<path d="M30.9597 16.7544L31.7622 19.9649C31.8573 20.3452 32.1992 20.612 32.5912 20.612C33.0221 20.612 33.3856 20.2911 33.4392 19.8637L33.8496 16.5803C33.9592 15.7023 33.2747 14.9266 32.3898 14.9266H32.3868C31.4299 14.9265 30.7276 15.8258 30.9597 16.7544Z" fill="#E6AF78"/>
<path d="M50.1039 39.8008H46.5503C45.7653 39.8008 45.1289 40.4372 45.1289 41.2222H51.5253C51.5251 40.4372 50.8887 39.8008 50.1039 39.8008Z" fill="#5B5D6E"/>
<path d="M24.8746 76.8752V71.9003H12.082V76.8752L18.4782 82.5606L24.8746 76.8752Z" fill="#E6AF78"/>
<path d="M34.7644 79.2022L25.9703 77.1331C25.8375 77.102 25.7153 77.0488 25.6011 76.9845L18.4781 81.1395L11.6329 76.7836C11.4556 76.9504 11.2359 77.0744 10.9859 77.1331L2.1918 79.2022C0.907557 79.5043 0 80.6502 0 81.9696V87.5357C0 88.3207 0.636385 88.9571 1.42139 88.9571H35.5346C36.3196 88.9571 36.956 88.3207 36.956 87.5357V81.9696C36.9562 80.6502 36.0486 79.5043 34.7644 79.2022Z" fill="#EFF2FA"/>
<path d="M12.082 71.9003V77.1492C20.1397 80.0521 24.8746 72.7866 24.8746 72.7866V71.9003H12.082Z" fill="#D29B6E"/>
<path d="M9.23926 55.5544L9.85861 69.1794C9.91649 70.4524 10.5405 71.6325 11.5599 72.3972L14.4984 74.6011C15.2365 75.1548 16.1343 75.4539 17.0568 75.4539H19.8996C20.8221 75.4539 21.7201 75.1546 22.458 74.6011L25.3966 72.3972C26.4159 71.6327 27.04 70.4524 27.0978 69.1794L27.7172 55.5544H9.23926Z" fill="#F0C087"/>
<path d="M16.3462 58.3971C19.189 58.3971 23.4532 57.6865 24.4645 55.5543H9.23926L9.85843 69.1793C9.91632 70.4523 10.5404 71.6324 11.5597 72.397L14.4983 74.601C15.2363 75.1547 16.1342 75.4538 17.0567 75.4538H18.478C17.0567 75.4538 14.2139 72.611 14.2139 69.0575C14.2139 67.3195 14.2139 62.6611 14.2139 60.5291C14.214 59.8183 14.9248 58.3971 16.3462 58.3971Z" fill="#E6AF78"/>
<path d="M31.7383 84.3445L36.3435 80.2075C36.7294 80.6962 36.9557 81.311 36.9557 81.9693V87.5354C36.9557 88.3204 36.3194 88.9568 35.5344 88.9568H30.5596V86.9879C30.5596 85.9795 30.9882 85.0186 31.7383 84.3445Z" fill="#E4EAF6"/>
<path d="M5.21745 84.3445L0.612223 80.2075C0.226324 80.6962 0 81.311 0 81.9693V87.5354C0 88.3204 0.636385 88.9568 1.42139 88.9568H6.39618V86.9879C6.39635 85.9795 5.96769 85.0186 5.21745 84.3445Z" fill="#E4EAF6"/>
<path d="M20.2552 88.9567H16.7017L17.146 82.5605H19.8109L20.2552 88.9567Z" fill="#5B5D6E"/>
<path d="M20.2552 81.1394H16.7017V81.55C16.7017 82.5008 17.4724 83.2716 18.4233 83.2716H18.5335C19.4843 83.2716 20.2551 82.5008 20.2551 81.55V81.1394H20.2552Z" fill="#515262"/>
<path d="M11.9821 75.2927L18.4781 81.139C18.4781 81.139 16.6588 82.0574 14.4136 83.9084C13.9505 84.2903 13.2498 84.1356 13.0016 83.5891L9.94971 76.8749L10.9151 75.4267C11.1557 75.0662 11.66 75.0029 11.9821 75.2927Z" fill="#E4EAF6"/>
<path d="M24.974 75.2927L18.478 81.139C18.478 81.139 20.2973 82.0574 22.5425 83.9084C23.0056 84.2903 23.7063 84.1356 23.9545 83.5891L27.0064 76.8749L26.0409 75.4267C25.8004 75.0662 25.2961 75.0029 24.974 75.2927Z" fill="#E4EAF6"/>
<path d="M22.7871 50.8461L23.4534 55.5545C26.4947 56.1628 26.9331 60.9357 26.9962 62.2991C27.0077 62.5464 27.0866 62.7854 27.2208 62.9935L28.3812 64.7935C28.3812 64.7935 27.984 61.8174 29.8026 59.8187C29.8026 59.8184 30.427 48.0033 22.7871 50.8461Z" fill="#785550"/>
<path d="M29.0938 64.4892L28.2913 67.6997C28.1962 68.08 27.8543 68.3468 27.4623 68.3468C27.0314 68.3468 26.6679 68.0259 26.6144 67.5985L26.2039 64.3149C26.0943 63.4369 26.7788 62.6613 27.6638 62.6613H27.6667C28.6236 62.6613 29.3261 63.5608 29.0938 64.4892Z" fill="#F0C087"/>
<path d="M9.92032 49.5727L10.9716 50.2908C6.219 53.7999 7.10726 59.8185 7.10726 59.8185C8.52866 61.2399 8.52866 64.7933 8.52866 64.7933L9.95005 63.3719C9.95005 63.3719 9.40145 59.2659 12.0822 57.6865C14.5697 56.2208 16.7462 56.9759 18.967 56.9759C24.9191 56.9759 26.5847 54.7328 26.296 52.0011C26.1467 50.5875 23.9855 47.6434 18.4784 47.7369C16.2558 47.7746 12.0821 48.4475 9.92032 49.5727Z" fill="#694B4B"/>
<path d="M9.50592 56.3538C9.50592 56.3538 8.75081 53.3777 10.9716 50.2906C6.219 53.7997 7.10726 59.8183 7.10726 59.8183C8.52866 61.2397 8.52866 64.7931 8.52866 64.7931L9.95005 63.3717C9.95005 63.3717 9.40145 59.2657 12.0822 57.6863C14.5697 56.2206 16.7462 56.9757 18.967 56.9757C19.9351 56.9757 20.7787 56.9109 21.53 56.7998C16.9458 56.9535 14.2438 53.4814 9.50592 56.3538Z" fill="#5A4146"/>
<path d="M7.86255 64.4892L8.66511 67.6996C8.7602 68.0799 9.10212 68.3468 9.4941 68.3468C9.92502 68.3468 10.2885 68.0259 10.342 67.5984L10.7524 64.315C10.8621 63.437 10.1776 62.6614 9.29263 62.6614H9.28968C8.33275 62.6612 7.63031 63.5608 7.86255 64.4892Z" fill="#E6AF78"/>
<path d="M27.0067 87.5354H23.4531C22.6681 87.5354 22.0317 88.1718 22.0317 88.9568H28.4281C28.4279 88.172 27.7915 87.5354 27.0067 87.5354Z" fill="#E4EAF6"/>
<path d="M66.2129 48.2394C51.8759 48.2394 53.4655 65.6742 53.5311 78.3087C53.5335 78.7859 53.7834 79.2161 54.1923 79.4624C55.7811 80.4202 60.1442 82.6593 66.213 82.6593C72.2819 82.6593 76.645 80.4202 78.2338 79.4624C78.6424 79.2161 78.8924 78.7859 78.895 78.3087C78.9602 65.6743 80.5499 48.2394 66.2129 48.2394Z" fill="#694B4B"/>
<path d="M65.2896 48.2754C51.9556 49.023 53.4676 65.9554 53.5315 78.3087C53.534 78.7859 53.7839 79.2161 54.1928 79.4624C55.7816 80.4202 60.1446 82.6593 66.2135 82.6593L69.8368 57.2972" fill="#5A4146"/>
<path d="M66.2133 48.2394C58.0613 48.2394 57.4951 58.0897 57.4951 58.0897C62.1939 57.297 65.0811 59.2785 69.8366 57.297L66.2133 82.6591C72.2823 82.6591 76.6452 80.42 78.234 79.4622C78.6427 79.2159 78.8927 78.7857 78.8953 78.3085C78.9606 65.6743 80.5503 48.2394 66.2133 48.2394Z" fill="#694B4B"/>
<path d="M78.8946 78.3087C78.9507 67.4521 80.1229 53.0614 71.3576 49.2236C71.2048 50.0179 70.9277 52.235 71.6475 53.6742C73.4592 57.2974 75.2708 57.2974 77.0821 60.0145C78.8937 69.9782 73.6206 80.5534 71.8693 81.9932C74.9723 81.2553 77.1966 80.0875 78.2335 79.4624C78.642 79.2159 78.8921 78.7859 78.8946 78.3087Z" fill="#785550"/>
<path d="M79.9392 81.0568L71.8568 77.6892C71.1819 77.4079 70.7421 76.7484 70.7421 76.017V73.8281H61.6842V76.017C61.6842 76.7484 61.2445 77.4079 60.5695 77.6892L52.4872 81.0568C51.4746 81.4787 50.8149 82.4681 50.8149 83.5651V87.1884C50.8149 88.1889 51.626 89 52.6266 89H79.7999C80.8005 89 81.6115 88.1889 81.6115 87.1884V83.5651C81.6114 82.4679 80.9519 81.4787 79.9392 81.0568Z" fill="#E6AF78"/>
<path d="M79.9393 81.0568L72.1247 77.8007L66.2133 80.3519L60.302 77.8007L52.4872 81.0568C51.4746 81.4787 50.8149 82.4681 50.8149 83.5651V87.1884C50.8149 88.189 51.626 89 52.6266 89H79.7999C80.8005 89 81.6116 88.189 81.6116 87.1884V83.5651C81.6116 82.4679 80.952 81.4787 79.9393 81.0568Z" fill="#EFF2FA"/>
<path d="M70.7418 73.8278H61.6839V76.0166C61.6839 76.7481 61.2441 77.4076 60.5692 77.6888L59.3066 78.2148C68.967 80.678 70.7418 73.8278 70.7418 73.8278Z" fill="#D29B6E"/>
<path d="M55.2298 84.5607L51.594 81.6687C51.1068 82.1669 50.8149 82.8405 50.8149 83.565V87.1883C50.8149 88.1888 51.626 88.9999 52.6266 88.9999H56.2499V86.6828C56.2497 85.8571 55.8744 85.0764 55.2298 84.5607Z" fill="#E4EAF6"/>
<path d="M81.6118 87.1882V83.5649C81.6118 82.846 81.3247 82.1769 80.8444 81.6799L77.1969 84.5606C76.5524 85.0762 76.1772 85.857 76.1772 86.6825V88.9996H79.8005C80.8007 88.9998 81.6118 88.1887 81.6118 87.1882Z" fill="#E4EAF6"/>
<path d="M66.3492 87.1881H66.0775C65.6523 87.1881 65.3076 86.8434 65.3076 86.4182V80.354H67.1193V86.4182C67.1193 86.8434 66.7744 87.1881 66.3492 87.1881Z" fill="#E4EAF6"/>
<path d="M66.2135 80.352L61.0292 76.464C60.6964 76.2144 60.2223 76.2956 59.9917 76.6416L58.9673 78.1783L62.1457 82.6279C62.3874 82.966 62.8635 83.0323 63.188 82.7727L66.2135 80.352Z" fill="#E4EAF6"/>
<path d="M66.2134 80.352L71.3976 76.464C71.7305 76.2144 72.2045 76.2956 72.4352 76.6416L73.4596 78.1783L70.2811 82.6279C70.0395 82.966 69.5634 83.0323 69.2389 82.7727L66.2134 80.352Z" fill="#E4EAF6"/>
<path d="M70.7416 56.3915C66.2127 60.9204 57.3247 57.2973 57.3247 64.5435L57.8872 69.8811C57.9959 71.0751 58.6879 72.138 59.7357 72.7204L64.893 75.5854C65.7137 76.0414 66.7116 76.0414 67.5322 75.5854L72.6895 72.7204C73.7376 72.138 74.4297 71.0751 74.538 69.8811L75.1873 63.5417C75.2335 63.0912 75.2433 62.6378 75.2281 62.1857C74.8895 59.88 71.6474 58.2031 70.7416 56.3915Z" fill="#F0C087"/>
<path d="M57.3247 64.5434L57.8872 69.881C57.9959 71.075 58.6879 72.138 59.7357 72.7203L64.893 75.5854C65.4625 75.9017 66.1157 75.9836 66.7373 75.861C66.7373 75.861 64.1372 75.0731 62.5896 70.884C62.1156 69.6008 61.4575 62.8074 62.0234 61.977C63.1424 60.3359 69.3828 60.1654 71.2268 57.121C71.1357 57.008 71.0516 56.8948 70.9749 56.7815C70.9688 56.7725 70.9612 56.7632 70.9551 56.754C70.875 56.6336 70.8025 56.5129 70.7416 56.3916C66.2129 60.9203 57.3247 57.2972 57.3247 64.5434Z" fill="#E6AF78"/>
<path d="M72.8255 87.1881H70.4704C69.6201 87.1881 68.9307 87.8775 68.9307 88.7279V88.9996H74.3652V88.7279C74.3652 87.8777 73.6758 87.1881 72.8255 87.1881Z" fill="#E4EAF6"/>
</svg>
