<svg width="188" height="188" viewBox="0 0 188 188" fill="none" xmlns="http://www.w3.org/2000/svg">
<path d="M46.1958 32.9609C45.4806 41.4525 36.6313 42.7935 36.6313 42.7935C44.2292 43.1511 46.1231 53.1181 46.1231 53.1181C46.2854 46.0115 55.9058 42.6885 55.9058 42.6885C48.6993 42.2574 46.1958 32.9609 46.1958 32.9609Z" fill="#D7E057"/>
<path d="M55.9719 41.5899C49.6533 41.2117 47.2828 32.759 47.26 32.6731C47.1205 32.1576 46.6365 31.8256 46.0967 31.8638C45.5643 31.9123 45.1435 32.3353 45.0987 32.8677C44.4679 40.3701 36.7907 41.6538 36.4669 41.7037C35.9066 41.7889 35.5026 42.2846 35.532 42.8501C35.5614 43.4163 36.0145 43.8672 36.5807 43.8936C43.2099 44.2065 45.0246 53.2341 45.0414 53.3252C45.1428 53.8481 45.5996 54.2197 46.1232 54.2197C46.154 54.2197 46.1849 54.2182 46.2157 54.216C46.7768 54.169 47.2123 53.7071 47.2255 53.1438C47.3679 46.895 56.1782 43.7607 56.2678 43.7299C56.7643 43.558 57.0698 43.0586 56.9978 42.5387C56.9244 42.018 56.4962 41.6207 55.9719 41.5899ZM46.0086 49.1877C45.0121 46.8884 43.2856 44.1147 40.4376 42.6687C42.5901 41.6376 45.1435 39.7951 46.4603 36.5939C47.5993 38.8485 49.5446 41.6464 52.5805 42.9999C50.373 44.2028 47.4972 46.2341 46.0086 49.1877Z" fill="#3A312A"/>
<path d="M30.2607 45.4314C29.7554 51.4378 23.4956 52.3867 23.4956 52.3867C28.8698 52.6393 30.2093 59.6893 30.2093 59.6893C30.3238 54.6625 37.1285 52.3125 37.1285 52.3125C32.0312 52.007 30.2607 45.4314 30.2607 45.4314Z" fill="#D7E057"/>
<path d="M37.1946 51.2124C32.9595 50.9583 31.3394 45.2001 31.3233 45.1421C31.1845 44.6265 30.6888 44.2931 30.1622 44.3328C29.6291 44.3805 29.2075 44.805 29.1627 45.3374C28.7383 50.3833 23.5477 51.2609 23.3311 51.2954C22.7708 51.3806 22.3668 51.8763 22.3962 52.4418C22.4256 53.008 22.8787 53.4589 23.4449 53.4853C27.8769 53.6939 29.1172 59.834 29.1282 59.8942C29.2281 60.4178 29.6856 60.7901 30.21 60.7901C30.2401 60.7901 30.2709 60.7887 30.3018 60.7865C30.8636 60.7402 31.299 60.2775 31.3123 59.7135C31.4077 55.521 37.4303 53.3737 37.4891 53.3531C37.9863 53.182 38.2925 52.6826 38.2213 52.162C38.1486 51.6413 37.7189 51.244 37.1946 51.2124ZM30.1556 56.2018C29.4771 54.8175 28.4372 53.3032 26.8899 52.325C28.2529 51.5605 29.6048 50.3936 30.4663 48.7141C31.2432 50.0903 32.4153 51.6185 34.0955 52.5512C32.7377 53.359 31.1661 54.5626 30.1556 56.2018Z" fill="#3A312A"/>
<path d="M30.2607 25.8542C29.7554 31.8607 23.4956 32.8088 23.4956 32.8088C28.8698 33.0614 30.2093 40.1114 30.2093 40.1114C30.3238 35.0846 37.1285 32.7346 37.1285 32.7346C32.0312 32.4298 30.2607 25.8542 30.2607 25.8542Z" fill="#D7E057"/>
<path d="M37.1947 31.6354C32.9595 31.382 31.3395 25.6238 31.3233 25.5658C31.1845 25.0503 30.6888 24.7176 30.1623 24.7565C29.6291 24.8042 29.2076 25.2287 29.1628 25.7611C28.7383 30.807 23.5478 31.6846 23.3311 31.7191C22.7708 31.8043 22.3669 32.3 22.3963 32.8655C22.4257 33.4317 22.8788 33.8826 23.445 33.909C27.8769 34.1176 29.1173 40.2577 29.1283 40.3179C29.2282 40.8415 29.6857 41.2138 30.21 41.2138C30.2401 41.2138 30.271 41.2124 30.3018 41.2102C30.8636 41.1639 31.2991 40.7013 31.3123 40.1373C31.4078 35.9447 37.4304 33.7967 37.4899 33.7761C37.9863 33.6043 38.2926 33.1056 38.2213 32.5849C38.1486 32.0643 37.719 31.6662 37.1947 31.6354ZM30.1557 36.6255C29.4771 35.2412 28.4372 33.7269 26.8899 32.7487C28.2529 31.9842 29.6049 30.8173 30.4663 29.1378C31.2433 30.514 32.4161 32.0422 34.0956 32.9742C32.737 33.782 31.1662 34.9864 30.1557 36.6255Z" fill="#3A312A"/>
<path d="M24.6177 111.673C24.1874 111.243 23.4905 111.243 23.0601 111.673L12.6137 122.12C12.1833 122.55 12.1833 123.247 12.6137 123.677C12.8288 123.893 13.1108 124 13.3928 124C13.6748 124 13.9568 123.893 14.172 123.677L24.6185 113.231C25.0481 112.801 25.0481 112.104 24.6177 111.673Z" fill="#3A312A"/>
<path d="M36.9927 125.153C36.5623 124.723 35.8654 124.723 35.4351 125.153L14.5017 146.086C14.0714 146.517 14.0714 147.214 14.5017 147.644C14.7169 147.859 14.9989 147.966 15.2801 147.966C15.5621 147.966 15.8442 147.859 16.0593 147.644L36.9927 126.711C37.423 126.28 37.423 125.583 36.9927 125.153Z" fill="#3A312A"/>
<path d="M49.9207 138.079C49.4903 137.649 48.7934 137.649 48.3631 138.079L18.134 168.308C17.7036 168.739 17.7036 169.436 18.134 169.866C18.3491 170.081 18.6311 170.188 18.9124 170.188C19.1937 170.188 19.4764 170.081 19.6916 169.866L49.9207 139.637C50.351 139.207 50.351 138.51 49.9207 138.079Z" fill="#3A312A"/>
<path d="M62.8471 151.007C62.4168 150.577 61.7198 150.577 61.2895 151.007L40.3561 171.94C39.9258 172.37 39.9258 173.067 40.3561 173.498C40.5713 173.713 40.8533 173.82 41.1353 173.82C41.4173 173.82 41.6993 173.713 41.9138 173.498L62.8471 152.565C63.2775 152.135 63.2775 151.438 62.8471 151.007Z" fill="#3A312A"/>
<path d="M76.3265 163.382C75.8962 162.952 75.1993 162.952 74.7689 163.382L64.3225 173.829C63.8921 174.259 63.8921 174.956 64.3225 175.386C64.5376 175.602 64.8196 175.709 65.1009 175.709C65.3822 175.709 65.6649 175.602 65.8801 175.386L76.3265 164.94C76.7562 164.51 76.7562 163.812 76.3265 163.382Z" fill="#3A312A"/>
<path d="M22.9962 107.903C22.8971 110.767 23.9436 113.661 26.1217 115.839L38.5386 128.256L46.4331 136.151L72.1597 161.877C74.3386 164.056 77.232 165.102 80.0961 165.003L85.8771 102.122L22.9962 107.903Z" fill="#F16C7A"/>
<path d="M86.6562 101.344C86.4249 101.112 86.1003 101.001 85.7764 101.025L22.8956 106.806C22.3433 106.857 21.9152 107.311 21.8961 107.865C21.7837 111.124 23.0403 114.314 25.3433 116.618L37.7601 129.035C38.1904 129.465 38.8873 129.465 39.3177 129.035C39.748 128.604 39.748 127.908 39.3177 127.477L26.9009 115.06C25.2566 113.415 24.2674 111.214 24.1132 108.906L84.6587 103.34L79.0929 163.886C76.7855 163.732 74.5838 162.743 72.9388 161.098L47.2122 135.372C46.7819 134.941 46.0849 134.941 45.6546 135.372C45.2243 135.802 45.2243 136.499 45.6546 136.929L71.3812 162.656C73.5902 164.865 76.6129 166.111 79.7303 166.111C79.8655 166.111 79.9998 166.109 80.1342 166.104C80.6887 166.085 81.1425 165.657 81.1932 165.104L86.9742 102.223C87.0043 101.897 86.8876 101.575 86.6562 101.344Z" fill="#3A312A"/>
<path d="M171.475 62.563L125.437 16.525C123.258 14.3461 120.365 13.3004 117.501 13.3995L111.72 76.2804L174.601 70.4994C174.7 67.6353 173.654 64.7419 171.475 62.563Z" fill="#F16C7A"/>
<path d="M172.254 61.7843L126.216 15.7463C123.913 13.4433 120.728 12.1905 117.463 12.2984C116.909 12.3168 116.455 12.7457 116.404 13.2979L110.623 76.1795C110.594 76.5056 110.71 76.828 110.942 77.0593C111.149 77.2664 111.43 77.3817 111.721 77.3817C111.755 77.3817 111.789 77.3802 111.823 77.3773L174.704 71.5963C175.256 71.5456 175.685 71.091 175.704 70.5373C175.814 67.2767 174.557 64.0866 172.254 61.7843ZM112.938 75.0618L118.504 14.5155C120.812 14.6705 123.014 15.6597 124.658 17.3039L170.696 63.3419C172.341 64.9862 173.329 67.1871 173.484 69.496L112.938 75.0618Z" fill="#3A312A"/>
<path d="M111.718 76.2825L97.9737 77.5478C92.5019 78.0508 87.6476 82.9051 87.1446 88.3769L85.8793 102.121L80.0968 165.005C82.7163 164.927 85.3197 163.879 87.3267 161.872L100.435 148.764L108.977 140.221L171.468 77.7292C173.476 75.7221 174.523 73.1188 174.601 70.4993L111.718 76.2825Z" fill="#F16C7A"/>
<path d="M175.356 69.6975C175.126 69.4816 174.811 69.3773 174.5 69.403L97.8724 76.4508C91.9012 77.0008 86.5968 82.306 86.0475 88.2764L78.9989 164.903C78.9703 165.218 79.0775 165.529 79.2934 165.759C79.5013 165.981 79.7928 166.106 80.0961 166.106C80.1071 166.106 80.1174 166.106 80.1284 166.106C83.1335 166.017 85.966 164.79 88.1045 162.651L172.248 78.5078C174.385 76.37 175.613 73.5368 175.702 70.5332C175.712 70.2174 175.585 69.9134 175.356 69.6975ZM170.69 76.9502L86.5476 161.092C85.1082 162.531 83.284 163.463 81.3152 163.783L88.2425 88.4777C88.6986 83.5118 93.1092 79.1012 98.0751 78.6444L173.381 71.7178C173.06 73.6881 172.129 75.5115 170.69 76.9502Z" fill="#3A312A"/>
<path d="M110.271 16.5315L79.7223 47.0801L71.9379 54.8637L26.1291 100.673C24.122 102.68 23.0741 105.284 22.9962 107.903L85.88 102.121L99.6238 100.855C105.096 100.352 109.95 95.4981 110.453 90.0263L111.718 76.2825L117.5 13.3987C114.881 13.4765 112.278 14.5245 110.271 16.5315Z" fill="#F16C7A"/>
<path d="M118.303 12.6446C118.086 12.4148 117.789 12.265 117.467 12.298C114.461 12.3876 111.629 13.6148 109.492 15.7525L78.9431 46.3018C78.5128 46.7321 78.5128 47.429 78.9431 47.8594C79.3735 48.2897 80.0704 48.2897 80.5007 47.8594L111.05 17.3101C112.489 15.8715 114.312 14.9396 116.282 14.6194L109.355 89.9251C108.898 94.891 104.488 99.3016 99.5218 99.7577L24.2168 106.685C24.5362 104.716 25.4681 102.892 26.9068 101.453L72.7164 55.643C73.1467 55.2127 73.1467 54.5158 72.7164 54.0854C72.286 53.6551 71.5891 53.6551 71.1587 54.0854L25.3492 99.895C23.2107 102.034 21.9843 104.867 21.8954 107.871C21.8859 108.186 22.0122 108.49 22.242 108.706C22.4469 108.899 22.7179 109.005 22.9962 109.005C23.03 109.005 23.0638 109.003 23.0976 109.001L99.7245 101.952C105.695 101.403 111 96.0983 111.55 90.1271L118.598 13.4995C118.626 13.1859 118.519 12.8738 118.303 12.6446Z" fill="#3A312A"/>
<path d="M72.8044 160.969L72.9366 161.101C74.5816 162.746 76.7848 163.73 79.0907 163.885L80.0234 153.758L72.8044 160.969Z" fill="#CE4E61"/>
<path d="M173.487 69.4954C173.333 67.1894 172.342 64.9863 170.697 63.3413L124.659 17.3033C123.014 15.6583 120.811 14.6669 118.505 14.5127L117.623 24.133L156.053 62.5629C158.234 64.7439 159.277 67.6374 159.182 70.5014C159.182 70.6043 159.174 70.7071 159.167 70.8099L173.487 69.4954Z" fill="#CE4E61"/>
<path d="M158.785 73.0644C158.308 74.7681 157.39 76.3837 156.046 77.7276L93.5579 140.223L85.0098 148.764L82.4615 151.312L81.3159 163.782C83.284 163.466 85.1052 162.533 86.5446 161.094L108.201 139.445L170.689 76.9492C172.129 75.5098 173.061 73.6886 173.377 71.7205L158.785 73.0644Z" fill="#CE4E61"/>
<path d="M111.051 17.3106L110.926 17.4355L115.589 22.0987L116.279 14.6228C114.311 14.9386 112.49 15.8712 111.051 17.3106Z" fill="#CE4E61"/>
</svg>
