<svg width="27" height="25" viewBox="0 0 27 25" fill="none" xmlns="http://www.w3.org/2000/svg">
<path d="M25.92 0H1.08C0.482625 0 0 0.446875 0 1V24C0 24.5531 0.482625 25 1.08 25H25.92C26.5174 25 27 24.5531 27 24V1C27 0.446875 26.5174 0 25.92 0ZM8.00887 21.3031H4.00275V9.37187H8.00887V21.3031ZM6.0075 7.74063C5.54825 7.74063 5.09932 7.61453 4.71747 7.37828C4.33562 7.14204 4.038 6.80626 3.86225 6.41339C3.68651 6.02053 3.64052 5.58824 3.73012 5.17118C3.81971 4.75412 4.04086 4.37103 4.3656 4.07035C4.69034 3.76966 5.10408 3.56489 5.5545 3.48194C6.00492 3.39898 6.4718 3.44156 6.89609 3.60428C7.32038 3.76701 7.68303 4.04258 7.93817 4.39615C8.19332 4.74971 8.3295 5.16539 8.3295 5.59062C8.32613 6.77812 7.28663 7.74063 6.0075 7.74063ZM23.0074 21.3031H19.0046V15.5C19.0046 14.1156 18.9776 12.3375 16.9223 12.3375C14.8399 12.3375 14.5193 13.8438 14.5193 15.4V21.3031H10.5199V9.37187H14.3606V11.0031H14.4146C14.9479 10.0656 16.254 9.075 18.2048 9.075C22.2615 9.075 23.0074 11.5469 23.0074 14.7594V21.3031Z" fill="#C3C3C3"/>
</svg>
