<svg width="123" height="119" viewBox="0 0 123 119" fill="none" xmlns="http://www.w3.org/2000/svg">
<path d="M61.2478 98.4277H46.0623V113.613H61.2478V98.4277Z" fill="#2BC3D4"/>
<path d="M86.4901 23.2581H71.2971C81.7071 23.2581 90.1458 31.6854 90.1458 42.0817V100.105C90.1458 110.501 81.7071 118.929 71.2971 118.929H86.4901C96.9001 118.929 105.339 110.502 105.339 100.105V42.0817C105.339 31.6859 96.9001 23.2581 86.4901 23.2581Z" fill="#FFBD54"/>
<path d="M86.4901 23.2581H41.097C30.687 23.2581 22.2484 31.6854 22.2484 42.0817V62.9651C22.2484 63.8903 21.6056 64.6883 20.702 64.8858C16.2213 65.8646 3.43012 67.7102 1.58407 57.4102C1.48973 56.8845 0.742366 56.8693 0.628861 57.3916C-0.755799 63.7493 -1.85448 79.4911 20.4519 81.6128C21.4671 81.7096 22.2484 82.5508 22.2484 83.5704V100.105C22.2484 110.501 30.687 118.929 41.097 118.929H86.4901C96.9001 118.929 105.339 110.502 105.339 100.105V42.0817C105.339 31.6859 96.9001 23.2581 86.4901 23.2581Z" fill="#FFD659"/>
<path d="M86.0941 62.7288H40.5148C38.4796 62.7288 36.8296 64.3783 36.8296 66.414C36.8296 68.4497 38.4796 70.0992 40.5148 70.0992H86.0941C88.1294 70.0992 89.7794 68.4497 89.7794 66.414C89.7794 64.3783 88.1294 62.7288 86.0941 62.7288Z" fill="#50536E"/>
<path d="M60.2637 77.785H40.5148C38.4796 77.785 36.8296 79.4345 36.8296 81.4703C36.8296 83.506 38.4796 85.1555 40.5148 85.1555H60.2637C62.2989 85.1555 63.9489 83.506 63.9489 81.4703C63.9489 79.4345 62.2989 77.785 60.2637 77.785Z" fill="#50536E"/>
<path d="M40.5148 54.7844H86.0941C88.1294 54.7844 89.7794 53.1349 89.7794 51.0992C89.7794 49.0634 88.1294 47.4139 86.0941 47.4139H40.5148C38.4796 47.4139 36.8296 49.0634 36.8296 51.0992C36.8296 53.1349 38.4796 54.7844 40.5148 54.7844Z" fill="#50536E"/>
<path d="M122.153 25.3554C122.153 27.5346 119.873 29.3853 119.336 31.3952C118.78 33.4749 119.813 36.2148 118.76 38.0357C117.691 39.8828 114.792 40.3513 113.292 41.8502C111.794 43.3491 111.325 46.2487 109.478 47.3172C107.657 48.3705 104.917 47.3373 102.838 47.8932C100.828 48.4304 98.9771 50.7108 96.7979 50.7108C94.6187 50.7108 92.768 48.4304 90.7581 47.8932C88.6784 47.3373 85.9385 48.3705 84.1176 47.3172C82.2705 46.2484 81.802 43.3491 80.3031 41.85C78.8042 40.3511 75.9046 39.8825 74.8361 38.0355C73.7827 36.2146 74.816 33.4749 74.2601 31.3952C73.7229 29.3853 71.4425 27.5346 71.4425 25.3554C71.4425 23.1761 73.7229 21.3255 74.2601 19.3156C74.816 17.2359 73.7827 14.496 74.8361 12.6751C75.9049 10.828 78.8042 10.3595 80.3033 8.86058C81.8022 7.36169 82.2708 4.46213 84.1178 3.39362C85.9387 2.34024 88.6784 3.37352 90.7581 2.81759C92.768 2.2804 94.6187 0 96.7979 0C98.9771 0 100.828 2.2804 102.838 2.81759C104.917 3.37352 107.657 2.34024 109.478 3.39362C111.325 4.46235 111.794 7.36169 113.293 8.8608C114.792 10.3597 117.691 10.8282 118.76 12.6753C119.813 14.4962 118.78 17.2359 119.336 19.3156C119.873 21.3255 122.153 23.1759 122.153 25.3554Z" fill="#FF2C5C"/>
<path d="M89.1215 20.9356C91.177 20.9356 92.8434 19.2692 92.8434 17.2136C92.8434 15.1581 91.177 13.4917 89.1215 13.4917C87.0659 13.4917 85.3995 15.1581 85.3995 17.2136C85.3995 19.2692 87.0659 20.9356 89.1215 20.9356Z" fill="#B5FCFF"/>
<path d="M104.94 36.5211C106.995 36.5211 108.662 34.8548 108.662 32.7992C108.662 30.7436 106.995 29.0773 104.94 29.0773C102.884 29.0773 101.218 30.7436 101.218 32.7992C101.218 34.8548 102.884 36.5211 104.94 36.5211Z" fill="#B5FCFF"/>
<path d="M107.079 14.9575C106.418 14.2964 105.345 14.2964 104.684 14.9575L86.9819 32.66C86.3205 33.3216 86.3205 34.3937 86.9819 35.0551C87.3125 35.3856 87.746 35.5509 88.1793 35.5509C88.6126 35.5509 89.0462 35.3856 89.3768 35.0551L107.079 17.3526C107.741 16.6913 107.741 15.6191 107.079 14.9575Z" fill="#B5FCFF"/>
</svg>
