<svg width="29" height="25" viewBox="0 0 29 25" fill="none" xmlns="http://www.w3.org/2000/svg">
<path d="M29 2.96969C27.9335 3.45785 26.773 3.80918 25.5776 3.94602C26.8187 3.16361 27.7481 1.92753 28.1914 0.469689C27.0268 1.20486 25.751 1.72037 24.4205 1.99336C23.8644 1.36254 23.1919 0.859999 22.4448 0.517054C21.6977 0.174109 20.892 -0.00189269 20.078 1.53491e-05C16.7845 1.53491e-05 14.1358 2.83285 14.1358 6.30918C14.1358 6.79735 14.1916 7.28551 14.2822 7.75519C9.35068 7.48152 4.95241 4.98152 2.02836 1.15386C1.49557 2.11952 1.21637 3.21904 1.21981 4.33803C1.21981 6.52738 2.26884 8.45785 3.86853 9.5932C2.92581 9.55381 2.00516 9.27885 1.18147 8.79069V8.86835C1.18147 11.9342 3.22377 14.4749 5.94568 15.0592C5.43461 15.2 4.90887 15.2721 4.38084 15.2737C3.99399 15.2737 3.62805 15.233 3.25862 15.1775C4.01142 17.6775 6.20358 19.4933 8.81396 19.5525C6.77166 21.25 4.21356 22.2485 1.43589 22.2485C0.937508 22.2485 0.477467 22.23 0 22.1709C2.63478 23.9645 5.76097 25 9.12763 25C20.0571 25 26.0376 15.392 26.0376 7.05253C26.0376 6.77886 26.0376 6.50519 26.0202 6.23152C27.1773 5.33285 28.1914 4.21969 29 2.96969Z" fill="#C3C3C3"/>
</svg>
