<svg width="33" height="33" viewBox="0 0 33 33" fill="none" xmlns="http://www.w3.org/2000/svg">
<path d="M16.4956 8.0339C11.8106 8.0339 8.02963 11.815 8.02963 16.5C8.02963 21.185 11.8106 24.9661 16.4956 24.9661C21.1805 24.9661 24.9615 21.185 24.9615 16.5C24.9615 11.815 21.1805 8.0339 16.4956 8.0339ZM16.4956 22.0023C13.4658 22.0023 10.9933 19.5298 10.9933 16.5C10.9933 13.4702 13.4658 10.9977 16.4956 10.9977C19.5253 10.9977 21.9978 13.4702 21.9978 16.5C21.9978 19.5298 19.5253 22.0023 16.4956 22.0023ZM25.3082 5.71409C24.2144 5.71409 23.3311 6.59743 23.3311 7.6913C23.3311 8.78516 24.2144 9.66851 25.3082 9.66851C26.4021 9.66851 27.2854 8.78929 27.2854 7.6913C27.2857 7.43156 27.2348 7.1743 27.1356 6.93427C27.0363 6.69423 26.8907 6.47614 26.707 6.29247C26.5234 6.10881 26.3053 5.96318 26.0653 5.86393C25.8252 5.76468 25.568 5.71376 25.3082 5.71409ZM32.9982 16.5C32.9982 14.2215 33.0188 11.9636 32.8908 9.68915C32.7629 7.04736 32.1602 4.70278 30.2285 2.77097C28.2926 0.835041 25.9522 0.236512 23.3104 0.10855C21.0319 -0.0194112 18.7741 0.00122779 16.4997 0.00122779C14.2212 0.00122779 11.9633 -0.0194112 9.68897 0.10855C7.04723 0.236512 4.70269 0.839169 2.77092 2.77097C0.835026 4.70691 0.236507 7.04736 0.108548 9.68915C-0.0194109 11.9677 0.00122776 14.2256 0.00122776 16.5C0.00122776 18.7744 -0.0194109 21.0364 0.108548 23.3109C0.236507 25.9526 0.839153 28.2972 2.77092 30.229C4.70682 32.165 7.04723 32.7635 9.68897 32.8914C11.9675 33.0194 14.2253 32.9988 16.4997 32.9988C18.7782 32.9988 21.036 33.0194 23.3104 32.8914C25.9522 32.7635 28.2967 32.1608 30.2285 30.229C32.1644 28.2931 32.7629 25.9526 32.8908 23.3109C33.0229 21.0364 32.9982 18.7785 32.9982 16.5ZM29.3658 26.2333C29.0644 26.9846 28.7012 27.546 28.1192 28.1239C27.5372 28.7059 26.98 29.0691 26.2287 29.3704C24.0575 30.2332 18.902 30.0391 16.4956 30.0391C14.0891 30.0391 8.92947 30.2332 6.75829 29.3746C6.00705 29.0732 5.44568 28.71 4.8678 28.128C4.28579 27.546 3.92255 26.9887 3.62123 26.2375C2.76267 24.0621 2.95667 18.9065 2.95667 16.5C2.95667 14.0935 2.76267 8.93376 3.62123 6.76255C3.92255 6.01129 4.28579 5.44991 4.8678 4.87202C5.44981 4.29413 6.00705 3.92676 6.75829 3.62543C8.92947 2.76685 14.0891 2.96085 16.4956 2.96085C18.902 2.96085 24.0617 2.76685 26.2328 3.62543C26.9841 3.92676 27.5455 4.29 28.1233 4.87202C28.7053 5.45404 29.0686 6.01129 29.3699 6.76255C30.2285 8.93376 30.0345 14.0935 30.0345 16.5C30.0345 18.9065 30.2285 24.0621 29.3658 26.2333Z" fill="#C3C3C3"/>
</svg>
