<svg width="332" height="308" viewBox="0 0 332 308" fill="none" xmlns="http://www.w3.org/2000/svg">
<g style="mix-blend-mode:multiply">
<path fill-rule="evenodd" clip-rule="evenodd" d="M164.352 0.0521417C208.69 -1.76073 235.22 44.0825 264.041 77.7031C294.913 113.716 337.621 147.95 331.388 194.903C324.739 244.989 281.72 283.744 234.311 301.663C191.205 317.955 146.411 299.895 104.556 280.635C61.4496 260.8 7.87492 240.903 0.655235 194.143C-6.36666 148.665 44.7098 120.683 74.42 85.4561C102.45 52.2212 120.819 1.83206 164.352 0.0521417Z" fill="#2F93F0"/>
</g>
<path d="M119.316 144.27L119.281 123.06C119.281 122.85 119.176 122.71 118.966 122.71H116.586C116.411 122.71 116.271 122.85 116.271 123.06V146.685C116.271 146.86 116.411 147 116.586 147H127.751C127.961 147 128.066 146.86 128.066 146.685V144.62C128.066 144.375 127.961 144.27 127.751 144.27H119.316ZM133.219 137.935C133.639 135.31 135.634 133.56 138.539 133.56C141.444 133.56 143.404 135.31 143.824 137.935H133.219ZM133.254 140.28H146.414C146.624 140.28 146.729 140.14 146.729 139.93C146.764 134.085 143.649 130.83 138.539 130.83C133.639 130.83 130.314 134.19 130.314 139.09C130.314 144.025 133.744 147.35 138.854 147.35C141.584 147.35 143.824 146.51 145.259 144.9C145.399 144.76 145.399 144.55 145.224 144.41L143.789 143.01C143.719 142.94 143.649 142.87 143.544 142.87C143.439 142.87 143.334 142.94 143.229 143.045C142.284 144.025 140.779 144.62 138.924 144.62C135.844 144.62 133.709 142.905 133.254 140.28ZM163.111 133.84C161.886 131.95 159.856 130.83 157.196 130.83C152.436 130.865 149.216 134.19 149.216 139.09C149.216 143.99 152.436 147.35 157.196 147.35C159.856 147.35 161.886 146.23 163.111 144.34L163.531 146.685C163.601 146.86 163.741 147 163.916 147H165.561C165.806 147 165.911 146.86 165.911 146.65V131.495C165.911 131.285 165.806 131.18 165.596 131.18H163.951C163.776 131.18 163.601 131.285 163.566 131.495L163.111 133.84ZM152.016 139.09C152.016 135.835 154.186 133.63 157.441 133.63C160.696 133.63 162.936 135.835 163.006 139.09C162.936 142.38 160.696 144.55 157.441 144.55C154.221 144.55 152.016 142.345 152.016 139.09ZM179.003 134.155C179.073 134.155 179.108 134.19 179.143 134.19C179.283 134.19 179.388 134.085 179.423 133.945L180.018 131.705C180.088 131.495 179.983 131.32 179.808 131.285C179.283 131.11 178.338 130.865 177.288 130.865C175.573 130.865 174.173 131.67 173.158 132.79L172.878 131.53C172.843 131.355 172.703 131.18 172.458 131.18H170.988C170.778 131.18 170.673 131.32 170.673 131.53V146.65C170.673 146.86 170.813 147 171.023 147H173.158C173.368 147 173.508 146.86 173.508 146.65V136.15C174.173 134.68 175.328 133.7 176.763 133.7C177.673 133.7 178.548 133.98 179.003 134.155ZM182.807 146.65C182.807 146.86 182.947 147 183.157 147H185.292C185.502 147 185.642 146.86 185.642 146.65V139.335C185.782 136.08 187.742 133.63 190.437 133.63C192.747 133.63 194.392 134.855 194.392 138.11V146.65C194.392 146.86 194.532 147 194.707 147H196.877C197.087 147 197.227 146.86 197.227 146.65L197.192 137.9C197.192 133.105 194.672 130.83 190.962 130.83C188.337 130.83 186.552 132.055 185.502 133.98L185.117 131.53C185.082 131.32 184.907 131.18 184.697 131.18H183.122C182.947 131.18 182.807 131.32 182.807 131.53V146.65ZM204.785 131.53C204.785 131.32 204.68 131.18 204.47 131.18H202.3C202.125 131.18 201.985 131.32 201.985 131.53V146.65C201.985 146.86 202.125 147 202.3 147H204.47C204.68 147 204.82 146.86 204.82 146.65L204.785 131.53ZM201.355 125.335C201.355 126.56 202.195 127.4 203.42 127.4C204.61 127.4 205.415 126.56 205.415 125.335C205.415 124.11 204.61 123.34 203.42 123.34C202.195 123.34 201.355 124.11 201.355 125.335ZM209.638 146.65C209.638 146.86 209.778 147 209.988 147H212.123C212.333 147 212.473 146.86 212.473 146.65V139.335C212.613 136.08 214.573 133.63 217.268 133.63C219.578 133.63 221.223 134.855 221.223 138.11V146.65C221.223 146.86 221.363 147 221.538 147H223.708C223.918 147 224.058 146.86 224.058 146.65L224.023 137.9C224.023 133.105 221.503 130.83 217.793 130.83C215.168 130.83 213.383 132.055 212.333 133.98L211.948 131.53C211.913 131.32 211.738 131.18 211.528 131.18H209.953C209.778 131.18 209.638 131.32 209.638 131.53V146.65ZM235.536 130.83C230.776 130.83 227.556 134.19 227.556 139.125C227.556 144.025 230.776 147.35 235.536 147.385C238.196 147.385 240.191 146.265 241.416 144.445V147.07C241.381 150.465 239.316 152.495 235.746 152.495C233.681 152.425 232.106 151.935 230.846 151.13C230.811 151.095 230.741 151.06 230.671 151.06C230.566 151.06 230.461 151.13 230.426 151.235L229.411 153.125C229.306 153.335 229.376 153.545 229.551 153.65C231.196 154.595 233.366 155.295 235.816 155.295C240.786 155.295 244.286 152.04 244.251 147L244.216 131.53C244.216 131.32 244.076 131.18 243.901 131.18H242.431C242.221 131.18 242.081 131.285 242.046 131.53L241.521 133.91C240.296 131.985 238.231 130.83 235.536 130.83ZM230.356 139.09C230.356 135.835 232.561 133.63 235.781 133.63C239.071 133.63 241.381 135.835 241.381 139.09C241.381 142.345 239.071 144.55 235.781 144.55C232.561 144.55 230.356 142.345 230.356 139.09ZM126.018 186.41C126.753 187.145 129.518 189.315 134.348 189.35C139.913 189.385 142.818 186.445 142.678 182.14C142.573 178.605 140.228 176.785 134.978 175.455C130.288 174.265 129.133 173.215 129.133 171.15C129.133 169.015 131.303 167.405 134.243 167.405C137.323 167.405 139.318 168.84 140.123 169.47C140.228 169.54 140.298 169.575 140.368 169.575C140.473 169.575 140.543 169.505 140.613 169.4L141.593 167.265C141.698 167.055 141.663 166.845 141.523 166.74C140.858 166.11 138.513 164.43 134.418 164.395C129.448 164.36 125.983 167.335 126.088 171.29C126.193 175 128.433 177.345 133.858 178.57C138.023 179.515 139.633 180.565 139.668 182.49C139.668 184.8 137.708 186.34 134.593 186.34C131.023 186.34 128.503 184.555 127.663 183.82C127.558 183.75 127.488 183.715 127.383 183.715C127.278 183.715 127.208 183.785 127.138 183.89L125.948 185.92C125.843 186.095 125.878 186.305 126.018 186.41ZM148.327 179.935C148.747 177.31 150.742 175.56 153.647 175.56C156.552 175.56 158.512 177.31 158.932 179.935H148.327ZM148.362 182.28H161.522C161.732 182.28 161.837 182.14 161.837 181.93C161.872 176.085 158.757 172.83 153.647 172.83C148.747 172.83 145.422 176.19 145.422 181.09C145.422 186.025 148.852 189.35 153.962 189.35C156.692 189.35 158.932 188.51 160.367 186.9C160.507 186.76 160.507 186.55 160.332 186.41L158.897 185.01C158.827 184.94 158.757 184.87 158.652 184.87C158.547 184.87 158.442 184.94 158.337 185.045C157.392 186.025 155.887 186.62 154.032 186.62C150.952 186.62 148.817 184.905 148.362 182.28ZM173.808 176.155C173.878 176.155 173.913 176.19 173.948 176.19C174.088 176.19 174.193 176.085 174.228 175.945L174.823 173.705C174.893 173.495 174.788 173.32 174.613 173.285C174.088 173.11 173.143 172.865 172.093 172.865C170.378 172.865 168.978 173.67 167.963 174.79L167.683 173.53C167.648 173.355 167.508 173.18 167.263 173.18H165.793C165.583 173.18 165.478 173.32 165.478 173.53V188.65C165.478 188.86 165.618 189 165.828 189H167.963C168.173 189 168.313 188.86 168.313 188.65V178.15C168.978 176.68 170.133 175.7 171.568 175.7C172.478 175.7 173.353 175.98 173.808 176.155ZM191.227 173.635C191.332 173.39 191.227 173.215 190.912 173.215L188.497 173.18C188.287 173.215 188.147 173.32 188.077 173.495L183.352 185.71L178.592 173.46C178.522 173.285 178.382 173.18 178.207 173.18H175.757C175.477 173.18 175.372 173.39 175.477 173.635L181.672 188.685C181.777 188.895 181.952 189 182.162 189H184.507C184.717 189 184.927 188.895 184.997 188.685L191.227 173.635ZM196.718 173.53C196.718 173.32 196.613 173.18 196.403 173.18H194.233C194.058 173.18 193.918 173.32 193.918 173.53V188.65C193.918 188.86 194.058 189 194.233 189H196.403C196.613 189 196.753 188.86 196.753 188.65L196.718 173.53ZM193.288 167.335C193.288 168.56 194.128 169.4 195.353 169.4C196.543 169.4 197.348 168.56 197.348 167.335C197.348 166.11 196.543 165.34 195.353 165.34C194.128 165.34 193.288 166.11 193.288 167.335ZM215.467 185.99C215.572 185.815 215.537 185.605 215.397 185.5L213.857 184.135C213.787 184.065 213.682 184.03 213.612 184.03C213.472 184.03 213.367 184.1 213.297 184.24C212.387 185.57 210.812 186.55 208.642 186.55C205.387 186.55 203.217 184.345 203.217 181.09C203.217 177.835 205.387 175.665 208.642 175.665C210.707 175.665 212.317 176.54 213.297 178.045C213.367 178.185 213.507 178.22 213.612 178.22C213.717 178.22 213.787 178.22 213.857 178.15L215.467 176.785C215.607 176.68 215.642 176.47 215.537 176.295C213.997 173.985 211.442 172.795 208.677 172.795C204.547 172.795 200.417 175.56 200.417 181.09C200.417 185.99 203.742 189.35 208.642 189.35C211.652 189.35 214.032 188.125 215.467 185.99ZM220.856 179.935C221.276 177.31 223.271 175.56 226.176 175.56C229.081 175.56 231.041 177.31 231.461 179.935H220.856ZM220.891 182.28H234.051C234.261 182.28 234.366 182.14 234.366 181.93C234.401 176.085 231.286 172.83 226.176 172.83C221.276 172.83 217.951 176.19 217.951 181.09C217.951 186.025 221.381 189.35 226.491 189.35C229.221 189.35 231.461 188.51 232.896 186.9C233.036 186.76 233.036 186.55 232.861 186.41L231.426 185.01C231.356 184.94 231.286 184.87 231.181 184.87C231.076 184.87 230.971 184.94 230.866 185.045C229.921 186.025 228.416 186.62 226.561 186.62C223.481 186.62 221.346 184.905 220.891 182.28ZM126.75 220.885C127.695 220.885 129.375 220.885 131.965 220.885C136.83 220.885 139.735 218.19 139.77 213.78C139.735 209.405 136.83 206.71 131.965 206.71C130.215 206.71 128.465 206.71 126.68 206.71C125.805 206.71 124.93 206.71 124.055 206.71C123.845 206.71 123.705 206.85 123.705 207.095V230.65C123.705 230.86 123.845 231 124.055 231H126.4C126.61 231 126.75 230.86 126.75 230.65V220.885ZM126.75 218.05V209.51H131.895C134.975 209.51 136.725 211.085 136.725 213.815C136.725 216.825 134.695 218.05 131.895 218.05H126.75ZM150.754 218.155C150.824 218.155 150.859 218.19 150.894 218.19C151.034 218.19 151.139 218.085 151.174 217.945L151.769 215.705C151.839 215.495 151.734 215.32 151.559 215.285C151.034 215.11 150.089 214.865 149.039 214.865C147.324 214.865 145.924 215.67 144.909 216.79L144.629 215.53C144.594 215.355 144.454 215.18 144.209 215.18H142.739C142.529 215.18 142.424 215.32 142.424 215.53V230.65C142.424 230.86 142.564 231 142.774 231H144.909C145.119 231 145.259 230.86 145.259 230.65V220.15C145.924 218.68 147.079 217.7 148.514 217.7C149.424 217.7 150.299 217.98 150.754 218.155ZM153.403 223.055C153.403 227.99 156.728 231.35 161.628 231.35C166.563 231.35 169.853 227.99 169.853 223.055C169.853 218.155 166.563 214.83 161.628 214.83C156.728 214.83 153.403 218.155 153.403 223.055ZM156.203 223.09C156.203 219.835 158.408 217.63 161.628 217.63C164.883 217.63 167.053 219.835 167.053 223.09C167.053 226.31 164.883 228.55 161.628 228.55C158.408 228.55 156.203 226.31 156.203 223.09ZM180.318 231.35C183.013 231.35 185.043 230.23 186.268 228.305L186.758 230.685C186.793 230.86 186.933 231 187.143 231H188.648C188.823 231 188.963 230.86 188.963 230.65V206.045C188.963 205.87 188.823 205.73 188.648 205.73H186.478C186.268 205.73 186.128 205.87 186.128 206.045V217.735C184.938 215.915 182.943 214.83 180.318 214.83C175.558 214.83 172.373 218.19 172.373 223.09C172.373 227.99 175.558 231.35 180.318 231.35ZM186.128 223.09C186.128 226.345 183.818 228.55 180.563 228.55C177.343 228.55 175.138 226.345 175.138 223.09C175.138 219.835 177.343 217.63 180.563 217.63C183.818 217.63 186.128 219.835 186.128 223.09ZM205.803 230.685C205.838 230.86 206.013 231 206.223 231H207.798C207.973 231 208.113 230.86 208.113 230.685V215.53C208.113 215.32 207.973 215.18 207.763 215.18H205.628C205.418 215.18 205.278 215.32 205.278 215.53V222.845C205.138 226.205 203.143 228.62 200.448 228.62C198.033 228.62 196.458 227.395 196.458 224.07V215.53C196.458 215.32 196.318 215.18 196.143 215.18H193.973C193.763 215.18 193.623 215.32 193.623 215.53L193.658 224.315C193.658 229.075 196.143 231.385 199.853 231.385C202.478 231.385 204.333 230.125 205.418 228.2L205.803 230.685ZM226.763 227.99C226.868 227.815 226.833 227.605 226.693 227.5L225.153 226.135C225.083 226.065 224.978 226.03 224.908 226.03C224.768 226.03 224.663 226.1 224.593 226.24C223.683 227.57 222.108 228.55 219.938 228.55C216.683 228.55 214.513 226.345 214.513 223.09C214.513 219.835 216.683 217.665 219.938 217.665C222.003 217.665 223.613 218.54 224.593 220.045C224.663 220.185 224.803 220.22 224.908 220.22C225.013 220.22 225.083 220.22 225.153 220.15L226.763 218.785C226.903 218.68 226.938 218.47 226.833 218.295C225.293 215.985 222.738 214.795 219.973 214.795C215.843 214.795 211.713 217.56 211.713 223.09C211.713 227.99 215.038 231.35 219.938 231.35C222.948 231.35 225.328 230.125 226.763 227.99ZM234.112 224.84V217.77H237.892C238.102 217.77 238.242 217.63 238.242 217.42V215.53C238.242 215.32 238.102 215.215 237.892 215.215H234.112V209.895C234.112 209.685 233.972 209.545 233.797 209.545H231.627C231.452 209.545 231.312 209.685 231.312 209.895L231.277 215.18H228.792C228.582 215.18 228.442 215.32 228.442 215.53V217.42C228.442 217.63 228.582 217.735 228.792 217.735H231.277V225.645C231.242 229.32 232.747 231.315 235.477 231.315C236.667 231.315 237.822 230.895 238.767 230.16C238.942 230.055 238.942 229.845 238.837 229.635L237.857 227.85C237.787 227.745 237.717 227.71 237.612 227.71C237.542 227.71 237.472 227.745 237.367 227.78C237.052 228.06 236.422 228.515 235.792 228.515C234.637 228.48 234.112 227.675 234.112 224.84Z" fill="white"/>
</svg>
