<svg width="208" height="118" viewBox="0 0 208 118" fill="none" xmlns="http://www.w3.org/2000/svg">
<path d="M84.722 84.2134V9.13171H207.829V84.2134H84.722Z" fill="white"/>
<path d="M194.789 94.6976H97.4236C84.3838 94.6976 84.3838 94.6976 84.3838 90.7995V83.875H207.829V87.6394C207.829 94.6976 207.829 94.6976 194.789 94.6976Z" fill="black"/>
<path d="M97.4238 0H194.789C207.829 0 207.829 0 207.829 7.05815V10.8226H84.3837V7.05815C84.3837 0 84.3837 0 97.4238 0Z" fill="black"/>
<path d="M198.176 90.0119H194.325C193.938 90.0119 193.624 89.6981 193.624 89.3109C193.624 88.9238 193.938 88.61 194.325 88.61H198.176C198.563 88.61 198.877 88.9238 198.877 89.3109C198.877 89.6981 198.563 90.0119 198.176 90.0119Z" fill="#B5FCFF"/>
<path d="M191.412 90.0119H187.561C187.174 90.0119 186.86 89.6981 186.86 89.3109C186.86 88.9238 187.174 88.61 187.561 88.61H191.412C191.799 88.61 192.113 88.9238 192.113 89.3109C192.113 89.6981 191.799 90.0119 191.412 90.0119Z" fill="#B5FCFF"/>
<path d="M151.664 93.3447H146.613C145.866 93.3447 145.261 93.9504 145.261 94.6975V114.313C145.261 115.061 145.866 115.666 146.613 115.666H159.243C160.448 115.666 161.067 114.185 160.277 113.275C153.672 105.658 152.65 99.0429 153.192 95.3205C153.332 94.3594 152.635 93.3447 151.664 93.3447Z" fill="black"/>
<path d="M140.548 93.3447H145.599C146.346 93.3447 146.952 93.9504 146.952 94.6975V114.313C146.952 115.061 146.346 115.666 145.599 115.666H132.969C131.764 115.666 131.145 114.185 131.935 113.275C138.54 105.658 139.562 99.0429 139.02 95.3205C138.881 94.3594 139.577 93.3447 140.548 93.3447Z" fill="black"/>
<g style="mix-blend-mode:multiply">
<path d="M154.392 82.8605L129.703 10.4845H84.3837V82.8605H154.392Z" fill="#F6F6F6"/>
</g>
<path d="M18.0953 108.564V34.8355C18.0953 34.4619 18.3982 34.1591 18.7717 34.1591H140.526C140.899 34.1591 141.202 34.4619 141.202 34.8355V108.564C141.202 108.938 140.899 109.241 140.526 109.241H18.7717C18.3982 109.241 18.0953 108.938 18.0953 108.564Z" fill="white"/>
<path fill-rule="evenodd" clip-rule="evenodd" d="M19.2794 35.3427V108.057H140.019V35.3427H19.2794ZM16.912 34.8354C16.912 33.808 17.7448 32.9752 18.7721 32.9752H140.526C141.553 32.9752 142.386 33.808 142.386 34.8354V108.564C142.386 109.591 141.553 110.424 140.526 110.424H18.7721C17.7448 110.424 16.912 109.591 16.912 108.564V34.8354Z" fill="black"/>
<path d="M128.962 115.666H29.9967C16.7426 115.666 16.7426 115.666 16.7426 112.987V108.226H142.217V110.814C142.217 115.666 142.217 115.666 128.962 115.666Z" fill="black"/>
<path d="M88.7185 113.299H70.5792C69.2375 113.299 68.1499 111.818 68.1499 109.991V108.226H91.1479V109.991C91.1479 111.818 90.0602 113.299 88.7185 113.299Z" fill="#E5E5E5"/>
<g style="mix-blend-mode:multiply">
<path d="M69.8409 107.888L94.5299 35.5118H139.849V107.888H69.8409Z" fill="#F6F6F6"/>
</g>
<path d="M0.170532 56.3297C0.170532 53.5279 2.44183 51.2566 5.24362 51.2566H28.2599C31.0616 51.2566 33.3329 53.5279 33.3329 56.3297V111.946C33.3329 114.748 31.0616 117.019 28.2599 117.019H5.24362C2.44183 117.019 0.170532 114.748 0.170532 111.946V56.3297Z" fill="white"/>
<path fill-rule="evenodd" clip-rule="evenodd" d="M28.2599 53.624H5.24362C3.74933 53.624 2.53797 54.8354 2.53797 56.3297V111.946C2.53797 113.441 3.74933 114.652 5.24362 114.652H28.2599C29.7541 114.652 30.9655 113.441 30.9655 111.946V56.3297C30.9655 54.8354 29.7541 53.624 28.2599 53.624ZM5.24362 51.2566C2.44183 51.2566 0.170532 53.5279 0.170532 56.3297V111.946C0.170532 114.748 2.44183 117.019 5.24362 117.019H28.2599C31.0616 117.019 33.3329 114.748 33.3329 111.946V56.3297C33.3329 53.5279 31.0616 51.2566 28.2599 51.2566H5.24362Z" fill="black"/>
<g style="mix-blend-mode:multiply">
<path d="M28.0725 51.069H20.7008C18.4222 51.069 16.4232 52.5881 15.813 54.7835L0.730589 109.045C0.607624 109.488 0.545288 109.945 0.545288 110.404V111.759C0.545288 114.56 2.81658 116.832 5.61837 116.832H28.0725C30.8743 116.832 33.1456 114.56 33.1456 111.759V56.1421C33.1456 53.3403 30.8743 51.069 28.0725 51.069Z" fill="#F7F7F7"/>
</g>
<path d="M29.3985 55.9402C29.3985 56.6645 28.8113 57.2517 28.087 57.2517C27.3627 57.2517 26.7755 56.6645 26.7755 55.9402C26.7755 55.2158 27.3627 54.6287 28.087 54.6287C28.8113 54.6287 29.3985 55.2158 29.3985 55.9402Z" fill="black"/>
</svg>
