<svg width="339" height="339" viewBox="0 0 339 339" fill="none" xmlns="http://www.w3.org/2000/svg">
<path d="M3.87674 108.705L29.9861 82.5955C38.3065 74.2777 52.5935 80.1798 52.5935 91.9607V107.789C86.5396 115.572 114.925 138.094 130.629 168.235C134.25 161.296 138.544 154.765 143.422 148.724V53.248H130.554C118.789 53.248 112.861 38.9738 121.192 30.6432C128.128 23.7039 145.801 6.02871 147.335 4.50275C152.518 -0.646706 160.895 -0.600151 166.026 4.5312L192.138 30.6432C200.454 38.9609 194.554 53.248 182.773 53.248H169.906V124.57C188.404 112.256 210.569 105.043 234.387 104.962V65.9833C234.387 54.2256 248.656 48.2848 256.991 56.618L335.12 134.75C340.293 139.92 340.293 148.305 335.12 153.477L256.991 231.606C248.674 239.924 234.387 234.022 234.387 222.241V183.399C213.155 183.619 195.951 200.961 195.951 222.241V326.415C195.951 333.729 190.02 339.657 182.708 339.657H130.622C123.307 339.657 117.379 333.729 117.379 326.415V222.376C117.379 181.294 90.0338 146.487 52.5935 135.182V144.179C52.5935 156.046 38.2547 161.813 29.9861 153.542L3.88193 127.438C-1.32962 122.232 -1.25461 113.852 3.87674 108.705ZM143.864 313.173H169.466V222.241C169.466 186.221 198.772 156.912 234.793 156.912H247.629C254.943 156.912 260.871 162.843 260.871 170.154V190.274L307.03 144.112L260.871 97.9533V118.202C260.871 125.516 254.943 131.444 247.629 131.444H234.793C184.653 131.444 143.864 172.236 143.864 222.376V313.173Z" fill="black"/>
</svg>
