<svg width="158" height="158" viewBox="0 0 158 158" fill="none" xmlns="http://www.w3.org/2000/svg">
<g clip-path="url(#clip0)">
<path d="M77.9467 50.2308C74.5233 51.9425 70.31 51.9425 66.8867 50.2308L0 17.1166V79C0 87.1501 6.66892 93.8125 14.8125 93.8125H64.2731H126.729C134.004 93.8125 139.896 87.9204 139.896 80.6458V17.1166L77.9467 50.2308Z" fill="#ECEFF1"/>
<path d="M139.896 23.0416V26.9916L77.9467 60.1058C74.5233 61.8175 70.31 61.8175 66.8867 60.1058L0 26.9916V23.0416C0 14.8783 6.64917 8.22913 14.8125 8.22913H125.083C133.247 8.22913 139.896 14.8783 139.896 23.0416V23.0416Z" fill="#B0BEC5"/>
<path d="M156.644 118.395L127.019 87.1238C125.63 85.6558 123.49 85.1883 121.608 85.9323C119.731 86.6828 118.5 88.4998 118.5 90.5208V105.333H70.771C68.0455 105.333 65.8335 107.545 65.8335 110.271V133.313C65.8335 136.038 68.0455 138.25 70.771 138.25H118.5V153.063C118.5 155.084 119.731 156.901 121.608 157.651C122.2 157.882 122.825 158 123.438 158C124.768 158 126.071 157.46 127.019 156.46L156.644 125.189C158.448 123.286 158.448 120.297 156.644 118.395V118.395Z" fill="#4CAF50"/>
<path d="M123.438 158C122.825 158 122.2 157.882 121.608 157.645C119.731 156.901 118.5 155.084 118.5 153.063V138.25H70.771C68.0455 138.25 65.8335 136.038 65.8335 133.313V110.271C65.8335 107.545 68.0455 105.333 70.771 105.333H118.5V90.5208C118.5 88.4998 119.731 86.6828 121.608 85.9388C123.49 85.1883 125.63 85.6623 127.019 87.1304L156.644 118.401C158.448 120.304 158.448 123.286 156.644 125.189L127.019 156.46C126.071 157.46 124.768 158 123.438 158ZM75.7085 128.375H123.438C126.163 128.375 128.375 130.587 128.375 133.313V140.673L146.262 121.792L128.375 102.911V110.271C128.375 112.996 126.163 115.208 123.438 115.208H75.7085V128.375Z" fill="black"/>
<path d="M100.396 98.75H14.8125C6.64258 98.75 0 92.1008 0 83.9375V21.3958C0 13.2259 6.64258 6.58331 14.8125 6.58331H130.021C138.191 6.58331 144.833 13.2259 144.833 21.3958V74.0625C144.833 76.788 142.621 79 139.896 79C137.17 79 134.958 76.788 134.958 74.0625V21.3958C134.958 18.6703 132.746 16.4583 130.021 16.4583H14.8125C12.087 16.4583 9.875 18.6703 9.875 21.3958V83.9375C9.875 86.6564 12.087 88.875 14.8125 88.875H100.396C103.121 88.875 105.333 91.087 105.333 93.8125C105.333 96.538 103.121 98.75 100.396 98.75Z" fill="black"/>
<path d="M72.4231 64.6944C69.7634 64.6944 67.1038 64.0887 64.6811 62.8774L2.7451 32.2057C0.302688 30.9943 -0.697978 28.0384 0.513355 25.5894C1.72469 23.147 4.68719 22.1463 7.1296 23.3577L69.0788 54.036C71.1393 55.0696 73.6871 55.0696 75.7345 54.0426L137.703 23.3577C140.146 22.1398 143.108 23.147 144.32 25.5894C145.531 28.0384 144.53 30.9943 142.088 32.2057L80.1388 62.884C77.7293 64.0887 75.0762 64.6944 72.4231 64.6944V64.6944Z" fill="black"/>
</g>
<defs>
<clipPath id="clip0">
<rect width="158" height="158" fill="white"/>
</clipPath>
</defs>
</svg>
