<svg width="28" height="29" viewBox="0 0 28 29" fill="none" xmlns="http://www.w3.org/2000/svg">
<path d="M4.04733 29.0001H13.0594V19.0423H9.82153V15.7596H13.0594V11.6561C13.0594 9.39341 14.875 7.55261 17.1067 7.55261H21.1541V10.8354H17.9162C17.0235 10.8354 16.2973 11.5717 16.2973 12.4768V15.7596H21.008L20.4683 19.0423H16.2973V29.0001H23.5825C25.8142 29.0001 27.6298 27.1593 27.6298 24.8966V5.09053C27.6298 2.82785 25.8142 0.987061 23.5825 0.987061H4.04733C1.81561 0.987061 0 2.82785 0 5.09053V24.8966C0 27.1593 1.81561 29.0001 4.04733 29.0001ZM1.61893 5.09053C1.61893 3.73297 2.70834 2.62845 4.04733 2.62845H23.5825C24.9215 2.62845 26.0109 3.73297 26.0109 5.09053V24.8966C26.0109 26.2542 24.9215 27.3587 23.5825 27.3587H17.9162V20.6837H21.8398L22.9191 14.1182H17.9162V12.4768H22.773V5.91123H17.1067C13.9823 5.91123 11.4405 8.48829 11.4405 11.6561V14.1182H8.2026V20.6837H11.4405V27.3587H4.04733C2.70834 27.3587 1.61893 26.2542 1.61893 24.8966V5.09053Z" fill="#F2F2F2"/>
</svg>
