<svg width="31" height="17" viewBox="0 0 31 17" fill="none" xmlns="http://www.w3.org/2000/svg">
<g clip-path="url(#clip0)">
<path d="M18.9129 10.6003C22.7379 9.06802 25.8513 9.64313 27.4186 10.6003C29.8844 12.1066 31 16.7811 31 16.7811H28.8033C28.1898 16.7808 27.5882 16.6083 27.064 16.2822C26.5399 15.9562 26.1134 15.4892 25.831 14.9323C25.6855 14.6447 25.4654 14.4035 25.1949 14.2352C24.9243 14.067 24.6138 13.9781 24.2971 13.9783H20.0681C19.1473 13.9781 18.2448 14.2403 17.4616 14.7354C16.6784 15.2304 16.0455 15.9388 15.634 16.7811H12.7236C12.5845 16.7797 12.4481 16.7417 12.3275 16.6709C12.2069 16.6 12.1061 16.4987 12.0348 16.3765C11.9634 16.2544 11.924 16.1156 11.9202 15.9734C11.9164 15.8312 11.9483 15.6904 12.013 15.5645L15.8035 8.27699L18.2165 3.63354C18.8232 4.81724 19.7509 5.7969 20.8883 6.45511L19.1108 10.1923L18.9129 10.6075" fill="white"/>
<path d="M27.4227 4.84385H27.2826C26.2889 4.82417 25.3118 4.58028 24.421 4.12963C22.9037 3.36075 21.7215 2.04074 21.1055 0.42775C21.0606 0.308235 20.983 0.204455 20.882 0.128787C20.781 0.0531188 20.6609 0.00875496 20.5359 0.00098596C20.4109 -0.00678304 20.2864 0.0223706 20.1772 0.0849705C20.0679 0.14757 19.9786 0.240975 19.9199 0.354045L18.2165 3.63342C18.8232 4.81711 19.7509 5.79677 20.8883 6.45499C21.1433 6.6038 21.4079 6.7349 21.6801 6.84739C23.0449 7.40978 24.5511 7.50485 25.9731 7.11833L26.4806 6.95639C27.7989 6.47741 28.9407 5.59435 29.7504 4.42757C29.0043 4.70464 28.2164 4.84554 27.4227 4.84385Z" fill="white"/>
<path d="M6.69986 16.7976C6.52387 16.6962 6.36914 16.5603 6.2445 16.3977C6.11987 16.2352 6.02777 16.0491 5.97347 15.8501C5.91917 15.6511 5.90374 15.4432 5.92805 15.2381C5.95236 15.033 6.01593 14.8349 6.11514 14.6549L13.7479 0.801417C14.1651 0.0446385 14.6077 0 15.899 0H17.7587L8.79914 16.1944C8.70032 16.3753 8.56754 16.5344 8.40843 16.6627C8.24933 16.7909 8.06703 16.8858 7.87198 16.9418C7.67694 16.9979 7.473 17.014 7.27186 16.9892C7.07071 16.9645 6.87633 16.8993 6.69986 16.7976Z" fill="white"/>
<path d="M0.784414 16.7978C0.429881 16.5921 0.169628 16.251 0.0607678 15.8493C-0.0480924 15.4476 0.00333368 15.0181 0.20376 14.6552L7.82941 0.801661C8.24662 0.0448826 8.68922 0.000244141 9.97945 0.000244141H11.8402L2.87964 16.1947C2.78091 16.3751 2.64836 16.5338 2.48958 16.6618C2.33081 16.7898 2.14891 16.8845 1.95431 16.9405C1.75971 16.9965 1.55622 17.0127 1.35547 16.9883C1.15473 16.9638 0.960676 16.8991 0.784414 16.7978Z" fill="white"/>
</g>
<defs>
<clipPath id="clip0">
<rect width="31" height="17" fill="white"/>
</clipPath>
</defs>
</svg>
