<svg width="303" height="303" viewBox="0 0 303 303" fill="none" xmlns="http://www.w3.org/2000/svg">
<rect x="8" y="41" width="107" height="101" rx="10" fill="#126EF6"/>
<rect x="209.379" y="17.9609" width="107" height="101" rx="10" transform="rotate(45 209.379 17.9609)" fill="#585858"/>
<rect x="8" y="187" width="112" height="103" rx="10" fill="#F7DF1E"/>
<rect x="156" y="187" width="112" height="103" rx="10" fill="#3D4159"/>
<path d="M64.1627 59H36L41.399 114.884L64.1627 121L86.601 114.884L92 59H64.1627ZM80.8 78.299H56.9067L57.3087 82.6489H80.6851L78.7706 106.887L64.1627 111.104L48.4062 106.222V96.3824H58.1703V99.3076L64.1436 101.207L69.7915 99.3076L70.1935 92.0515H48.5593L46.1087 68.9344H80.8V78.299Z" fill="#FA502E"/>
<path d="M36 264.27L42.9857 260.11C44.3111 262.475 45.5536 264.461 48.5081 264.461C51.4625 264.461 53.0916 263.373 53.0916 259.158V230.495H61.6512V259.267C61.6512 267.996 56.4326 271.966 48.867 271.966C46.188 272.111 43.5275 271.453 41.2356 270.079C38.9437 268.705 37.128 266.68 36.0276 264.27H36ZM66.4004 263.373L73.3585 259.403C74.1243 260.926 75.3039 262.21 76.7662 263.112C78.2285 264.015 79.9163 264.5 81.642 264.515C85.2039 264.515 87.468 262.775 87.468 260.354C87.468 257.472 85.1486 256.438 81.2278 254.752L79.1017 253.855C72.9167 251.272 68.8302 248.008 68.8302 241.155C68.8302 234.846 73.7174 230.033 81.3382 230.033C83.8161 229.855 86.2924 230.399 88.458 231.599C90.6235 232.798 92.3824 234.599 93.515 236.777L86.8606 240.992C86.4227 239.908 85.6596 238.981 84.6729 238.335C83.6862 237.688 82.523 237.354 81.3382 237.375C80.824 237.326 80.3051 237.383 79.8144 237.542C79.3236 237.701 78.8718 237.959 78.4876 238.299C78.1033 238.639 77.795 239.054 77.5823 239.518C77.3695 239.981 77.257 240.483 77.2517 240.992C77.2517 243.494 78.8532 244.527 82.4979 246.105L84.6516 247.002C91.9135 250.075 96 253.202 96 260.246C96 267.833 89.953 271.966 81.8352 271.966C78.6741 272.168 75.5213 271.464 72.7578 269.939C69.9942 268.414 67.7382 266.133 66.2623 263.373" fill="black"/>
<path d="M214.628 49.6286L176.989 94.6624L188.993 115.993L210.238 128.052L255.301 90.4421L214.628 49.6286ZM233.936 95.9282L228.276 100.642L211.298 114.754L197.91 107.019L190.189 93.6446L197.598 84.7736L202.771 89.947L198.904 94.5593L203.11 101.818L210.369 106.024L218.209 99.7318L200.152 81.6749L204.455 76.3399L223.684 95.1451L229.215 90.3595L209.309 70.4538L213.77 65.3334L239.566 91.1291L233.936 95.9282Z" fill="#2196F3"/>
<path d="M236.067 227.739C234.998 227.313 233.853 226.906 232.67 226.538C231.487 226.169 230.552 225.917 229.427 225.646C226.335 224.913 223.199 224.388 220.039 224.076C218.589 223.94 217.1 223.824 215.612 223.746C214.124 223.669 212.96 223.746 211.605 223.746C210.25 223.746 208.934 223.746 207.598 223.746C206.263 223.746 204.641 223.94 203.191 224.076C200.024 224.388 196.882 224.913 193.784 225.646C192.677 225.917 191.59 226.227 190.559 226.538C189.529 226.848 188.231 227.313 187.144 227.739C180.103 230.569 176.21 234.524 176.21 238.885C176.21 243.247 180.027 247.22 187.144 250.05C188.231 250.477 189.357 250.884 190.559 251.252C191.761 251.621 192.677 251.873 193.784 252.125C196.881 252.865 200.024 253.396 203.191 253.714C204.641 253.85 206.11 253.966 207.598 254.024C209.087 254.082 210.27 254.024 211.605 254.024C212.941 254.024 214.296 254.024 215.612 254.024C216.929 254.024 218.589 253.85 220.039 253.714C223.199 253.396 226.335 252.865 229.427 252.125C230.552 251.853 231.621 251.562 232.67 251.233C233.72 250.903 234.998 250.477 236.067 250.05C243.127 247.22 247 243.247 247 238.885C247 234.524 243.127 230.569 236.067 227.739ZM241.543 242.917C239.556 244.605 237.288 245.917 234.846 246.794C233.872 247.182 232.937 247.55 231.812 247.879C230.686 248.209 229.694 248.5 228.568 248.771C226.66 249.236 224.618 249.605 222.519 249.895C221.107 250.109 219.657 250.264 218.188 250.38C216.051 250.555 213.838 250.632 211.605 250.632C209.373 250.632 207.178 250.632 205.041 250.38C203.553 250.264 202.122 250.109 200.71 249.895C198.592 249.605 196.57 249.236 194.642 248.771C193.536 248.5 192.448 248.19 191.418 247.879C190.387 247.569 189.338 247.182 188.384 246.794C185.942 245.917 183.674 244.605 181.687 242.917C181.033 242.477 180.497 241.879 180.127 241.177C179.756 240.476 179.562 239.691 179.562 238.895C179.562 238.098 179.756 237.314 180.127 236.613C180.497 235.911 181.033 235.313 181.687 234.873C183.669 233.179 185.939 231.865 188.384 230.996C189.338 230.608 190.292 230.24 191.418 229.91C192.544 229.581 193.536 229.29 194.642 229.019C196.551 228.554 198.592 228.166 200.71 227.875C202.122 227.681 203.553 227.526 205.041 227.41C207.178 227.235 209.373 227.138 211.605 227.138C213.838 227.138 216.051 227.235 218.188 227.41C219.657 227.526 221.107 227.681 222.519 227.875C224.618 228.166 226.66 228.554 228.568 229.019C229.694 229.29 230.762 229.581 231.812 229.91C232.861 230.24 233.872 230.608 234.846 230.996C237.291 231.865 239.56 233.179 241.543 234.873C242.196 235.313 242.732 235.911 243.103 236.613C243.474 237.314 243.668 238.098 243.668 238.895C243.668 239.691 243.474 240.476 243.103 241.177C242.732 241.879 242.196 242.477 241.543 242.917Z" fill="#5ADAFD"/>
<path d="M214.079 211.955C213.168 212.686 212.275 213.476 211.383 214.342C210.491 215.209 209.807 215.902 209.029 216.749C206.878 219.1 204.886 221.596 203.067 224.219C202.231 225.432 201.415 226.664 200.636 227.935C199.858 229.206 199.25 230.226 198.586 231.42C197.921 232.614 197.295 233.788 196.687 234.963C196.079 236.137 195.377 237.658 194.788 239.006C193.494 241.931 192.396 244.941 191.504 248.017C191.2 249.134 190.915 250.231 190.668 251.309C190.421 252.387 190.194 253.716 190.023 254.871C188.978 262.457 190.44 267.81 194.162 269.947C197.883 272.084 203.143 270.621 209.029 265.807C209.921 265.076 210.813 264.267 211.725 263.42C212.636 262.573 213.282 261.86 214.06 261.013C216.255 258.663 218.286 256.161 220.136 253.523C220.971 252.33 221.788 251.097 222.585 249.807C223.383 248.517 223.971 247.516 224.636 246.342C225.3 245.167 225.927 243.974 226.534 242.78C227.142 241.586 227.845 240.084 228.433 238.756C229.714 235.821 230.805 232.804 231.699 229.726C232.022 228.628 232.306 227.531 232.534 226.453C232.762 225.375 233.028 224.027 233.18 222.872C234.243 215.305 232.762 209.952 229.06 207.815C225.357 205.678 219.946 207.141 214.079 211.955ZM229.686 214.592C230.151 217.177 230.151 219.825 229.686 222.409C229.553 223.43 229.364 224.508 229.117 225.586C228.87 226.665 228.604 227.762 228.281 228.859C227.716 230.856 227.051 232.823 226.288 234.751C225.756 236.08 225.186 237.427 224.56 238.775C223.648 240.7 222.661 242.722 221.56 244.667C220.459 246.611 219.3 248.517 218.104 250.308C217.288 251.559 216.433 252.734 215.579 253.889C214.288 255.583 212.959 257.182 211.63 258.645C210.851 259.492 210.073 260.301 209.275 261.052C208.478 261.802 207.68 262.515 206.864 263.169C204.893 264.855 202.634 266.16 200.2 267.02C199.511 267.372 198.748 267.547 197.977 267.532C197.206 267.516 196.451 267.309 195.777 266.929C195.103 266.55 194.531 266.008 194.11 265.353C193.69 264.698 193.434 263.948 193.364 263.169C192.867 260.591 192.835 257.942 193.269 255.352C193.421 254.313 193.611 253.254 193.839 252.156C194.067 251.059 194.352 250 194.674 248.883C195.225 246.958 195.89 245.032 196.687 243.011C197.2 241.682 197.788 240.335 198.396 238.968C199.307 237.042 200.295 235.117 201.415 233.076C202.535 231.035 203.655 229.225 204.851 227.435C205.687 226.202 206.522 225.009 207.396 223.873C208.629 222.218 209.947 220.631 211.345 219.117C212.123 218.27 212.902 217.461 213.68 216.71C214.459 215.96 215.294 215.228 216.092 214.573C218.064 212.89 220.322 211.585 222.756 210.723C223.453 210.37 224.225 210.196 225.003 210.217C225.782 210.238 226.543 210.453 227.221 210.843C227.898 211.233 228.47 211.786 228.887 212.454C229.304 213.121 229.552 213.882 229.61 214.67L229.686 214.592Z" fill="#5ADAFD"/>
<path d="M189.058 223.19C189.254 224.357 189.51 225.563 189.805 226.788C190.1 228.014 190.395 228.967 190.749 230.076C191.741 233.161 192.943 236.177 194.348 239.101C194.977 240.443 195.665 241.805 196.314 243.147C196.963 244.489 197.632 245.52 198.281 246.687C198.929 247.855 199.716 249.022 200.463 250.15C201.211 251.278 202.194 252.659 203.079 253.846C205.028 256.452 207.15 258.928 209.431 261.257C210.256 262.093 211.082 262.891 211.908 263.63C212.734 264.369 213.875 265.283 214.76 266.003C220.954 270.71 226.46 272.072 230.256 269.894C234.051 267.715 235.447 262.113 234.189 254.585C234.012 253.418 233.756 252.212 233.441 250.986C233.127 249.761 232.871 248.808 232.517 247.699C231.517 244.61 230.315 241.589 228.919 238.654C228.263 237.357 227.575 236.015 226.854 234.627C226.224 233.441 225.536 232.254 224.887 231.068C224.238 229.881 223.432 228.733 222.685 227.625C221.937 226.516 220.954 225.115 220.069 223.929C218.131 221.313 216.016 218.83 213.737 216.498C212.911 215.662 212.085 214.864 211.24 214.125C210.394 213.386 209.273 212.491 208.408 211.771C202.214 207.044 196.707 205.683 192.912 207.881C189.117 210.079 187.74 215.564 189.058 223.19ZM199.382 210.585C201.925 211.459 204.289 212.776 206.363 214.475C207.202 215.124 208.047 215.824 208.9 216.576C209.745 217.315 210.571 218.113 211.397 218.949C212.813 220.388 214.209 221.964 215.586 223.656C216.51 224.804 217.415 225.971 218.299 227.216C219.578 228.986 220.817 230.873 221.996 232.818C223.176 234.763 224.258 236.709 225.241 238.654C225.91 240.015 226.539 241.358 227.109 242.7C227.948 244.607 228.689 246.555 229.331 248.535C229.685 249.664 230 250.753 230.256 251.823C230.511 252.893 230.747 254.001 230.924 255.032C231.437 257.637 231.47 260.313 231.023 262.93C230.985 263.728 230.748 264.504 230.333 265.189C229.918 265.875 229.339 266.448 228.646 266.858C227.953 267.269 227.168 267.503 226.361 267.54C225.554 267.578 224.751 267.417 224.022 267.073C221.47 266.206 219.098 264.888 217.021 263.183C216.176 262.541 215.33 261.821 214.484 261.082C213.639 260.343 212.833 259.545 212.007 258.709C210.52 257.208 209.115 255.63 207.798 253.982C206.894 252.854 205.989 251.667 205.104 250.442C203.826 248.652 202.587 246.785 201.407 244.82C200.227 242.855 199.126 240.93 198.143 238.984C197.474 237.642 196.845 236.3 196.176 234.958C195.345 233.05 194.61 231.102 193.974 229.122C193.62 228.014 193.305 226.924 193.03 225.835C192.755 224.746 192.538 223.676 192.361 222.625C191.88 220.014 191.88 217.339 192.361 214.728C192.404 213.932 192.644 213.159 193.06 212.476C193.476 211.793 194.055 211.222 194.747 210.813C195.438 210.403 196.221 210.169 197.026 210.129C197.83 210.089 198.633 210.246 199.362 210.585H199.382Z" fill="#5ADAFD"/>
<path d="M211.605 245.061C215.018 245.061 217.785 242.043 217.785 238.319C217.785 234.596 215.018 231.577 211.605 231.577C208.192 231.577 205.425 234.596 205.425 238.319C205.425 242.043 208.192 245.061 211.605 245.061Z" fill="#5ADAFD"/>
<path d="M95.3019 26.3479H31.9168C14.318 26.3479 0 40.6659 0 58.2647V121.65C0 139.249 14.318 153.567 31.9168 153.567H95.3019C112.901 153.567 127.219 139.249 127.219 121.65V58.2647C127.219 40.6659 112.901 26.3479 95.3019 26.3479ZM105.656 121.65C105.656 127.359 101.011 132.004 95.3019 132.004H31.9168C26.2076 132.004 21.5625 127.359 21.5625 121.65V58.2647C21.5625 52.5555 26.2076 47.9104 31.9168 47.9104H95.3019C101.011 47.9104 105.656 52.5555 105.656 58.2647V121.65Z" fill="#463B68"/>
<path d="M189.52 22.8705L145.304 67.0868C132.693 79.6975 132.693 100.217 145.304 112.828L189.52 157.044C202.131 169.655 222.65 169.655 235.261 157.044L279.477 112.828C292.088 100.217 292.088 79.6975 279.477 67.0868L235.261 22.8705C222.65 10.2597 202.131 10.2597 189.52 22.8705ZM264.23 82.3337C268.434 86.5373 268.434 93.3771 264.23 97.5807L220.014 141.797C215.81 146.001 208.971 146.001 204.767 141.797L160.551 97.5807C156.347 93.3771 156.347 86.5373 160.551 82.3337L204.767 38.1175C208.971 33.9139 215.81 33.9139 220.014 38.1175L264.23 82.3337Z" fill="#463B68"/>
<path d="M95.3019 175.129H31.9168C14.318 175.129 0 189.447 0 207.046V270.431C0 288.03 14.318 302.348 31.9168 302.348H95.3019C112.901 302.348 127.219 288.03 127.219 270.431V207.046C127.219 189.447 112.901 175.129 95.3019 175.129ZM105.656 270.431C105.656 276.14 101.011 280.785 95.3019 280.785H31.9168C26.2076 280.785 21.5625 276.14 21.5625 270.431V207.046C21.5625 201.337 26.2076 196.692 31.9168 196.692H95.3019C101.011 196.692 105.656 201.337 105.656 207.046V270.431Z" fill="#463B68"/>
<path d="M243.656 175.129H181.125C163.291 175.129 148.781 189.639 148.781 207.473V270.004C148.781 287.838 163.291 302.348 181.125 302.348H243.656C261.491 302.348 276 287.838 276 270.004V207.473C276 189.639 261.491 175.129 243.656 175.129ZM254.438 270.004C254.438 275.949 249.601 280.785 243.656 280.785H181.125C175.18 280.785 170.344 275.949 170.344 270.004V207.473C170.344 201.528 175.18 196.692 181.125 196.692H243.656C249.601 196.692 254.438 201.528 254.438 207.473V270.004Z" fill="#463B68"/>
</svg>
