<svg width="234" height="234" viewBox="0 0 234 234" fill="none" xmlns="http://www.w3.org/2000/svg">
<path d="M52.2534 64.5045C40.3176 64.5045 30.6425 54.8281 30.6425 42.8937C30.6425 30.9579 40.3176 21.2843 52.2534 21.2843C64.1877 21.2843 73.8628 30.9579 73.8628 42.8937C73.8515 54.8225 64.1821 64.4919 52.2534 64.5045ZM52.2534 28.4874C44.2957 28.4874 37.8457 34.936 37.8457 42.8937C37.8457 50.85 44.2957 57.3014 52.2534 57.3014C60.2096 57.3014 66.6596 50.85 66.6596 42.8937C66.6596 34.936 60.2096 28.4874 52.2534 28.4874Z" fill="white"/>
<path d="M138.694 165.353V186.964H99.0759V137.544L77.4651 130.339V93.3185H109.88C119.821 93.3058 127.877 85.2496 127.89 75.3099V68.1068H27.0402C17.0991 68.1166 9.04435 76.1729 9.03168 86.1154V125.733C9.03168 131.701 13.8699 136.539 19.8371 136.539H27.0402V201.37H9.03168V226.583H16.2362V208.573H66.6596V226.583H73.8628V194.167H138.694V226.583H145.898V172.556H217.933V226.583H225.136V165.353H138.694ZM27.0402 89.7162V129.336H19.8371C17.848 129.336 16.2362 127.722 16.2362 125.733V86.1154C16.2362 80.1454 21.073 75.3099 27.0402 75.3099H120.685C120.685 81.2771 115.847 86.1154 109.88 86.1154H70.2619V135.534L91.8714 142.737V186.964H81.0673V148.449L45.0488 134.942V201.37H34.2448V89.7162H27.0402ZM66.6596 186.964V201.37H52.2534V145.338L73.8628 153.441V186.964H66.6596Z" fill="white"/>
<path d="M167.508 154.547H196.322V64.5046H217.177L181.916 7.20738L146.654 64.5046H167.508V154.547ZM159.549 57.3014L181.916 20.9507L204.282 57.3014H189.119V147.344H174.712V57.3014H159.549Z" fill="white"/>
</svg>
