<svg width="240" height="398" viewBox="0 0 240 398" fill="none" xmlns="http://www.w3.org/2000/svg">
<path d="M88.3209 105.889L229.936 7.02547C233.194 4.7513 234.823 3.61421 236.178 3.67473C237.359 3.72743 238.456 4.29933 239.174 5.23704C240 6.31388 240 8.30032 240 12.2732V215.345C240 219.424 240 221.464 239.156 222.548C238.422 223.491 237.304 224.056 236.109 224.089C234.736 224.126 233.093 222.917 229.807 220.499L229.807 220.499L88.1913 116.292C85.765 114.506 84.5518 113.614 84.1318 112.521C83.7641 111.565 83.7773 110.504 84.1687 109.557C84.6159 108.476 85.8509 107.614 88.3209 105.889Z" fill="#3AA4FD"/>
<path d="M18.2425 194.023L38.826 179.618C46.9734 173.916 51.0471 171.065 54.4379 171.214C57.3907 171.343 60.1349 172.772 61.934 175.117C64 177.81 64 182.782 64 192.726V222.315C64 232.527 64 237.633 61.8882 240.343C60.0502 242.702 57.2529 244.115 54.2634 244.194C50.8287 244.284 46.7198 241.253 38.502 235.191L38.502 235.191L17.9184 220.007C11.871 215.546 8.84734 213.316 7.79983 210.588C6.88293 208.2 6.91596 205.551 7.89214 203.187C9.00735 200.486 12.0857 198.331 18.2425 194.023L18.2425 194.023Z" fill="#E5E5E5"/>
<path d="M75.2005 311.346L131.815 271.656L131.815 271.656C139.965 265.942 144.04 263.086 147.432 263.232C150.386 263.36 153.132 264.789 154.932 267.134C157 269.828 157 274.804 157 284.757V366.282C157 376.503 157 381.614 154.887 384.325C153.047 386.684 150.248 388.096 147.258 388.173C143.821 388.262 139.711 385.225 131.491 379.15L74.8764 337.315C68.8419 332.856 65.8246 330.626 64.779 327.9C63.8637 325.514 63.8968 322.868 64.8713 320.506C65.9846 317.807 69.0566 315.653 75.2004 311.346L75.2005 311.346Z" fill="#E5E5E5"/>
</svg>
