<svg width="426" height="393" viewBox="0 0 426 393" fill="none" xmlns="http://www.w3.org/2000/svg">
<path d="M239.039 41.7849C310.409 34.8457 338.608 73.9705 342.482 78.8343C397.721 159.788 368.999 242.063 245.337 325.27C121.676 408.477 8.31563 268.004 82.7641 196.038C129.511 150.851 167.67 48.7241 239.039 41.7849Z" fill="#0F79D1"/>
<path d="M292.469 251.573L189.98 201.8C187.079 200.39 182.002 200.58 178.674 202.19L108.885 236.076C105.542 237.73 105.172 240.17 108.073 241.567L143.311 258.651C140.634 258.81 138.028 259.448 135.668 260.524C130.301 263.135 130.301 267.363 135.668 269.968C141.034 272.573 149.737 272.573 155.104 269.968C157.279 268.919 158.534 267.613 158.962 266.252L167.288 270.297C165.621 270.602 164.017 271.115 162.53 271.817C157.047 274.477 157.047 278.79 162.53 281.451C168.013 284.111 176.882 284.111 182.358 281.451C183.592 280.887 184.661 280.097 185.483 279.138L210.562 291.34C213.463 292.75 218.539 292.561 221.875 290.95L291.656 257.064C295.007 255.423 295.37 252.983 292.469 251.573Z" fill="#B2D3EA"/>
<path d="M320.248 149.187L213.516 97.3453C212.981 97.063 212.379 96.8836 211.753 96.8192C211.126 96.7549 210.49 96.8075 209.89 96.9731L209.694 97.0343H209.651L205.793 98.2544L209.252 99.6822C209.252 99.7369 209.216 99.7856 209.201 99.8407L191.825 166.441C190.955 169.772 192.695 173.665 195.719 175.129L299.883 225.726L299.514 229.442L303.727 228.069C305.177 227.507 306.28 226.239 306.751 224.451L324.157 157.875C325.013 154.544 323.272 150.657 320.248 149.187Z" fill="#173D7A"/>
<path d="M320.256 149.187L213.524 97.3453C212.989 97.063 212.387 96.8836 211.761 96.8192C211.134 96.7549 210.498 96.8075 209.898 96.9731L209.702 97.0343H209.659L205.801 98.2544L209.26 99.6822C209.26 99.7369 209.224 99.7856 209.209 99.8407L197.765 143.769L249.981 177.996L323.628 152.768C323.014 151.29 321.826 150.028 320.256 149.187Z" fill="#396CAA"/>
<path d="M295.823 229.089L189.084 177.229C186.067 175.759 184.327 171.872 185.197 168.541L202.602 101.965C203.436 98.622 206.605 97.1391 209.622 98.622L316.354 150.482C319.378 151.952 321.118 155.839 320.248 159.17L302.843 225.746C301.994 229.046 298.84 230.553 295.823 229.089Z" fill="#D4ECFF"/>
<path d="M293.513 224.133L193.128 175.403C190.365 174.061 188.777 170.522 189.567 167.471L205.478 106.551C206.276 103.5 209.155 102.122 211.918 103.464L312.304 152.169C315.067 153.512 316.656 157.05 315.865 160.101L299.954 221.027C299.17 224.096 296.269 225.475 293.513 224.133Z" fill="white"/>
<path d="M293.513 224.133L193.128 175.403C190.365 174.061 188.777 170.522 189.567 167.471L205.478 106.551C206.276 103.5 209.155 102.122 211.918 103.464L312.304 152.169C315.067 153.512 316.656 157.05 315.865 160.101L299.954 221.027C299.17 224.096 296.269 225.475 293.513 224.133Z" fill="white"/>
<path d="M297.299 231.347L282.707 229.724L188.529 183.966C185.505 182.495 180.233 182.678 176.744 184.375L110.023 216.778L101.183 215.814V220.036C101.125 221.006 101.785 221.945 103.206 222.635L209.945 274.495C212.962 275.965 218.235 275.782 221.723 274.086L294.405 238.797C296.363 237.845 297.342 236.619 297.306 235.465L297.299 231.347Z" fill="#173D7A"/>
<path d="M226.531 202.441L219.844 199.195H146.277L110.016 216.797L101.183 215.814V220.036C101.125 221.006 101.785 221.946 103.206 222.636L209.945 274.496C211.821 275.296 213.93 275.628 216.022 275.453L226.531 202.441Z" fill="#396CAA"/>
<path d="M211.021 274.886C214.316 275.786 217.894 275.599 221.03 274.362V264.972H211.021V274.886Z" fill="#274F89"/>
<path d="M209.96 270.262L103.221 218.402C100.197 216.98 100.574 214.387 104.077 212.709L176.752 177.42C180.24 175.724 185.513 175.541 188.536 177.005L295.268 228.865C298.292 230.329 297.908 232.892 294.427 234.588L221.73 269.852C218.242 271.542 212.969 271.726 209.96 270.262Z" fill="#D4ECFF"/>
<path d="M148.606 201.552L143.776 199.203C143.385 199.014 143.435 198.684 143.885 198.471L149.585 195.701C149.814 195.592 150.07 195.53 150.332 195.521C150.594 195.511 150.855 195.554 151.094 195.646L155.924 197.995C156.316 198.184 156.265 198.507 155.815 198.727L150.115 201.497C149.886 201.604 149.63 201.665 149.368 201.675C149.107 201.684 148.846 201.642 148.606 201.552Z" fill="#173D7A"/>
<path d="M156.072 205.167L151.22 202.824C150.836 202.635 150.879 202.305 151.329 202.086L157.022 199.322C157.251 199.213 157.508 199.151 157.772 199.142C158.035 199.132 158.297 199.175 158.537 199.267L163.367 201.61C163.752 201.799 163.701 202.128 163.259 202.348L157.558 205.118C157.331 205.221 157.079 205.278 156.822 205.287C156.564 205.295 156.308 205.254 156.072 205.167Z" fill="#173D7A"/>
<path d="M163.547 208.795L158.724 206.452C158.333 206.263 158.384 205.934 158.826 205.714L164.526 202.944C164.757 202.838 165.014 202.778 165.277 202.769C165.54 202.761 165.802 202.804 166.042 202.895L170.872 205.238C171.256 205.427 171.213 205.757 170.763 205.977L165.041 208.734C164.815 208.841 164.562 208.902 164.303 208.913C164.043 208.923 163.785 208.883 163.547 208.795Z" fill="#173D7A"/>
<path d="M173.864 205.511L169.034 203.163C168.643 202.973 168.693 202.644 169.143 202.431L173.93 200.106C174.158 199.997 174.414 199.936 174.676 199.926C174.938 199.916 175.199 199.959 175.438 200.051L180.246 202.4C180.638 202.589 180.587 202.913 180.137 203.132L175.351 205.457C175.125 205.563 174.873 205.622 174.615 205.632C174.357 205.642 174.1 205.6 173.864 205.511Z" fill="#173D7A"/>
<path d="M181.308 209.134L176.478 206.791C176.093 206.602 176.137 206.272 176.586 206.058L181.373 203.734C181.603 203.625 181.86 203.563 182.123 203.554C182.387 203.544 182.649 203.587 182.889 203.679L187.712 206.022C188.103 206.211 188.052 206.54 187.603 206.76L182.823 209.085C182.593 209.191 182.335 209.251 182.072 209.259C181.809 209.268 181.548 209.225 181.308 209.134Z" fill="#173D7A"/>
<path d="M188.75 212.755L183.927 210.412C183.535 210.223 183.586 209.893 184.036 209.674L188.815 207.349C189.046 207.243 189.303 207.183 189.566 207.174C189.829 207.166 190.091 207.209 190.331 207.3L195.161 209.661C195.545 209.85 195.502 210.18 195.052 210.4L190.265 212.724C190.033 212.828 189.775 212.884 189.512 212.89C189.249 212.895 188.988 212.849 188.75 212.755Z" fill="#173D7A"/>
<path d="M196.231 216.372L191.401 214.023C191.01 213.84 191.06 213.511 191.51 213.291L196.296 210.967C196.525 210.859 196.781 210.798 197.043 210.789C197.305 210.779 197.566 210.821 197.805 210.912L202.635 213.261C203.026 213.45 202.976 213.779 202.526 213.993L197.74 216.317C197.511 216.426 197.255 216.488 196.993 216.498C196.731 216.507 196.47 216.464 196.231 216.372Z" fill="#173D7A"/>
<path d="M203.672 220.036L198.842 217.687C198.458 217.498 198.508 217.169 198.951 216.955L203.737 214.63C203.967 214.522 204.224 214.46 204.487 214.451C204.751 214.441 205.013 214.484 205.253 214.576L210.083 216.925C210.467 217.108 210.417 217.437 209.974 217.657L205.188 219.981C204.958 220.09 204.701 220.152 204.438 220.161C204.174 220.171 203.912 220.128 203.672 220.036Z" fill="#173D7A"/>
<path d="M211.149 223.621L206.348 221.254C205.957 221.064 206.008 220.735 206.457 220.515L211.237 218.197C211.466 218.088 211.723 218.026 211.987 218.017C212.25 218.007 212.512 218.05 212.752 218.142L217.582 220.485C217.967 220.674 217.923 221.004 217.474 221.223L212.687 223.548C212.456 223.662 212.196 223.728 211.929 223.741C211.661 223.754 211.394 223.713 211.149 223.621Z" fill="#173D7A"/>
<path d="M218.595 227.248L213.765 224.918C213.38 224.729 213.424 224.399 213.873 224.18L218.667 221.867C218.897 221.761 219.153 221.701 219.415 221.692C219.676 221.684 219.937 221.727 220.176 221.818L225.006 224.161C225.397 224.35 225.347 224.68 224.897 224.899L220.118 227.218C219.885 227.324 219.625 227.382 219.36 227.387C219.096 227.393 218.833 227.345 218.595 227.248Z" fill="#173D7A"/>
<path d="M226.066 230.872L221.236 228.523C220.852 228.334 220.902 228.011 221.345 227.791L226.131 225.466C226.361 225.358 226.618 225.296 226.881 225.286C227.145 225.277 227.407 225.32 227.647 225.411L232.477 227.76C232.862 227.949 232.811 228.279 232.368 228.492L227.582 230.817C227.352 230.926 227.095 230.988 226.832 230.997C226.568 231.007 226.306 230.964 226.066 230.872Z" fill="#173D7A"/>
<path d="M233.518 234.493L228.688 232.144C228.296 231.955 228.347 231.625 228.797 231.411L233.583 229.087C233.812 228.978 234.067 228.917 234.329 228.907C234.592 228.898 234.853 228.941 235.092 229.032L239.922 231.381C240.313 231.564 240.262 231.894 239.813 232.113L235.026 234.438C234.797 234.545 234.542 234.606 234.28 234.616C234.018 234.625 233.757 234.583 233.518 234.493Z" fill="#173D7A"/>
<path d="M240.961 238.108L236.131 235.765C235.747 235.576 235.79 235.247 236.24 235.027L241.027 232.703C241.258 232.596 241.515 232.536 241.778 232.528C242.041 232.519 242.302 232.562 242.542 232.654L247.365 234.997C247.757 235.186 247.706 235.515 247.256 235.735L242.477 238.059C242.246 238.166 241.989 238.226 241.726 238.234C241.463 238.243 241.201 238.2 240.961 238.108Z" fill="#173D7A"/>
<path d="M184.827 203.8L179.996 201.451C179.612 201.262 179.656 200.933 180.105 200.719L184.892 198.395C185.12 198.286 185.376 198.224 185.638 198.214C185.9 198.205 186.162 198.248 186.4 198.339L191.23 200.688C191.622 200.871 191.571 201.201 191.122 201.421L186.342 203.745C186.112 203.853 185.855 203.914 185.592 203.923C185.329 203.933 185.067 203.89 184.827 203.8Z" fill="#396CAA"/>
<path d="M177.268 200.119L172.438 197.776C172.054 197.587 172.105 197.258 172.547 197.038L177.334 194.714C177.565 194.607 177.822 194.547 178.085 194.539C178.348 194.53 178.61 194.573 178.85 194.665L183.679 197.007C184.064 197.196 184.013 197.526 183.571 197.74L178.784 200.064C178.555 200.173 178.298 200.235 178.034 200.244C177.771 200.254 177.509 200.211 177.268 200.119Z" fill="#396CAA"/>
<path d="M169.696 196.434L159.297 191.358C158.905 191.175 158.956 190.845 159.405 190.625L164.184 188.307C164.415 188.199 164.672 188.139 164.935 188.129C165.198 188.119 165.46 188.162 165.7 188.252L176.1 193.304C176.492 193.493 176.441 193.822 175.991 194.042L171.205 196.367C170.977 196.476 170.722 196.539 170.46 196.551C170.198 196.562 169.937 196.522 169.696 196.434Z" fill="#173D7A"/>
<path d="M174.994 191.965L166.552 187.865C166.16 187.682 166.211 187.353 166.661 187.133L171.44 184.809C171.67 184.701 171.927 184.64 172.19 184.631C172.453 184.621 172.716 184.663 172.956 184.754L181.398 188.854C181.782 189.043 181.738 189.372 181.289 189.592L176.502 191.917C176.273 192.023 176.017 192.083 175.755 192.091C175.493 192.1 175.232 192.057 174.994 191.965Z" fill="#173D7A"/>
<path d="M192.303 207.415L187.495 205.072C187.111 204.883 187.162 204.553 187.604 204.334L192.39 202.015C192.62 201.906 192.877 201.845 193.141 201.835C193.404 201.826 193.666 201.869 193.906 201.96L198.736 204.303C199.121 204.492 199.07 204.822 198.627 205.042L193.841 207.366C193.607 207.476 193.346 207.537 193.079 207.546C192.812 207.554 192.546 207.509 192.303 207.415Z" fill="#396CAA"/>
<path d="M199.75 211.043L194.919 208.7C194.528 208.511 194.579 208.182 195.028 207.962L199.815 205.638C200.044 205.531 200.3 205.471 200.562 205.463C200.824 205.454 201.085 205.498 201.323 205.589L206.153 207.932C206.545 208.121 206.494 208.45 206.045 208.664L201.258 210.988C201.03 211.097 200.774 211.159 200.512 211.168C200.249 211.178 199.988 211.135 199.75 211.043Z" fill="#173D7A"/>
<path d="M207.221 214.663L202.39 212.314C202.006 212.125 202.049 211.801 202.499 211.582L207.286 209.257C207.516 209.148 207.772 209.086 208.036 209.077C208.299 209.068 208.562 209.11 208.801 209.202L213.603 211.551C213.994 211.74 213.943 212.07 213.494 212.284L208.714 214.608C208.487 214.714 208.234 214.774 207.975 214.783C207.716 214.793 207.458 214.752 207.221 214.663Z" fill="#173D7A"/>
<path d="M214.663 218.291L209.841 215.942C209.449 215.753 209.5 215.423 209.942 215.21L214.728 212.885C214.958 212.776 215.215 212.715 215.478 212.705C215.742 212.695 216.004 212.738 216.244 212.83L221.074 215.179C221.459 215.362 221.415 215.692 220.965 215.911L216.179 218.236C215.949 218.343 215.692 218.404 215.429 218.414C215.166 218.423 214.904 218.381 214.663 218.291Z" fill="#173D7A"/>
<path d="M222.116 221.906L217.286 219.563C216.895 219.374 216.945 219.044 217.395 218.825L222.181 216.5C222.411 216.394 222.667 216.334 222.929 216.326C223.191 216.317 223.451 216.36 223.69 216.451L228.52 218.813C228.912 219.002 228.861 219.331 228.411 219.551L223.625 221.875C223.393 221.979 223.137 222.036 222.875 222.041C222.613 222.046 222.353 222 222.116 221.906Z" fill="#173D7A"/>
<path d="M229.587 225.527L224.757 223.184C224.373 222.995 224.416 222.666 224.866 222.446L229.652 220.121C229.883 220.015 230.14 219.955 230.403 219.947C230.666 219.938 230.928 219.981 231.168 220.072L235.998 222.415C236.383 222.604 236.332 222.934 235.889 223.148L231.103 225.472C230.873 225.581 230.616 225.643 230.353 225.652C230.089 225.661 229.827 225.619 229.587 225.527Z" fill="#173D7A"/>
<path d="M237.037 229.188L232.206 226.839C231.815 226.65 231.865 226.32 232.315 226.106L237.094 223.782C237.324 223.673 237.581 223.611 237.844 223.602C238.108 223.593 238.37 223.635 238.61 223.727L243.44 226.076C243.824 226.265 243.781 226.588 243.331 226.808L238.545 229.133C238.316 229.242 238.061 229.303 237.799 229.313C237.536 229.322 237.275 229.279 237.037 229.188Z" fill="#173D7A"/>
<path d="M244.506 232.772L239.705 230.405C239.32 230.216 239.364 229.886 239.813 229.673L244.6 227.348C244.828 227.239 245.084 227.178 245.346 227.168C245.609 227.159 245.869 227.201 246.108 227.293L250.938 229.636C251.33 229.825 251.279 230.155 250.829 230.374L246.043 232.699C245.812 232.813 245.552 232.879 245.285 232.892C245.018 232.905 244.75 232.864 244.506 232.772Z" fill="#173D7A"/>
<path d="M251.951 236.4L247.121 234.069C246.737 233.88 246.788 233.55 247.23 233.331L252.024 231.018C252.255 230.912 252.512 230.852 252.775 230.844C253.038 230.835 253.3 230.878 253.539 230.969L258.37 233.312C258.754 233.501 258.703 233.831 258.261 234.051L253.474 236.375C253.24 236.479 252.981 236.535 252.716 236.539C252.452 236.543 252.19 236.495 251.951 236.4Z" fill="#173D7A"/>
<path d="M265.213 242.842L254.683 237.729C254.291 237.54 254.342 237.211 254.784 236.991L259.571 234.667C259.802 234.56 260.059 234.5 260.322 234.492C260.585 234.483 260.847 234.526 261.087 234.618L271.61 239.73C271.994 239.92 271.951 240.243 271.501 240.463L266.714 242.787C266.487 242.894 266.232 242.955 265.972 242.964C265.711 242.974 265.451 242.932 265.213 242.842Z" fill="#173D7A"/>
<path d="M279.753 235.789L270.854 231.469C270.47 231.28 270.513 230.951 270.963 230.731L275.749 228.407C275.98 228.3 276.237 228.24 276.5 228.232C276.763 228.223 277.025 228.266 277.265 228.358L286.128 232.677C286.512 232.867 286.468 233.196 286.019 233.41L281.232 235.734C281.007 235.839 280.757 235.898 280.5 235.908C280.243 235.917 279.988 235.877 279.753 235.789Z" fill="#173D7A"/>
<path d="M205.349 206.706L200.533 204.363C200.149 204.174 200.2 203.845 200.642 203.625L205.429 201.301C205.659 201.194 205.916 201.134 206.18 201.126C206.443 201.117 206.704 201.161 206.944 201.252L211.774 203.595C212.159 203.784 212.108 204.113 211.665 204.333L206.879 206.658C206.646 206.766 206.387 206.827 206.121 206.835C205.855 206.844 205.59 206.8 205.349 206.706Z" fill="#173D7A"/>
<path d="M197.698 203.002L192.868 200.653C192.484 200.464 192.535 200.134 192.977 199.921L197.764 197.596C197.993 197.488 198.25 197.426 198.514 197.417C198.777 197.407 199.039 197.45 199.279 197.542L204.109 199.891C204.494 200.08 204.443 200.403 204 200.622L199.214 202.947C198.984 203.056 198.727 203.118 198.464 203.127C198.201 203.137 197.938 203.094 197.698 203.002Z" fill="#173D7A"/>
<path d="M190.061 199.287L185.231 196.945C184.847 196.755 184.897 196.426 185.34 196.206L190.126 193.881C190.357 193.775 190.614 193.715 190.877 193.707C191.14 193.698 191.402 193.741 191.642 193.833L196.472 196.176C196.856 196.365 196.806 196.694 196.363 196.914L191.577 199.238C191.346 199.345 191.089 199.405 190.826 199.413C190.563 199.422 190.301 199.378 190.061 199.287Z" fill="#396CAA"/>
<path d="M182.396 195.576L177.567 193.227C177.182 193.038 177.233 192.709 177.675 192.495L182.462 190.17C182.691 190.062 182.948 190 183.212 189.991C183.475 189.981 183.737 190.024 183.977 190.116L188.808 192.465C189.192 192.654 189.148 192.977 188.699 193.197L183.912 195.521C183.683 195.63 183.426 195.692 183.162 195.701C182.899 195.711 182.636 195.668 182.396 195.576Z" fill="#173D7A"/>
<path d="M212.815 210.33L207.985 207.982C207.593 207.799 207.644 207.469 208.094 207.25L212.873 204.925C213.103 204.817 213.36 204.757 213.623 204.747C213.886 204.737 214.148 204.78 214.389 204.87L219.219 207.219C219.603 207.408 219.56 207.738 219.11 207.951L214.316 210.27C214.089 210.378 213.835 210.441 213.574 210.451C213.314 210.462 213.053 210.42 212.815 210.33Z" fill="#173D7A"/>
<path d="M220.286 213.933L215.456 211.584C215.071 211.395 215.115 211.065 215.565 210.852L220.351 208.527C220.579 208.419 220.835 208.357 221.098 208.348C221.36 208.338 221.621 208.381 221.86 208.473L226.689 210.822C227.081 211.005 227.03 211.334 226.581 211.554L221.802 213.933C221.567 214.033 221.307 214.086 221.044 214.086C220.78 214.086 220.521 214.033 220.286 213.933Z" fill="#173D7A"/>
<path d="M227.73 217.596L222.9 215.253C222.515 215.064 222.566 214.734 223.009 214.515L227.795 212.196C228.025 212.088 228.282 212.026 228.545 212.016C228.809 212.007 229.071 212.05 229.311 212.142L234.141 214.484C234.525 214.673 234.474 215.003 234.032 215.222L229.246 217.547C229.015 217.654 228.758 217.713 228.495 217.722C228.231 217.73 227.97 217.687 227.73 217.596Z" fill="#173D7A"/>
<path d="M235.182 221.202L230.352 218.859C229.96 218.67 230.011 218.34 230.46 218.12L235.247 215.796C235.483 215.688 235.746 215.628 236.015 215.623C236.284 215.618 236.55 215.666 236.792 215.765L241.622 218.108C242.013 218.297 241.963 218.627 241.513 218.847L236.727 221.165C236.492 221.276 236.229 221.337 235.96 221.344C235.69 221.35 235.423 221.301 235.182 221.202Z" fill="#173D7A"/>
<path d="M242.652 224.823L237.822 222.475C237.438 222.285 237.482 221.962 237.931 221.742L242.718 219.418C242.947 219.309 243.204 219.247 243.468 219.238C243.731 219.228 243.993 219.271 244.233 219.363L249.056 221.712C249.448 221.901 249.397 222.23 248.947 222.444L244.168 224.768C243.938 224.877 243.681 224.939 243.418 224.949C243.155 224.958 242.892 224.915 242.652 224.823Z" fill="#173D7A"/>
<path d="M250.095 228.444L245.273 226.095C244.881 225.906 244.932 225.577 245.374 225.363L250.16 223.039C250.39 222.93 250.647 222.868 250.911 222.859C251.174 222.849 251.436 222.892 251.676 222.984L256.506 225.333C256.891 225.516 256.847 225.845 256.397 226.065L251.611 228.389C251.381 228.497 251.124 228.558 250.861 228.567C250.598 228.577 250.336 228.535 250.095 228.444Z" fill="#173D7A"/>
<path d="M257.554 232.066L252.746 229.724C252.354 229.534 252.405 229.205 252.854 228.985L257.641 226.661C257.87 226.554 258.126 226.494 258.388 226.486C258.65 226.478 258.911 226.521 259.149 226.612L263.98 228.955C264.371 229.144 264.32 229.473 263.871 229.693L259.084 232.018C258.852 232.127 258.592 232.189 258.326 232.197C258.06 232.205 257.795 232.16 257.554 232.066Z" fill="#173D7A"/>
<path d="M265.019 235.688L260.189 233.345C259.805 233.156 259.848 232.826 260.298 232.606L265.084 230.282C265.315 230.175 265.572 230.116 265.835 230.107C266.098 230.099 266.36 230.142 266.6 230.233L271.43 232.576C271.814 232.765 271.764 233.094 271.321 233.308L266.535 235.632C266.305 235.741 266.048 235.803 265.785 235.813C265.521 235.822 265.259 235.779 265.019 235.688Z" fill="#173D7A"/>
<path d="M272.468 239.314L267.639 236.965C267.247 236.776 267.298 236.446 267.747 236.233L272.526 233.908C272.756 233.799 273.013 233.738 273.277 233.728C273.54 233.719 273.802 233.761 274.042 233.853L278.85 236.202C279.235 236.391 279.191 236.721 278.742 236.935L273.955 239.259C273.729 239.365 273.478 239.425 273.219 239.434C272.961 239.444 272.704 239.403 272.468 239.314Z" fill="#173D7A"/>
<path d="M201.441 197.751L196.611 195.403C196.219 195.213 196.27 194.884 196.72 194.671L201.506 192.346C201.735 192.237 201.99 192.175 202.253 192.166C202.515 192.156 202.776 192.199 203.015 192.291L207.844 194.64C208.236 194.823 208.185 195.152 207.736 195.372L202.949 197.697C202.72 197.804 202.465 197.865 202.203 197.874C201.941 197.884 201.68 197.842 201.441 197.751Z" fill="#173D7A"/>
<path d="M194.014 194.144L189.192 191.795C188.8 191.612 188.85 191.283 189.3 191.063L194.079 188.739C194.309 188.63 194.566 188.568 194.829 188.559C195.093 188.549 195.355 188.592 195.595 188.684L200.425 191.033C200.81 191.222 200.766 191.551 200.316 191.765L195.53 194.089C195.3 194.198 195.043 194.26 194.78 194.27C194.517 194.279 194.254 194.236 194.014 194.144Z" fill="#173D7A"/>
<path d="M186.597 190.538L181.767 188.195C181.383 188.006 181.433 187.677 181.876 187.457L186.662 185.132C186.893 185.026 187.15 184.966 187.413 184.958C187.676 184.949 187.938 184.992 188.178 185.084L193.008 187.427C193.392 187.616 193.342 187.945 192.899 188.159L188.113 190.483C187.883 190.592 187.626 190.654 187.363 190.663C187.099 190.673 186.837 190.63 186.597 190.538Z" fill="#173D7A"/>
<path d="M179.153 186.937L174.323 184.595C173.939 184.406 173.982 184.076 174.432 183.857L179.218 181.532C179.448 181.426 179.704 181.366 179.966 181.357C180.228 181.349 180.488 181.392 180.727 181.483L185.557 183.826C185.948 184.015 185.898 184.345 185.448 184.564L180.669 186.889C180.438 186.995 180.181 187.055 179.918 187.064C179.655 187.072 179.393 187.029 179.153 186.937Z" fill="#173D7A"/>
<path d="M186.79 183.233L181.961 180.884C181.576 180.695 181.62 180.371 182.069 180.152L183.65 179.383C183.88 179.274 184.137 179.212 184.4 179.203C184.664 179.193 184.926 179.236 185.166 179.328L189.996 181.677C190.38 181.866 190.337 182.196 189.887 182.409L188.306 183.178C188.076 183.287 187.819 183.348 187.556 183.358C187.293 183.368 187.03 183.325 186.79 183.233Z" fill="#173D7A"/>
<path d="M196.477 187.938L191.647 185.589C191.255 185.4 191.306 185.076 191.755 184.857L193.336 184.088C193.565 183.979 193.821 183.917 194.083 183.908C194.345 183.898 194.606 183.941 194.845 184.033L199.675 186.382C200.067 186.571 200.016 186.9 199.566 187.114L197.985 187.883C197.757 187.991 197.501 188.053 197.239 188.063C196.976 188.072 196.715 188.029 196.477 187.938Z" fill="#173D7A"/>
<path d="M203.861 191.526L199.038 189.183C198.647 188.994 198.697 188.664 199.147 188.445L200.728 187.676C200.958 187.57 201.214 187.51 201.475 187.501C201.737 187.493 201.998 187.536 202.237 187.627L207.067 189.97C207.458 190.159 207.408 190.489 206.958 190.708L205.377 191.471C205.147 191.58 204.89 191.642 204.627 191.651C204.364 191.661 204.101 191.618 203.861 191.526Z" fill="#173D7A"/>
<path d="M211.253 195.112L206.43 192.769C206.039 192.58 206.089 192.251 206.539 192.031L208.12 191.268C208.348 191.16 208.604 191.098 208.866 191.088C209.128 191.079 209.39 191.121 209.628 191.214L214.458 193.556C214.85 193.745 214.799 194.075 214.35 194.294L212.769 195.063C212.538 195.17 212.281 195.229 212.018 195.238C211.755 195.247 211.493 195.204 211.253 195.112Z" fill="#173D7A"/>
<path d="M218.672 198.678L213.849 196.329C213.458 196.14 213.509 195.81 213.958 195.597L215.539 194.828C215.768 194.719 216.023 194.657 216.285 194.648C216.548 194.638 216.809 194.681 217.047 194.773L221.878 197.122C222.269 197.311 222.219 197.634 221.769 197.854L220.166 198.678C219.934 198.775 219.678 198.826 219.419 198.826C219.16 198.826 218.904 198.775 218.672 198.678Z" fill="#173D7A"/>
<path d="M259.916 218.738L255.086 216.371C254.702 216.182 254.752 215.852 255.195 215.633L256.783 214.864C257.013 214.757 257.268 214.698 257.53 214.689C257.792 214.681 258.053 214.724 258.291 214.815L263.122 217.158C263.513 217.347 263.462 217.676 263.013 217.896L261.468 218.689C261.232 218.801 260.969 218.863 260.699 218.872C260.429 218.88 260.161 218.834 259.916 218.738Z" fill="#173D7A"/>
<path d="M267.308 222.327L262.478 219.984C262.093 219.795 262.144 219.466 262.587 219.252L264.175 218.483C264.403 218.375 264.659 218.313 264.921 218.303C265.183 218.294 265.445 218.336 265.683 218.429L270.513 220.771C270.898 220.96 270.854 221.29 270.405 221.509L268.824 222.278C268.593 222.385 268.336 222.444 268.073 222.453C267.809 222.462 267.548 222.418 267.308 222.327Z" fill="#173D7A"/>
<path d="M274.673 225.92L269.843 223.571C269.458 223.382 269.509 223.059 269.951 222.839L271.54 222.071C271.768 221.962 272.024 221.9 272.286 221.89C272.548 221.881 272.809 221.924 273.048 222.015L277.878 224.364C278.262 224.553 278.219 224.883 277.769 225.097L276.188 225.865C275.959 225.974 275.702 226.036 275.438 226.045C275.175 226.055 274.912 226.012 274.673 225.92Z" fill="#173D7A"/>
<path d="M282.064 229.509L277.234 227.166C276.85 226.976 276.901 226.647 277.343 226.427L278.924 225.659C279.155 225.552 279.412 225.492 279.675 225.484C279.938 225.475 280.2 225.519 280.44 225.61L285.27 227.952C285.654 228.142 285.611 228.471 285.161 228.691L283.58 229.453C283.35 229.563 283.094 229.624 282.83 229.634C282.567 229.643 282.304 229.6 282.064 229.509Z" fill="#173D7A"/>
<path d="M208.884 201.373L204.054 199.03C203.67 198.841 203.714 198.512 204.163 198.292L208.95 195.974C209.179 195.865 209.436 195.803 209.7 195.794C209.963 195.784 210.225 195.827 210.465 195.919L215.288 198.262C215.68 198.451 215.629 198.78 215.179 199L210.4 201.324C210.169 201.431 209.912 201.491 209.649 201.499C209.386 201.508 209.124 201.465 208.884 201.373Z" fill="#173D7A"/>
<path d="M216.354 204.994L211.531 202.652C211.139 202.463 211.19 202.133 211.64 201.914L216.419 199.589C216.65 199.483 216.907 199.422 217.17 199.414C217.433 199.406 217.695 199.449 217.935 199.54L222.765 201.883C223.149 202.072 223.106 202.402 222.656 202.621L217.869 204.94C217.64 205.048 217.383 205.11 217.119 205.12C216.856 205.129 216.594 205.087 216.354 204.994Z" fill="#173D7A"/>
<path d="M223.807 208.621L218.977 206.272C218.586 206.083 218.637 205.76 219.086 205.54L223.873 203.216C224.101 203.107 224.357 203.045 224.619 203.035C224.881 203.026 225.142 203.069 225.381 203.161L230.211 205.51C230.603 205.699 230.552 206.028 230.102 206.242L225.316 208.566C225.088 208.675 224.832 208.737 224.569 208.746C224.307 208.756 224.046 208.713 223.807 208.621Z" fill="#173D7A"/>
<path d="M231.248 212.242L226.419 209.893C226.034 209.704 226.085 209.374 226.527 209.161L231.314 206.836C231.543 206.728 231.8 206.666 232.064 206.656C232.327 206.647 232.589 206.69 232.829 206.782L237.66 209.131C238.044 209.314 237.993 209.643 237.551 209.863L232.764 212.187C232.534 212.295 232.277 212.356 232.014 212.365C231.751 212.374 231.489 212.333 231.248 212.242Z" fill="#173D7A"/>
<path d="M238.72 215.858L233.898 213.515C233.506 213.326 233.557 212.996 234.006 212.776L238.786 210.452C239.016 210.345 239.274 210.286 239.537 210.277C239.8 210.269 240.062 210.312 240.301 210.403L245.131 212.746C245.516 212.935 245.472 213.264 245.023 213.484L240.236 215.809C240.006 215.916 239.749 215.976 239.485 215.985C239.222 215.993 238.96 215.95 238.72 215.858Z" fill="#173D7A"/>
<path d="M246.171 219.485L241.341 217.142C240.957 216.953 241 216.624 241.45 216.404L246.237 214.079C246.466 213.973 246.722 213.913 246.984 213.905C247.246 213.896 247.506 213.939 247.745 214.031L252.575 216.374C252.966 216.563 252.916 216.892 252.466 217.106L247.672 219.424C247.445 219.532 247.191 219.593 246.93 219.604C246.67 219.615 246.41 219.574 246.171 219.485Z" fill="#173D7A"/>
<path d="M253.642 223.085L248.812 220.736C248.428 220.546 248.479 220.217 248.921 220.003L253.708 217.679C253.937 217.57 254.194 217.508 254.458 217.499C254.721 217.489 254.983 217.532 255.223 217.624L260.053 219.973C260.438 220.162 260.387 220.492 259.944 220.705L255.158 223.085C254.923 223.185 254.663 223.237 254.4 223.237C254.137 223.237 253.877 223.185 253.642 223.085Z" fill="#173D7A"/>
<path d="M261.094 226.747L256.264 224.404C255.873 224.215 255.923 223.886 256.373 223.672L261.159 221.348C261.388 221.239 261.644 221.177 261.906 221.167C262.168 221.158 262.429 221.201 262.668 221.292L267.498 223.635C267.889 223.825 267.839 224.154 267.389 224.374L262.602 226.698C262.373 226.805 262.117 226.864 261.855 226.873C261.593 226.882 261.333 226.838 261.094 226.747Z" fill="#173D7A"/>
<path d="M268.538 230.351L263.708 228.009C263.323 227.819 263.367 227.49 263.817 227.27L268.603 224.946C268.839 224.838 269.102 224.779 269.371 224.774C269.64 224.769 269.906 224.817 270.148 224.915L274.971 227.258C275.362 227.447 275.311 227.777 274.862 227.996L270.082 230.321C269.846 230.428 269.583 230.487 269.314 230.493C269.046 230.498 268.78 230.45 268.538 230.351Z" fill="#173D7A"/>
<path d="M166.263 201.824L152.041 194.912C151.649 194.729 151.7 194.399 152.15 194.179L156.929 191.855C157.159 191.746 157.416 191.684 157.679 191.675C157.943 191.666 158.205 191.708 158.445 191.8L172.666 198.713C173.058 198.902 173.007 199.225 172.558 199.445L167.771 201.77C167.543 201.878 167.287 201.94 167.025 201.949C166.763 201.959 166.501 201.916 166.263 201.824Z" fill="#173D7A"/>
<path d="M257.879 246.324L243.657 239.411C243.273 239.228 243.323 238.898 243.766 238.679L248.552 236.354C248.783 236.247 249.039 236.186 249.303 236.176C249.566 236.167 249.828 236.209 250.068 236.299L264.29 243.218C264.674 243.407 264.631 243.736 264.181 243.95L259.395 246.275C259.164 246.383 258.907 246.443 258.644 246.452C258.38 246.46 258.118 246.416 257.879 246.324Z" fill="#173D7A"/>
<path d="M228.06 239.835L223.229 237.487C222.845 237.304 222.889 236.974 223.339 236.754L229.039 233.984C229.27 233.878 229.527 233.818 229.79 233.81C230.053 233.801 230.315 233.844 230.554 233.936L235.377 236.279C235.769 236.468 235.718 236.797 235.276 237.011L229.561 239.781C229.334 239.888 229.079 239.949 228.818 239.959C228.557 239.969 228.298 239.926 228.06 239.835Z" fill="#173D7A"/>
<path d="M173.894 213.529L166.17 209.777C165.779 209.588 165.829 209.264 166.279 209.045L171.979 206.275C172.208 206.168 172.464 206.107 172.726 206.097C172.988 206.088 173.249 206.13 173.488 206.22L181.212 209.972C181.603 210.162 181.552 210.491 181.103 210.711L175.402 213.481C175.173 213.587 174.917 213.647 174.655 213.655C174.393 213.664 174.133 213.621 173.894 213.529Z" fill="#173D7A"/>
<path d="M220.834 236.348L213.11 232.596C212.726 232.407 212.769 232.078 213.219 231.858L218.919 229.094C219.149 228.985 219.406 228.924 219.669 228.914C219.933 228.904 220.195 228.947 220.435 229.039L228.159 232.791C228.543 232.98 228.492 233.31 228.05 233.523L222.35 236.293C222.12 236.402 221.863 236.464 221.599 236.474C221.336 236.483 221.074 236.44 220.834 236.348Z" fill="#173D7A"/>
<path d="M184.641 218.762L176.917 215.01C176.526 214.82 176.576 214.491 177.026 214.271L182.726 211.507C182.954 211.399 183.21 211.337 183.473 211.328C183.735 211.318 183.996 211.361 184.235 211.453L191.958 215.205C192.35 215.394 192.299 215.723 191.849 215.937L186.149 218.707C185.921 218.816 185.665 218.877 185.403 218.887C185.141 218.896 184.879 218.854 184.641 218.762Z" fill="#173D7A"/>
<path d="M184.283 211.49L217.869 227.798C217.96 227.825 218.039 227.875 218.095 227.941C218.152 228.007 218.182 228.086 218.182 228.167C218.182 228.248 218.152 228.328 218.095 228.394C218.039 228.46 217.96 228.51 217.869 228.536L212.067 231.355C211.834 231.457 211.575 231.511 211.313 231.511C211.05 231.511 210.791 231.457 210.559 231.355L176.981 215.047L184.283 211.49Z" fill="#173D7A"/>
<path d="M248.884 246.401L254.266 249.018C254.584 249.171 254.541 249.44 254.178 249.629L251.843 250.763C251.655 250.851 251.444 250.9 251.229 250.907C251.014 250.915 250.799 250.88 250.603 250.806L245.222 248.195C244.903 248.036 244.946 247.768 245.316 247.585L247.644 246.45C247.832 246.362 248.042 246.311 248.257 246.303C248.472 246.294 248.687 246.328 248.884 246.401Z" fill="#173D7A"/>
<path d="M241.38 242.758L246.761 245.369C247.08 245.522 247.037 245.79 246.674 245.979L244.339 247.108C244.151 247.198 243.941 247.249 243.725 247.256C243.509 247.264 243.294 247.228 243.099 247.151L237.718 244.539C237.406 244.387 237.442 244.118 237.812 243.929L240.14 242.8C240.328 242.712 240.538 242.662 240.754 242.654C240.97 242.647 241.184 242.682 241.38 242.758Z" fill="#173D7A"/>
<path d="M233.901 239.133L239.282 241.744C239.594 241.903 239.558 242.171 239.188 242.354L236.86 243.489C236.671 243.576 236.461 243.626 236.246 243.633C236.031 243.64 235.816 243.606 235.62 243.532L230.275 240.908C229.956 240.755 229.999 240.487 230.362 240.298L232.697 239.163C232.882 239.083 233.087 239.038 233.295 239.033C233.503 239.027 233.71 239.062 233.901 239.133Z" fill="#173D7A"/>
<path d="M245.502 240.781L250.883 243.392C251.202 243.545 251.159 243.819 250.796 244.002L248.461 245.131C248.273 245.22 248.063 245.272 247.847 245.28C247.632 245.289 247.417 245.254 247.221 245.18L241.839 242.562C241.52 242.41 241.564 242.141 241.934 241.952L244.262 240.817C244.451 240.731 244.661 240.683 244.877 240.676C245.092 240.67 245.306 240.706 245.502 240.781Z" fill="#173D7A"/>
<path d="M181.013 272.504C181.013 272.504 178.837 271.577 177.474 272.962C176.11 274.347 174.21 277.611 174.145 279.82C174.08 282.028 176.227 281.876 177.495 281.351C178.765 280.826 182.471 276.305 182.695 275.415C182.78 275.013 182.769 274.602 182.663 274.203C182.557 273.805 182.359 273.429 182.079 273.096C181.717 272.834 181.013 272.504 181.013 272.504Z" fill="#173D7A"/>
<path d="M181.506 272.028L181.607 273.937C181.623 274.139 181.571 274.339 181.458 274.517C181.346 274.695 181.176 274.843 180.969 274.944C180.454 275.182 179.856 275.26 179.279 275.164C177.633 274.944 177.481 274.554 177.365 272.638C177.249 270.722 181.506 272.028 181.506 272.028Z" fill="#E8A200"/>
<path d="M172.986 268.802C172.986 268.802 170.811 267.874 169.454 269.259C168.098 270.644 166.184 273.908 166.126 276.117C166.067 278.326 168.2 278.173 169.469 277.655C170.738 277.136 174.451 272.603 174.676 271.718C174.76 271.315 174.748 270.902 174.641 270.503C174.534 270.104 174.334 269.727 174.052 269.393C173.712 269.161 172.986 268.802 172.986 268.802Z" fill="#173D7A"/>
<path d="M173.487 268.359L173.588 270.269C173.601 270.467 173.548 270.665 173.435 270.839C173.322 271.014 173.155 271.158 172.95 271.258C172.434 271.494 171.837 271.573 171.26 271.483C169.607 271.257 169.462 270.873 169.345 268.951C169.23 267.029 173.487 268.359 173.487 268.359Z" fill="#E8A200"/>
<path d="M193.023 233.303C192.378 224.425 181.601 234.608 181.601 234.608L174.226 240.71L167.582 246.847C166.941 247.439 166.462 248.142 166.177 248.906C165.893 249.67 165.811 250.477 165.936 251.271L168.634 268.464C168.7 268.873 168.94 269.249 169.312 269.52C169.683 269.79 170.159 269.938 170.65 269.934C170.983 269.931 171.315 269.907 171.644 269.861C172.284 269.8 172.872 269.532 173.284 269.115C173.696 268.698 173.901 268.163 173.856 267.622L173.362 251.527L187.308 244.438C187.308 244.438 193.676 242.18 193.023 233.303Z" fill="#26356A"/>
<path d="M201.047 236.682C200.401 227.811 189.625 237.988 189.625 237.988L182.249 244.089L175.606 250.227C174.966 250.819 174.486 251.522 174.201 252.286C173.915 253.049 173.831 253.856 173.952 254.65L176.614 271.843C176.676 272.254 176.917 272.631 177.288 272.902C177.66 273.173 178.138 273.32 178.63 273.314C178.963 273.31 179.295 273.286 179.624 273.241C180.264 273.183 180.854 272.919 181.268 272.504C181.682 272.089 181.888 271.554 181.843 271.014L181.357 254.912L195.303 247.841C195.303 247.841 201.692 245.559 201.047 236.682Z" fill="#26356A"/>
<path d="M194.654 208.198C202.827 211.047 202.631 215.11 202.631 215.11C202.631 215.11 201.029 230.003 201.58 239.955C201.805 244.109 175.312 244.427 179.265 233.335C183.921 220.254 182.165 209.662 184.341 208.064C186.517 206.465 192.551 207.46 194.654 208.198Z" fill="#636363"/>
<path d="M197.297 211.799C196.876 213.196 194.7 213.934 192.445 213.446C190.189 212.958 188.71 211.427 189.138 210.029C189.566 208.632 191.741 207.9 193.99 208.388C196.238 208.876 197.724 210.408 197.297 211.799Z" fill="#BC8C7E"/>
<path d="M193.805 213.933C193.315 213.928 192.828 213.875 192.354 213.774C189.896 213.237 188.286 211.529 188.728 209.961C188.867 209.558 189.119 209.188 189.462 208.884C189.805 208.579 190.23 208.348 190.701 208.21C191.776 207.869 192.951 207.824 194.059 208.082C196.517 208.613 198.127 210.327 197.685 211.895C197.278 213.134 195.683 213.933 193.805 213.933ZM192.55 208.563C192.012 208.558 191.477 208.641 190.976 208.808C190.619 208.908 190.296 209.079 190.033 209.306C189.771 209.533 189.577 209.81 189.468 210.113C189.098 211.334 190.454 212.682 192.499 213.121C194.544 213.56 196.503 212.938 196.85 211.718C197.199 210.498 195.864 209.149 193.827 208.704C193.409 208.615 192.981 208.567 192.55 208.563Z" fill="#9E988E"/>
<path d="M191.394 207.887C191.443 208.701 191.421 209.516 191.329 210.327C191.278 211.011 194.128 211.651 194.868 211.035C195.608 210.419 195.31 209.766 195.484 207.436C195.658 205.105 191.394 207.887 191.394 207.887Z" fill="#BC8C7E"/>
<path d="M195.463 207.446C195.463 207.446 194.738 209.612 191.301 210.436L191.359 208.477L195.463 207.446Z" fill="#BC8C7E"/>
<path d="M197.649 201.965C197.96 202.978 197.906 204.046 197.495 205.033C197.084 206.021 196.335 206.884 195.341 207.513C194.347 208.142 193.154 208.509 191.913 208.567C190.671 208.626 189.436 208.374 188.366 207.842C187.294 207.31 186.435 206.524 185.895 205.581C185.355 204.638 185.16 203.582 185.335 202.546C185.508 201.51 186.044 200.541 186.872 199.761C187.701 198.981 188.786 198.425 189.991 198.164C190.79 197.989 191.623 197.95 192.441 198.046C193.258 198.143 194.046 198.375 194.757 198.728C195.468 199.081 196.09 199.549 196.586 200.104C197.082 200.659 197.443 201.292 197.649 201.965Z" fill="#BC8C7E"/>
<path d="M198.102 217.891C197.815 220.042 197.371 224.903 197.887 227.14C197.242 226.566 196.381 223.914 198.102 217.891Z" fill="#686B6F"/>
<path d="M193.026 203.484C193.026 203.484 189.567 204.704 187.166 204.74C184.766 204.777 185.295 203.069 185.295 203.069L192.417 202.202L193.026 203.484Z" fill="#BC8C7E"/>
<path d="M186.45 203.807C186.45 203.807 189.46 202.734 192.107 203.197C192.735 203.299 193.302 203.582 193.71 203.996C193.829 204.134 193.996 204.236 194.188 204.289C194.66 204.375 195.428 202.74 196.364 202.703C197.299 202.666 197.887 203.209 197.133 204.216C196.378 205.223 196.639 206.351 196.988 206.51C197.336 206.669 200.976 204.32 197.756 198.957C194.536 193.594 186.363 196.48 185.094 197.572C185.094 197.572 183.752 198.548 182.664 197.676C182.643 197.663 181.417 205.394 186.45 203.807Z" fill="#2B2B2B"/>
<path d="M198.083 225.99V230.017C198.084 230.247 198.028 230.474 197.918 230.684C197.808 230.894 197.647 231.082 197.445 231.237L187.618 238.766L188.735 240.206L201.659 232.738C201.958 232.555 202.209 232.32 202.394 232.05C202.579 231.78 202.694 231.48 202.732 231.17L203.667 223.696L198.083 225.99Z" fill="#BC8C7E"/>
<path d="M201.992 213.099C201.992 213.099 204.972 216.87 206.082 226.802C206.082 226.802 201.005 228.187 198.104 227.412C195.203 226.638 201.992 213.099 201.992 213.099Z" fill="#636363"/>
<path d="M194.982 244.001L192.806 243.763L178.773 236.948C178.495 236.843 178.192 236.793 177.887 236.804C177.583 236.814 177.285 236.884 177.018 237.009L167.083 241.835L165.77 241.689V242.787C165.772 242.869 165.802 242.95 165.855 243.019C165.909 243.088 165.985 243.143 166.075 243.177L181.964 250.895C182.242 251.001 182.546 251.051 182.85 251.04C183.155 251.03 183.453 250.959 183.719 250.834L194.539 245.581C194.657 245.537 194.759 245.468 194.834 245.38C194.909 245.292 194.955 245.189 194.967 245.081L194.982 244.001Z" fill="#515862"/>
<path d="M184.464 239.698L183.464 239.209H172.513L167.11 241.833L165.797 241.687V242.785C165.799 242.868 165.829 242.948 165.883 243.017C165.937 243.086 166.012 243.141 166.102 243.175L181.991 250.893C182.272 251.011 182.586 251.06 182.898 251.034L184.464 239.698Z" fill="#396CAA"/>
<path d="M182.136 250.955C182.627 251.092 183.163 251.064 183.63 250.876V249.009H182.136V250.955Z" fill="#274F89"/>
<path d="M181.99 249.795L166.101 242.077C165.651 241.857 165.709 241.467 166.224 241.223L177.044 235.969C177.308 235.845 177.602 235.774 177.904 235.761C178.206 235.748 178.507 235.795 178.785 235.896L194.682 243.614C195.131 243.834 195.073 244.225 194.551 244.468L183.731 249.721C183.467 249.846 183.173 249.918 182.871 249.931C182.569 249.943 182.267 249.897 181.99 249.795Z" fill="#2F2F2F"/>
<path d="M181.716 248.623L168.502 242.205C168.132 242.022 168.176 241.704 168.611 241.497L174.413 238.752C174.634 238.649 174.879 238.592 175.131 238.583C175.383 238.575 175.634 238.616 175.863 238.703L189.077 245.121C189.454 245.304 189.404 245.622 188.976 245.829L183.174 248.574C182.952 248.678 182.705 248.736 182.452 248.744C182.199 248.753 181.947 248.711 181.716 248.623Z" fill="#828282"/>
<path d="M177.668 235.715L177.509 236.642C177.367 237.426 177.389 238.225 177.574 239.003L177.77 239.815C177.824 240.039 177.957 240.245 178.15 240.406C178.344 240.567 178.59 240.675 178.858 240.718C178.96 240.737 179.066 240.738 179.169 240.72C179.272 240.702 179.368 240.665 179.453 240.612C179.537 240.559 179.606 240.492 179.656 240.414C179.706 240.337 179.736 240.251 179.743 240.163L180.004 238.192C180.004 238.192 180.606 238.857 180.889 238.857C181.171 238.857 180.569 236.88 179.917 235.764C179.264 234.647 177.668 235.715 177.668 235.715Z" fill="#BC8C7E"/>
<path d="M183.034 221.05L181.33 223.893C180.916 224.562 180.669 225.295 180.604 226.047L179.879 235.76L177.631 235.711L176.616 224.809C176.58 224.472 176.6 224.134 176.674 223.802L177.834 218.268L183.034 221.05Z" fill="#BC8C7E"/>
<path d="M181.464 250.538L180.129 249.074L166.118 242.246C165.87 242.096 165.667 241.9 165.526 241.672C165.385 241.444 165.31 241.191 165.306 240.934V231.283L164.515 230.404L165.24 230.038C165.322 229.993 165.418 229.97 165.516 229.97C165.614 229.97 165.709 229.993 165.792 230.038L181.696 237.792C181.943 237.942 182.146 238.139 182.288 238.367C182.429 238.595 182.504 238.847 182.508 239.104V249.61C182.522 249.718 182.502 249.826 182.449 249.925C182.397 250.023 182.315 250.109 182.211 250.172L181.464 250.538Z" fill="#575C64"/>
<path d="M171.774 244.998L170.817 244.516L165.313 236.505V231.258L164.515 230.404L165.24 230.038C165.322 229.993 165.418 229.97 165.516 229.97C165.614 229.97 165.709 229.993 165.792 230.038L181.696 237.792C181.96 237.943 182.166 238.155 182.29 238.402L171.774 244.998Z" fill="#727B86"/>
<path d="M181.829 237.88C182.21 238.173 182.446 238.576 182.489 239.009L180.952 239.759L180.226 238.673L181.829 237.88Z" fill="#656C77"/>
<path d="M180.966 238.163L165.062 230.402C164.612 230.183 164.25 230.402 164.242 230.915V241.427C164.245 241.684 164.32 241.937 164.461 242.165C164.602 242.393 164.806 242.59 165.055 242.739L180.93 250.475C181.38 250.688 181.742 250.475 181.749 249.957V239.469C181.751 239.214 181.681 238.963 181.545 238.736C181.409 238.509 181.21 238.313 180.966 238.163Z" fill="#2F2F2F"/>
<path d="M188.73 240.201L188.476 240.64C188.183 241.146 187.722 241.57 187.149 241.86L185.568 242.678C185.329 242.806 185.052 242.877 184.769 242.884C184.485 242.89 184.205 242.832 183.958 242.715L183.907 242.684C183.793 242.618 183.698 242.531 183.628 242.43C183.558 242.329 183.516 242.216 183.503 242.1C183.491 241.983 183.509 241.866 183.556 241.756C183.603 241.646 183.679 241.547 183.776 241.464L185.423 240.036C185.423 240.036 184.494 240.646 184.234 240.396C183.972 240.146 185.133 239.359 185.967 239.329C186.573 239.26 187.144 239.048 187.613 238.719L188.73 240.201Z" fill="#BC8C7E"/>
<path d="M184.593 208.046C184.593 208.046 178.552 213.574 176.108 218.65C177.764 220.794 180.303 222.347 183.237 223.012C188.27 224.239 184.593 208.046 184.593 208.046Z" fill="#636363"/>
<path d="M182.072 222.684L183.051 214.722L180.745 222.184C181.176 222.371 181.619 222.538 182.072 222.684Z" fill="#686B6F"/>
<path d="M189.085 206.931L187.482 206.553C187.934 207.136 188.594 207.585 189.368 207.834C190.499 208.096 190.673 207.291 190.673 207.291L189.085 206.931Z" fill="white"/>
<path d="M235.687 132.784L229.203 129.636C228.895 129.463 228.654 129.217 228.512 128.929C228.37 128.641 228.333 128.325 228.405 128.019C228.423 127.89 228.479 127.767 228.569 127.661C228.658 127.556 228.778 127.471 228.918 127.416C229.057 127.36 229.211 127.335 229.365 127.344C229.519 127.352 229.668 127.394 229.798 127.464L236.281 130.612C236.588 130.784 236.828 131.029 236.968 131.316C237.109 131.603 237.145 131.919 237.072 132.223C237.057 132.352 237.002 132.476 236.914 132.583C236.826 132.689 236.706 132.775 236.567 132.832C236.428 132.888 236.273 132.913 236.119 132.905C235.965 132.897 235.816 132.855 235.687 132.784Z" fill="#D4ECFF"/>
<path d="M251.144 140.279L241.586 135.636C241.273 135.464 241.031 135.215 240.89 134.925C240.749 134.634 240.716 134.314 240.795 134.007C240.811 133.878 240.866 133.755 240.955 133.649C241.044 133.544 241.164 133.459 241.303 133.403C241.442 133.347 241.595 133.322 241.749 133.331C241.903 133.34 242.051 133.381 242.18 133.452L251.739 138.095C252.047 138.267 252.287 138.513 252.428 138.802C252.569 139.09 252.604 139.407 252.529 139.712C252.515 139.842 252.462 139.966 252.374 140.074C252.286 140.181 252.167 140.268 252.027 140.325C251.888 140.382 251.733 140.407 251.578 140.4C251.424 140.392 251.274 140.35 251.144 140.279Z" fill="#D4ECFF"/>
<path d="M224.38 158.242L217.933 155.094C217.625 154.921 217.385 154.675 217.244 154.387C217.103 154.099 217.068 153.782 217.142 153.477C217.16 153.348 217.215 153.226 217.304 153.12C217.392 153.014 217.512 152.93 217.65 152.873C217.789 152.817 217.942 152.792 218.095 152.799C218.249 152.806 218.398 152.846 218.528 152.916L225.011 156.07C225.32 156.241 225.56 156.486 225.701 156.773C225.842 157.06 225.877 157.376 225.802 157.681C225.791 157.815 225.737 157.944 225.646 158.055C225.556 158.166 225.432 158.255 225.287 158.312C225.142 158.369 224.982 158.393 224.822 158.381C224.663 158.368 224.51 158.32 224.38 158.242Z" fill="#D4ECFF"/>
<path d="M238.157 164.925L228.598 160.282C228.29 160.109 228.049 159.863 227.909 159.575C227.768 159.287 227.733 158.97 227.808 158.665C227.824 158.536 227.879 158.413 227.968 158.307C228.057 158.201 228.176 158.116 228.315 158.061C228.454 158.005 228.608 157.98 228.762 157.989C228.915 157.997 229.064 158.039 229.193 158.11L238.758 162.753C239.065 162.925 239.305 163.17 239.445 163.457C239.587 163.744 239.622 164.059 239.549 164.363C239.533 164.493 239.477 164.617 239.388 164.723C239.299 164.83 239.179 164.915 239.039 164.971C238.899 165.028 238.745 165.053 238.591 165.045C238.436 165.037 238.287 164.995 238.157 164.925Z" fill="#D4ECFF"/>
<path d="M216.58 128.649L212.533 126.684C212.224 126.512 211.983 126.266 211.842 125.978C211.701 125.69 211.667 125.372 211.743 125.068C211.759 124.938 211.814 124.815 211.903 124.71C211.991 124.604 212.111 124.519 212.25 124.463C212.389 124.407 212.543 124.383 212.697 124.391C212.85 124.4 212.999 124.442 213.128 124.512L217.182 126.483C217.484 126.657 217.719 126.902 217.857 127.187C217.995 127.472 218.03 127.785 217.958 128.088C217.94 128.215 217.885 128.337 217.797 128.442C217.708 128.546 217.59 128.631 217.452 128.687C217.315 128.743 217.163 128.769 217.01 128.762C216.858 128.755 216.71 128.716 216.58 128.649Z" fill="#D4ECFF"/>
<path d="M229.058 139.868L216.678 133.858C216.37 133.685 216.13 133.439 215.989 133.151C215.848 132.863 215.813 132.546 215.888 132.241C215.904 132.112 215.959 131.989 216.048 131.883C216.137 131.777 216.257 131.692 216.396 131.637C216.534 131.581 216.688 131.556 216.842 131.565C216.995 131.574 217.144 131.615 217.273 131.686L229.652 137.696C229.96 137.868 230.199 138.113 230.34 138.4C230.481 138.686 230.517 139.002 230.443 139.306C230.428 139.436 230.374 139.56 230.285 139.666C230.197 139.773 230.078 139.858 229.938 139.915C229.799 139.971 229.645 139.997 229.491 139.988C229.337 139.98 229.188 139.938 229.058 139.868Z" fill="#D4ECFF"/>
<path d="M218.22 144.93L214.173 142.966C213.86 142.792 213.618 142.543 213.477 142.252C213.336 141.96 213.303 141.639 213.382 141.331C213.398 141.202 213.453 141.079 213.542 140.973C213.632 140.867 213.751 140.782 213.89 140.727C214.029 140.671 214.183 140.646 214.336 140.655C214.49 140.663 214.638 140.705 214.768 140.776L218.814 142.74C219.124 142.912 219.364 143.158 219.506 143.446C219.648 143.734 219.685 144.051 219.612 144.357C219.598 144.488 219.544 144.613 219.456 144.721C219.368 144.829 219.248 144.916 219.108 144.974C218.968 145.031 218.813 145.058 218.657 145.05C218.502 145.042 218.351 145.002 218.22 144.93Z" fill="#D4ECFF"/>
<path d="M240.237 176.254L229.417 171.001C229.108 170.83 228.868 170.585 228.727 170.298C228.586 170.011 228.551 169.694 228.626 169.39C228.641 169.261 228.695 169.137 228.784 169.03C228.872 168.924 228.992 168.838 229.131 168.782C229.27 168.725 229.424 168.7 229.579 168.708C229.733 168.717 229.882 168.758 230.011 168.829L240.832 174.082C241.14 174.255 241.38 174.501 241.521 174.789C241.662 175.077 241.697 175.394 241.622 175.699C241.606 175.828 241.551 175.951 241.462 176.057C241.373 176.163 241.253 176.247 241.115 176.303C240.976 176.359 240.822 176.384 240.668 176.375C240.515 176.366 240.366 176.325 240.237 176.254Z" fill="#D4ECFF"/>
<path d="M214.316 153.331L211.712 152.068C211.404 151.901 211.162 151.661 211.015 151.379C210.868 151.097 210.823 150.785 210.885 150.481C210.902 150.353 210.959 150.229 211.049 150.124C211.138 150.018 211.259 149.934 211.398 149.878C211.537 149.822 211.691 149.797 211.845 149.806C211.999 149.814 212.148 149.856 212.278 149.926L214.874 151.189C215.182 151.36 215.423 151.605 215.564 151.892C215.705 152.179 215.74 152.496 215.664 152.8C215.641 152.922 215.583 153.037 215.495 153.136C215.406 153.235 215.291 153.314 215.158 153.366C215.024 153.418 214.878 153.443 214.731 153.437C214.585 153.43 214.442 153.394 214.316 153.331Z" fill="#D4ECFF"/>
<path d="M212.405 162.736L209.177 161.168C208.869 160.996 208.629 160.749 208.488 160.462C208.347 160.173 208.312 159.856 208.387 159.551C208.403 159.423 208.458 159.299 208.547 159.193C208.636 159.088 208.755 159.003 208.894 158.947C209.033 158.891 209.187 158.867 209.341 158.875C209.494 158.884 209.643 158.925 209.772 158.996L212.999 160.564C213.308 160.735 213.548 160.98 213.689 161.267C213.83 161.555 213.865 161.87 213.79 162.175C213.775 162.304 213.72 162.428 213.632 162.535C213.544 162.641 213.424 162.727 213.285 162.784C213.146 162.84 212.991 162.865 212.837 162.857C212.683 162.849 212.534 162.807 212.405 162.736Z" fill="#D4ECFF"/>
<path d="M224.964 168.837L216.487 164.7C216.179 164.527 215.939 164.281 215.799 163.993C215.658 163.705 215.622 163.388 215.696 163.083C215.713 162.954 215.77 162.831 215.859 162.725C215.949 162.619 216.069 162.535 216.208 162.479C216.348 162.424 216.502 162.399 216.656 162.408C216.81 162.416 216.959 162.457 217.089 162.528L225.596 166.664C225.904 166.835 226.144 167.08 226.285 167.367C226.426 167.655 226.461 167.971 226.386 168.275C226.375 168.409 226.321 168.539 226.23 168.65C226.14 168.761 226.016 168.849 225.871 168.907C225.726 168.964 225.566 168.988 225.407 168.975C225.247 168.963 225.094 168.915 224.964 168.837Z" fill="#D4ECFF"/>
<path d="M214.045 168.689L207.924 165.73C207.615 165.558 207.375 165.312 207.235 165.024C207.094 164.735 207.058 164.419 207.133 164.113C207.149 163.985 207.205 163.861 207.293 163.755C207.382 163.65 207.502 163.565 207.641 163.509C207.78 163.453 207.934 163.429 208.087 163.437C208.241 163.446 208.389 163.487 208.519 163.558L214.64 166.53C214.949 166.701 215.189 166.947 215.33 167.236C215.471 167.524 215.506 167.841 215.43 168.146C215.412 168.274 215.355 168.396 215.266 168.5C215.176 168.604 215.056 168.688 214.917 168.742C214.778 168.796 214.625 168.82 214.473 168.811C214.32 168.801 214.173 168.76 214.045 168.689Z" fill="#D4ECFF"/>
<path d="M249.523 180.782L245.592 178.872C245.283 178.7 245.042 178.454 244.901 178.166C244.761 177.877 244.726 177.56 244.802 177.255C244.816 177.122 244.873 176.995 244.965 176.887C245.057 176.778 245.181 176.692 245.325 176.637C245.47 176.582 245.628 176.56 245.786 176.573C245.944 176.586 246.094 176.634 246.223 176.712L250.154 178.622C250.463 178.794 250.704 179.04 250.845 179.328C250.985 179.616 251.02 179.933 250.944 180.238C250.93 180.371 250.873 180.498 250.781 180.607C250.689 180.715 250.565 180.802 250.421 180.857C250.276 180.912 250.117 180.934 249.96 180.921C249.802 180.908 249.652 180.86 249.523 180.782Z" fill="#D4ECFF"/>
<path d="M233.309 152.244L222.488 146.991C222.18 146.82 221.94 146.575 221.799 146.288C221.658 146.001 221.623 145.685 221.698 145.38C221.713 145.251 221.767 145.127 221.855 145.02C221.944 144.914 222.064 144.828 222.203 144.771C222.342 144.715 222.496 144.69 222.651 144.698C222.804 144.706 222.954 144.748 223.083 144.819L233.911 150.072C234.221 150.246 234.461 150.495 234.601 150.785C234.74 151.076 234.773 151.395 234.694 151.701C234.676 151.829 234.619 151.951 234.529 152.055C234.44 152.159 234.319 152.243 234.181 152.297C234.042 152.351 233.889 152.375 233.737 152.365C233.584 152.356 233.437 152.315 233.309 152.244Z" fill="#D4ECFF"/>
<path d="M234.28 147.571L215.424 138.42C215.115 138.247 214.875 138.001 214.734 137.713C214.593 137.425 214.558 137.108 214.633 136.803C214.649 136.674 214.704 136.551 214.793 136.445C214.882 136.339 215.002 136.254 215.141 136.199C215.28 136.143 215.434 136.118 215.587 136.127C215.741 136.135 215.889 136.177 216.018 136.248L234.874 145.399C235.183 145.57 235.423 145.815 235.564 146.103C235.705 146.39 235.74 146.706 235.665 147.01C235.65 147.14 235.595 147.264 235.507 147.37C235.419 147.477 235.299 147.563 235.16 147.619C235.021 147.675 234.866 147.701 234.712 147.692C234.558 147.684 234.409 147.643 234.28 147.571Z" fill="#D4ECFF"/>
<path d="M223.755 152.77L212.941 147.516C212.633 147.344 212.393 147.098 212.252 146.81C212.111 146.522 212.076 146.205 212.151 145.9C212.167 145.771 212.222 145.648 212.311 145.542C212.4 145.436 212.52 145.351 212.659 145.295C212.798 145.24 212.951 145.215 213.105 145.224C213.259 145.232 213.407 145.274 213.536 145.344L224.349 150.598C224.658 150.769 224.899 151.015 225.04 151.304C225.181 151.592 225.216 151.909 225.14 152.214C225.124 152.343 225.069 152.466 224.98 152.572C224.891 152.678 224.771 152.763 224.632 152.819C224.493 152.874 224.339 152.899 224.186 152.89C224.032 152.882 223.884 152.84 223.755 152.77Z" fill="#D4ECFF"/>
<path d="M241.511 156.231L237.58 154.322C237.276 154.147 237.04 153.9 236.903 153.612C236.766 153.324 236.734 153.008 236.811 152.705C236.827 152.576 236.883 152.453 236.971 152.347C237.06 152.241 237.18 152.157 237.319 152.101C237.458 152.045 237.612 152.02 237.765 152.029C237.919 152.037 238.068 152.079 238.197 152.15L242.127 154.059C242.436 154.23 242.676 154.475 242.817 154.763C242.958 155.05 242.993 155.366 242.918 155.67C242.905 155.802 242.851 155.93 242.761 156.039C242.672 156.148 242.549 156.235 242.407 156.292C242.264 156.349 242.107 156.373 241.949 156.363C241.792 156.352 241.641 156.307 241.511 156.231Z" fill="#D4ECFF"/>
<path d="M280.314 154.446L257.02 143.159C256.712 142.987 256.472 142.741 256.331 142.452C256.19 142.164 256.155 141.847 256.23 141.542C256.246 141.413 256.301 141.29 256.39 141.185C256.478 141.079 256.598 140.994 256.737 140.938C256.876 140.882 257.03 140.858 257.184 140.866C257.337 140.875 257.486 140.916 257.615 140.987L280.894 152.293C281.203 152.463 281.443 152.708 281.584 152.996C281.725 153.283 281.76 153.599 281.685 153.903C281.664 154.029 281.606 154.147 281.517 154.249C281.427 154.351 281.309 154.432 281.174 154.486C281.038 154.54 280.888 154.564 280.738 154.557C280.588 154.55 280.443 154.512 280.314 154.446Z" fill="#D4ECFF"/>
<path d="M223.435 162.935L210.432 156.62C210.124 156.447 209.883 156.201 209.743 155.913C209.602 155.625 209.567 155.308 209.641 155.003C209.657 154.874 209.712 154.751 209.802 154.645C209.891 154.54 210.01 154.455 210.149 154.399C210.288 154.343 210.442 154.318 210.595 154.327C210.749 154.336 210.898 154.377 211.027 154.448L224.03 160.763C224.339 160.934 224.58 161.181 224.721 161.469C224.862 161.757 224.897 162.074 224.82 162.379C224.804 162.508 224.749 162.631 224.661 162.737C224.572 162.843 224.452 162.928 224.313 162.984C224.174 163.04 224.02 163.064 223.867 163.055C223.713 163.047 223.564 163.005 223.435 162.935Z" fill="#D4ECFF"/>
<path d="M223.319 126.772L213.761 122.129C213.452 121.957 213.211 121.711 213.07 121.423C212.929 121.134 212.894 120.817 212.97 120.512C212.986 120.383 213.041 120.26 213.13 120.154C213.219 120.048 213.339 119.964 213.478 119.908C213.617 119.852 213.77 119.827 213.924 119.836C214.078 119.845 214.226 119.886 214.355 119.957L223.914 124.6C224.222 124.773 224.462 125.019 224.605 125.306C224.746 125.594 224.784 125.911 224.712 126.217C224.694 126.346 224.638 126.469 224.548 126.574C224.459 126.68 224.338 126.765 224.199 126.82C224.06 126.876 223.905 126.901 223.752 126.892C223.598 126.884 223.449 126.842 223.319 126.772Z" fill="#D4ECFF"/>
<path d="M212.356 173.058L201.268 167.646C200.959 167.475 200.719 167.23 200.578 166.943C200.437 166.656 200.402 166.34 200.477 166.035C200.492 165.906 200.546 165.782 200.634 165.676C200.723 165.569 200.843 165.483 200.982 165.427C201.121 165.37 201.275 165.345 201.429 165.353C201.583 165.362 201.733 165.403 201.862 165.474L212.936 170.855C213.244 171.023 213.484 171.265 213.628 171.548C213.771 171.832 213.811 172.145 213.741 172.448C213.736 172.581 213.689 172.711 213.604 172.824C213.519 172.938 213.401 173.03 213.26 173.092C213.119 173.154 212.961 173.183 212.802 173.177C212.644 173.172 212.49 173.13 212.356 173.058Z" fill="#D4ECFF"/>
<path d="M286.689 207.913L280.205 204.783C279.897 204.611 279.656 204.365 279.516 204.077C279.375 203.789 279.34 203.472 279.414 203.167C279.431 203.038 279.486 202.914 279.575 202.809C279.664 202.703 279.783 202.618 279.922 202.562C280.061 202.507 280.215 202.482 280.369 202.49C280.522 202.499 280.671 202.541 280.8 202.611L287.283 205.759C287.592 205.932 287.833 206.177 287.974 206.466C288.115 206.754 288.15 207.071 288.074 207.376C288.054 207.504 287.997 207.625 287.907 207.728C287.817 207.832 287.697 207.914 287.558 207.968C287.42 208.021 287.267 208.044 287.115 208.035C286.963 208.026 286.816 207.984 286.689 207.913Z" fill="#D4ECFF"/>
<path d="M291.35 189.531L278.978 183.522C278.669 183.349 278.429 183.103 278.288 182.815C278.147 182.527 278.112 182.21 278.187 181.905C278.203 181.776 278.258 181.652 278.347 181.547C278.436 181.441 278.556 181.356 278.695 181.3C278.834 181.245 278.988 181.22 279.141 181.228C279.295 181.237 279.443 181.279 279.572 181.349L291.93 187.371C292.239 187.543 292.48 187.789 292.621 188.077C292.762 188.366 292.797 188.683 292.721 188.988C292.701 189.114 292.645 189.234 292.556 189.336C292.467 189.439 292.348 189.521 292.212 189.575C292.075 189.629 291.925 189.654 291.774 189.646C291.624 189.638 291.478 189.599 291.35 189.531Z" fill="#D4ECFF"/>
<path d="M280.521 194.596L276.467 192.631C276.16 192.458 275.92 192.212 275.78 191.924C275.639 191.636 275.603 191.319 275.677 191.014C275.694 190.885 275.75 190.762 275.84 190.656C275.93 190.551 276.05 190.466 276.189 190.41C276.329 190.355 276.483 190.33 276.637 190.339C276.791 190.347 276.94 190.388 277.069 190.459L281.116 192.424C281.424 192.596 281.665 192.842 281.805 193.13C281.946 193.418 281.981 193.735 281.907 194.04C281.89 194.169 281.835 194.292 281.746 194.398C281.658 194.504 281.538 194.589 281.399 194.645C281.26 194.7 281.106 194.725 280.952 194.716C280.799 194.708 280.65 194.666 280.521 194.596Z" fill="#D4ECFF"/>
<path d="M276.556 202.997L273.96 201.729C273.65 201.556 273.41 201.311 273.269 201.022C273.128 200.734 273.093 200.417 273.169 200.112C273.185 199.983 273.24 199.859 273.329 199.754C273.418 199.648 273.538 199.563 273.677 199.507C273.816 199.452 273.97 199.427 274.123 199.435C274.277 199.444 274.425 199.486 274.554 199.557L277.158 200.819C277.466 200.992 277.705 201.238 277.846 201.526C277.987 201.814 278.023 202.131 277.949 202.436C277.932 202.566 277.877 202.69 277.788 202.796C277.698 202.902 277.578 202.988 277.439 203.044C277.299 203.1 277.145 203.126 276.99 203.118C276.836 203.109 276.686 203.068 276.556 202.997Z" fill="#D4ECFF"/>
<path d="M295.573 201.921L284.76 196.667C284.452 196.495 284.212 196.249 284.071 195.961C283.93 195.673 283.895 195.356 283.969 195.051C283.984 194.921 284.039 194.797 284.127 194.691C284.216 194.584 284.335 194.498 284.475 194.442C284.614 194.386 284.768 194.36 284.922 194.369C285.076 194.377 285.225 194.418 285.355 194.489L296.168 199.749C296.477 199.919 296.717 200.164 296.858 200.452C296.999 200.739 297.034 201.055 296.958 201.359C296.944 201.488 296.889 201.612 296.801 201.719C296.713 201.826 296.593 201.911 296.453 201.968C296.314 202.024 296.16 202.05 296.006 202.041C295.852 202.033 295.703 201.991 295.573 201.921Z" fill="#D4ECFF"/>
<path d="M296.557 197.241L277.701 188.09C277.392 187.917 277.152 187.671 277.01 187.383C276.868 187.095 276.831 186.778 276.903 186.473C276.92 186.344 276.976 186.22 277.066 186.115C277.156 186.009 277.276 185.925 277.415 185.869C277.555 185.813 277.709 185.789 277.863 185.797C278.017 185.806 278.165 185.847 278.295 185.917L297.151 195.069C297.46 195.241 297.701 195.487 297.843 195.775C297.985 196.063 298.022 196.38 297.949 196.686C297.932 196.815 297.876 196.938 297.786 197.044C297.696 197.149 297.576 197.234 297.436 197.29C297.297 197.345 297.143 197.37 296.989 197.361C296.835 197.353 296.686 197.312 296.557 197.241Z" fill="#D4ECFF"/>
<path d="M286.04 202.44L275.242 197.187C274.932 197.015 274.692 196.769 274.551 196.48C274.41 196.192 274.375 195.875 274.451 195.57C274.467 195.441 274.522 195.318 274.611 195.212C274.7 195.106 274.82 195.021 274.959 194.966C275.098 194.91 275.252 194.885 275.405 194.894C275.559 194.902 275.707 194.944 275.836 195.015L286.657 200.268C286.966 200.439 287.206 200.686 287.347 200.974C287.489 201.262 287.523 201.579 287.447 201.885C287.433 202.017 287.378 202.143 287.288 202.251C287.198 202.359 287.076 202.446 286.933 202.502C286.791 202.559 286.634 202.582 286.477 202.571C286.32 202.56 286.17 202.515 286.04 202.44Z" fill="#D4ECFF"/>
<path d="M285.735 212.605L272.732 206.291C272.423 206.118 272.182 205.873 272.041 205.584C271.901 205.296 271.866 204.979 271.942 204.674C271.958 204.545 272.013 204.421 272.102 204.316C272.191 204.21 272.31 204.125 272.449 204.069C272.588 204.014 272.742 203.989 272.896 203.997C273.049 204.006 273.198 204.048 273.327 204.119L286.33 210.433C286.639 210.605 286.879 210.852 287.02 211.14C287.16 211.428 287.196 211.745 287.121 212.05C287.105 212.179 287.049 212.302 286.961 212.408C286.872 212.514 286.752 212.598 286.613 212.654C286.474 212.71 286.32 212.735 286.167 212.726C286.013 212.717 285.865 212.676 285.735 212.605Z" fill="#D4ECFF"/>
<path d="M132.438 174.067C132.438 174.067 132.807 181.538 133.374 186.532C133.942 191.525 146.114 182.705 146.114 182.705V176.985L132.438 174.067Z" fill="#6614CF"/>
<path d="M138.916 267.059C139.1 267.514 142.248 271.327 145.404 272.28C146.329 272.609 147.313 272.744 148.294 272.676C148.436 272.66 148.572 272.611 148.693 272.534C148.814 272.457 148.915 272.355 148.991 272.233C149.066 272.112 149.112 271.975 149.127 271.834C149.142 271.692 149.124 271.549 149.075 271.415C147.993 268.521 145.826 266.156 143.03 264.816C137.685 262.154 138.916 267.059 138.916 267.059Z" fill="#173D7A"/>
<path d="M137.862 268.525C138.553 270.164 139.072 271.869 139.41 273.614C139.631 275.022 138.857 276.862 138.216 278.079C138.121 278.255 137.987 278.407 137.825 278.524C137.662 278.64 137.475 278.718 137.277 278.753C137.08 278.786 136.877 278.775 136.684 278.719C136.492 278.664 136.315 278.565 136.166 278.431C134.731 277.181 133.818 275.441 133.608 273.555C133.247 269.654 133.608 268.972 133.608 268.972L137.862 268.525Z" fill="#173D7A"/>
<path d="M130.276 221.305C130.031 224.761 130.031 228.231 130.276 231.688C130.689 237.136 132.156 262.631 132.428 268.761C132.428 268.761 132.296 270.617 135.908 270.228C139.52 269.839 139.233 267.757 139.233 267.757C139.233 267.757 144.305 267.684 144.468 264.714C144.63 261.744 149.628 229.18 149.628 217.477L130.276 221.305Z" fill="#FDD762"/>
<path d="M151.55 195.833L154.042 199.661L162.587 209.926C162.478 210.223 162.298 210.488 162.061 210.698C161.824 210.908 161.539 211.056 161.23 211.129C160.397 211.327 153.209 204.53 150.105 201.509C149.704 201.124 149.451 200.612 149.391 200.062C149.33 199.511 149.466 198.957 149.773 198.495L151.55 195.833Z" fill="#BF9D69"/>
<path d="M146.677 180.102C146.677 180.102 150.628 179.999 152.007 185.682C153.386 191.364 154.484 198.463 153.312 199.056C149.699 200.831 147.414 198.763 147.414 198.763L146.677 180.102Z" fill="#3D3D3D"/>
<path d="M147.872 180.344C147.195 180.068 146.445 180.026 145.741 180.227C142.372 181.165 129.699 184.883 127.635 186.657C125.224 188.703 131.247 200.23 131.174 203.984C131.1 207.739 130.665 212.212 130.325 216.31C129.986 220.409 129.537 222.66 132.913 224.376C136.29 226.092 142.048 226.202 146.353 222.91C150.659 219.618 149.884 217.41 149.708 215.034C149.531 212.659 148.042 202.43 148.174 199.541C149.234 198.705 150.129 197.681 150.814 196.52C151.941 194.613 149.951 191.101 149.125 188.82C148.3 186.54 149.597 183.93 149.339 182.074C149.285 181.677 149.118 181.304 148.858 180.997C148.599 180.691 148.256 180.464 147.872 180.344Z" fill="#3D3D3D"/>
<path d="M143.821 184.266C144.086 186.341 142.177 188.291 139.552 188.628C136.928 188.966 134.583 187.55 134.318 185.475C134.052 183.4 135.962 181.457 138.586 181.12C141.211 180.782 143.555 182.19 143.821 184.266Z" fill="white"/>
<path d="M142.472 184.441C142.664 185.908 141.3 187.315 139.42 187.557C137.54 187.799 135.866 186.824 135.675 185.306C135.483 183.788 136.854 182.432 138.727 182.19C140.6 181.948 142.28 182.96 142.472 184.441Z" fill="#9D6B5C"/>
<path d="M140.606 179.574C140.606 179.574 138.321 177.712 137.879 178.658C137.436 179.604 137.075 183.659 137.075 183.659L141.609 184.876L140.916 180.762C140.916 180.762 141.815 179.992 140.606 179.574Z" fill="#9D6B5C"/>
<path d="M147.696 175.123C147.617 176.454 147.144 177.731 146.336 178.794C145.527 179.858 144.42 180.659 143.154 181.096C141.887 181.533 140.519 181.587 139.222 181.25C137.926 180.914 136.758 180.203 135.868 179.206C134.977 178.21 134.404 176.973 134.22 175.653C134.037 174.332 134.251 172.987 134.836 171.788C135.421 170.589 136.351 169.589 137.507 168.915C138.664 168.241 139.995 167.924 141.333 168.003C142.221 168.054 143.09 168.279 143.891 168.665C144.691 169.051 145.407 169.59 145.998 170.251C146.589 170.912 147.043 171.683 147.334 172.519C147.626 173.355 147.749 174.24 147.696 175.123Z" fill="#FFC2B0"/>
<path d="M137.575 179.828C137.531 180.041 137.494 180.268 137.457 180.503C137.914 182.842 141.438 183.869 141.438 183.869L140.915 180.76C140.915 180.76 141.342 180.393 141.224 180.026C139.831 179.601 138.076 179.212 137.575 179.828Z" fill="#9D6B5C"/>
<path d="M147.696 175.123C147.617 176.454 147.144 177.731 146.336 178.794C145.527 179.858 144.42 180.659 143.154 181.096C141.887 181.533 140.519 181.587 139.222 181.25C137.926 180.914 136.758 180.203 135.868 179.206C134.977 178.21 134.404 176.973 134.22 175.653C134.037 174.332 134.251 172.987 134.836 171.788C135.421 170.589 136.351 169.589 137.507 168.915C138.664 168.241 139.995 167.924 141.333 168.003C142.221 168.054 143.09 168.279 143.891 168.665C144.691 169.051 145.407 169.59 145.998 170.251C146.589 170.912 147.043 171.683 147.334 172.519C147.626 173.355 147.749 174.24 147.696 175.123Z" fill="#9D6B5C"/>
<path d="M124.255 203.246L125.014 221.269L127.669 221.54L129.394 205.313L124.255 203.246Z" fill="#BF9D69"/>
<path d="M132.969 201.731C132.091 197.881 130.366 189.382 130.366 189.382L129.629 197.837C130.455 200.344 131.192 202.647 131.192 203.981C131.14 206.181 130.971 208.645 130.779 211.123C130.779 211.123 133.846 205.58 132.969 201.731Z" fill="#767676"/>
<path d="M128.149 186.3C128.149 186.3 126.026 187.107 124.832 193.582C123.637 200.056 122.731 206.538 124.832 207.374C126.933 208.21 128.761 208.841 129.388 207.103C130.015 205.365 130.442 197.02 130.523 194.014C130.604 191.008 130.715 186.879 128.149 186.3Z" fill="#3D3D3D"/>
<path d="M161.934 209.174C162.68 209.469 163.354 209.919 163.91 210.494C164.415 211.05 164.867 211.651 165.259 212.29C165.923 213.273 166.476 215.392 166.078 215.656C165.68 215.92 163.372 212.107 163.004 212.994C162.635 213.882 163.004 214.703 162.532 214.71C162.06 214.717 160.401 210.883 159.096 209.695C157.791 208.507 161.934 209.174 161.934 209.174Z" fill="#BF9D69"/>
<path d="M139.23 267.742C139.725 267.728 140.218 267.677 140.705 267.588L141.7 227.992L139.23 267.742Z" fill="#D8892B"/>
<path d="M135.393 246.34L133.985 244.508L119.159 235.972C118.898 235.783 118.686 235.536 118.537 235.251C118.389 234.966 118.309 234.651 118.304 234.33V222.231L117.464 221.153L118.26 220.691C118.345 220.636 118.445 220.607 118.547 220.607C118.649 220.607 118.749 220.636 118.835 220.691L135.644 230.4C135.907 230.585 136.122 230.83 136.272 231.114C136.422 231.398 136.502 231.714 136.506 232.035V245.189C136.53 245.329 136.513 245.472 136.457 245.603C136.401 245.733 136.308 245.844 136.189 245.922L135.393 246.34Z" fill="#807E82"/>
<path d="M125.145 239.411L124.091 238.81L118.311 228.83V222.231L117.464 221.153L118.26 220.691C118.345 220.636 118.445 220.607 118.547 220.607C118.649 220.607 118.749 220.636 118.835 220.691L135.644 230.4C135.923 230.576 136.144 230.831 136.278 231.133L125.145 239.411Z" fill="#807E82"/>
<path d="M117.84 221.644L117.464 221.153L118.26 220.691C118.345 220.636 118.445 220.607 118.547 220.607C118.649 220.607 118.749 220.636 118.835 220.691L119.137 220.86L117.84 221.644Z" fill="#807E82"/>
<path d="M135.8 230.508C136.208 230.87 136.459 231.375 136.5 231.916L134.864 232.855L134.075 231.498L135.8 230.508Z" fill="#807E82"/>
<path d="M134.857 230.858L118.041 221.179C117.562 220.907 117.163 221.201 117.163 221.831V234.979C117.168 235.299 117.248 235.615 117.398 235.899C117.548 236.183 117.763 236.428 118.026 236.614L134.857 246.293C135.329 246.564 135.712 246.293 135.72 245.64V232.493C135.716 232.172 135.636 231.856 135.486 231.572C135.336 231.288 135.121 231.043 134.857 230.858Z" fill="#61526C"/>
<path d="M125.044 221.122C124.718 222.957 124.518 224.811 124.446 226.673C124.557 228.022 125.294 230.243 125.832 230.199C126.37 230.156 125.832 224.781 126.813 225.316C127.794 225.851 127.882 226.783 128.287 226.445C128.693 226.108 127.55 221.525 127.838 219.538C128.125 217.551 125.044 221.122 125.044 221.122Z" fill="#BF9D69"/>
<path d="M143.547 175.302C146.939 176.504 147.602 175.771 147.639 175.735C147.639 175.529 147.69 175.324 147.705 175.111C147.746 174.388 147.668 173.662 147.477 172.963L138.63 171.782C139.843 173.453 141.569 174.689 143.547 175.302Z" fill="#AE908C"/>
<path d="M147.94 168.414C147.136 167.732 144.254 164.359 139.093 165.151C135.864 165.65 133.136 167.849 132.532 172.85C132.352 174.511 132.539 176.191 133.078 177.772C133.618 179.354 134.498 180.8 135.657 182.009C135.786 181.957 135.909 181.893 136.026 181.818C137.324 180.975 137.464 180.505 137.464 180.505L137.751 177.946C137.753 177.766 137.687 177.592 137.568 177.456C137.448 177.321 137.282 177.235 137.103 177.213C136.912 177.192 136.729 177.129 136.565 177.029C136.402 176.929 136.263 176.794 136.159 176.634C135.422 175.666 135.753 174.163 137.243 174.104C137.508 174.123 137.772 174.049 137.989 173.895C138.206 173.741 138.362 173.517 138.429 173.261C138.452 173.18 138.491 173.105 138.544 173.04C138.597 172.975 138.663 172.921 138.738 172.883C138.813 172.844 138.894 172.821 138.978 172.816C139.062 172.81 139.147 172.822 139.226 172.85C140.914 173.459 145.079 174.771 147.763 174.016C151.176 173.1 148.743 169.096 147.94 168.414Z" fill="#FFDC61"/>
<path d="M144.074 178.355L146.146 177.79C145.563 178.681 144.707 179.362 143.706 179.733C142.268 180.129 142.04 178.912 142.04 178.912L144.074 178.355Z" fill="white"/>
<path d="M128.562 226.31L126.792 225.305L127.456 226.383L128.348 226.706L128.562 226.31Z" fill="#807E82"/>
</svg>
