<svg width="118" height="23" viewBox="0 0 118 23" fill="none" xmlns="http://www.w3.org/2000/svg">
<path d="M8.95775 15.8387C11.6461 15.8387 13.8254 13.6594 13.8254 10.9711C13.8254 8.28282 11.6461 6.10352 8.95775 6.10352C6.26945 6.10352 4.09015 8.28282 4.09015 10.9711C4.09015 13.6594 6.26945 15.8387 8.95775 15.8387Z" fill="#D0D0D0"/>
<path d="M19.407 10.9714C19.4072 13.4023 18.5566 15.7567 17.0028 17.6263C16.8324 17.8346 16.7457 18.099 16.7598 18.3678C16.7739 18.6365 16.8876 18.8904 17.0789 19.0798C17.1866 19.1871 17.3155 19.2708 17.4573 19.3255C17.5991 19.3802 17.7508 19.4048 17.9027 19.3976C18.0545 19.3904 18.2032 19.3517 18.3393 19.2839C18.4754 19.2161 18.5958 19.1207 18.693 19.0038C20.5636 16.7401 21.5869 13.8953 21.5869 10.9587C21.5869 8.0221 20.5636 5.17731 18.693 2.91361C18.5958 2.79667 18.4754 2.70126 18.3393 2.63345C18.2032 2.56564 18.0545 2.52692 17.9027 2.51977C17.7508 2.51261 17.5991 2.53717 17.4573 2.59189C17.3155 2.6466 17.1866 2.73027 17.0789 2.83756C16.8882 3.02813 16.7749 3.2826 16.7608 3.55182C16.7468 3.82104 16.833 4.08592 17.0028 4.2953C18.5616 6.17029 19.4125 8.53307 19.407 10.9714Z" fill="#D0D0D0"/>
<path d="M15.5535 10.8155C15.5555 12.1916 15.1254 13.5335 14.3239 14.6521C14.1446 14.8939 14.0571 15.1916 14.0773 15.492C14.0974 15.7924 14.2238 16.0758 14.4338 16.2915C14.547 16.4046 14.6829 16.4923 14.8325 16.549C14.9821 16.6057 15.142 16.6301 15.3016 16.6205C15.4613 16.6109 15.6172 16.5676 15.7589 16.4934C15.9006 16.4192 16.0251 16.3159 16.1239 16.1901C17.2843 14.6369 17.9113 12.7501 17.9113 10.8113C17.9113 8.87245 17.2843 6.98562 16.1239 5.43239C16.0251 5.30664 15.9006 5.20327 15.7589 5.1291C15.6172 5.05492 15.4613 5.01161 15.3016 5.00203C15.142 4.99245 14.9821 5.01681 14.8325 5.07351C14.6829 5.13021 14.547 5.21796 14.4338 5.33097L14.3831 5.37745C14.1836 5.58095 14.0633 5.84899 14.044 6.1333C14.0246 6.41761 14.1074 6.6995 14.2775 6.92816C15.107 8.05442 15.5542 9.41669 15.5535 10.8155Z" fill="#D0D0D0"/>
<path d="M11.831 16.9036C10.8254 17.3932 9.71192 17.619 8.59509 17.5599C7.47826 17.5008 6.39481 17.1586 5.44657 16.5657C4.49833 15.9727 3.71645 15.1483 3.17441 14.17C2.63238 13.1918 2.348 12.0917 2.348 10.9734C2.348 9.85496 2.63238 8.75494 3.17441 7.77667C3.71645 6.79841 4.49833 5.97404 5.44657 5.38105C6.39481 4.78806 7.47826 4.44592 8.59509 4.3868C9.71192 4.32767 10.8254 4.55351 11.831 5.04307C12.0523 5.14877 12.3012 5.18278 12.5428 5.14036C12.7844 5.09795 13.0067 4.98123 13.1789 4.80645C13.3143 4.67024 13.4151 4.5035 13.4727 4.32026C13.5303 4.13702 13.5431 3.94262 13.51 3.75341C13.4768 3.5642 13.3988 3.3857 13.2824 3.23293C13.1659 3.08016 13.0145 2.95756 12.8408 2.87546C11.4731 2.22255 9.96225 1.92667 8.44924 2.01539C6.93623 2.10412 5.47034 2.57458 4.18827 3.38289C2.90619 4.19119 1.84971 5.31103 1.11734 6.63794C0.384973 7.96486 0.000576151 9.45563 0 10.9712C0.000762573 12.4886 0.385886 13.9811 1.11944 15.3094C1.85299 16.6377 2.91106 17.7585 4.19493 18.5674C5.4788 19.3762 6.94663 19.8466 8.46146 19.9347C9.97629 20.0228 11.4888 19.7257 12.8577 19.0712C13.0314 18.9891 13.1828 18.8665 13.2993 18.7138C13.4157 18.561 13.4937 18.3825 13.5269 18.1933C13.56 18.0041 13.5472 17.8097 13.4896 17.6264C13.432 17.4432 13.3312 17.2765 13.1958 17.1403C13.0224 16.9618 12.7969 16.8429 12.5518 16.8004C12.3066 16.7579 12.0543 16.794 11.831 16.9036Z" fill="#D0D0D0"/>
<path d="M30.0897 4.21818C30.0897 4.14126 30.0384 4.08998 29.9615 4.08998H28.9743C28.8974 4.08998 28.8461 4.14126 28.8461 4.21818V9.8718C28.8461 9.94872 28.8974 10 28.9615 10H29.9615C30.0384 10 30.0897 9.94872 30.0897 9.8718V4.21818ZM28.6154 2.00032C28.6154 2.51312 28.9615 2.84644 29.4615 2.84644C29.9743 2.84644 30.3076 2.51312 30.3076 2.00032C30.3076 1.50034 29.9743 1.16702 29.4615 1.16702C28.9615 1.16702 28.6154 1.50034 28.6154 2.00032ZM36.9296 8.88466C36.9681 8.83338 36.9553 8.75646 36.904 8.70518L36.2117 8.06418C36.1861 8.03854 36.1476 8.03854 36.122 8.03854C36.0707 8.03854 36.0322 8.05136 35.9938 8.10264C35.6989 8.5257 35.1861 8.89748 34.4041 8.89748C33.3016 8.89748 32.5708 8.15392 32.5708 7.0514C32.5708 5.94888 33.3016 5.21814 34.4041 5.21814C35.1092 5.21814 35.6605 5.52582 36.0066 6.03862C36.0451 6.0899 36.0835 6.11554 36.122 6.11554C36.1604 6.11554 36.1861 6.10272 36.2117 6.07708L36.9681 5.46172C37.0194 5.41044 37.0322 5.33352 36.9809 5.28224C36.3912 4.38484 35.4553 3.96178 34.3913 3.96178C32.8657 3.9746 31.3401 5.0002 31.3401 7.0514C31.3401 8.88466 32.5708 10.141 34.4041 10.141C35.5323 10.141 36.404 9.6795 36.9296 8.88466ZM37.8127 7.03858C37.8127 8.87184 39.0434 10.1282 40.8767 10.1282C42.7228 10.1282 43.9535 8.87184 43.9535 7.03858C43.9535 5.20532 42.7228 3.94896 40.8767 3.94896C39.0434 3.94896 37.8127 5.20532 37.8127 7.03858ZM39.0562 7.03858C39.0562 5.93606 39.787 5.1925 40.8767 5.1925C41.9792 5.1925 42.7099 5.93606 42.7099 7.03858C42.7099 8.1411 41.9792 8.88466 40.8767 8.88466C39.787 8.88466 39.0562 8.1411 39.0562 7.03858ZM47.7728 10.1282C48.6831 10.1282 49.3882 9.75642 49.824 9.1026L50.0163 9.88462C50.0292 9.94872 50.0804 10 50.1574 10H50.8625C50.9394 10 50.9907 9.96154 50.9907 9.8718V0.859339C50.9907 0.78242 50.9394 0.743959 50.8625 0.743959H49.8625C49.7984 0.743959 49.7343 0.78242 49.7343 0.859339V4.91046C49.3112 4.32074 48.6446 3.9746 47.7728 3.9746C45.9909 3.9746 44.7986 5.21814 44.7986 7.0514C44.7986 8.88466 45.9909 10.1282 47.7728 10.1282ZM49.7343 7.0514C49.7343 8.16674 48.9523 8.89748 47.8626 8.89748C46.7729 8.89748 46.0421 8.1411 46.0421 7.0514C46.0421 5.94888 46.7729 5.20532 47.8626 5.20532C48.9651 5.20532 49.7343 5.94888 49.7343 7.0514ZM53.5175 6.58988C53.6713 5.73094 54.3123 5.16686 55.2867 5.16686C56.2482 5.16686 56.8892 5.73094 57.043 6.58988H53.5175ZM53.5303 7.55138H58.2096C58.2994 7.55138 58.3378 7.52574 58.3378 7.436C58.3506 5.1284 57.1584 3.9746 55.2867 3.9746C53.4534 3.9746 52.2227 5.21814 52.2227 7.0514C52.2227 8.88466 53.4919 10.1282 55.3764 10.1282C56.3892 10.1282 57.2225 9.83334 57.7609 9.24362C57.8122 9.19234 57.8122 9.11542 57.7609 9.06414L57.1199 8.41032C57.0943 8.38468 57.0558 8.37186 57.0174 8.37186C56.9789 8.37186 56.9404 8.38468 56.902 8.42314C56.5815 8.73082 56.0687 8.94876 55.4277 8.94876C54.4021 8.94876 53.7098 8.3975 53.5303 7.55138ZM33.4357 14.9874C32.9998 14.3464 32.3075 13.9746 31.3973 13.9746C29.6153 13.9874 28.4231 15.2181 28.4231 17.0514C28.4231 18.8847 29.6153 20.141 31.3973 20.1282C32.3075 20.1282 32.9998 19.7564 33.4357 19.1154L33.6023 19.8846C33.628 19.9487 33.6664 20 33.7434 20H34.5382C34.6151 20 34.6664 19.9487 34.6664 19.8718V14.2182C34.6664 14.1413 34.6151 14.09 34.551 14.09H33.7562C33.6793 14.09 33.6408 14.1413 33.6152 14.2054L33.4357 14.9874ZM29.6538 17.0514C29.6538 15.9489 30.3845 15.2181 31.487 15.2181C32.5896 15.2181 33.3331 15.9489 33.3588 17.0514C33.3331 18.1667 32.5896 18.8975 31.487 18.8975C30.3973 18.8975 29.6538 18.1411 29.6538 17.0514ZM41.4867 18.8847C41.5252 18.8334 41.5124 18.7565 41.4611 18.7052L40.7688 18.0642C40.7432 18.0385 40.7047 18.0385 40.6791 18.0385C40.6278 18.0385 40.5893 18.0514 40.5509 18.1026C40.256 18.5257 39.7432 18.8975 38.9612 18.8975C37.8587 18.8975 37.1279 18.1539 37.1279 17.0514C37.1279 15.9489 37.8587 15.2181 38.9612 15.2181C39.6663 15.2181 40.2176 15.5258 40.5637 16.0386C40.6022 16.0899 40.6406 16.1155 40.6791 16.1155C40.7175 16.1155 40.7432 16.1027 40.7688 16.0771L41.5252 15.4617C41.5765 15.4104 41.5893 15.3335 41.538 15.2822C40.9483 14.3848 40.0124 13.9618 38.9484 13.9618C37.4228 13.9746 35.8972 15.0002 35.8972 17.0514C35.8972 18.8847 37.1279 20.141 38.9612 20.141C40.0894 20.141 40.9611 19.6795 41.4867 18.8847ZM47.3824 14.9874C46.9466 14.3464 46.2543 13.9746 45.3441 13.9746C43.5621 13.9874 42.3698 15.2181 42.3698 17.0514C42.3698 18.8847 43.5621 20.141 45.3441 20.1282C46.2543 20.1282 46.9466 19.7564 47.3824 19.1154L47.5491 19.8846C47.5747 19.9487 47.6132 20 47.6901 20H48.485C48.5619 20 48.6132 19.9487 48.6132 19.8718V14.2182C48.6132 14.1413 48.5619 14.09 48.4978 14.09H47.7029C47.626 14.09 47.5876 14.1413 47.5619 14.2054L47.3824 14.9874ZM43.6005 17.0514C43.6005 15.9489 44.3313 15.2181 45.4338 15.2181C46.5363 15.2181 47.2799 15.9489 47.3055 17.0514C47.2799 18.1667 46.5363 18.8975 45.4338 18.8975C44.3441 18.8975 43.6005 18.1411 43.6005 17.0514ZM52.8182 20.1282C53.7284 20.1282 54.4335 19.7564 54.8694 19.1026L55.0617 19.8846C55.0745 19.9487 55.1258 20 55.2027 20H55.9078C55.9848 20 56.036 19.9615 56.036 19.8718V10.8593C56.036 10.7824 55.9848 10.744 55.9078 10.744H54.9079C54.8438 10.744 54.7797 10.7824 54.7797 10.8593V14.9105C54.3566 14.3207 53.69 13.9746 52.8182 13.9746C51.0362 13.9746 49.844 15.2181 49.844 17.0514C49.844 18.8847 51.0362 20.1282 52.8182 20.1282ZM54.7797 17.0514C54.7797 18.1667 53.9977 18.8975 52.908 18.8975C51.8183 18.8975 51.0875 18.1411 51.0875 17.0514C51.0875 15.9489 51.8183 15.2053 52.908 15.2053C54.0105 15.2053 54.7797 15.9489 54.7797 17.0514ZM58.5629 16.5899C58.7167 15.7309 59.3577 15.1669 60.332 15.1669C61.2935 15.1669 61.9345 15.7309 62.0884 16.5899H58.5629ZM58.5757 17.5514H63.255C63.3447 17.5514 63.3832 17.5257 63.3832 17.436C63.396 15.1284 62.2038 13.9746 60.332 13.9746C58.4988 13.9746 57.2681 15.2181 57.2681 17.0514C57.2681 18.8847 58.5372 20.1282 60.4218 20.1282C61.4346 20.1282 62.2679 19.8333 62.8063 19.2436C62.8576 19.1923 62.8576 19.1154 62.8063 19.0641L62.1653 18.4103C62.1397 18.3847 62.1012 18.3719 62.0627 18.3719C62.0243 18.3719 61.9858 18.3847 61.9474 18.4231C61.6269 18.7308 61.1141 18.9488 60.4731 18.9488C59.4475 18.9488 58.7552 18.3975 58.5757 17.5514ZM64.7417 14.09C64.6648 14.09 64.6135 14.1413 64.6135 14.2182V19.8718C64.6135 19.9487 64.6648 20 64.7417 20H65.7417C65.8186 20 65.8699 19.9487 65.8699 19.8718V17.1155C65.8955 16.2694 66.2801 15.2053 67.2929 15.2053C68.0108 15.2053 68.4595 15.6797 68.4595 16.7694V19.8718C68.4595 19.9487 68.5108 20 68.5877 20H69.5749C69.6518 20 69.7031 19.9487 69.7031 19.8718V17.2309C69.7159 15.9104 70.2928 15.2053 71.1133 15.2053C71.844 15.2053 72.2927 15.6668 72.2927 16.7694V19.8718C72.2927 19.9487 72.344 20 72.4209 20H73.4209C73.4978 20 73.5491 19.9487 73.5491 19.8718L73.5362 16.5899C73.5491 14.8592 72.6773 13.9618 71.4209 13.949C70.4979 13.949 69.8184 14.4233 69.4338 15.154C69.0877 14.3592 68.4211 13.9618 67.5749 13.949C66.7416 13.949 66.1519 14.3464 65.8058 14.9617L65.6648 14.2182C65.6519 14.1541 65.5878 14.09 65.5109 14.09H64.7417ZM80.2457 14.1028H79.1816C79.1047 14.1028 79.0406 14.1413 79.015 14.2054L77.3227 18.436L75.7459 14.2054C75.7202 14.1413 75.6561 14.1028 75.5792 14.1028H74.4895C74.3998 14.1028 74.3485 14.1669 74.387 14.2695L76.7074 19.9615L75.592 22.7563C75.5536 22.8589 75.6049 22.923 75.7074 22.923H76.7202C76.7971 22.923 76.874 22.8717 76.8997 22.8076L80.3611 14.2695C80.3995 14.1669 80.3483 14.1028 80.2457 14.1028Z" fill="#D0D0D0"/>
</svg>
