<svg width="90" height="89" viewBox="0 0 90 89" fill="none" xmlns="http://www.w3.org/2000/svg">
<path d="M67.2064 74.2986H55.0332V3.14558C55.0332 2.17631 55.8277 1.39026 56.8082 1.39026H67.2068C68.3659 1.39026 69.3056 2.31954 69.3056 3.46577V72.2231C69.3052 73.3694 68.3655 74.2986 67.2064 74.2986Z" fill="#44C7B6"/>
<path d="M62.0811 1.39172C61.1002 1.39172 60.3057 2.17743 60.3057 3.14391V74.2987H55.0322V3.14391C55.0322 2.17743 55.8268 1.39172 56.8076 1.39172H62.0811Z" fill="#4BDBC3"/>
<path d="M69.3059 3.46723V72.2232C69.3059 73.3705 68.3672 74.2987 67.207 74.2987H61.9336C63.0937 74.2987 64.0324 73.3705 64.0324 72.2232V3.46723C64.0324 2.31997 63.0937 1.39172 61.9336 1.39172H67.207C68.3672 1.39172 69.3059 2.31997 69.3059 3.46723Z" fill="#3BB2A0"/>
<path d="M53.7678 57.6671H21.3172C20.6379 57.6671 20.0874 57.1227 20.0874 56.451V8.10526C20.0874 7.43359 20.6379 6.88916 21.3172 6.88916H53.7678C54.447 6.88916 54.9976 7.43359 54.9976 8.10526V56.4514C54.9976 57.1227 54.447 57.6671 53.7678 57.6671Z" fill="#5FCDFF"/>
<path d="M26.5908 57.6669H21.3174C20.6389 57.6669 20.0869 57.1245 20.0869 56.4501V8.10498C20.0869 7.434 20.6389 6.88818 21.3174 6.88818H26.5908C25.9123 6.88818 25.3604 7.434 25.3604 8.10498V56.4501C25.3604 57.1245 25.9123 57.6669 26.5908 57.6669Z" fill="#73D7F9"/>
<path d="M36.8216 12.2174C37.106 11.6963 37.8615 11.6949 38.1484 12.2146L39.542 14.7414L41.6014 18.4756L37.498 18.485L33.3945 18.4943L35.4385 14.7508L36.8216 12.2174Z" fill="#FF4A73"/>
<path d="M33.4756 57.8667L41.6825 57.8479V18.4755L33.4756 18.4942V57.8667Z" fill="#EA2A6A"/>
<path d="M54.9971 8.10498V56.4501C54.9971 57.1245 54.4451 57.6669 53.7666 57.6669H48.4932C49.1717 57.6669 49.7236 57.1245 49.7236 56.4501V8.10498C49.7236 7.434 49.1717 6.88818 48.4932 6.88818H53.7666C54.4451 6.88818 54.9971 7.434 54.9971 8.10498Z" fill="#30B6FF"/>
<path d="M66.0713 86.847H23.3213C19.4379 86.847 16.29 83.7341 16.29 79.8939V29.8314H73.1025V79.8939C73.1025 83.7338 69.9547 86.847 66.0713 86.847Z" fill="#FFBB98"/>
<path d="M87.433 41.3687L75.2735 30.0515C75.1216 29.91 74.9205 29.8314 74.712 29.8314H73.2207V39.0443L85.0634 49.4079C86.1979 50.4008 87.9863 49.6044 87.9863 48.1063V42.6349C87.986 42.1551 87.7859 41.6973 87.433 41.3687Z" fill="#FFBB98"/>
<path d="M14.6807 29.8314C14.4719 29.8314 14.2711 29.9103 14.1192 30.0515L1.95975 41.3687C1.60678 41.6973 1.40674 42.1551 1.40674 42.6345V48.1059C1.40674 49.604 3.19514 50.4005 4.32963 49.4076L16.2933 38.9542L16.3081 29.8311H14.6807V29.8314Z" fill="#FFBB98"/>
<path d="M28.5947 86.8456H23.3213C19.4365 86.8456 16.29 83.734 16.29 79.8924V29.83H21.5635V79.8924C21.5635 83.734 24.71 86.8456 28.5947 86.8456Z" fill="#FFCAA6"/>
<path d="M73.1025 29.83V79.8924C73.1025 83.734 69.9561 86.8456 66.0713 86.8456H60.7979C64.6826 86.8456 67.8291 83.734 67.8291 79.8924V29.83H73.1025Z" fill="#FFAA80"/>
<path d="M53.6846 81.6778H64.2786C65.8293 81.6778 67.0911 80.43 67.0911 78.8965V75.2809C67.0911 74.5129 66.4614 73.8903 65.6848 73.8903C64.9082 73.8903 64.2786 74.5129 64.2786 75.2809V78.8965H53.6846C52.908 78.8965 52.2783 79.5192 52.2783 80.2871C52.2783 81.0551 52.908 81.6778 53.6846 81.6778Z" fill="#5F266D"/>
<path d="M46.0908 81.7705H48.9033C49.6799 81.7705 50.3096 81.1479 50.3096 80.3799C50.3096 79.6119 49.6799 78.9893 48.9033 78.9893H46.0908C45.3142 78.9893 44.6846 79.6119 44.6846 80.3799C44.6846 81.1479 45.3142 81.7705 46.0908 81.7705Z" fill="#5F266D"/>
<path d="M88.3969 40.3552L76.237 29.038C75.8225 28.6528 75.2811 28.44 74.7119 28.44C74.3207 28.44 71.1067 28.44 70.7119 28.44V3.46648C70.7119 1.55507 69.1393 0 67.2068 0H56.8076C55.0533 0 53.6259 1.41009 53.6259 3.14281V5.49679H21.3173C19.8633 5.49679 18.6806 6.66631 18.6806 8.10421V28.44C16.6219 28.44 16.6859 28.44 14.6805 28.44C14.1114 28.44 13.57 28.6524 13.1555 29.038L0.995273 40.3556C0.362812 40.9445 0 41.7751 0 42.6338V48.1055C0 49.3529 0.714375 50.446 1.86469 50.9584C2.99953 51.4632 4.30312 51.2869 5.26078 50.4484L14.8837 42.0275V79.8931C14.8837 84.4937 18.669 88.2369 23.3212 88.2369H66.0712C70.7235 88.2369 74.5087 84.4937 74.5087 79.8931V42.0275L84.1314 50.4484C86.1757 52.2371 89.3925 50.7999 89.3925 48.1055V42.6338C89.3925 41.7751 89.0297 40.9445 88.3969 40.3552ZM14.8837 38.3142L3.3968 48.3659C3.16758 48.5662 2.8125 48.408 2.8125 48.1055V42.6338C2.8125 42.5385 2.85293 42.446 2.92289 42.3807L14.8837 31.2487V38.3142ZM56.4384 3.14316C56.4384 2.94395 56.604 2.7816 56.8076 2.7816H67.2068C67.5886 2.7816 67.8994 3.08893 67.8994 3.46683V5.94388H65.5446C64.768 5.94388 64.1384 6.56653 64.1384 7.3345C64.1384 8.10248 64.768 8.72513 65.5446 8.72513H67.8994V11.4786H66.7452C65.9686 11.4786 65.3389 12.1012 65.3389 12.8692C65.3389 13.6372 65.9686 14.2598 66.7452 14.2598H67.8994V17.0133H66.7452C65.9686 17.0133 65.3389 17.6359 65.3389 18.4039C65.3389 19.1719 65.9686 19.7945 66.7452 19.7945H67.8994V22.5479H66.7452C65.9686 22.5479 65.3389 23.1706 65.3389 23.9386C65.3389 24.7065 65.9686 25.3292 66.7452 25.3292H67.8994V28.4404H56.4384V3.14316ZM21.4931 8.27804H53.5908V28.44H43.0896V18.5002C43.0896 18.4991 43.0896 18.4984 43.0896 18.4974C43.0896 18.2387 43.021 17.9957 42.9184 17.809L39.4653 11.5481C38.6441 10.0594 36.4809 10.0653 35.6667 11.5561L32.2397 17.833C32.1268 18.0399 32.0685 18.2916 32.0685 18.4922V28.44H21.4931V8.27804ZM40.2771 19.8686V28.4404H34.8806V19.8811L40.2771 19.8686ZM35.8376 17.0967L37.5708 13.9219L39.3177 17.0894L35.8376 17.0967ZM71.6962 79.8931C71.6962 82.9602 69.1727 85.4556 66.0712 85.4556H23.3212C20.2198 85.4556 17.6962 82.9602 17.6962 79.8931V31.2213H71.6962V79.8931ZM86.58 48.1055C86.58 48.407 86.2253 48.5662 85.9953 48.3659L74.5087 38.3142V31.2487L86.4689 42.3803C86.5392 42.4457 86.5796 42.5382 86.5796 42.6338V48.1055H86.58Z" fill="#5F266D"/>
</svg>
