<svg width="20" height="26" viewBox="0 0 20 26" fill="none" xmlns="http://www.w3.org/2000/svg">
<path d="M9.84312 0C4.41558 0 0 4.47124 0 9.96712C0 12.2299 0.733004 14.3644 2.12119 16.1418L9.84312 25.9728L17.5665 16.14C18.9532 14.3644 19.6862 12.2299 19.6862 9.96712C19.6862 4.47124 15.2706 0 9.84312 0ZM16.2926 15.117L9.84312 23.328L3.39502 15.1188C2.23765 13.6368 1.62583 11.8555 1.62583 9.96712C1.62589 5.37905 5.3121 1.64638 9.84312 1.64638C14.3741 1.64638 18.0604 5.37905 18.0604 9.96712C18.0604 11.8555 17.4486 13.6369 16.2926 15.117Z" fill="white"/>
<path d="M9.84304 5.72931C7.60175 5.72931 5.77832 7.5757 5.77832 9.84521C5.77832 12.1147 7.60175 13.9611 9.84304 13.9611C12.0843 13.9611 13.9078 12.1147 13.9078 9.84521C13.9078 7.5757 12.0843 5.72931 9.84304 5.72931ZM9.84304 12.3148C8.49827 12.3148 7.40421 11.2069 7.40421 9.84521C7.40421 8.48351 8.49827 7.37567 9.84304 7.37567C11.1878 7.37567 12.2819 8.48351 12.2819 9.84521C12.2819 11.2069 11.1878 12.3148 9.84304 12.3148Z" fill="white"/>
</svg>
