<svg width="66" height="24" viewBox="0 0 66 24" fill="none" xmlns="http://www.w3.org/2000/svg">
<path d="M65.9227 6.96019H61.4998V23.5569H65.9227V6.96019Z" fill="#0F79D1"/>
<path d="M45.4455 6.96019H41.0095V23.5569H45.4455V6.96019Z" fill="#0F79D1"/>
<path d="M55.6901 6.96019H51.2542V23.5569H55.6901V6.96019Z" fill="#0F79D1"/>
<path d="M18.2872 19.1644V23.5351H0.669434V19.1818H6.19154V19.1644H18.2872Z" fill="#0F79D1"/>
<path d="M17.8136 9.71913V13.8553H6.19154V13.8466H0.669434V9.72347H5.07061V9.71913H17.8136Z" fill="#0F79D1"/>
<path d="M65.9224 0H0.669434V4.30559H65.9224V0Z" fill="#0F79D1"/>
<path d="M32.6724 6.9603H37.5819V7.08195L32.1337 15.1196L37.9165 23.4223V23.5223H33.0113L29.4139 17.9741L25.8121 23.5223H20.907V23.4223L26.6898 15.1196L21.2415 7.08195V6.94727H26.151L29.4139 12.565L32.6724 6.9603Z" fill="#4C4C4C"/>
</svg>
