<svg width="158" height="120" viewBox="0 0 158 120" fill="none" xmlns="http://www.w3.org/2000/svg">
<path d="M89.8861 16.5891C80.2486 16.254 71.0697 13.1433 62.3048 9.73918C53.5399 6.33507 44.8583 2.56315 35.4457 0.759831C29.4014 -0.400187 22.4815 -0.563989 17.6061 2.67781C12.9154 5.80494 11.3995 11.1881 10.5849 16.187C9.97142 19.95 9.61105 23.9081 11.2908 27.4298C12.4582 29.875 14.5281 31.9299 15.9606 34.2798C20.9447 42.4282 17.4214 52.4767 12.0219 60.433C9.49044 64.1647 6.54944 67.7297 4.59423 71.6997C2.63903 75.6696 1.73514 80.2248 3.44613 84.2767C5.14074 88.2973 9.1807 91.3113 13.5572 93.4347C22.4457 97.7442 32.9157 98.9787 43.1325 99.6771C65.7417 101.224 88.47 100.554 111.139 99.8841C119.528 99.6354 127.954 99.3838 136.206 98.0867C140.79 97.366 145.521 96.2224 148.848 93.4705C153.072 89.9666 154.119 84.0325 151.288 79.6396C146.541 72.27 133.419 70.4384 130.097 62.5297C128.271 58.177 130.146 53.327 132.801 49.29C138.495 40.6278 148.039 33.0304 148.541 23.1293C148.886 16.33 144.298 9.52028 137.204 6.30231C129.769 2.92947 119.457 3.35386 113.974 8.93655C108.323 14.6726 98.3964 16.8839 89.8861 16.5891Z" fill="white" fill-opacity="0.1"/>
<path fill-rule="evenodd" clip-rule="evenodd" d="M101.112 37.3779C101.112 37.1896 100.96 37.0369 100.771 37.0369H100.134C99.9457 37.0369 99.793 37.1896 99.793 37.3779V47.5694C99.793 47.7576 99.9457 47.9104 100.134 47.9104H100.771C100.96 47.9104 101.112 47.7576 101.112 47.5694V37.3779Z" fill="#3A3768"/>
<path fill-rule="evenodd" clip-rule="evenodd" d="M56.7193 28.8698C56.7193 28.6816 56.5666 28.5288 56.3783 28.5288H56.3203C56.132 28.5288 55.9792 28.6816 55.9792 28.8698V31.7676C55.9792 31.9559 56.132 32.1086 56.3203 32.1086H56.3783C56.5666 32.1086 56.7193 31.9559 56.7193 31.7676V28.8698Z" fill="#3A3768"/>
<path fill-rule="evenodd" clip-rule="evenodd" d="M56.7362 35.415C56.7362 35.2268 56.5835 35.074 56.3952 35.074H56.2434C56.0551 35.074 55.9023 35.2268 55.9023 35.415V40.9634C55.9023 41.1516 56.0551 41.3044 56.2434 41.3044H56.3952C56.5835 41.3044 56.7362 41.1516 56.7362 40.9634V35.415Z" fill="#3A3768"/>
<path fill-rule="evenodd" clip-rule="evenodd" d="M56.7729 43.8461C56.7729 43.6579 56.6202 43.5051 56.4319 43.5051H56.3203C56.132 43.5051 55.9792 43.6579 55.9792 43.8461V49.4482C55.9792 49.6364 56.132 49.7892 56.3203 49.7892H56.4319C56.6202 49.7892 56.7729 49.6364 56.7729 49.4482V43.8461Z" fill="#3A3768"/>
<path fill-rule="evenodd" clip-rule="evenodd" d="M100.501 22.5155C100.501 19.311 97.8993 16.7094 94.6949 16.7094H62.1697C58.9653 16.7094 56.3636 19.311 56.3636 22.5155V100.606C56.3636 103.81 58.9653 106.412 62.1697 106.412H94.6949C97.8993 106.412 100.501 103.81 100.501 100.606V22.5155Z" fill="#3A3768"/>
<path fill-rule="evenodd" clip-rule="evenodd" d="M80.3911 19.9416C80.3911 19.6235 80.1329 19.3653 79.8148 19.3653H74.8039C74.4859 19.3653 74.2277 19.6235 74.2277 19.9416V20.0399C74.2277 20.3579 74.4859 20.6162 74.8039 20.6162H79.8148C80.1329 20.6162 80.3911 20.3579 80.3911 20.0399V19.9416Z" fill="#E6E8EC"/>
<path d="M82.0223 20.7091C82.4146 20.7091 82.7326 20.3911 82.7326 19.9988C82.7326 19.6065 82.4146 19.2885 82.0223 19.2885C81.63 19.2885 81.312 19.6065 81.312 19.9988C81.312 20.3911 81.63 20.7091 82.0223 20.7091Z" fill="#E6E8EC"/>
<path d="M29.7778 111.483C46.2236 111.483 59.5555 110.124 59.5555 108.448C59.5555 106.772 46.2236 105.413 29.7778 105.413C13.332 105.413 0 106.772 0 108.448C0 110.124 13.332 111.483 29.7778 111.483Z" fill="#0F79D1" fill-opacity="0.1"/>
<path d="M95.956 120C103.66 120 109.906 119.363 109.906 118.578C109.906 117.793 103.66 117.156 95.956 117.156C88.2516 117.156 82.006 117.793 82.006 118.578C82.006 119.363 88.2516 120 95.956 120Z" fill="#0F79D1" fill-opacity="0.1"/>
<path d="M143.618 112.84C151.323 112.84 157.568 112.203 157.568 111.418C157.568 110.632 151.323 109.995 143.618 109.995C135.914 109.995 129.668 110.632 129.668 111.418C129.668 112.203 135.914 112.84 143.618 112.84Z" fill="#0F79D1" fill-opacity="0.1"/>
<path d="M94.3103 19.0192H89.2622V19.6282C89.2622 21.2114 87.9595 22.5141 86.3763 22.5141H70.2671C68.6839 22.5141 67.3812 21.2114 67.3812 19.6282V19.0192H62.6399C60.7177 19.0192 59.136 20.6009 59.136 22.523C59.136 22.5235 59.136 22.5241 59.136 22.5245V100.544C59.136 100.544 59.136 100.545 59.136 100.545C59.136 102.467 60.7177 104.049 62.6399 104.049H94.3103C96.2333 104.049 97.8157 102.467 97.8157 100.544V22.5245C97.8157 20.6015 96.2333 19.0192 94.3103 19.0192Z" fill="#E6E6E6"/>
<path d="M118.048 86.8948C118.16 87.0579 118.249 87.2359 118.312 87.4235C120.568 90.0741 121.769 92.549 119.6 92.6101C117.58 92.6681 115.156 96.2807 114.577 97.1921C114.595 97.2629 114.618 97.3326 114.645 97.4005C114.673 97.4684 117.487 92.6771 119.799 92.6101C122.112 92.543 120.591 89.7361 118.048 86.8948Z" fill="black" fill-opacity="0.1"/>
<path d="M120.419 89.0464C120.419 89.642 120.352 90.12 120.27 90.12C120.188 90.12 120.121 89.639 120.121 89.0464C120.121 88.4537 120.205 88.7337 120.287 88.7337C120.368 88.7337 120.419 88.4507 120.419 89.0464Z" fill="#FFD037"/>
<path d="M121.215 89.7665C120.694 90.0495 120.241 90.2222 120.201 90.1493C120.161 90.0763 120.553 89.7889 121.074 89.5045C121.595 89.2201 121.388 89.4285 121.428 89.5045C121.468 89.5804 121.736 89.4821 121.215 89.7665Z" fill="#FFD037"/>
<path d="M108.802 89.0464C108.802 89.642 108.869 90.12 108.951 90.12C109.033 90.12 109.1 89.639 109.1 89.0464C109.1 88.4537 109.016 88.7337 108.934 88.7337C108.852 88.7337 108.802 88.4507 108.802 89.0464Z" fill="#FFD037"/>
<path d="M107.961 89.7665C108.481 90.0495 108.935 90.2222 108.974 90.1493C109.012 90.0763 108.624 89.7889 108.102 89.5045C107.581 89.2201 107.787 89.4285 107.748 89.5045C107.709 89.5804 107.446 89.4821 107.961 89.7665Z" fill="#FFD037"/>
<path d="M93.0082 72.6501H81.3887V84.2696H93.0082V72.6501Z" fill="#3A3768" fill-opacity="0.3"/>
<path d="M75.8385 57.3268H64.219V68.9464H75.8385V57.3268Z" fill="#3A3768" fill-opacity="0.3"/>
<path d="M76.992 87.7417H65.3724V99.3612H76.992V87.7417Z" fill="#3A3768" fill-opacity="0.3"/>
<path d="M74.3753 28.7981H62.7557V40.4176H74.3753V28.7981Z" fill="white"/>
<path d="M70.8682 32.5709L70.4557 32.9819C70.7291 33.2547 70.8828 33.6255 70.8828 34.0116C70.8828 34.3978 70.7291 34.7686 70.4557 35.0414L70.8682 35.4553C71.659 34.664 71.659 33.3622 70.8682 32.5709Z" fill="#0F79D1"/>
<path d="M71.6873 31.7944L71.2808 32.2009C72.2828 33.2045 72.2828 34.8545 71.2808 35.8581L71.6873 36.2647C72.9121 35.0391 72.9121 33.0229 71.6873 31.7973V31.7944ZM69.7515 33.3162V31.4548H69.1782L67.4627 32.8844H65.1755L64.6036 33.1703V35.1731L65.1755 35.4591L66.611 37.7478H67.4687L66.9326 35.4591H67.4687L69.1841 36.6042H69.7575V34.7428C70.0898 34.6679 70.3279 34.3702 70.3279 34.0295C70.3279 33.6888 70.0898 33.3911 69.7575 33.3162H69.7515Z" fill="#0F79D1"/>
<path d="M90.6989 68.4732L82.0829 76.2693L89.8789 84.8853L98.4949 77.0892L90.6989 68.4732Z" fill="white"/>
<path d="M86.8566 75.0754L87.6994 74.31L92.3156 79.3983L91.4669 80.1667L86.8566 75.0754ZM88.8475 79.8406L89.6963 79.0737L91.0365 80.5628L90.1877 81.3297L88.8475 79.8406ZM90.6255 76.6896L91.4743 75.9212L93.5844 78.2547L92.7371 79.0216L90.6255 76.6896ZM90.7461 74.2653L91.5949 73.4969L94.8576 77.1021L94.0088 77.8705L90.7461 74.2653Z" fill="#0F79D1"/>
<path d="M92.7779 42.7736H81.1583V54.3931H92.7779V42.7736Z" fill="white"/>
<path d="M89.2168 47.1963L87.6577 49.5789C87.7834 49.7315 87.8519 49.9233 87.8513 50.1209C87.8322 50.5783 87.4507 50.9444 86.9928 50.9444C86.5349 50.9444 86.1534 50.5783 86.1344 50.1209C86.1348 50.0674 86.1399 50.0141 86.1493 49.9616L85.1188 49.3659C84.8455 49.6267 84.4311 49.6788 84.1017 49.494L83.0057 50.52V51.543C83.0065 51.9617 83.3509 52.3062 83.7697 52.3069H90.2532C90.6717 52.3053 91.0155 51.9614 91.0172 51.543V47.7428L89.9748 47.0474C89.825 47.1652 89.6397 47.2292 89.4491 47.229C89.3726 47.2286 89.2965 47.218 89.2228 47.1978L89.2168 47.1963Z" fill="#0F79D1"/>
<path d="M84.5246 47.8787C84.5251 47.8787 84.5257 47.8787 84.5261 47.8787C84.9967 47.8787 85.3838 48.2658 85.3838 48.7364C85.3838 48.7736 85.3838 48.8123 85.3764 48.8481L86.4515 49.4437C86.6043 49.3174 86.7969 49.2488 86.9951 49.2501C87.0572 49.2501 87.1191 49.2571 87.1797 49.271L88.7433 46.8497C88.6405 46.7048 88.5854 46.5315 88.5854 46.3538C88.5854 45.8833 88.9726 45.4961 89.4432 45.4961C89.9131 45.4961 90.3 45.8824 90.3009 46.3523C90.3007 46.4205 90.2927 46.4884 90.2771 46.5548L91.0216 47.0477V45.6152C91.02 45.1971 90.6759 44.8535 90.2577 44.8528H83.7697C83.3512 44.8528 83.0065 45.1968 83.0057 45.6152V49.7162L83.7205 49.0312C83.6854 48.9359 83.6672 48.8351 83.6669 48.7334C83.6685 48.264 84.0553 47.8787 84.5246 47.8787Z" fill="#0F79D1"/>
<path d="M78.1474 55.7485H66.5278V67.3681H78.1474V55.7485Z" fill="white"/>
<path d="M75.8332 57.8456L68.6855 61.7173C68.6377 61.7434 68.6079 61.7936 68.6079 61.8481C68.6079 61.9066 68.6425 61.9599 68.6959 61.9839L69.9155 62.444C69.9861 62.4714 70.0436 62.5247 70.0763 62.5929L71.0234 64.5437C71.0413 64.63 71.2006 64.6538 71.2021 64.566L71.0532 62.9533C71.0617 62.8336 71.1075 62.7195 71.1842 62.6272L74.8891 58.9967C74.9109 58.9759 74.9416 58.9669 74.971 58.9729C75.0089 58.9821 75.0358 59.0164 75.0358 59.0554C75.0358 59.0746 75.0293 59.0934 75.0172 59.1084L71.8231 63.0128C71.7556 63.1082 71.7127 63.2186 71.698 63.3345L71.5074 64.7268C71.5223 64.8489 71.6176 64.8951 71.695 64.7864L72.383 63.9778C72.4308 63.9151 72.5204 63.9005 72.5855 63.945L74.359 65.2376C74.3831 65.2531 74.4111 65.2614 74.4397 65.2614C74.5073 65.2614 74.5669 65.2152 74.5839 65.1497L76.0387 58.002C76.0402 57.9936 76.041 57.9852 76.041 57.9767C76.041 57.8949 75.9737 57.8278 75.8921 57.8278C75.8708 57.8278 75.8496 57.8324 75.8302 57.8412L75.8332 57.8456Z" fill="#0F79D1"/>
<path d="M139.05 109.086C139.727 109.174 140.428 109.235 141.076 109.017C141.175 108.986 141.29 108.918 141.277 108.815C141.269 108.779 141.253 108.745 141.231 108.717C140.985 108.35 140.779 107.96 140.616 107.551C140.61 107.53 140.596 107.511 140.578 107.499C140.557 107.49 140.534 107.49 140.513 107.499C140.215 107.576 139.956 107.77 139.658 107.851C139.506 107.893 139.35 107.905 139.193 107.887C139.059 107.872 138.875 107.761 138.754 107.774C138.829 108.216 138.998 108.635 139.05 109.086Z" fill="#0F79D1"/>
<path d="M151.817 107.959C152.264 107.661 152.725 107.331 152.989 106.858C153.008 106.831 153.019 106.798 153.02 106.765C153.016 106.731 153.004 106.699 152.983 106.672C152.731 106.274 152.41 105.926 152.031 105.645C151.833 105.785 151.655 105.949 151.5 106.135C151.388 106.252 151.078 106.446 151.075 106.622C151.075 106.727 151.193 106.842 151.248 106.92C151.323 107.03 151.397 107.143 151.461 107.256C151.495 107.325 151.85 107.941 151.817 107.959Z" fill="#0F79D1"/>
<path d="M141.731 110.469C141.74 110.574 141.712 110.68 141.651 110.766C141.603 110.814 141.544 110.848 141.48 110.866C140.533 111.204 139.443 110.781 138.501 111.116C138.306 111.185 138.123 111.283 137.928 111.349C137.697 111.418 137.459 111.461 137.218 111.475C136.883 111.508 136.548 111.527 136.213 111.536C135.958 111.554 135.703 111.532 135.456 111.471C135.207 111.406 134.995 111.239 134.875 111.011C134.825 110.909 134.815 110.792 134.847 110.683C134.861 110.645 134.882 110.609 134.908 110.577C134.973 110.506 135.048 110.445 135.132 110.397L135.48 110.172C135.642 110.057 135.82 109.963 136.007 109.892C136.144 109.848 136.292 109.828 136.43 109.788C136.92 109.639 137.292 109.257 137.639 108.884L138.113 108.379C138.156 108.324 138.213 108.279 138.277 108.248C138.342 108.226 138.411 108.219 138.479 108.228C138.939 108.261 139.383 108.411 139.77 108.662C139.87 108.735 139.977 108.798 140.089 108.85C140.39 108.937 140.713 108.897 140.982 108.738C141.104 108.674 141.078 108.634 141.131 108.519C141.185 108.405 141.307 108.33 141.414 108.436C141.447 108.473 141.469 108.517 141.481 108.564C141.585 108.902 141.545 109.264 141.545 109.617C141.542 109.672 141.55 109.728 141.566 109.781C141.593 109.833 141.623 109.883 141.658 109.93C141.666 109.942 141.673 109.955 141.678 109.968C141.736 110.128 141.755 110.3 141.731 110.469Z" fill="#514E7F"/>
<path d="M141.731 110.456C141.74 110.561 141.712 110.667 141.651 110.754C141.603 110.801 141.544 110.835 141.48 110.853C140.533 111.192 139.443 110.769 138.501 111.104C138.306 111.172 138.123 111.27 137.928 111.336C137.697 111.406 137.459 111.448 137.218 111.463C136.883 111.495 136.548 111.515 136.213 111.524C135.958 111.541 135.703 111.519 135.456 111.458C135.207 111.393 134.995 111.226 134.875 110.998C134.825 110.896 134.815 110.779 134.847 110.67C134.861 110.632 134.882 110.596 134.908 110.565C134.965 110.681 135.005 110.833 135.039 110.888C135.135 111.054 135.298 111.171 135.486 111.208C135.623 111.215 135.76 111.197 135.89 111.156C136.747 110.943 137.659 110.94 138.481 110.618C138.755 110.489 139.039 110.38 139.329 110.292C139.633 110.246 139.94 110.221 140.247 110.218C140.731 110.179 141.198 110.033 141.676 109.957C141.736 110.116 141.754 110.288 141.731 110.456Z" fill="#464353"/>
<path d="M154.039 107.908C153.995 108.267 153.767 108.576 153.517 108.838C153.25 109.082 153.006 109.35 152.787 109.638C152.54 110.013 152.431 110.477 152.113 110.794C151.992 110.911 151.855 111.011 151.707 111.092C151.541 111.19 151.365 111.271 151.182 111.333C150.707 111.482 150.195 111.45 149.693 111.415C149.532 111.413 149.373 111.381 149.222 111.322C149.152 111.288 149.085 111.248 149.023 111.202C148.901 111.123 148.799 111.018 148.725 110.893C148.688 110.826 148.679 110.746 148.697 110.672C148.726 110.587 148.777 110.512 148.845 110.454C148.957 110.338 149.078 110.23 149.204 110.131C149.38 110.018 149.536 109.879 149.672 109.72C149.755 109.594 149.815 109.455 149.852 109.309C149.924 109.054 149.968 108.792 149.983 108.527C149.983 108.352 150.001 108.176 150.038 108.005C150.114 107.737 150.314 107.494 150.29 107.215C150.281 107.175 150.285 107.134 150.3 107.096C150.326 107.068 150.358 107.048 150.394 107.038C150.55 106.977 150.716 106.939 150.883 106.926C151.051 106.916 151.215 106.981 151.329 107.104C151.399 107.187 151.444 107.303 151.547 107.34C151.596 107.351 151.646 107.351 151.696 107.34C151.946 107.315 152.212 107.284 152.404 107.122C152.591 106.956 152.698 106.72 152.702 106.471C152.702 106.378 152.661 106.282 152.802 106.262C152.911 106.247 152.996 106.361 153.051 106.435C153.268 106.689 153.43 106.986 153.529 107.306C153.557 107.294 153.588 107.288 153.62 107.288C153.749 107.287 153.87 107.349 153.944 107.455C154.031 107.589 154.065 107.75 154.039 107.908Z" fill="#514E7F"/>
<path d="M154.002 107.911C153.958 108.27 153.73 108.579 153.48 108.841C153.213 109.085 152.969 109.353 152.75 109.641C152.503 110.016 152.394 110.479 152.075 110.797C151.955 110.914 151.818 111.014 151.67 111.094C151.504 111.193 151.328 111.274 151.145 111.336C150.67 111.485 150.157 111.453 149.656 111.418C149.495 111.416 149.335 111.384 149.185 111.325C149.115 111.291 149.048 111.251 148.985 111.205C148.863 111.126 148.762 111.021 148.688 110.896C148.783 110.85 148.889 110.825 148.994 110.823C149.216 110.835 149.377 111.044 149.59 111.108C149.888 111.199 150.186 110.986 150.497 110.913C150.696 110.867 150.908 110.88 151.103 110.816C151.267 110.753 151.417 110.661 151.55 110.545C151.731 110.415 151.892 110.26 152.028 110.083C152.141 109.907 152.236 109.72 152.309 109.523C152.47 109.148 152.661 108.785 152.876 108.438C152.908 108.383 152.948 108.333 152.993 108.289C153.039 108.246 153.097 108.215 153.142 108.176C153.346 108.027 153.43 107.763 153.502 107.519C153.521 107.443 153.548 107.37 153.582 107.3C153.712 107.298 153.833 107.361 153.907 107.467C153.992 107.598 154.026 107.756 154.002 107.911Z" fill="#464353"/>
<path d="M132.61 76.1023C132.861 76.2919 133.069 76.5344 133.217 76.8126C133.366 77.0926 134.184 79.2667 134.136 79.5779C134.404 79.3069 135.467 79.2622 135.734 78.9927C135.847 78.8795 136.459 78.3136 136.55 78.1826C136.641 78.0515 137.323 77.7701 137.397 77.6361C137.675 77.1372 135.422 75.2535 135.71 74.7532C135.726 74.7308 135.735 74.7034 135.734 74.6757C135.728 74.6526 135.714 74.6318 135.696 74.6162C135.496 74.4437 135.277 74.2939 135.044 74.1694C134.808 74.0423 134.63 73.8289 134.547 73.5738C134.335 73.6715 134.14 73.8033 133.971 73.9639C133.559 74.3164 133.153 74.6777 132.752 75.048C132.595 75.1969 132.294 75.386 132.221 75.593C132.148 75.8 132.459 75.9802 132.61 76.1023Z" fill="#A1616A"/>
<path d="M136.284 75.306C135.938 75.5377 135.615 75.8021 135.319 76.0953C135.039 76.3707 134.774 76.6909 134.704 77.0796C134.675 77.2285 134.68 77.3863 134.656 77.5397C134.556 78.2068 133.977 78.6967 133.722 79.3266C133.648 79.5192 133.593 79.7187 133.559 79.9223C133.487 80.3086 133.448 80.7 133.442 81.0927C133.442 81.4739 133.809 81.736 133.946 82.0919C134.059 82.4445 134.141 82.807 134.188 83.1745C134.338 83.8598 134.541 84.532 134.797 85.1848C135.301 86.5741 136.931 90.416 137.435 91.8069C138.976 91.4197 143.08 90.5307 144.444 89.7221C144.9 89.4511 141.287 86.3895 141.774 86.178C141.831 86.1611 141.878 86.1246 141.909 86.0753C141.926 86.027 141.926 85.9746 141.909 85.9264C141.424 83.7984 139.901 82.0547 139.211 79.9699C138.971 79.2507 138.541 78.6372 138.213 77.9522C137.916 77.3327 137.759 76.6492 137.406 76.061C137.339 75.9399 137.252 75.8308 137.149 75.7379C137.059 75.6709 136.964 75.6135 136.863 75.5666C136.668 75.4624 136.48 75.4043 136.284 75.306Z" fill="#514E7F"/>
<path d="M132.698 75.858C134.03 75.858 135.11 74.778 135.11 73.4457C135.11 72.1134 134.03 71.0333 132.698 71.0333C131.365 71.0333 130.285 72.1134 130.285 73.4457C130.285 74.778 131.365 75.858 132.698 75.858Z" fill="#A1616A"/>
<path d="M135.136 74.5574C135.382 74.3312 135.744 74.2794 136.043 74.4278C136.214 74.5017 136.323 74.6759 136.312 74.8627L137.504 74.8805C137.694 74.8762 137.885 74.8936 138.071 74.9326C138.259 74.9737 138.425 75.0792 138.545 75.2305C138.559 75.2498 138.576 75.2722 138.6 75.2766C138.619 75.276 138.638 75.2693 138.655 75.2573C138.838 75.1639 139.046 75.1265 139.25 75.1501C139.897 75.1918 140.495 75.5164 141.002 75.9199C141.094 75.9823 141.167 76.0709 141.21 76.1746C141.252 76.3101 141.21 76.4843 141.308 76.5766C141.308 77.7009 141.694 78.7478 141.952 79.8423C141.996 80.0373 142.184 80.2086 142.314 80.362C142.474 80.5316 142.605 80.7268 142.701 80.9397C142.918 81.5071 142.617 82.1727 142.83 82.743C142.937 82.9762 143.076 83.1939 143.241 83.3908C143.433 83.632 143.554 83.9218 143.591 84.2277C143.6 84.3647 143.582 84.5017 143.591 84.6402C143.605 84.8239 143.637 85.0057 143.689 85.1822C143.776 85.5113 143.868 85.8404 143.963 86.168C144.112 86.6981 144.321 87.2714 144.796 87.5544C143.648 87.7494 142.439 87.9386 141.344 87.541C141.192 87.4887 141.046 87.416 140.914 87.325C140.519 87.0436 140.329 86.5611 140.159 86.107C139.968 85.5962 139.775 85.078 139.736 84.5344C139.737 84.3607 139.714 84.1876 139.664 84.0207C139.553 83.7229 139.258 83.5457 138.987 83.3819C138.683 83.2151 138.408 83.001 138.172 82.7475C137.936 82.4895 137.815 82.1441 137.842 81.7945C137.863 81.6262 137.928 81.4639 137.936 81.2941C137.956 81.1211 137.863 80.9536 137.703 80.8817C136.868 80.6285 136.469 79.6397 136.283 78.7865C136.202 78.3445 136.166 77.8955 136.175 77.4463L136.165 76.5841C135.931 76.3726 135.796 76.0739 135.79 75.7591C135.803 75.6687 135.803 75.577 135.79 75.4866C135.751 75.3737 135.685 75.2717 135.599 75.1888C135.413 75.0038 135.256 74.7907 135.136 74.5574Z" fill="#464353"/>
<path d="M132.608 77.3377C132.582 77.6072 132.643 77.8827 132.582 78.1478C132.558 78.249 132.518 78.3458 132.488 78.4456C132.398 78.8256 132.437 79.225 132.599 79.5803C132.761 79.9325 132.955 80.2689 133.179 80.5855C133.255 80.6927 133.318 80.8093 133.365 80.9324C133.404 81.0618 133.428 81.1953 133.436 81.33C133.495 81.8689 133.59 82.4032 133.721 82.9293C133.834 83.388 133.981 83.8511 134.284 84.2144C134.339 84.2941 134.422 84.3504 134.516 84.3723C134.584 84.3747 134.652 84.3604 134.714 84.3306L135.33 84.0968C135.385 84.081 135.435 84.0546 135.479 84.0194C135.536 83.9516 135.566 83.8661 135.566 83.7781C135.609 83.2808 135.46 82.7879 135.295 82.3173C134.794 80.8967 134.13 79.5282 133.806 78.0584C133.715 77.6474 133.667 77.0161 133.368 76.6959C133.244 76.5619 133.286 76.6185 133.138 76.6959C133.064 76.7294 132.992 76.7677 132.923 76.8106C132.743 76.9292 132.627 77.1234 132.608 77.3377Z" fill="#464353"/>
<path d="M134.437 80.0253C134.601 80.8919 134.768 81.759 134.939 82.6268L137.334 81.9983C137.353 81.7482 137.219 81.5159 137.127 81.2821C136.908 80.7341 136.903 80.125 136.726 79.5622C136.592 79.1333 136.36 78.7387 136.235 78.3068C136.162 78.0567 136.126 77.7946 136.054 77.5429C135.977 77.2942 135.883 77.0509 135.773 76.8147C135.637 76.4719 135.462 76.1466 135.25 75.8453C134.943 75.96 134.617 76.0925 134.443 76.368C134.352 76.525 134.301 76.7019 134.294 76.8832C134.253 77.4223 134.443 77.9629 134.382 78.496C134.318 79.0054 134.337 79.5218 134.437 80.0253Z" fill="#0F79D1"/>
<path d="M137.392 91.5932C137.526 92.1055 137.331 92.6356 137.173 93.1449C136.933 93.9057 136.769 94.6882 136.684 95.4813C136.675 95.685 136.635 95.886 136.564 96.0769C136.474 96.2406 136.377 96.3996 136.273 96.5535C136.032 96.9793 136.038 97.5005 136.09 97.9875C136.124 98.3091 136.176 98.6293 136.239 98.9465C136.318 99.3321 136.415 99.7372 136.302 100.114C136.491 100.072 136.62 100.316 136.613 100.512C136.605 100.707 136.537 100.915 136.629 101.086C136.864 101.171 136.867 101.494 136.86 101.743C136.863 102.177 136.918 102.609 137.022 103.03C137.378 104.736 137.755 106.438 138.154 108.136C139.016 108.404 140.023 108.682 140.845 108.311C141.007 108.259 141.134 108.131 141.186 107.969C141.195 107.88 141.183 107.79 141.153 107.705L140.763 106.288C140.645 105.953 140.598 105.599 140.623 105.245C140.662 104.982 140.772 104.699 140.647 104.468C140.602 104.389 140.534 104.319 140.483 104.251C140.277 103.953 140.385 103.552 140.403 103.189C140.409 103.108 140.403 103.026 140.385 102.946C140.356 102.853 140.318 102.764 140.27 102.68C139.948 102.055 139.795 101.357 139.823 100.654C139.835 100.565 139.823 100.473 139.788 100.389C139.762 100.356 139.74 100.32 139.722 100.282C139.706 100.217 139.713 100.148 139.743 100.087C139.625 100.002 139.52 99.9016 139.429 99.7893C139.555 99.707 139.631 99.5658 139.631 99.4149C139.631 99.2976 139.585 99.1849 139.503 99.1013C139.61 99.0803 139.688 98.9855 139.688 98.8763C139.688 98.8119 139.661 98.7502 139.613 98.7067C139.563 98.671 139.497 98.6561 139.464 98.6055C139.409 98.531 139.454 98.4253 139.499 98.3449L139.737 97.9145C139.914 97.5958 139.954 97.2012 140.145 96.89C140.403 96.4346 140.614 95.9541 140.773 95.456L141.452 93.5648L141.914 93.9654C142.069 94.0829 142.197 94.2303 142.294 94.3987C142.359 94.5646 142.401 94.7391 142.416 94.9169C142.586 95.9444 143.233 96.8349 143.473 97.849C143.506 98.0785 143.58 98.3002 143.691 98.5042C143.737 98.5633 143.778 98.626 143.816 98.6918C143.85 98.792 143.868 98.8972 143.868 99.0031C143.911 99.4228 144.134 99.8038 144.48 100.045C144.706 100.194 144.993 100.309 145.113 100.556C145.138 100.633 145.174 100.706 145.217 100.774C145.327 100.906 145.565 100.923 145.613 101.088C145.638 101.182 145.589 101.292 145.643 101.374C145.671 101.411 145.71 101.44 145.754 101.457L146.42 101.791C147.165 102.161 147.54 103.012 148.089 103.636C148.278 103.837 148.447 104.059 148.588 104.297C148.825 104.72 148.935 105.251 149.333 105.524C149.44 105.58 149.537 105.652 149.622 105.738C149.748 105.904 149.702 106.136 149.712 106.344C149.723 106.553 149.884 106.8 150.082 106.738C150.012 106.989 150.012 107.256 150.082 107.507C150.95 107.462 151.779 107.127 152.435 106.554C152.628 106.385 152.816 106.169 152.817 105.913C152.82 105.868 152.81 105.824 152.789 105.784C152.75 105.734 152.7 105.695 152.64 105.671C152.019 105.335 151.831 104.554 151.52 103.92C151.245 103.362 150.84 102.878 150.496 102.36C149.751 101.243 149.254 99.8921 148.136 99.1535C147.89 98.9911 147.604 98.8467 147.482 98.5787C147.43 98.4223 147.386 98.2633 147.351 98.1021C147.309 97.9395 147.168 97.8201 147.001 97.8043C147.072 97.5628 147.099 97.3107 147.081 97.0598C147.087 96.9517 147.075 96.8434 147.044 96.7396C147.002 96.6284 146.947 96.5223 146.88 96.4239C146.588 95.9283 146.442 95.3605 146.459 94.7859C146.468 94.4881 146.52 94.1902 146.43 93.9058C146.386 93.7569 146.308 93.6333 146.253 93.4948C146.171 93.2472 146.128 92.9885 146.125 92.7279L146.064 91.7466C146.055 91.4199 146.014 91.0951 145.938 90.7772C145.731 90.0163 145.533 86.8281 144.831 86.4692C144.13 86.1103 142.933 88.5629 142.151 88.612C141.801 88.6271 141.457 88.6933 141.126 88.8086C140.604 89.0052 140.164 89.3715 139.737 89.7303L138.29 90.9455C138.014 91.1924 137.713 91.4095 137.392 91.5932Z" fill="#464353"/>
<path d="M130.446 70.7552C130.787 70.3275 131.303 70.0757 131.85 70.0702C132.391 70.07 132.925 70.2041 133.402 70.4603C133.543 70.5403 133.693 70.6027 133.848 70.6465C134.105 70.6986 134.387 70.6286 134.618 70.7507C134.925 70.913 134.983 71.327 134.956 71.6725C134.93 72.018 134.866 72.3962 135.049 72.6925C135.113 72.7774 135.172 72.866 135.226 72.9576C135.283 73.1433 135.277 73.3428 135.209 73.5249C135.104 73.4057 135.004 73.2809 134.912 73.1512C134.804 73.0335 134.621 72.9531 134.49 73.041C134.359 73.1288 134.359 73.2911 134.353 73.4356C134.347 73.58 134.309 73.7543 134.172 73.8019C134.058 73.8236 133.941 73.7769 133.874 73.6828C133.64 73.3969 133.734 72.9382 133.503 72.6523C133.37 72.4885 133.152 72.4096 133.029 72.2383C132.934 72.1043 132.91 71.9301 132.827 71.7916C132.744 71.6531 132.548 71.5399 132.417 71.6427C132.373 71.6859 132.336 71.7362 132.309 71.7916C132.143 72.0287 131.833 72.1216 131.564 72.015C131.463 71.9545 131.354 71.9079 131.241 71.8765C131.091 71.8678 130.948 71.9454 130.873 72.076C130.802 72.2062 130.768 72.3537 130.776 72.5019C130.776 72.7029 130.812 72.9233 130.696 73.0871C130.648 73.1473 130.59 73.1978 130.523 73.236C130.352 73.3447 130.118 73.4177 129.957 73.2941C129.849 73.1932 129.801 73.0429 129.831 72.898C129.862 72.756 129.902 72.6163 129.951 72.4796C130.041 72.1639 129.925 71.808 130.023 71.5102C130.127 71.2397 130.27 70.9854 130.446 70.7552Z" fill="#464353"/>
<path d="M131.756 77.9536C131.741 78.0281 131.749 78.1055 131.779 78.1755C131.809 78.2232 131.85 78.2629 131.899 78.2917C132.243 78.5045 132.633 78.6307 133.037 78.6595C133.089 78.6614 133.14 78.6751 133.186 78.6997C133.273 78.7804 133.3 78.9079 133.253 79.0169C133.206 79.1229 133.182 79.2375 133.181 79.3534C133.211 79.5663 133.463 79.6631 133.677 79.6899C133.975 79.7505 134.285 79.6905 134.539 79.5232C134.7 79.3768 134.822 79.1932 134.895 78.9886C135.48 77.6484 135.686 76.1593 136.279 74.8191C136.325 74.7321 136.355 74.6378 136.368 74.5406C136.381 74.4413 136.338 74.3425 136.258 74.283C136.148 74.2145 135.976 74.2532 135.902 74.1475C135.865 74.0924 135.869 74.0194 135.836 73.9628C135.768 73.8407 135.589 73.8556 135.466 73.7901C135.37 73.738 135.303 73.6412 135.198 73.6129C135.091 73.6071 134.987 73.6517 134.918 73.7335C134.571 74.0581 134.387 74.5182 134.194 74.9531C133.895 75.6193 133.547 76.2619 133.152 76.8755C133.198 76.804 132.931 76.2605 132.827 76.2397C132.645 76.2024 132.41 76.5226 132.312 76.6432C132.006 77.0186 131.814 77.4731 131.756 77.9536Z" fill="#0F79D1"/>
<path d="M144.599 79.8498H132.979V91.4693H144.599V79.8498Z" fill="white"/>
<path d="M138.868 83.7615V82.2366H135.059V89.1014H142.497V83.7615H138.868ZM136.582 88.3375H135.822V87.5751H136.582V88.3375ZM136.582 86.8127H135.822V86.0502H136.582V86.8127ZM136.582 85.2878H135.822V84.5239H136.582V85.2878ZM136.582 83.7615H135.822V82.9976H136.582V83.7615ZM138.106 88.3375H137.346V87.5751H138.107L138.106 88.3375ZM138.106 86.8127H137.346V86.0502H138.107L138.106 86.8127ZM138.106 85.2878H137.346V84.5239H138.107L138.106 85.2878ZM138.106 83.7615H137.346V82.9976H138.107L138.106 83.7615ZM141.736 88.3375H138.868V87.5751H139.629V86.8127H138.868V86.0502H139.629V85.2863H138.868V84.5239H141.736V88.3375ZM141.069 85.2878H140.308V86.0517H141.069V85.2878ZM141.069 86.8127H140.308V87.5766H141.069V86.8127Z" fill="#0F79D1"/>
<path d="M144.488 86.2505C144.288 86.4271 144.104 86.6204 143.937 86.8283C143.767 87.039 143.678 87.3027 143.684 87.5729C143.685 87.6509 143.71 87.7268 143.755 87.7903C143.803 87.8536 143.886 87.8793 143.962 87.8543C144.002 87.8323 144.037 87.8012 144.063 87.7635C144.171 87.6335 144.285 87.5091 144.406 87.3912C144.451 87.348 144.507 87.3019 144.567 87.3182C144.593 87.3275 144.617 87.3434 144.637 87.3644C144.707 87.4234 144.759 87.5014 144.786 87.5893C144.802 87.7501 144.744 87.9096 144.628 88.0226C144.512 88.1335 144.421 88.2681 144.361 88.4172C144.345 88.4577 144.345 88.5033 144.361 88.5438C144.381 88.573 144.409 88.5966 144.44 88.6123C144.736 88.7734 145.089 88.7963 145.404 88.6748C145.611 88.5929 145.789 88.45 145.999 88.377C146.09 88.353 146.178 88.3201 146.263 88.2787C146.385 88.1987 146.468 88.0731 146.497 87.9303C146.523 87.7883 146.528 87.6435 146.513 87.4999C146.486 86.9424 146.366 86.3935 146.154 85.8768C146.144 85.8433 146.123 85.8133 146.096 85.7904C146.066 85.7728 146.032 85.763 145.998 85.7621C145.737 85.7353 145.308 85.6013 145.057 85.6981C144.969 85.7459 144.893 85.8136 144.835 85.8961C144.777 85.9482 144.488 86.182 144.488 86.2505Z" fill="#A1616A"/>
<path d="M144.415 86.0368C144.415 85.7866 144.105 85.1865 144.595 85.1433C144.595 84.8783 144.218 84.7115 144.287 84.4316C144.311 84.3362 144.387 84.2603 144.399 84.165C144.43 83.8925 143.938 83.7451 144.019 83.483C144.049 83.3832 144.157 83.3222 144.181 83.2209C144.236 82.9856 143.815 82.8799 143.807 82.6387C143.807 82.5568 143.852 82.4793 143.849 82.3989C143.849 82.2962 143.76 82.2187 143.711 82.1309C143.584 81.903 143.645 81.5501 143.413 81.434C143.562 81.4459 143.62 81.218 143.554 81.0781C143.489 80.9381 143.361 80.8175 143.361 80.6626C143.368 80.6057 143.368 80.5482 143.361 80.4914C143.317 80.3424 143.073 80.332 143.033 80.1831C143.03 80.1271 143.03 80.0708 143.033 80.0148C143.018 79.8987 142.899 79.8272 142.787 79.793C142.673 79.7742 142.561 79.7347 142.46 79.6768C142.388 79.6217 142.311 79.5279 142.229 79.58C142.201 79.5964 142.186 79.6292 142.163 79.6545C142.073 79.7602 141.898 79.714 141.782 79.6351C141.441 79.4043 141.273 78.9888 141.198 78.5838C141.124 78.1788 141.128 77.7603 141.039 77.3583C141.011 77.2338 140.975 77.1114 140.93 76.9919C140.86 76.8764 140.802 76.7535 140.758 76.6256C140.74 76.3918 141.225 76.5512 141.41 76.575C141.589 76.5917 141.767 76.625 141.94 76.6748C142.125 76.7442 142.305 76.8232 142.481 76.9115C143.225 77.2377 144.107 77.2779 144.699 77.8244C144.894 78.0045 145.058 78.2398 145.31 78.3202C145.426 78.3435 145.539 78.3734 145.652 78.4096C145.934 78.5421 145.977 78.9144 146.13 79.1839C146.178 79.2549 146.221 79.3297 146.257 79.4073C146.285 79.4998 146.3 79.5964 146.297 79.6932L146.318 80.4005C146.352 81.5918 146.388 82.7727 146.261 83.9506C146.22 84.3377 146.162 84.7383 146.275 85.1121C146.305 85.2133 146.348 85.3101 146.373 85.4099C146.397 85.5311 146.41 85.6541 146.412 85.7777L146.428 86.2349C146.434 86.2716 146.427 86.3095 146.406 86.3406C146.372 86.3684 146.325 86.3795 146.282 86.3704C145.643 86.3138 145 85.9534 144.397 86.1708" fill="#464353"/>
<path d="M132.535 84.1723C132.506 84.1862 132.482 84.2066 132.463 84.2319C132.331 84.411 132.331 84.6573 132.463 84.8365C132.478 84.8542 132.491 84.8743 132.499 84.896C132.503 84.9309 132.497 84.966 132.481 84.9973C132.418 85.1197 132.436 85.2692 132.527 85.3725C132.573 85.4113 132.636 85.4306 132.666 85.4813C132.718 85.5676 132.645 85.6778 132.657 85.7791C132.672 85.9116 132.828 85.9771 132.955 85.9935C133.058 86.0181 133.167 85.9889 133.245 85.9161C133.297 85.8361 133.297 85.7325 133.245 85.6525C133.193 85.5746 133.126 85.5078 133.048 85.4559C133.197 85.4483 133.318 85.3311 133.33 85.1834C133.341 85.0391 133.276 84.8989 133.16 84.8126C133.133 84.7903 133.101 84.768 133.093 84.7322C133.086 84.6965 133.121 84.6473 133.154 84.6131C133.303 84.4642 133.418 84.0994 133.138 84.0175C133.039 84.0002 132.937 84.0048 132.84 84.0309C132.769 84.0532 132.769 84.0964 132.713 84.1262C132.658 84.1559 132.597 84.1411 132.535 84.1723Z" fill="#A1616A"/>
<path d="M135.42 73.8824C135.272 73.8856 135.133 73.9557 135.042 74.073C134.948 74.2263 134.894 74.4002 134.884 74.5793C134.793 75.1521 134.59 75.7015 134.288 76.1965" fill="black" fill-opacity="0.1"/>
<path d="M135.944 74.3052C135.738 74.3093 135.549 74.4229 135.449 74.6031C135.381 74.7637 135.339 74.9341 135.324 75.1079C135.237 75.4924 135.068 75.8535 134.828 76.1666" fill="black" fill-opacity="0.1"/>
<path d="M39.875 83.77C39.9614 84.7111 39.2511 85.6224 39.4581 86.5427C39.5027 86.7393 39.5876 86.9254 39.6189 87.1234C39.7038 87.67 39.3777 88.1882 39.0664 88.6453L36.395 92.5676C36.2867 92.7398 36.1582 92.8982 36.0123 93.0397C35.5 93.4864 34.7346 93.4462 34.063 93.5817C33.5917 93.6782 33.1468 93.8752 32.7585 94.1595C32.7218 94.187 32.7137 94.2399 32.7407 94.2771C32.9661 94.5833 33.332 94.755 33.7116 94.7328C33.7816 94.8251 33.7116 94.9606 33.6148 95.0306C33.4659 95.1304 33.2738 95.1557 33.2455 95.3999C33.2354 95.4845 33.2526 95.5701 33.2946 95.6442C33.4021 95.8091 33.57 95.9257 33.7622 95.9688C34.6869 96.2517 35.6876 95.7558 36.3786 95.0753C37.0695 94.3948 37.5699 93.546 38.2489 92.8565C38.6256 92.4768 39.053 92.1492 39.4402 91.7799C40.2145 91.0443 40.8146 90.1419 41.3954 89.2484C41.5847 88.9878 41.7278 88.6967 41.8183 88.3877C41.8898 88.0809 41.857 87.7578 41.9404 87.454C42.0476 87.0579 42.3395 86.7407 42.5807 86.4117C43.0558 85.7594 43.3715 84.9598 43.3089 84.1556C43.2464 83.3515 42.749 82.5563 41.9896 82.2838C41.7529 82.1884 41.4916 82.1721 41.245 82.2377C40.9338 82.3345 40.7044 82.5921 40.4915 82.8333L39.9852 83.42C39.8571 83.5475 39.7557 83.6994 39.6874 83.8668C39.621 84.0388 39.6619 84.2346 39.7916 84.3656" fill="#FBBEBE"/>
<path d="M39.875 83.77C39.9614 84.7111 39.2511 85.6224 39.4581 86.5427C39.5027 86.7393 39.5876 86.9254 39.6189 87.1234C39.7038 87.67 39.3777 88.1882 39.0664 88.6453L36.395 92.5676C36.2867 92.7398 36.1582 92.8982 36.0123 93.0397C35.5 93.4864 34.7346 93.4462 34.063 93.5817C33.5917 93.6782 33.1468 93.8752 32.7585 94.1595C32.7218 94.187 32.7137 94.2399 32.7407 94.2771C32.9661 94.5833 33.332 94.755 33.7116 94.7328C33.7816 94.8251 33.7116 94.9606 33.6148 95.0306C33.4659 95.1304 33.2738 95.1557 33.2455 95.3999C33.2354 95.4845 33.2526 95.5701 33.2946 95.6442C33.4021 95.8091 33.57 95.9257 33.7622 95.9688C34.6869 96.2517 35.6876 95.7558 36.3786 95.0753C37.0695 94.3948 37.5699 93.546 38.2489 92.8565C38.6256 92.4768 39.053 92.1492 39.4402 91.7799C40.2145 91.0443 40.8146 90.1419 41.3954 89.2484C41.5847 88.9878 41.7278 88.6967 41.8183 88.3877C41.8898 88.0809 41.857 87.7578 41.9404 87.454C42.0476 87.0579 42.3395 86.7407 42.5807 86.4117C43.0558 85.7594 43.3715 84.9598 43.3089 84.1556C43.2464 83.3515 42.749 82.5563 41.9896 82.2838C41.7529 82.1884 41.4916 82.1721 41.245 82.2377C40.9338 82.3345 40.7044 82.5921 40.4915 82.8333L39.9852 83.42C39.8571 83.5475 39.7557 83.6994 39.6874 83.8668C39.621 84.0388 39.6619 84.2346 39.7916 84.3656" fill="black" fill-opacity="0.05"/>
<path d="M19.4996 87.7885C19.6485 88.2591 19.7974 88.7296 19.9776 89.1883C20.3068 89.9835 20.7217 90.7405 21.215 91.4458C21.5326 91.9099 21.8741 92.3572 22.238 92.786C22.6937 93.3235 23.203 93.8641 23.3638 94.5506C23.4576 94.9467 23.4263 95.3621 23.4651 95.7672C23.5038 96.1722 23.6363 96.6026 23.9639 96.8453C24.2127 96.9993 24.4943 97.092 24.7859 97.1163C24.9914 97.1491 25.249 97.1595 25.3562 96.9808C25.3938 96.9081 25.4133 96.8274 25.4128 96.7455L25.4634 96.1499C25.4739 96.0218 25.5185 95.852 25.6466 95.852C25.7747 95.852 25.8402 96.0173 25.9444 96.0933C25.9915 96.1187 26.0442 96.132 26.0978 96.132C26.2236 96.132 26.3385 96.0586 26.3912 95.9444C26.4577 95.7777 26.462 95.5926 26.4031 95.4232C26.2232 94.7419 25.7608 94.1689 25.1329 93.8492C24.9169 93.7606 24.7095 93.6525 24.5134 93.526C24.3142 93.3538 24.149 93.1457 24.0265 92.9125C22.9007 91.0586 21.769 89.1898 20.9738 87.178C20.8173 86.8176 20.7114 86.4371 20.6596 86.0477C20.6435 85.65 20.6599 85.2515 20.7087 84.8564C20.7553 84.1417 20.6889 83.4241 20.5122 82.73C20.4734 82.5476 20.4045 82.3729 20.3081 82.2133C19.982 81.7159 19.2122 81.6429 18.7267 81.9854C18.3657 82.2637 18.1376 82.681 18.0983 83.135C18.0626 83.5356 18.2949 83.954 18.4125 84.3263C18.7769 85.4799 19.1392 86.634 19.4996 87.7885Z" fill="#A1616A"/>
<path d="M19.4996 87.7885C19.6485 88.2591 19.7974 88.7296 19.9776 89.1883C20.3068 89.9835 20.7217 90.7405 21.215 91.4458C21.5326 91.9099 21.8741 92.3572 22.238 92.786C22.6937 93.3235 23.203 93.8641 23.3638 94.5506C23.4576 94.9467 23.4263 95.3621 23.4651 95.7672C23.5038 96.1722 23.6363 96.6026 23.9639 96.8453C24.2127 96.9993 24.4943 97.092 24.7859 97.1163C24.9914 97.1491 25.249 97.1595 25.3562 96.9808C25.3938 96.9081 25.4133 96.8274 25.4128 96.7455L25.4634 96.1499C25.4739 96.0218 25.5185 95.852 25.6466 95.852C25.7747 95.852 25.8402 96.0173 25.9444 96.0933C25.9915 96.1187 26.0442 96.132 26.0978 96.132C26.2236 96.132 26.3385 96.0586 26.3912 95.9444C26.4577 95.7777 26.462 95.5926 26.4031 95.4232C26.2232 94.7419 25.7608 94.1689 25.1329 93.8492C24.9169 93.7606 24.7095 93.6525 24.5134 93.526C24.3142 93.3538 24.149 93.1457 24.0265 92.9125C22.9007 91.0586 21.769 89.1898 20.9738 87.178C20.8173 86.8176 20.7114 86.4371 20.6596 86.0477C20.6435 85.65 20.6599 85.2515 20.7087 84.8564C20.7553 84.1417 20.6889 83.4241 20.5122 82.73C20.4734 82.5476 20.4045 82.3729 20.3081 82.2133C19.982 81.7159 19.2122 81.6429 18.7267 81.9854C18.3657 82.2637 18.1376 82.681 18.0983 83.135C18.0626 83.5356 18.2949 83.954 18.4125 84.3263C18.7769 85.4799 19.1392 86.634 19.4996 87.7885Z" fill="black" fill-opacity="0.05"/>
<path d="M42.1446 105.458C41.5609 105.814 40.8342 105.835 40.1552 105.756C40.0465 105.742 39.9169 105.733 39.8469 105.818C39.7457 105.94 39.8648 106.116 39.9884 106.22C40.3893 106.52 40.8597 106.713 41.3554 106.782C41.7995 106.844 42.2472 106.874 42.6956 106.871C43.9152 106.892 45.1407 106.911 46.3484 106.736C46.4184 106.731 46.4864 106.711 46.5479 106.678C46.6245 106.622 46.6775 106.541 46.6968 106.448C46.7564 106.122 46.6342 105.789 46.3782 105.579C46.1243 105.376 45.8357 105.221 45.5264 105.121L44.4662 104.709C44.2175 104.612 43.8169 104.354 43.5474 104.375C43.047 104.408 42.566 105.211 42.1446 105.458Z" fill="#3F3D56"/>
<path d="M44.7599 107.956C44.2716 108.393 43.6357 108.631 42.9804 108.62C42.8136 108.62 42.5813 108.651 42.5813 108.818C42.5837 108.868 42.6002 108.916 42.6289 108.957C42.8365 109.302 43.1644 109.559 43.5492 109.677C43.9129 109.764 44.2886 109.788 44.6601 109.747L45.7471 109.691C45.9526 109.68 46.1596 109.67 46.3636 109.645C46.5677 109.619 46.7895 109.578 47.0025 109.545C47.5266 109.471 48.0566 109.446 48.5854 109.47C48.7245 109.498 48.8686 109.459 48.9755 109.366C49.0723 109.244 49.0158 109.068 48.9845 108.919C48.919 108.605 48.9845 108.275 48.9234 107.957C48.8192 107.404 48.3427 106.978 47.814 106.777C47.3256 106.59 46.4589 106.378 45.9958 106.687C45.4985 107.016 45.1992 107.558 44.7599 107.956Z" fill="#3F3D56"/>
<path d="M42.6149 93.8802C42.1682 94.4684 41.7215 95.1475 41.8257 95.8742C41.8853 96.2658 42.1042 96.6113 42.265 96.9746C42.4671 97.473 42.6169 97.9909 42.7117 98.5203C42.877 99.2902 43.0423 100.062 43.1451 100.842C43.2591 101.725 43.2916 102.618 43.2419 103.507C43.2285 103.722 43.2046 103.954 43.0557 104.103C42.9962 104.163 42.9187 104.212 42.8934 104.292C42.8773 104.368 42.8895 104.448 42.9277 104.515C43.2003 105.074 43.6739 105.51 44.253 105.735C44.8282 105.956 45.4388 106.07 46.0548 106.072C46.1365 106.081 46.2193 106.07 46.296 106.04C46.3787 105.99 46.4438 105.916 46.4822 105.827C46.9289 104.979 46.6802 103.954 46.6877 102.998C46.6877 102.198 46.8813 101.406 46.847 100.607C46.8187 99.9662 46.6475 99.3408 46.5849 98.702C46.4822 97.6596 46.6743 96.6023 46.8664 95.5674C47.0153 94.7752 47.1642 93.9815 47.3503 93.1967C47.445 92.7132 47.6181 92.2485 47.8626 91.8208C48.0711 91.4917 48.354 91.2162 48.5922 90.9065C49.2509 90.0416 49.5441 88.9517 49.4083 87.8732C49.3934 87.7659 47.8745 88.2573 47.7435 88.3199C47.1959 88.55 46.6921 88.8729 46.2543 89.2744C45.9029 89.608 45.6274 90.0547 45.3192 90.43C44.8844 90.959 44.4565 91.4912 44.0356 92.0263C43.555 92.6398 43.0815 93.2578 42.6149 93.8802Z" fill="#464353"/>
<path d="M42.6149 93.8802C42.1682 94.4684 41.7215 95.1475 41.8257 95.8742C41.8853 96.2658 42.1042 96.6113 42.265 96.9746C42.4671 97.473 42.6169 97.9909 42.7117 98.5203C42.877 99.2902 43.0423 100.062 43.1451 100.842C43.2591 101.725 43.2916 102.618 43.2419 103.507C43.2285 103.722 43.2046 103.954 43.0557 104.103C42.9962 104.163 42.9187 104.212 42.8934 104.292C42.8773 104.368 42.8895 104.448 42.9277 104.515C43.2003 105.074 43.6739 105.51 44.253 105.735C44.8282 105.956 45.4388 106.07 46.0548 106.072C46.1365 106.081 46.2193 106.07 46.296 106.04C46.3787 105.99 46.4438 105.916 46.4822 105.827C46.9289 104.979 46.6802 103.954 46.6877 102.998C46.6877 102.198 46.8813 101.406 46.847 100.607C46.8187 99.9662 46.6475 99.3408 46.5849 98.702C46.4822 97.6596 46.6743 96.6023 46.8664 95.5674C47.0153 94.7752 47.1642 93.9815 47.3503 93.1967C47.445 92.7132 47.6181 92.2485 47.8626 91.8208C48.0711 91.4917 48.354 91.2162 48.5922 90.9065C49.2509 90.0416 49.5441 88.9517 49.4083 87.8732C49.3934 87.7659 47.8745 88.2573 47.7435 88.3199C47.1959 88.55 46.6921 88.8729 46.2543 89.2744C45.9029 89.608 45.6274 90.0547 45.3192 90.43C44.8844 90.959 44.4565 91.4912 44.0356 92.0263C43.555 92.6398 43.0815 93.2578 42.6149 93.8802Z" fill="black" fill-opacity="0.05"/>
<path d="M45.8421 89.3545C45.9374 89.8102 46.3797 90.1586 46.3916 90.6247C46.402 90.997 46.1369 91.3097 45.9449 91.6298C45.7644 91.961 45.6119 92.3066 45.4892 92.6633C45.1275 93.5907 44.6788 94.4816 44.149 95.3243C43.8943 95.7294 43.6084 96.1687 43.668 96.6437C43.7079 96.8654 43.7861 97.0785 43.8988 97.2736L44.6642 98.794C44.832 99.0975 44.9629 99.42 45.0544 99.7544C45.1214 100.043 45.1273 100.35 45.166 100.636C45.2867 101.568 45.723 102.506 45.4639 103.41C45.4415 103.488 45.3596 103.581 45.2986 103.528C45.5517 104 45.7557 104.476 45.7349 105.017C45.726 105.298 45.6396 105.59 45.7438 105.852C45.8022 105.95 45.8415 106.058 45.86 106.171C45.86 106.247 45.8242 106.32 45.8168 106.396C45.7959 106.61 45.9925 106.791 46.198 106.859C46.4035 106.927 46.6269 106.923 46.8338 106.984C47.2329 107.103 47.5159 107.446 47.8584 107.684C48.2041 107.924 48.6127 108.057 49.0333 108.067C49.093 108.073 49.1531 108.061 49.206 108.032C49.2666 107.979 49.3019 107.903 49.3028 107.822C49.34 107.436 49.1817 107.055 48.8814 106.808C48.8194 106.766 48.7684 106.71 48.7325 106.645C48.7133 106.585 48.7082 106.523 48.7176 106.461C48.7801 105.625 48.7652 104.785 48.6729 103.952C48.6325 103.688 48.6196 103.421 48.6342 103.154C48.6783 102.935 48.6997 102.712 48.6982 102.488C48.6513 102.27 48.583 102.057 48.4942 101.853C48.3766 101.473 48.4093 101.065 48.3974 100.661C48.3529 99.9723 48.2402 99.2894 48.0609 98.6227C48.0216 98.3539 47.9121 98.1002 47.7437 97.8871C47.5844 97.7203 47.3267 97.5625 47.3878 97.3406C47.4216 97.2584 47.4724 97.1844 47.5367 97.1232C47.6867 96.936 47.7529 96.6951 47.7199 96.4576C47.8573 96.4925 48.0015 96.4248 48.0624 96.2967C49.3275 95.6709 50.2956 94.57 50.7547 93.2351C50.781 93.1388 50.8217 93.0469 50.8753 92.9626C50.99 92.8018 51.191 92.7318 51.3682 92.6424C51.9251 92.3625 52.3093 91.8368 52.6622 91.3231C52.8843 91.036 53.0537 90.7118 53.1626 90.3656C53.2108 90.1385 53.2338 89.9068 53.2311 89.6746L53.2623 88.4833C53.2684 88.4047 53.2609 88.3257 53.24 88.2496C53.2096 88.1782 53.1657 88.1135 53.1105 88.059C52.7706 87.7008 52.3248 87.4606 51.8388 87.374C51.5126 87.3159 51.1791 87.3263 50.8485 87.2995C50.2082 87.2459 49.5753 87.0479 48.9335 87.094C47.9269 87.1685 47.0304 87.8669 46.5509 88.7573C46.3752 89.076 46.1995 89.3441 45.8421 89.3545Z" fill="#464353"/>
<path d="M12.4679 107.582C12.6877 107.658 12.9213 107.686 13.1529 107.664C13.1692 107.474 13.4239 107.433 13.613 107.442C13.707 107.437 13.8006 107.458 13.884 107.501C13.9317 107.531 13.9674 107.576 14.0136 107.607C14.0958 107.652 14.1879 107.676 14.2816 107.675L15.2674 107.759C15.7067 107.796 16.1609 107.83 16.5748 107.673C16.6573 107.648 16.7304 107.599 16.7848 107.533C16.8965 107.373 16.7848 107.144 16.6359 107.028C16.487 106.912 16.283 106.858 16.1281 106.739C15.7856 106.478 15.7394 105.994 15.5578 105.601C15.4305 105.354 15.2723 105.125 15.0872 104.918C14.9527 104.74 14.7961 104.579 14.6211 104.441C14.2265 104.155 13.7708 104.161 13.3077 104.121C12.9801 104.091 12.6719 104.072 12.4366 104.362C12.1462 104.723 12.2624 105.449 12.2802 105.88C12.298 106.451 12.3606 107.02 12.4679 107.582Z" fill="#514E7F"/>
<path d="M12.4679 107.582C12.6877 107.658 12.9213 107.686 13.1529 107.664C13.1692 107.474 13.4239 107.433 13.613 107.442C13.707 107.437 13.8006 107.458 13.884 107.501C13.9317 107.531 13.9674 107.576 14.0136 107.607C14.0958 107.652 14.1879 107.676 14.2816 107.675L15.2674 107.759C15.7067 107.796 16.1609 107.83 16.5748 107.673C16.6573 107.648 16.7304 107.599 16.7848 107.533C16.8965 107.373 16.7848 107.144 16.6359 107.028C16.487 106.912 16.283 106.858 16.1281 106.739C15.7856 106.478 15.7394 105.994 15.5578 105.601C15.4305 105.354 15.2723 105.125 15.0872 104.918C14.9527 104.74 14.7961 104.579 14.6211 104.441C14.2265 104.155 13.7708 104.161 13.3077 104.121C12.9801 104.091 12.6719 104.072 12.4366 104.362C12.1462 104.723 12.2624 105.449 12.2802 105.88C12.298 106.451 12.3606 107.02 12.4679 107.582Z" fill="black" fill-opacity="0.05"/>
<path d="M12.859 88.4247C12.5612 88.5214 12.4272 88.8967 12.4823 89.2094C12.5374 89.5221 12.725 89.7902 12.8799 90.0657C13.3177 90.8504 13.5083 91.7484 13.8761 92.5674C14.1516 93.1794 14.5238 93.7453 14.7964 94.3543C15.0689 94.9633 15.2431 95.6603 15.0718 96.311C14.9914 96.6282 14.8366 96.92 14.7323 97.2298C14.6305 97.5696 14.5636 97.9188 14.5328 98.2722C14.3995 99.4667 14.3757 100.671 14.4613 101.87C14.4626 102.017 14.4936 102.161 14.5521 102.296C14.6132 102.415 14.7204 102.54 14.6683 102.664C14.6474 102.713 14.6028 102.748 14.5804 102.798C14.5179 102.935 14.6445 103.078 14.7591 103.174C14.7179 103.248 14.6477 103.302 14.5655 103.323C14.7353 103.431 14.815 103.639 14.7606 103.833C14.6579 103.847 14.6519 104.004 14.7174 104.086C14.783 104.168 14.8827 104.22 14.9289 104.312C14.9855 104.469 14.9085 104.646 14.7547 104.711C14.6034 104.77 14.4379 104.782 14.2796 104.747C14.0104 104.71 13.7444 104.652 13.4844 104.573C13.3967 104.551 13.3138 104.513 13.2402 104.461C13.109 104.333 13.0309 104.161 13.0213 103.978C12.9606 103.484 12.9421 102.986 12.9662 102.489C13.0094 100.083 12.9662 97.6735 12.862 95.2686C12.8188 94.3007 12.5284 93.3566 12.1532 92.4631C11.9465 92.0046 11.7158 91.5573 11.4622 91.1229C10.9232 90.1312 10.4437 89.0382 10.5688 87.9139C10.5822 87.7933 10.6268 87.6473 10.746 87.628C10.7929 87.6228 10.8402 87.6305 10.883 87.6503C11.1321 87.7675 11.3733 87.9008 11.6052 88.0494C11.9866 88.274 12.4169 88.4028 12.859 88.4247Z" fill="#464353"/>
<path d="M12.859 88.4247C12.5612 88.5214 12.4272 88.8967 12.4823 89.2094C12.5374 89.5221 12.725 89.7902 12.8799 90.0657C13.3177 90.8504 13.5083 91.7484 13.8761 92.5674C14.1516 93.1794 14.5238 93.7453 14.7964 94.3543C15.0689 94.9633 15.2431 95.6603 15.0718 96.311C14.9914 96.6282 14.8366 96.92 14.7323 97.2298C14.6305 97.5696 14.5636 97.9188 14.5328 98.2722C14.3995 99.4667 14.3757 100.671 14.4613 101.87C14.4626 102.017 14.4936 102.161 14.5521 102.296C14.6132 102.415 14.7204 102.54 14.6683 102.664C14.6474 102.713 14.6028 102.748 14.5804 102.798C14.5179 102.935 14.6445 103.078 14.7591 103.174C14.7179 103.248 14.6477 103.302 14.5655 103.323C14.7353 103.431 14.815 103.639 14.7606 103.833C14.6579 103.847 14.6519 104.004 14.7174 104.086C14.783 104.168 14.8827 104.22 14.9289 104.312C14.9855 104.469 14.9085 104.646 14.7547 104.711C14.6034 104.77 14.4379 104.782 14.2796 104.747C14.0104 104.71 13.7444 104.652 13.4844 104.573C13.3967 104.551 13.3138 104.513 13.2402 104.461C13.109 104.333 13.0309 104.161 13.0213 103.978C12.9606 103.484 12.9421 102.986 12.9662 102.489C13.0094 100.083 12.9662 97.6735 12.862 95.2686C12.8188 94.3007 12.5284 93.3566 12.1532 92.4631C11.9465 92.0046 11.7158 91.5573 11.4622 91.1229C10.9232 90.1312 10.4437 89.0382 10.5688 87.9139C10.5822 87.7933 10.6268 87.6473 10.746 87.628C10.7929 87.6228 10.8402 87.6305 10.883 87.6503C11.1321 87.7675 11.3733 87.9008 11.6052 88.0494C11.9866 88.274 12.4169 88.4028 12.859 88.4247Z" fill="black" fill-opacity="0.05"/>
<path d="M8.79375 85.5203C8.63665 85.4201 8.45572 85.363 8.26958 85.355C8.055 85.3888 7.8559 85.4875 7.69925 85.6379C7.5003 85.7916 7.31133 85.9578 7.13339 86.1353C6.38213 86.9357 6.12273 88.0844 6.45733 89.1299C6.63751 89.6645 6.96363 90.1365 7.28528 90.5981L7.94048 91.5393C8.93968 92.9748 9.94036 94.4103 10.9872 95.8115C10.9891 95.88 11.0349 95.9402 11.1004 95.9604C11.1391 95.9709 11.1853 95.9694 11.2091 96.0007C11.2197 96.0203 11.2243 96.0425 11.2225 96.0647C11.2188 96.1664 11.1993 96.2669 11.1644 96.3625C11.1473 96.3939 11.1431 96.4307 11.1525 96.4653C11.1853 96.5442 11.3297 96.4995 11.3744 96.574C11.4056 96.6216 11.3744 96.6856 11.3267 96.7229C11.2791 96.7601 11.2374 96.8107 11.2448 96.8718C11.2523 96.9328 11.352 96.9894 11.3476 97.0639C11.3476 97.1056 11.3118 97.1368 11.2865 97.1696C11.2131 97.2767 11.227 97.4223 11.3193 97.5136C11.3878 98.1986 11.0215 98.8463 10.9425 99.5313C10.8249 100.608 11.3118 101.659 11.3714 102.74C11.3684 102.862 11.3912 102.983 11.4384 103.095C11.5397 103.281 11.7988 103.393 11.7898 103.606C11.7715 103.693 11.7471 103.779 11.7169 103.863C11.7188 103.987 11.7318 104.11 11.7556 104.231C11.7556 104.355 11.6514 104.502 11.5367 104.454C11.6231 104.74 11.6995 105.029 11.766 105.32L14.0592 105.509C14.0835 105.302 14.0765 105.093 14.0384 104.889C13.9907 104.669 13.8895 104.462 13.8389 104.241C13.7705 104.023 13.8039 103.785 13.9297 103.594C13.8061 103.596 13.6983 103.507 13.6765 103.385C13.6557 103.267 13.6557 103.147 13.6765 103.029C13.7376 102.434 13.4859 101.838 13.4934 101.242C13.5008 100.769 13.6661 100.315 13.751 99.85C13.9297 98.8553 13.7436 97.7757 14.1858 96.8718C14.4539 96.3238 14.8247 95.7162 14.5239 95.1861C14.3749 94.924 14.1143 94.7394 13.9446 94.4981C13.8054 94.2663 13.7005 94.0155 13.6334 93.7536C13.279 92.6576 12.7086 91.6465 12.2068 90.6086C12.0682 90.348 11.965 90.0701 11.9 89.7821C11.8644 89.5296 11.8521 89.2745 11.8628 89.0197C11.8613 88.5618 11.833 88.1043 11.7779 87.6497C11.7674 87.4502 11.7102 87.2558 11.6111 87.0824C11.5141 86.9518 11.3927 86.841 11.2538 86.7562C10.5018 86.244 9.60531 85.9477 8.79375 85.5203Z" fill="#464353"/>
<path d="M11.5561 108.427C11.7759 108.503 12.0096 108.531 12.2411 108.509C12.259 108.32 12.5121 108.278 12.7012 108.287C12.793 108.284 12.8838 108.305 12.9648 108.348C13.0125 108.378 13.0482 108.423 13.0959 108.454C13.1779 108.499 13.2702 108.523 13.3639 108.522L14.3482 108.606C14.7875 108.643 15.2417 108.677 15.6571 108.519C15.739 108.495 15.8116 108.446 15.8656 108.379C15.9773 108.22 15.8656 107.991 15.7167 107.875C15.5678 107.758 15.3638 107.705 15.2074 107.586C14.8664 107.325 14.8188 106.841 14.6371 106.448C14.5098 106.201 14.3516 105.972 14.1665 105.765C14.0327 105.587 13.8765 105.426 13.7019 105.288C13.3058 105.002 12.8516 105.008 12.3885 104.968C12.0594 104.938 11.7512 104.919 11.5174 105.209C11.2196 105.57 11.3417 106.296 11.3596 106.727C11.381 107.298 11.4468 107.866 11.5561 108.427Z" fill="#514E7F"/>
<path d="M35.5661 91.1685H23.9465V102.788H35.5661V91.1685Z" fill="white"/>
<path d="M33.2036 96.5888C33.2036 97.9141 32.5827 98.748 31.6013 98.748C31.0995 98.748 30.7168 98.48 30.6498 98.0824H30.5783C30.408 98.4944 29.9913 98.7536 29.5464 98.7242C28.6737 98.7242 28.0915 98.0243 28.0915 96.9834C28.0915 95.9842 28.6782 95.2888 29.5345 95.2888C29.9471 95.2725 30.332 95.5028 30.5128 95.8741H30.5843V95.3767H31.2976V97.6923C31.2956 97.7086 31.2946 97.725 31.2946 97.7414C31.2946 97.9685 31.4815 98.1554 31.7086 98.1554C31.7205 98.1554 31.7324 98.1549 31.7443 98.1539C32.2387 98.1539 32.5544 97.5582 32.5544 96.6201C32.5544 95.131 31.4375 94.1348 29.7891 94.1348C28.1406 94.1348 26.997 95.3261 26.997 97.0058C26.997 98.7257 28.1466 99.8247 29.9365 99.8247C30.2625 99.8263 30.588 99.7985 30.9089 99.7413C30.9241 99.7388 30.9393 99.7376 30.9546 99.7376C31.1099 99.7376 31.2376 99.8653 31.2376 100.02C31.2376 100.148 31.1513 100.261 31.028 100.294C30.6607 100.377 30.285 100.418 29.9082 100.416C27.7326 100.416 26.3344 99.0756 26.3344 96.9909C26.3344 94.9538 27.7565 93.5555 29.8278 93.5555C31.8232 93.5436 33.2036 94.787 33.2036 96.5888ZM28.8629 96.9998C28.8629 97.661 29.1726 98.0616 29.6789 98.0616C30.212 98.0616 30.5485 97.6506 30.5485 96.9998C30.5485 96.3491 30.212 95.947 29.6878 95.947C29.1637 95.947 28.8629 96.3372 28.8629 96.9998Z" fill="#0F79D1"/>
<path d="M21.6745 81.5424C22.9286 81.5424 23.9454 80.5257 23.9454 79.2715C23.9454 78.0173 22.9286 77.0006 21.6745 77.0006C20.4203 77.0006 19.4036 78.0173 19.4036 79.2715C19.4036 80.5257 20.4203 81.5424 21.6745 81.5424Z" fill="#A1616A"/>
<path d="M19.5514 79.9412C19.2253 80.2227 18.7592 80.239 18.3319 80.2867C17.4187 80.3798 16.5297 80.6371 15.708 81.0461C15.5961 81.0956 15.495 81.1663 15.4102 81.2546C15.3384 81.3512 15.2877 81.4617 15.2613 81.5792C15.1837 81.8346 15.1544 82.1024 15.1749 82.3685C15.2047 82.6274 15.2787 82.8792 15.3938 83.113C15.7091 83.766 16.1962 84.321 16.8025 84.7183C16.9054 84.7938 17.0216 84.8493 17.145 84.8821C17.4429 84.9446 17.7332 84.7704 18.0266 84.693C18.2951 84.6236 18.5779 84.6328 18.8411 84.7198C19.0883 84.8017 19.3489 84.9521 19.5857 84.8523C19.7392 84.7659 19.8591 84.63 19.9252 84.4666C20.1574 84.0266 20.3642 83.5736 20.5447 83.11C20.6098 82.9303 20.6848 82.7543 20.7695 82.5829C21.0331 82.0811 21.4888 81.6894 21.7151 81.1742C21.7616 81.0935 21.7692 80.9961 21.736 80.9091C21.694 80.8511 21.6361 80.8067 21.5692 80.7811C21.234 80.5891 20.9284 80.3492 20.6623 80.0693C20.5134 79.9204 20.2379 79.5391 20.0235 79.5049C19.7882 79.4736 19.7152 79.8012 19.5514 79.9412Z" fill="#A1616A"/>
<path d="M19.5895 84.5621C19.326 84.6887 19.0162 84.6321 18.7303 84.5726C17.9947 84.4237 17.2516 84.2628 16.5711 83.9442C16.3583 83.8637 16.1738 83.7224 16.041 83.5376C15.9568 83.3799 15.9062 83.2066 15.8921 83.0284L15.767 82.184C15.7238 81.8862 15.7997 81.6152 15.8057 81.3174C15.8152 81.2504 15.7975 81.1822 15.7566 81.1282C15.715 81.0937 15.6614 81.0772 15.6077 81.0821C15.2666 81.0821 15.0611 81.4439 14.8214 81.6867C14.6841 81.8263 14.52 81.9367 14.3389 82.0113C14.12 82.1006 13.8505 82.1602 13.7626 82.3821C13.7254 82.4729 13.7299 82.5772 13.6927 82.668C13.5437 83.0313 12.8885 82.9107 12.7232 83.2636C12.6756 83.3649 12.6786 83.493 12.5996 83.5734C12.5207 83.6538 12.3763 83.6508 12.2571 83.6717C11.7836 83.7491 11.5528 84.2971 11.1478 84.5547C10.8068 84.7721 10.3675 84.7676 10.0011 84.9374C9.81039 85.0516 9.61129 85.1512 9.4055 85.2352C9.17752 85.275 8.94536 85.2864 8.71455 85.2695C8.66422 85.265 8.61418 85.2811 8.57606 85.3141C8.54851 85.3585 8.54047 85.4124 8.55373 85.4631C8.78231 86.9207 9.76646 88.1533 11.1373 88.6989C11.2152 88.7241 11.2894 88.7596 11.3577 88.8046C11.5647 88.9535 11.6005 89.2916 11.8342 89.4003C12.0068 89.4594 12.1986 89.418 12.3316 89.2931C12.4592 89.1686 12.5791 89.0362 12.6905 88.8969C12.9046 88.6743 13.1853 88.5269 13.4901 88.477C13.7716 88.4323 14.0858 88.4651 14.3136 88.2924C14.4068 88.2066 14.4933 88.1141 14.5727 88.0154C14.7437 87.8568 14.9469 87.7369 15.1684 87.664C15.7637 87.434 16.3923 87.3014 17.0298 87.2708C17.6254 87.2366 18.2434 87.2917 18.8078 87.0966C18.9546 87.0522 19.0899 86.976 19.2039 86.8732C19.3257 86.7418 19.4164 86.5845 19.4689 86.4131C19.6743 85.8181 19.7158 85.1788 19.5895 84.5621Z" fill="#514E7F"/>
<path d="M16.6692 81.2072C16.8375 81.1923 17.0057 81.2072 17.174 81.2072C17.3721 81.2072 17.5671 81.1596 17.7697 81.1581C18.4106 81.1685 18.9739 81.5974 19.1545 82.2124C19.1715 82.2602 19.1746 82.3118 19.1635 82.3613C19.1499 82.4118 19.1008 82.445 19.0488 82.4387C18.9836 82.2594 18.8981 82.088 18.7942 81.9279C18.6052 81.6723 18.3372 81.4858 18.0317 81.3978C17.7263 81.3113 17.4045 81.2995 17.0936 81.3636C16.9655 81.3874 16.839 81.4217 16.7124 81.4574L16.0944 81.6242C15.9827 81.654 15.871 81.6852 15.7623 81.7254C15.6789 81.7552 15.5345 81.8743 15.4526 81.8743C15.3409 81.8743 15.4318 81.7775 15.4809 81.712C15.5795 81.577 15.7181 81.4764 15.877 81.4246C16.131 81.3198 16.3971 81.2467 16.6692 81.2072Z" fill="#514E7F"/>
<path d="M18.1813 88.0245C18.3302 88.4951 18.4791 88.9656 18.6593 89.4243C18.989 90.2196 19.4045 90.9766 19.8982 91.6818C20.2159 92.1459 20.5573 92.5933 20.9213 93.022C21.3769 93.5596 21.8862 94.1001 22.047 94.7866C22.1408 95.1827 22.1096 95.5982 22.1483 96.0032C22.187 96.4082 22.3195 96.8386 22.6471 97.0813C22.896 97.2353 23.1776 97.3281 23.4691 97.3523C23.6746 97.3851 23.9322 97.3955 24.0395 97.2168C24.077 97.1442 24.0965 97.0634 24.0961 96.9815L24.1452 96.3859C24.1571 96.2578 24.2018 96.0881 24.3298 96.0881C24.4579 96.0881 24.5234 96.2534 24.6277 96.3293C24.6747 96.3548 24.7274 96.368 24.781 96.368C24.9069 96.368 25.0217 96.2946 25.0744 96.1804C25.1401 96.0136 25.1444 95.8288 25.0863 95.6592C24.9076 94.9779 24.4461 94.4043 23.8191 94.0837C23.6032 93.9951 23.3957 93.887 23.1996 93.7606C23.0001 93.5887 22.8348 93.3806 22.7127 93.1471C21.5854 91.2931 20.4537 89.4243 19.66 87.4125C19.5035 87.0521 19.3976 86.6717 19.3458 86.2823C19.3297 85.8845 19.3461 85.486 19.3949 85.091C19.4433 84.3755 19.3784 83.6568 19.2028 82.9616C19.1641 82.7791 19.0952 82.6045 18.9988 82.4448C18.6727 81.9475 17.9028 81.8745 17.4174 82.217C17.0564 82.4953 16.8283 82.9126 16.789 83.3666C16.7532 83.7672 16.9855 84.1856 17.1032 84.5579C17.4625 85.7145 17.822 86.87 18.1813 88.0245Z" fill="#A1616A"/>
<path d="M24.9688 77.6697C24.9867 77.4806 24.8199 77.3093 24.6248 77.1887C24.422 77.0836 24.2269 76.9642 24.0411 76.8313C23.8684 76.6824 23.7745 76.4874 23.6018 76.3385C23.4061 76.1891 23.1838 76.0785 22.9466 76.0123C22.443 75.835 21.9139 75.74 21.3801 75.7309C20.8526 75.7169 20.3322 75.8543 19.8805 76.127C19.7809 76.1885 19.6944 76.2689 19.6259 76.3638C19.561 76.4802 19.519 76.6081 19.5023 76.7405C19.4055 77.1479 19.2744 77.5464 19.1106 77.9318C18.9424 78.3607 18.7622 78.8044 18.3661 79.135C17.9417 79.4894 17.2909 79.6934 17.011 80.1208C16.9492 80.1982 16.9266 80.3001 16.9499 80.3963C16.9901 80.5035 17.1197 80.5765 17.2373 80.645C17.9268 81.0411 18.521 81.5533 18.8277 82.1668C19.1552 82.7717 19.1004 83.5152 18.6877 84.0654C18.5284 84.2739 18.308 84.5211 18.4644 84.7311C18.7011 85.0498 19.5187 84.8681 19.7063 85.2046C19.7453 85.3165 19.7539 85.4368 19.7316 85.5531C19.7316 85.906 20.0726 86.2217 20.4866 86.384C20.9239 86.5325 21.3827 86.608 21.8447 86.6074C21.9694 86.3301 21.9818 86.0149 21.8789 85.7288C21.8482 85.6671 21.8363 85.5977 21.8447 85.5292C21.877 85.4535 21.9282 85.3873 21.9936 85.3372C22.4924 84.8666 22.3867 84.1742 22.0874 83.6157C21.7881 83.0573 21.3235 82.5451 21.1507 81.9569C21.0644 81.659 21.0629 81.3359 21.2996 81.0932C21.4326 80.9766 21.5756 80.8719 21.727 80.7805C21.9955 80.5975 22.2031 80.3381 22.3227 80.0359C22.4611 79.6487 22.4403 79.1827 22.8483 78.9265C23.2563 78.6704 23.785 78.7538 24.2153 78.5885C24.5623 78.45 24.942 77.9452 24.9688 77.6697Z" fill="#464353"/>
<path d="M37.7426 80.952C39.1103 80.952 40.219 79.8433 40.219 78.4756C40.219 77.1079 39.1103 75.9992 37.7426 75.9992C36.375 75.9992 35.2662 77.1079 35.2662 78.4756C35.2662 79.8433 36.375 80.952 37.7426 80.952Z" fill="#FBBEBE"/>
<path d="M39.9427 78.3609C40.4043 79.0983 41.1465 79.6174 41.9976 79.7979L41.8115 80.474C41.4899 81.6385 41.1265 82.8714 40.2271 83.6785C40.306 83.2744 40.2149 82.8551 39.9754 82.52C39.7376 82.1896 39.455 81.8938 39.1356 81.6414L37.7105 80.401C37.6669 80.3691 37.6304 80.3286 37.6033 80.2819C37.5683 80.1949 37.5683 80.0978 37.6033 80.0109C37.7849 79.445 38.3032 79.0921 38.7231 78.7109C38.9347 78.5133 39.124 78.293 39.2875 78.0542C39.5793 77.6521 39.7625 78.0586 39.9427 78.3609Z" fill="#FBBEBE"/>
<path d="M40.3042 81.5691C40.3181 81.7543 40.2932 81.9405 40.2313 82.1156C40.1601 82.2915 39.9689 82.3896 39.7846 82.3449C39.8367 82.2273 39.6997 82.0933 39.5716 82.1081C39.4438 82.1369 39.3381 82.2267 39.2887 82.3479C39.2028 82.519 39.174 82.7132 39.2068 82.9018C39.247 83.1371 39.3825 83.362 39.3468 83.5973C39.3185 83.7923 39.174 83.9874 39.2515 84.1706C39.301 84.2532 39.3634 84.3277 39.4361 84.3909C39.644 84.6478 39.6143 85.0272 39.3691 85.2487L41.3049 85.2859C41.2335 85.609 41.3794 85.9396 41.5447 86.2255C42.4822 87.822 44.1167 88.8893 45.9554 89.1055C45.8381 89.1744 45.7659 89.3007 45.7659 89.4367C45.7659 89.5309 45.8004 89.6219 45.8631 89.6922C46.021 89.8485 46.286 89.8292 46.4826 89.7279C46.6689 89.6081 46.8465 89.4752 47.0142 89.3303C47.3302 89.1038 47.7171 88.9981 48.1042 89.0325C48.3469 89.0549 48.5807 89.1323 48.8235 89.1457C49.5382 89.1844 50.1532 88.6692 50.8367 88.4592C51.3386 88.3103 51.9059 88.3103 52.3259 87.9916C52.5075 87.8576 52.6564 87.6372 52.6028 87.4168C52.5582 87.2911 52.487 87.1763 52.3944 87.0803C52.1516 86.7661 52.0102 86.3893 51.8359 86.0379C51.4925 85.3331 51.0192 84.6995 50.4406 84.1706C50.0052 83.7886 49.5434 83.4378 49.0587 83.1207C48.941 83.0342 48.8153 82.959 48.6835 82.8959C48.5079 82.8388 48.3368 82.7692 48.1712 82.6874C47.9434 82.5385 47.8138 82.2928 47.6396 82.0918C47.2569 81.645 46.6687 81.441 46.1967 81.0896C45.881 80.8543 45.601 80.5446 45.2243 80.4299C45.0411 80.3748 44.8446 80.3703 44.6614 80.3152C44.2444 80.1887 43.9407 79.8179 43.5312 79.669C43.208 79.5498 42.8506 79.5811 42.5081 79.5379C42.1311 79.4912 41.7706 79.3548 41.4568 79.1403C41.3548 79.0565 41.2402 78.9892 41.1173 78.9408C40.6006 78.7919 40.5589 79.7479 40.5097 80.0815C40.4323 80.5684 40.3042 81.0672 40.3042 81.5691Z" fill="#3F3D56"/>
<path d="M40.8069 84.8096C40.8933 85.7492 40.183 86.6605 40.39 87.5823C40.4346 87.7789 40.518 87.965 40.5493 88.1631C40.6357 88.7096 40.3095 89.2263 39.9983 89.6834L37.3179 93.6058C37.2114 93.7787 37.0834 93.9374 36.9367 94.0778C36.4244 94.532 35.659 94.4843 34.9875 94.6213C34.5156 94.7174 34.07 94.9145 33.6815 95.1991C33.6461 95.2271 33.6388 95.2786 33.6651 95.3153C33.89 95.622 34.2563 95.794 34.636 95.7709C34.706 95.8633 34.636 96.0003 34.5392 96.0688C34.3903 96.1685 34.1982 96.1953 34.1699 96.4381C34.1601 96.5229 34.1768 96.6087 34.2176 96.6838C34.326 96.8486 34.4943 96.9649 34.6867 97.0084C35.6114 97.2913 36.6106 96.794 37.303 96.1149C37.9955 95.4359 38.4943 94.5856 39.1733 93.8961C39.5501 93.5149 39.9775 93.1888 40.3646 92.8195C41.1375 92.075 41.7391 91.1815 42.3198 90.288C42.5091 90.027 42.6522 89.7353 42.7428 89.4258C42.8142 89.1206 42.7815 88.7959 42.8649 88.4936C42.9721 88.096 43.2625 87.7789 43.5052 87.4513C43.9802 86.7975 44.2959 85.9994 44.2334 85.1938C44.1708 84.3882 43.672 83.596 42.914 83.322C42.6772 83.2271 42.4159 83.2113 42.1694 83.2773C41.8582 83.3726 41.6289 83.6302 41.416 83.8729L40.9082 84.4596C40.7808 84.5879 40.6797 84.7396 40.6103 84.9064C40.5439 85.0784 40.5849 85.2742 40.7146 85.4052" fill="#FBBEBE"/>
<path d="M42.1547 80.9209C41.8033 80.9417 41.4102 80.976 41.1674 81.2187C41.0637 81.334 40.9801 81.4659 40.9202 81.6089C40.679 82.0988 40.4437 82.6125 40.4274 83.159C40.4125 83.5954 40.539 84.0227 40.606 84.4546C40.6611 84.8134 40.5212 85.1798 40.4944 85.5431C40.98 85.411 41.451 85.2299 41.9001 85.0026C42.1598 84.8332 42.4357 84.6901 42.7236 84.5752C43.142 84.4352 43.8478 84.675 44.2439 84.873C44.2663 84.5931 44.0563 84.1061 44.0787 83.8306C44.0815 83.7124 44.1025 83.5954 44.1412 83.4837C44.2003 83.3656 44.2706 83.2533 44.3512 83.1486C44.6628 82.6434 44.6127 81.9905 44.2276 81.5389C43.8746 81.1413 43.3207 80.9924 42.7921 80.9298C42.4589 80.8916 42.1233 80.8803 41.7884 80.8956" fill="#3F3D56"/>
<path d="M34.4996 75.9867L34.443 75.5206C34.8346 75.6204 35.2054 75.2898 35.4556 74.9458C35.7058 74.6018 35.9366 74.2013 36.3163 74.0523C36.7794 73.8781 37.2693 74.1566 37.7116 74.3859C38.2057 74.665 38.7495 74.845 39.3124 74.916C39.4022 74.9199 39.4911 74.9343 39.5775 74.9592C39.8649 75.062 40.0019 75.4223 40.0436 75.7499C40.0853 76.0775 40.0733 76.426 40.2148 76.7179C40.3235 76.9382 40.5126 77.1035 40.6198 77.3135C40.9177 77.8987 40.6303 78.6999 40.9504 79.2747L40.1567 78.548C40.0838 78.481 39.981 78.411 39.9021 78.4676C39.8232 78.5241 39.8336 78.6165 39.8068 78.6865C39.7407 78.8372 39.5909 78.9348 39.4263 78.9348C39.3626 78.9348 39.2996 78.9203 39.2424 78.892C39.0418 78.7777 38.8694 78.6199 38.7376 78.4303C38.4078 78.0082 37.9734 77.6792 37.4778 77.4758C37.0433 77.308 36.5567 77.3369 36.1451 77.5547C35.7743 77.7647 35.5033 78.2516 35.0491 78.268C34.4266 78.2918 34.1675 77.1333 33.8801 76.6762C34.096 76.5127 34.1653 76.2154 34.0439 75.9733C34.0871 75.9584 34.4907 75.9152 34.4996 75.9867Z" fill="#464353"/>
<path d="M101.342 118.167C101.222 117.656 101.149 117.209 101.149 117.209C101.159 116.871 101.083 116.537 100.927 116.237V116.097V115.069C100.997 114.883 101.084 114.703 101.186 114.532C101.371 114.21 101.186 113.028 101.186 113.028C101.186 113.028 100.501 111.361 100.666 110.304C100.832 109.247 99.2606 105.609 99.2606 105.609C99.2706 105.257 99.3205 104.907 99.4095 104.566C99.4265 104.495 99.433 104.422 99.4289 104.349C99.4296 104.34 99.4296 104.331 99.4289 104.322V104.331C99.405 103.634 98.8541 102.327 98.8541 102.327L98.9285 99.8371C98.9285 99.8371 99.28 98.3673 98.7066 96.3957C98.5056 95.7078 98.3776 95.1583 98.2957 94.7324C98.2867 94.6847 98.2778 94.6386 98.2703 94.5939C99.4512 94.4137 100.355 94.2633 100.355 94.2633C100.355 94.2633 99.6701 91.3968 99.207 90.895C98.7439 90.3931 98.3746 88.8176 98.3746 88.8176C98.3746 88.8176 98.1333 86.7924 98.5235 86.2013C98.9136 85.6101 98.9702 84.5886 98.9702 84.5886C98.9702 84.5886 99.8637 83.9438 99.9694 83.6564C100.127 83.2484 100.227 82.8204 100.267 82.3847C100.267 82.0437 100.156 81.7399 100.193 81.5597C100.23 81.3795 99.9337 80.7005 100.083 80.3774C100.121 80.278 100.141 80.1726 100.141 80.0661C100.141 80.0631 100.141 80.0602 100.141 80.0572C100.141 79.7749 100.115 79.4931 100.062 79.2158C99.8053 78.9989 99.5058 78.8385 99.1832 78.7453L99.1638 78.6693L99.1132 78.4683C99.0852 78.4488 99.0558 78.4314 99.0253 78.4162V78.3417V78.0439L99.1638 77.3887C99.4378 76.2525 97.9189 76.0827 97.9189 76.0827C97.827 75.9079 97.6736 75.7732 97.4885 75.7045C97.1907 75.5973 97.4379 77.417 97.5809 77.5332C97.6881 77.6195 98.0276 78.1913 98.1765 78.4713L98.2033 78.5175C98.178 78.5398 98.1546 78.5642 98.1333 78.5904L98.1914 78.985L98.2003 79.0461C98.0995 79.1709 98.0176 79.3098 97.9576 79.4586C97.8976 79.6073 98.2361 79.7638 98.1795 80.1048C98.1581 80.3709 98.1895 80.6387 98.2718 80.8926C98.2554 80.8732 98.0604 80.6618 97.8653 80.7139C97.6702 80.766 97.1207 80.9283 97.1207 80.9283C97.1207 80.9283 96.7127 80.9998 96.75 81.0892C96.7872 81.1785 96.473 81.5731 96.473 81.5731L95.3785 80.5307C95.3666 80.4995 95.3561 80.4682 95.3457 80.4369C95.3009 80.2911 95.2695 80.1416 95.2519 79.9902C95.3707 79.9617 95.4872 79.9244 95.6004 79.8785C95.7137 79.8386 95.8157 79.7722 95.8982 79.6849C95.9899 79.542 96.0499 79.381 96.0739 79.2129C96.1603 78.8942 96.3464 78.6098 96.4804 78.3075C96.7014 77.7995 96.7747 77.2395 96.6919 76.6918C96.6749 76.522 96.6177 76.3587 96.5251 76.2153C96.3464 75.9696 96.0218 75.8698 95.7805 75.6732C95.5393 75.4767 95.3934 75.1789 95.1179 75.0314C94.8562 74.9175 94.5642 74.8924 94.287 74.96C93.7396 75.0492 93.2138 75.2401 92.7368 75.5228C92.576 75.6182 92.4017 75.7269 92.2171 75.6941C92.0651 75.6478 91.9333 75.5511 91.8433 75.4201C91.8427 75.4146 91.8427 75.4092 91.8433 75.4037L91.8299 75.3903C91.7151 75.6479 91.6572 75.9273 91.6602 76.2093V76.385C91.6609 76.398 91.6609 76.4108 91.6602 76.4238C91.6594 76.4434 91.6564 76.4629 91.6512 76.4818C91.6286 76.5381 91.594 76.5891 91.55 76.6307C91.5156 76.6678 91.4856 76.7089 91.4606 76.7528C91.4606 76.738 91.4696 76.7231 91.4755 76.7082C91.4052 76.8096 91.3655 76.9289 91.3609 77.0522C91.3549 77.1423 91.385 77.2312 91.4442 77.2994C91.4983 77.3546 91.5577 77.4045 91.6214 77.4483C91.6005 77.5683 91.59 77.6898 91.5902 77.8116C91.594 78.5517 91.9855 79.238 92.6206 79.6179L92.6579 79.7117C92.8163 80.0879 92.8842 80.4959 92.8559 80.903C92.8559 80.9328 92.8559 80.9611 92.8425 80.9909L92.8038 81.0355C92.8038 81.0355 90.996 81.0534 90.5701 80.6677C90.1442 80.2821 89.4965 81.6089 89.4965 81.6089C89.4965 81.6089 88.8487 81.7354 88.7192 81.6089C88.5896 81.4823 87.8257 81.591 87.8257 81.591C87.5152 81.3161 87.1115 81.1691 86.697 81.18C86.4441 80.9871 86.1647 80.8317 85.8675 80.7184L85.8467 80.7109C85.7162 80.6637 85.5767 80.6464 85.4387 80.6603C85.3006 80.6741 84.5452 79.9247 84.292 79.5315C84.0389 79.1384 82.8029 77.6746 82.7925 77.6672V77.5972L82.7776 77.3842C82.7411 77.3902 82.7043 77.3936 82.6674 77.3947C82.6674 77.3723 82.6525 77.3485 82.6421 77.3202C82.5709 77.1149 82.4834 76.9158 82.38 76.7246C82.2767 76.5334 82.38 76.4565 82.4589 76.3895C82.5379 76.3225 82.4262 75.3367 82.4262 75.3367C82.4262 75.3367 81.625 73.4649 80.9088 74.8617C80.9088 74.8617 79.5522 75.7656 80.6899 76.8199C80.6899 76.8199 81.1366 77.0388 81.2081 77.213C81.2513 77.3262 81.4047 77.6433 81.5059 77.8533L81.5521 77.9471L81.5387 77.9575L81.5565 78.1333V78.2018C81.3421 78.3224 81.1977 78.443 81.2319 78.5353C81.2956 78.6905 81.3391 78.8531 81.3615 79.0193C81.3838 79.1855 82.9355 80.9894 83.1395 81.8322C83.1395 81.8322 87.3596 84.3399 88.7475 84.5201L88.5077 85.7739C88.4718 86.1133 88.4534 86.4541 88.4526 86.7954C88.4705 87.0635 88.2858 88.2845 88.2858 88.2845C88.2858 88.2845 88.0446 90.0715 87.8391 90.3261C87.6336 90.5807 87.6723 91.6529 87.6723 91.6529C87.6241 92.1672 87.5315 92.6764 87.3953 93.1748C87.1913 93.8568 87.3403 94.6981 87.3403 94.6981C87.3403 94.6981 86.6359 96.3109 88.3216 95.2178C88.3216 95.2178 89.148 95.1672 90.1085 95.1345V95.6244C90.0966 96.5476 90.0906 97.8208 90.1323 98.7843C90.2068 100.486 90.728 103.847 90.728 103.847V105.539C90.6955 105.698 90.6796 105.86 90.6803 106.023C90.6678 106.62 90.826 107.207 91.136 107.717L91.2655 108.846C91.2655 108.846 91.5634 109.591 91.5753 110.037C91.5741 110.074 91.5696 110.109 91.5619 110.145C91.5507 110.202 91.5457 110.26 91.547 110.317C91.5306 110.83 91.8448 112.057 91.8448 112.057C91.8448 112.057 91.8642 113.293 92.0488 113.364C92.2067 113.425 91.8374 114.077 91.7272 114.258C91.7239 114.246 91.7215 114.234 91.7197 114.222C91.7063 114.246 91.6974 114.259 91.6974 114.259C91.659 114.359 91.6393 114.465 91.6393 114.572C91.6173 114.744 91.6977 114.914 91.8448 115.007C92.1962 115.223 92.3854 115.401 92.0875 115.473C91.9776 115.489 91.8688 115.512 91.7614 115.541C91.7614 115.528 91.7495 115.513 91.745 115.5C91.6652 115.535 91.6179 115.62 91.6289 115.707C91.6322 115.853 91.6704 115.996 91.7406 116.125C91.8712 116.448 92.039 116.755 92.2409 117.039L92.3898 117.023C92.3682 117.076 92.3402 117.126 92.3064 117.172C92.2531 117.25 92.1815 117.313 92.098 117.356C92.0204 117.403 91.9343 117.432 91.8448 117.444C91.6417 117.45 91.4505 117.543 91.3206 117.699C91.136 117.937 91.0228 118.263 91.3847 118.549L92.7085 119.005C92.7085 119.005 94.9853 119.303 94.8647 118.79C94.7441 118.278 94.6711 117.833 94.6711 117.833C94.6801 117.52 94.6163 117.21 94.485 116.926C94.4622 116.879 94.4353 116.834 94.4046 116.792L94.485 116.783C94.485 116.783 94.6518 115.654 94.8737 115.443C94.9258 115.394 94.9377 115.355 94.9243 115.325C94.9481 115.264 94.8901 115.229 94.8156 115.208L94.7992 115.252C94.7267 115.237 94.6528 115.229 94.5788 115.229C94.5048 115.228 94.5044 114.633 94.7441 114.421C94.7837 114.372 94.801 114.308 94.7918 114.246C94.793 114.165 94.7845 114.084 94.7665 114.004L94.7575 114.019C94.6208 113.542 94.4429 113.077 94.2259 112.63C94.0089 112.183 94.208 112.092 94.3555 111.877C94.5029 111.661 94.3376 108.956 94.3376 108.956C94.3376 108.956 94.3927 107.649 94.2259 107.04C94.0591 106.431 94.4299 105.713 94.4299 105.713V105.674V105.665C94.4299 105.665 94.421 105.585 94.4076 105.458V105.472C94.3703 105.125 94.3004 104.498 94.2482 104.209C94.1738 103.797 94.2661 101.827 94.2661 101.827L94.5997 100.985L95.1953 102.436L95.8237 104.371C96.0033 104.611 96.1139 104.895 96.1439 105.193C96.1439 105.214 96.1439 105.235 96.1439 105.254C96.1411 105.298 96.1411 105.341 96.1439 105.384C96.1333 105.628 96.2006 105.87 96.336 106.073C96.4713 106.277 96.5028 106.988 96.7619 107.22C97.021 107.452 97.021 107.901 97.021 107.901C97.021 107.901 97.3352 109.227 97.4841 109.46C97.6092 109.656 97.6151 110.195 97.6136 110.353V110.402C97.6136 110.402 97.6568 110.876 97.6553 111.275C97.6553 111.323 97.6553 111.372 97.6553 111.424V111.413C97.655 111.522 97.6421 111.63 97.6166 111.735V111.754C97.6166 111.732 97.6166 111.708 97.6166 111.687C97.5502 111.958 97.5182 112.235 97.5213 112.514C97.5124 112.99 97.5853 113.556 97.8742 113.885C98.3746 114.459 98.6888 114.387 98.6888 114.387C98.6888 114.387 98.4475 115.103 98.1512 115.248C98.1402 115.253 98.1296 115.26 98.1199 115.267C98.1199 115.254 98.1199 115.239 98.1125 115.226C98.0474 115.299 98.0161 115.396 98.0261 115.494C98.0395 115.876 98.1671 116.246 98.3924 116.555C98.462 116.625 98.548 116.676 98.6426 116.704L98.5964 116.733C98.5631 116.751 98.5288 116.767 98.4937 116.782C98.4465 116.802 98.3962 116.815 98.3448 116.82C98.1417 116.826 97.9505 116.919 97.8206 117.075C97.636 117.313 97.5228 117.639 97.8847 117.925L99.2085 118.381C99.2085 118.381 101.457 118.685 101.342 118.167Z" fill="url(#paint0_linear)"/>
<path d="M92.6043 119.02L91.3222 118.564C90.9692 118.279 91.0824 117.952 91.2611 117.714C91.3843 117.559 91.5695 117.466 91.7674 117.46C91.8545 117.448 91.9382 117.418 92.0131 117.372C92.0944 117.327 92.1638 117.264 92.2156 117.187C92.3106 117.039 92.3621 116.867 92.3645 116.691C92.3669 116.515 93.7717 116.28 94.1515 116.691C94.2203 116.766 94.278 116.85 94.3227 116.941C94.4494 117.226 94.5105 117.536 94.5014 117.848C94.4923 118.16 94.5729 118.295 94.689 118.806C94.8052 119.316 92.6043 119.02 92.6043 119.02Z" fill="#2D293D"/>
<path d="M98.9175 118.398L97.6369 117.943C97.2825 117.657 97.3957 117.331 97.5744 117.094C97.6974 116.938 97.8835 116.844 98.0821 116.838C98.1335 116.833 98.1839 116.82 98.2311 116.799C98.265 116.785 98.2978 116.769 98.3293 116.75C98.6882 116.553 98.6793 116.069 98.6793 116.069C98.6793 116.069 100.085 115.657 100.466 116.069C100.518 116.125 100.563 116.187 100.6 116.252C100.751 116.554 100.826 116.889 100.816 117.226C100.807 117.564 100.888 117.673 101.004 118.184C101.12 118.695 98.9175 118.398 98.9175 118.398Z" fill="#2D293D"/>
<path d="M94.1845 116.692C94.2533 116.766 94.3111 116.851 94.3558 116.942L92.2472 117.186C92.3422 117.038 92.3937 116.866 92.3961 116.69C92.3985 116.514 93.8003 116.281 94.1845 116.692Z" fill="black" fill-opacity="0.1"/>
<path d="M100.55 116.217V116.612C100.222 117.152 98.636 117.035 98.1759 116.761C98.2099 116.747 98.2426 116.73 98.2742 116.712C98.6331 116.515 98.6241 116.031 98.6241 116.031C98.6241 116.031 100.03 115.618 100.411 116.031C100.464 116.087 100.511 116.15 100.55 116.217Z" fill="black" fill-opacity="0.1"/>
<path d="M100.801 114.531C100.702 114.703 100.618 114.882 100.549 115.068V116.484C100.192 117.08 98.3277 116.879 98.0775 116.556C97.8273 116.233 97.5578 115.391 97.8437 115.248C98.1296 115.106 98.3634 114.388 98.3634 114.388C98.3634 114.388 98.0656 114.459 97.5757 113.886C97.0858 113.313 97.2362 112.041 97.3255 111.736C97.4148 111.43 97.3255 110.41 97.3255 110.41C97.3255 110.41 97.3434 109.694 97.2004 109.46C97.0575 109.227 96.7537 107.901 96.7537 107.901C96.7537 107.901 96.7537 107.454 96.5035 107.221C96.2533 106.987 96.091 106.074 96.091 106.074C95.9443 105.846 95.8812 105.574 95.9123 105.304C95.9659 104.857 95.6071 104.372 95.6071 104.372L94.998 102.436L94.4247 100.984L94.1031 101.826C94.1031 101.826 94.0122 103.797 94.0852 104.208C94.1582 104.619 94.2639 105.712 94.2639 105.712C94.2639 105.712 93.905 106.43 94.0673 107.039C94.2296 107.648 94.1745 108.955 94.1745 108.955C94.1745 108.955 94.3354 111.661 94.1924 111.877C94.0495 112.093 94.0673 112.622 94.0673 112.622C94.0673 112.622 94.8015 114.199 94.5677 114.409C94.3339 114.619 94.4068 115.216 94.4068 115.216C94.4068 115.216 94.9087 115.216 94.6942 115.43C94.4798 115.645 94.3175 116.77 94.3175 116.77L92.1479 117.044C91.952 116.759 91.7891 116.452 91.6624 116.13C91.3765 115.467 91.716 115.534 92.0049 115.467C92.2938 115.4 92.1106 115.217 91.7696 115.001C91.4286 114.785 91.6207 114.303 91.6207 114.303C91.6207 114.303 92.1404 113.424 91.9617 113.353C91.783 113.281 91.7637 112.045 91.7637 112.045C91.7637 112.045 91.4063 110.576 91.4956 110.183C91.585 109.789 91.2082 108.842 91.2082 108.842L91.0831 107.714C90.7013 107.072 90.5639 106.313 90.696 105.578V103.834C90.696 103.834 90.1941 100.466 90.1212 98.7714C90.0765 97.6814 90.0884 96.1938 90.1033 95.2646C90.1122 94.7449 90.1212 94.3994 90.1212 94.3994L97.8646 93.5938C97.8769 93.9805 97.9243 94.3653 98.006 94.7434C98.0849 95.1678 98.2085 95.7188 98.4021 96.4067C98.9576 98.3768 98.6181 99.8466 98.6181 99.8466L98.5466 102.336C98.5466 102.336 99.2271 104.003 99.0841 104.57C98.9958 104.911 98.946 105.261 98.9352 105.612C98.9245 105.964 100.459 109.25 100.298 110.308C100.137 111.365 100.801 113.024 100.801 113.024C100.801 113.024 100.98 114.215 100.801 114.531Z" fill="#464353"/>
<path d="M96.4054 105.189L98.7552 104.875C98.7552 104.875 97.4269 106.236 96.4054 105.189Z" fill="black" fill-opacity="0.05"/>
<path d="M98.451 102.565C98.451 102.565 98.5329 103.397 98.0221 103.712C98.0221 103.712 98.9349 103.569 98.451 102.565Z" fill="black" fill-opacity="0.1"/>
<path d="M98.259 99.9083C98.259 99.9083 96.2904 101.53 95.5786 101.397C94.8668 101.265 98.259 99.9083 98.259 99.9083Z" fill="black" fill-opacity="0.1"/>
<path d="M93.4804 105.952C93.4804 105.952 91.9913 106.293 91.9406 106.894C91.89 107.494 93.4804 105.952 93.4804 105.952Z" fill="black" fill-opacity="0.1"/>
<path d="M93.7901 113.421C93.7901 113.421 91.6771 113.816 92.2772 114.086C92.792 114.289 93.3223 114.45 93.8631 114.568C94.404 114.686 94.5436 114.604 93.7901 113.421Z" fill="black" fill-opacity="0.05"/>
<path d="M91.9007 114.498C91.7931 114.431 91.7217 114.318 91.7071 114.191L91.6863 114.23C91.6863 114.23 91.4882 114.713 91.8352 114.929C91.8739 114.952 91.9111 114.978 91.9454 115.001C92.0079 114.99 92.0764 114.981 92.1405 114.964C92.4234 114.899 92.2417 114.719 91.9007 114.498Z" fill="black"/>
<path d="M94.5797 114.368C94.6377 114.315 94.6348 114.176 94.6005 113.999C94.514 114.158 94.4723 114.338 94.4799 114.519C94.5012 114.462 94.5353 114.41 94.5797 114.368Z" fill="black"/>
<path d="M94.2435 105.452C94.164 105.663 94.1138 105.885 94.0946 106.11C94.1354 105.956 94.1904 105.807 94.2584 105.663C94.3265 105.52 94.2614 105.577 94.2435 105.452Z" fill="black"/>
<path d="M99.1375 104.532C99.1515 104.468 99.158 104.402 99.1568 104.336C99.13 104.47 99.1122 104.595 99.0988 104.703C99.1107 104.647 99.1226 104.59 99.1375 104.532Z" fill="black"/>
<path d="M94.2206 111.818C94.2622 111.689 94.2804 111.555 94.2743 111.42C94.2074 111.579 94.1724 111.749 94.1715 111.922C94.1837 111.885 94.2001 111.85 94.2206 111.818Z" fill="black"/>
<path d="M94.6311 115.193C94.5204 115.553 94.4382 115.921 94.3853 116.293L92.2187 116.545C92.0221 116.26 91.8592 115.953 91.7332 115.631C91.7102 115.579 91.6898 115.526 91.6722 115.473C91.5426 115.532 91.4905 115.666 91.6618 116.069C91.7874 116.391 91.9504 116.697 92.1472 116.981L94.3124 116.73C94.3124 116.73 94.4747 115.601 94.6891 115.389C94.7949 115.275 94.7278 115.221 94.6311 115.193Z" fill="black"/>
<path d="M91.7791 111.985C91.7791 111.985 91.797 113.222 91.9757 113.294C92.0665 113.09 92.1246 112.896 92.0456 112.863C91.867 112.792 91.8491 111.556 91.8491 111.556C91.8491 111.556 91.4902 110.086 91.581 109.691C91.6719 109.297 91.2936 108.351 91.2936 108.351L91.1686 107.223C90.7854 106.582 90.6453 105.825 90.7739 105.09V103.349C90.7739 103.349 90.2721 99.981 90.2006 98.2789C90.1545 97.1889 90.1679 95.7013 90.1828 94.7721C90.1828 94.6053 90.1828 94.4564 90.1828 94.3253H90.1217C90.1217 94.3253 90.1128 94.6693 90.1038 95.1905C90.0889 96.1182 90.0755 97.6073 90.1217 98.6974C90.1932 100.399 90.695 103.768 90.695 103.768V105.506C90.5637 106.247 90.7072 107.012 91.0986 107.656L91.2237 108.785C91.2237 108.785 91.6004 109.733 91.5096 110.125C91.4187 110.516 91.7791 111.985 91.7791 111.985Z" fill="black"/>
<path d="M98.1406 116.083C97.9646 115.828 97.8475 115.537 97.7981 115.231C97.5762 115.431 97.8309 116.207 98.0691 116.514C98.3074 116.82 100.184 117.033 100.543 116.441V116.1C100.057 116.581 98.3789 116.388 98.1406 116.083Z" fill="black"/>
<path d="M100.889 114.054C100.791 114.226 100.707 114.406 100.639 114.592V114.843C100.679 114.751 100.737 114.629 100.817 114.484C100.875 114.343 100.902 114.19 100.896 114.038L100.889 114.054Z" fill="black"/>
<path d="M98.2768 114.337C98.3453 114.199 98.4046 114.057 98.454 113.911C98.5035 113.765 98.1562 113.982 97.6648 113.409C97.3134 112.992 97.294 112.204 97.3431 111.689C97.2538 111.994 97.1094 113.266 97.5933 113.839C97.9105 114.216 98.1473 114.313 98.2768 114.337Z" fill="black"/>
<path d="M97.3359 110.372C97.3668 110.725 97.3788 111.079 97.3716 111.434C97.3835 111.364 97.3969 111.307 97.4074 111.267C97.4982 110.969 97.4074 109.942 97.4074 109.942C97.4074 109.942 97.4252 109.224 97.2823 108.992C97.1393 108.759 96.8355 107.432 96.8355 107.432C96.8355 107.432 96.8355 106.986 96.5854 106.752C96.3352 106.518 96.1729 105.605 96.1729 105.605C96.0258 105.377 95.962 105.105 95.9927 104.835C96.0478 104.389 95.6949 103.903 95.6949 103.903L95.0858 101.967L94.5051 100.524L94.1819 101.366C94.1819 101.366 94.1819 101.471 94.1715 101.638L94.4336 100.955L95.0069 102.405L95.6159 104.341C95.6159 104.341 95.9733 104.825 95.9138 105.272C95.8868 105.54 95.9526 105.809 96.0999 106.034C96.2472 106.259 96.2607 106.947 96.5109 107.181C96.7611 107.415 96.7626 107.861 96.7626 107.861C96.7626 107.861 97.0604 109.187 97.2093 109.42C97.3582 109.654 97.3359 110.372 97.3359 110.372Z" fill="black"/>
<path d="M98.861 77.4039L98.727 78.0591L98.7345 78.3569V78.5714L97.9899 78.6488L97.9065 78.4999C97.7576 78.2199 97.43 77.6496 97.3258 77.5617C97.1873 77.4456 96.9416 75.6259 97.2364 75.7346C97.4173 75.804 97.566 75.9385 97.6534 76.1113C97.7408 76.2842 99.1261 76.2662 98.861 77.4039Z" fill="#FFCDD3"/>
<path d="M98.7735 78.5658L98.0289 78.6432L97.9456 78.4943C98.1521 78.2587 98.4995 78.2017 98.7705 78.3588L98.7735 78.5658Z" fill="black" fill-opacity="0.1"/>
<path d="M98.9299 78.8952L97.9456 79.1245L97.9248 78.9756L97.8682 78.581C97.9961 78.4105 98.1971 78.3099 98.4102 78.3099C98.5594 78.3099 98.7044 78.3591 98.8227 78.4499L98.8718 78.6509L98.9299 78.8952Z" fill="#DCE6F2"/>
<path d="M82.9299 77.4477L81.8786 78.0136L81.7833 77.814C81.682 77.6041 81.5331 77.2884 81.4855 77.1752C81.4229 77.001 80.9836 76.7806 80.9836 76.7806C79.8817 75.7278 81.1936 74.8239 81.1936 74.8239C81.889 73.4256 82.6634 75.2974 82.6634 75.2974C82.6634 75.2974 82.7706 76.2847 82.6946 76.3502C82.6187 76.4158 82.6187 76.6868 82.6187 76.6868C82.7192 76.8783 82.8044 77.0775 82.8733 77.2824C82.9135 77.3867 82.9299 77.4477 82.9299 77.4477Z" fill="#FFCDD3"/>
<path d="M82.9219 77.4742L81.8706 78.04L81.7753 77.8405C81.9242 77.7169 82.4498 77.2895 82.6226 77.3089C82.7058 77.3174 82.7895 77.3174 82.8727 77.3089C82.9055 77.4131 82.9219 77.4742 82.9219 77.4742Z" fill="black" fill-opacity="0.1"/>
<path d="M83.0747 77.7983L81.8924 78.3805L81.8686 78.1259L81.8522 77.9517C81.8522 77.9517 82.5372 77.3635 82.7456 77.3858C82.8484 77.4004 82.9526 77.4004 83.0554 77.3858L83.0688 77.5988L83.0747 77.7983Z" fill="#DCE6F2"/>
<path d="M96.0203 81.7533C96.0203 81.7533 90.8635 82.3356 91.827 82.0228C92.4986 81.8039 92.7651 81.3781 92.8217 80.9045C92.8476 80.4981 92.782 80.091 92.6296 79.7132C92.5074 79.3879 92.3528 79.0754 92.168 78.781C91.9832 78.4866 96.1097 76.6129 95.3219 78.5845C95.1994 78.8822 95.1239 79.1973 95.0986 79.5182C95.0743 79.8362 95.1081 80.1562 95.1983 80.4623C95.3478 80.9602 95.6324 81.4071 96.0203 81.7533Z" fill="#FFCDD3"/>
<path d="M95.3299 78.5825C95.2073 78.8802 95.1318 79.1953 95.1065 79.5162C94.7343 79.8274 94.3277 79.814 93.805 79.814C93.403 79.814 92.9577 79.9123 92.6376 79.7187C92.5153 79.3934 92.3608 79.0809 92.176 78.7865C91.9912 78.4921 96.1176 76.611 95.3299 78.5825Z" fill="black" fill-opacity="0.1"/>
<path d="M93.6854 79.9178C94.8631 79.9178 95.8178 78.9631 95.8178 77.7854C95.8178 76.6077 94.8631 75.653 93.6854 75.653C92.5077 75.653 91.553 76.6077 91.553 77.7854C91.553 78.9631 92.5077 79.9178 93.6854 79.9178Z" fill="#FFCDD3"/>
<path d="M96.0203 81.7484C96.0203 81.7484 90.8635 82.3307 91.827 82.018C92.4986 81.7991 92.7651 81.3732 92.8217 80.8997C93.0778 80.6212 93.5931 80.4202 93.9251 80.3144C94.2273 80.2129 94.5536 80.2077 94.8588 80.2995C94.9788 80.332 95.0932 80.3822 95.1983 80.4485C95.3464 80.9497 95.6311 81.3998 96.0203 81.7484Z" fill="black" fill-opacity="0.1"/>
<path d="M98.9507 78.8962L97.9664 79.1256L97.9456 78.9767C98.1606 78.68 98.5409 78.5497 98.8926 78.652L98.9507 78.8962Z" fill="black" fill-opacity="0.1"/>
<path d="M83.0584 77.778L81.876 78.3602L81.8522 78.1056C82.2355 77.9004 82.6338 77.7241 83.0435 77.5784L83.0584 77.778Z" fill="black" fill-opacity="0.1"/>
<path d="M98.0669 94.7434C96.07 95.0576 93.2272 95.4686 92.776 95.3316C92.4023 95.217 91.208 95.2289 90.1671 95.2646C90.176 94.7449 90.185 94.3994 90.185 94.3994L97.9284 93.5938C97.9398 93.9804 97.9862 94.3652 98.0669 94.7434Z" fill="black" fill-opacity="0.1"/>
<path d="M100.02 94.2664C100.02 94.2664 93.4441 95.3951 92.7383 95.1792C92.0324 94.9633 88.4094 95.1986 88.4094 95.1986C86.7789 96.2901 87.4609 94.6789 87.4609 94.6789C87.4609 94.6789 87.312 93.836 87.5145 93.1555C87.6458 92.6561 87.7355 92.1465 87.7825 91.6321C87.8296 91.1178 87.7468 90.557 87.9433 90.3068C88.1399 90.0567 88.3737 88.2638 88.3737 88.2638C88.3737 88.2638 88.5539 87.0457 88.536 86.7747C88.5181 86.5036 88.5896 85.7546 88.5896 85.7546L88.8219 84.4993C87.4817 84.3206 83.3926 81.8114 83.3926 81.8114C83.196 80.9701 81.6727 78.9985 81.6727 78.9985C81.6506 78.8328 81.6087 78.6703 81.5476 78.5145C81.4404 78.2286 83.0531 77.6553 83.0531 77.6553C83.0531 77.6553 84.2533 79.1251 84.5035 79.5182C84.7537 79.9113 85.6144 80.647 85.6144 80.647C85.7481 80.6336 85.8833 80.6514 86.009 80.6991H86.0298C86.3178 80.8126 86.5878 80.9676 86.831 81.1592C87.235 81.1492 87.6273 81.2973 87.924 81.5717C88.2206 81.8461 88.6596 81.4645 88.7847 81.5896C88.9098 81.7147 89.5292 81.5896 89.5292 81.5896C89.5292 81.5896 90.1577 80.2643 90.5716 80.6484C90.9856 81.0326 92.7323 81.0163 92.7323 81.0163C92.9661 80.7065 93.532 80.4846 93.8879 80.37C94.19 80.2684 94.5163 80.2632 94.8215 80.3551C94.9544 80.3922 95.0795 80.4526 95.1909 80.5338L96.2511 81.5762C96.2511 81.5762 96.5489 81.1816 96.5206 81.0922C96.4923 81.0029 96.8795 80.9314 96.8795 80.9314C96.8795 80.9314 97.3992 80.7706 97.5958 80.7155C97.7923 80.6604 97.974 80.8763 97.9889 80.8942C97.9094 80.6397 97.879 80.3722 97.8995 80.1064C97.9158 79.8717 97.8386 79.6399 97.6851 79.4616C98.318 77.9308 99.7341 79.2263 99.7341 79.2263C99.7341 79.2263 99.895 80.0677 99.752 80.3908C99.609 80.714 99.9009 81.3945 99.8592 81.5732C99.8175 81.7519 99.9307 82.0571 99.9307 82.3967C99.8926 82.8319 99.7964 83.2601 99.6448 83.6699C99.5361 83.9558 98.6769 84.6006 98.6769 84.6006C98.6769 84.6006 98.6233 85.6221 98.2465 86.2133C97.8698 86.8044 98.0976 88.8296 98.0976 88.8296C98.0976 88.8296 98.455 90.4066 98.9032 90.9144C99.3514 91.4222 100.02 94.2664 100.02 94.2664Z" fill="#3F3D56"/>
<path d="M90.4483 82.4888C90.4483 82.4888 90.2518 81.8932 90.0716 81.8425C89.8933 81.7769 89.7197 81.6993 89.5519 81.6102L89.668 81.3898C89.668 81.3898 90.3411 81.5745 90.4483 81.771C90.5555 81.9676 90.4483 82.4888 90.4483 82.4888Z" fill="black" fill-opacity="0.1"/>
<path d="M86.8686 81.1642C86.8329 81.3444 85.2395 81.5052 85.2395 81.5052L86.0451 80.6967L86.066 80.7041C86.3545 80.8176 86.625 80.9726 86.8686 81.1642Z" fill="black" fill-opacity="0.1"/>
<path d="M82.2258 78.8649C82.3048 78.8649 82.3688 78.8009 82.3688 78.722C82.3688 78.643 82.3048 78.579 82.2258 78.579C82.1469 78.579 82.0829 78.643 82.0829 78.722C82.0829 78.8009 82.1469 78.8649 82.2258 78.8649Z" fill="#575988"/>
<path d="M82.3797 79.1342C82.4586 79.1342 82.5226 79.0702 82.5226 78.9913C82.5226 78.9123 82.4586 78.8483 82.3797 78.8483C82.3007 78.8483 82.2367 78.9123 82.2367 78.9913C82.2367 79.0702 82.3007 79.1342 82.3797 79.1342Z" fill="#575988"/>
<path d="M82.6102 79.4043C82.6892 79.4043 82.7532 79.3403 82.7532 79.2613C82.7532 79.1824 82.6892 79.1183 82.6102 79.1183C82.5313 79.1183 82.4673 79.1824 82.4673 79.2613C82.4673 79.3403 82.5313 79.4043 82.6102 79.4043Z" fill="#575988"/>
<path d="M82.7642 79.6733C82.8431 79.6733 82.9071 79.6093 82.9071 79.5303C82.9071 79.4514 82.8431 79.3874 82.7642 79.3874C82.6852 79.3874 82.6212 79.4514 82.6212 79.5303C82.6212 79.6093 82.6852 79.6733 82.7642 79.6733Z" fill="#575988"/>
<path d="M99.6784 79.6583C99.7426 79.6583 99.7946 79.6063 99.7946 79.5421C99.7946 79.478 99.7426 79.426 99.6784 79.426C99.6143 79.426 99.5623 79.478 99.5623 79.5421C99.5623 79.6063 99.6143 79.6583 99.6784 79.6583Z" fill="#575988"/>
<path d="M99.6784 79.9274C99.7426 79.9274 99.7946 79.8754 99.7946 79.8112C99.7946 79.7471 99.7426 79.6951 99.6784 79.6951C99.6143 79.6951 99.5623 79.7471 99.5623 79.8112C99.5623 79.8754 99.6143 79.9274 99.6784 79.9274Z" fill="#575988"/>
<path d="M99.6784 80.159C99.7426 80.159 99.7946 80.107 99.7946 80.0428C99.7946 79.9787 99.7426 79.9267 99.6784 79.9267C99.6143 79.9267 99.5623 79.9787 99.5623 80.0428C99.5623 80.107 99.6143 80.159 99.6784 80.159Z" fill="#575988"/>
<path d="M90.4766 87.3188C90.4602 87.2979 94.4972 92.3982 97.6348 89.4512C97.6348 89.4512 92.679 90.1228 90.4766 87.3188Z" fill="black" fill-opacity="0.1"/>
<path d="M88.0887 89.9747C88.0887 89.9747 90.5056 90.0402 90.7587 90.7356V91.4593C90.6198 91.5359 90.4509 91.5359 90.312 91.4593C90.0678 91.3283 88.607 90.5852 88.0917 90.9426L88.0887 89.9747Z" fill="black" fill-opacity="0.1"/>
<path d="M88.1656 89.9747C88.1656 89.9747 90.4768 90.0372 90.7195 90.6999V91.3908C90.5856 91.4644 90.423 91.4644 90.2891 91.3908C90.0553 91.2642 88.6511 90.5569 88.1656 90.8979V89.9747Z" fill="#3F3D56"/>
<path d="M89.4746 84.7387C89.7215 85.3098 90.036 85.8493 90.4113 86.3455C90.82 86.8949 91.316 87.3738 91.8795 87.7631C92.443 88.1523 89.5148 85.0767 89.4746 84.7387Z" fill="black" fill-opacity="0.1"/>
<path d="M88.6271 81.9282C88.6271 81.9282 89.0306 83.6689 90.0685 84.2601L88.6271 81.9282Z" fill="black" fill-opacity="0.1"/>
<path d="M88.0481 82.0833C88.0377 82.0506 87.6892 83.4593 89.3883 84.2396C89.3883 84.2396 88.6705 83.9953 88.0481 82.0833Z" fill="black" fill-opacity="0.1"/>
<path d="M98.5614 80.9285C98.5346 80.9285 99.3983 81.4794 99.6336 81.7341C99.6336 81.7341 99.0722 80.8927 98.5614 80.9285Z" fill="black" fill-opacity="0.1"/>
<path d="M93.095 79.7346C93.1115 79.8484 93.1707 79.9516 93.2603 80.0235C93.3231 80.0532 93.3918 80.0685 93.4613 80.0682C94.1121 80.1084 94.7881 80.1367 95.3972 79.8865C95.5112 79.8474 95.6135 79.7803 95.695 79.6914C95.7808 79.5483 95.8345 79.3883 95.8528 79.2224C95.9377 78.9037 96.1179 78.6267 96.2475 78.317C96.4649 77.8044 96.5375 77.2419 96.4574 76.6909C96.4413 76.5216 96.3856 76.3584 96.2951 76.2144C96.1224 75.9687 95.8082 75.8689 95.5803 75.6723C95.3525 75.4758 95.2051 75.1765 94.94 75.029C94.6875 74.9166 94.4044 74.8914 94.1359 74.9576C93.6043 75.0487 93.0949 75.2402 92.6349 75.5219C92.486 75.6172 92.3102 75.7259 92.133 75.6932C91.9809 75.6445 91.8503 75.5444 91.7637 75.4103C91.637 75.7023 91.5824 76.0205 91.6044 76.338C91.6117 76.3843 91.6117 76.4316 91.6044 76.4779C91.5816 76.5338 91.5477 76.5844 91.5046 76.6269C91.3438 76.813 91.244 77.1078 91.4019 77.2955C91.4719 77.3774 91.5776 77.422 91.6446 77.5054C91.7652 77.6543 91.7235 77.8703 91.7206 78.0624C91.7148 78.1289 91.7316 78.1956 91.7682 78.2515C91.8391 78.3167 91.9392 78.3405 92.0318 78.314C92.1225 78.2868 92.2176 78.2777 92.3117 78.2872C92.4118 78.3207 92.4979 78.3868 92.556 78.4748C92.8508 78.8561 92.9684 79.2745 93.095 79.7346Z" fill="#2D293D"/>
<path d="M95.7635 79.5184C95.6823 79.6073 95.5798 79.674 95.4656 79.712C94.87 79.9637 94.188 79.9339 93.5387 79.8937C93.4692 79.895 93.4002 79.8797 93.3377 79.849C93.2473 79.7783 93.1874 79.6752 93.1709 79.5616C93.0443 79.1015 92.9282 78.6815 92.6274 78.3003C92.5698 78.2119 92.4835 78.1456 92.3832 78.1127C92.2891 78.1032 92.1939 78.1122 92.1032 78.1395C92.0106 78.166 91.9105 78.1422 91.8396 78.0769C91.8029 78.0211 91.7865 77.9542 91.7935 77.8878C91.7935 77.6957 91.8367 77.4798 91.716 77.3309C91.649 77.2475 91.5433 77.2028 91.4733 77.1209C91.3822 76.9965 91.3667 76.8313 91.4331 76.6921C91.3184 76.8737 91.2693 77.106 91.4018 77.2639C91.4718 77.3458 91.5776 77.3905 91.6446 77.4739C91.7652 77.6228 91.7235 77.8387 91.7205 78.0308C91.7147 78.0974 91.7315 78.1641 91.7682 78.2199C91.8389 78.2854 91.9391 78.3093 92.0317 78.2824C92.1224 78.2552 92.2176 78.2461 92.3117 78.2556C92.4118 78.2892 92.4978 78.3553 92.5559 78.4433C92.8537 78.826 92.9729 79.2444 93.0994 79.7045C93.116 79.8183 93.1751 79.9215 93.2647 79.9934C93.3276 80.0231 93.3962 80.0384 93.4658 80.0381C94.1165 80.0783 94.7926 80.1066 95.4016 79.8564C95.5154 79.817 95.6177 79.75 95.6994 79.6614C95.7399 79.6095 95.7712 79.5512 95.7917 79.4886C95.7828 79.499 95.7769 79.511 95.7635 79.5184Z" fill="black"/>
<path d="M91.641 76.4173C91.6703 76.3862 91.6927 76.3491 91.7065 76.3086C91.7138 76.2623 91.7138 76.2149 91.7065 76.1686C91.6881 75.9074 91.722 75.6452 91.8063 75.3973L91.7944 75.3839C91.6669 75.6756 91.6123 75.9939 91.635 76.3116C91.64 76.3466 91.642 76.382 91.641 76.4173Z" fill="black"/>
<path d="M92.7085 81.0135C92.7085 81.0135 95.3725 81.3664 95.6123 80.9658L92.7085 81.0135Z" fill="black" fill-opacity="0.1"/>
<path d="M97.9456 79.9267C97.9456 79.9267 99.4242 79.9267 99.7504 80.4836L97.9456 79.9267Z" fill="black" fill-opacity="0.1"/>
<defs>
<linearGradient id="paint0_linear" x1="90.8039" y1="119.099" x2="90.8039" y2="74.3271" gradientUnits="userSpaceOnUse">
<stop stop-color="#808080" stop-opacity="0.247059"/>
<stop offset="0.54" stop-color="#808080" stop-opacity="0.117647"/>
<stop offset="1" stop-color="#808080" stop-opacity="0.0980392"/>
</linearGradient>
</defs>
</svg>
