<svg width="90" height="89" viewBox="0 0 90 89" fill="none" xmlns="http://www.w3.org/2000/svg">
<path d="M54.9385 19.6952C54.9385 13.8299 49.9266 9.12226 43.9068 9.5318C38.7807 9.8805 34.647 14.0187 34.3507 19.0913C34.2227 21.2826 34.7964 23.3334 35.8691 25.0467C36.9058 26.7022 37.4571 28.6098 37.4571 30.557V36.3903H51.3037V31.3344C51.3037 29.254 51.9052 27.2035 53.1051 25.4944C54.2607 23.849 54.9385 21.8506 54.9385 19.6952Z" fill="#F9D335"/>
<path d="M45.0058 45.5141H43.7412C40.2706 45.5141 37.457 42.7318 37.457 39.2998V36.3899H51.29V39.2998C51.29 42.7318 48.4768 45.5141 45.0058 45.5141Z" fill="#87828E"/>
<path d="M54.937 19.6945C54.937 21.85 54.262 23.849 53.1054 25.4934C51.9065 27.2039 51.3054 29.255 51.3054 31.334V36.3889H46.0319V31.334C46.0319 29.255 46.6331 27.2039 47.8319 25.4934C48.9886 23.849 49.6636 21.85 49.6636 19.6945C49.6636 14.9698 46.4116 10.9961 41.9995 9.84538C42.6147 9.68199 43.2546 9.57769 43.9085 9.53249C49.9272 9.12226 54.937 13.8295 54.937 19.6945Z" fill="#F2C300"/>
<path d="M41.1415 25.0449C42.1787 26.7032 42.7306 28.6084 42.7306 30.5553V36.3889H37.4572V30.5553C37.4572 28.6084 36.9052 26.7032 35.8681 25.0449C34.7958 23.3344 34.2228 21.2833 34.3494 19.0895C34.6482 14.0172 38.779 9.88013 43.9083 9.53248C45.079 9.45252 46.2076 9.56724 47.2728 9.84537C43.0611 10.9509 39.883 14.6639 39.6228 19.0895C39.4962 21.2833 40.0693 23.3344 41.1415 25.0449Z" fill="#F9E27D"/>
<path d="M51.2913 36.3889V39.2988C51.2913 42.7336 48.4753 45.5149 45.0054 45.5149H43.7397C43.0401 45.5149 42.3651 45.4002 41.7358 45.1916C44.2249 44.3641 46.0179 42.0418 46.0179 39.2988V36.3889H51.2913Z" fill="#796E84"/>
<path d="M47.009 45.1916C46.3797 45.4002 45.7047 45.5149 45.0051 45.5149H43.7394C40.2695 45.5149 37.457 42.7336 37.457 39.2988V36.3889H42.7305V39.2988C42.7305 42.0418 44.5234 44.3641 47.009 45.1916Z" fill="#A4A4A5"/>
<path d="M37.457 33.7915H51.3037V39.6248H37.457V33.7915Z" fill="#87828E"/>
<path d="M46.0317 33.7919H51.3052V39.6255H46.0317V33.7919Z" fill="#796E84"/>
<path d="M37.457 33.7919H42.7305V39.6255H37.457V33.7919Z" fill="#A4A4A5"/>
<path d="M49.944 61.1899L53.2888 56.5657C53.4164 56.3895 53.4846 56.1792 53.4846 55.9626C53.4846 55.1716 53.4843 53.2456 53.4843 53.2651C53.4843 43.8978 61.0608 36.1336 70.5333 36.0645C83.7359 35.9682 92.0493 50.0472 85.6677 61.3008C83.9145 64.3925 80.1278 71.727 80.1278 75.3531C80.1278 77.7467 80.8931 80.1619 82.433 82.1922L85.0022 85.5797C85.5211 86.2639 85.0275 87.2405 84.1623 87.2405H65.8332C65.2535 87.2405 64.7835 86.7753 64.7835 86.202C64.7835 81.8282 64.7842 77.8197 64.7842 77.8465C64.7845 77.2732 64.3145 76.808 63.7344 76.808H60.1281C56.6895 76.808 53.6502 68.5665 53.4846 63.2759H51.0286C49.9437 63.2759 49.313 62.0629 49.944 61.1899Z" fill="#5FCDFF"/>
<path d="M39.3265 61.1899L35.9817 56.5657C35.8541 56.3895 35.7859 56.1792 35.7859 55.9626C35.7859 55.1716 35.7863 53.2456 35.7863 53.2651C35.7863 43.8978 28.2097 36.1336 18.7372 36.0645C5.53466 35.9682 -2.77874 50.0472 3.60282 61.3008C5.35606 64.3925 9.14274 71.727 9.14274 75.3531C9.14274 77.7467 8.37739 80.1619 6.83755 82.1922L4.26833 85.5797C3.74942 86.2639 4.24302 87.2405 5.10821 87.2405H23.4373C24.017 87.2405 24.487 86.7753 24.487 86.202C24.487 81.8282 24.4863 77.8197 24.4863 77.8465C24.486 77.2732 24.956 76.808 25.5361 76.808H29.1424C32.5811 76.808 35.62 68.5665 35.7859 63.2759H38.2419C39.3268 63.2759 39.9576 62.0629 39.3265 61.1899Z" fill="#5FCDFF"/>
<path d="M71.1078 87.2405H65.8343C65.2543 87.2405 64.7832 86.7747 64.7832 86.2011C64.7832 81.8414 64.7832 77.8469 64.7832 77.8469C64.7832 77.2732 64.3156 76.8074 63.7355 76.8074H60.1285C56.6902 76.8074 53.6492 68.5679 53.484 63.2766H51.03C49.9437 63.2766 49.3109 62.0633 49.9437 61.1907L53.2871 56.5668C53.4172 56.3895 53.484 56.1809 53.484 55.9619C53.484 55.1762 53.484 53.2641 53.484 53.2641C53.484 43.8982 61.0601 36.1351 70.5312 36.0655C71.491 36.0586 72.4261 36.1281 73.3332 36.2637C65.0504 37.5257 58.7574 44.7291 58.7574 53.2641V55.9619C58.7574 56.1809 58.6906 56.3895 58.5605 56.5668L55.2172 61.1907C54.5843 62.0633 55.2172 63.2766 56.3035 63.2766H58.7574C58.9226 68.5679 61.9636 76.8074 65.4019 76.8074H69.009C69.589 76.8074 70.0566 77.2732 70.0566 77.8469V86.2011C70.0566 86.7747 70.5277 87.2405 71.1078 87.2405Z" fill="#73D7F9"/>
<path d="M38.2406 63.2766H35.7867C35.6215 68.5679 32.5805 76.8074 29.1422 76.8074H25.5352C24.9551 76.8074 24.4875 77.2732 24.4875 77.8469V86.2011C24.4875 86.7747 24.0164 87.2405 23.4363 87.2405H18.1629C18.743 87.2405 19.2141 86.7747 19.2141 86.2011C19.2141 81.8414 19.2141 77.8469 19.2141 77.8469C19.2141 77.2732 19.6816 76.8074 20.2617 76.8074H23.8687C27.307 76.8074 30.348 68.5679 30.5133 63.2766H32.9672C34.0535 63.2766 34.6863 62.0633 34.0535 61.1907L30.7102 56.5668C30.5801 56.3895 30.5133 56.1809 30.5133 55.9619C30.5133 55.1762 30.5133 53.2641 30.5133 53.2641C30.5133 44.7291 24.2203 37.5257 15.9375 36.2637C16.8445 36.1281 17.7797 36.0586 18.7395 36.0655C28.2105 36.1351 35.7867 43.8982 35.7867 53.2641V55.9619C35.7867 56.1809 35.8535 56.3895 35.9836 56.5668L39.327 61.1907C39.9598 62.0633 39.327 63.2766 38.2406 63.2766Z" fill="#30B6FF"/>
<path d="M8.87813 61.3019C10.6289 64.3926 14.4152 71.7281 14.4152 75.3542C14.4152 77.7461 13.6523 80.1623 12.1125 82.1926L9.54258 85.5788C9.02227 86.2637 9.51797 87.2406 10.3828 87.2406H5.10938C4.24453 87.2406 3.74883 86.2637 4.26914 85.5788L6.83907 82.1926C8.37891 80.1623 9.1418 77.7461 9.1418 75.3542C9.1418 71.7281 5.35547 64.3926 3.60469 61.3019C-2.77968 50.0483 5.53477 35.9682 18.7395 36.0656C19.5797 36.0725 20.4059 36.1386 21.2109 36.2637C9.67618 38.002 2.95782 50.8688 8.87813 61.3019Z" fill="#73D7F9"/>
<path d="M85.6663 61.3019C83.9155 64.3926 80.1292 71.7281 80.1292 75.3542C80.1292 77.7461 80.8921 80.1623 82.4319 82.1926L85.0019 85.5788C85.5222 86.2637 85.0265 87.2406 84.1616 87.2406H78.8882C79.753 87.2406 80.2487 86.2637 79.7284 85.5788L77.1585 82.1926C75.6187 80.1623 74.8558 77.7461 74.8558 75.3542C74.8558 71.7281 78.6421 64.3926 80.3929 61.3019C86.3132 50.8688 79.5948 38.002 68.0601 36.2637C68.8651 36.1386 69.6913 36.0725 70.5315 36.0656C83.7362 35.9682 92.0507 50.0483 85.6663 61.3019Z" fill="#30B6FF"/>
<path d="M70.5229 34.6739C60.3522 34.7483 52.0779 43.0882 52.0779 53.2658L52.0786 55.8492L48.8006 60.3813C48.2005 61.2111 48.1203 62.2896 48.5921 63.1966C49.4563 64.8598 51.0685 64.6668 52.1763 64.6668C52.7458 69.9331 55.6283 78.1994 60.1279 78.1994H63.3817C63.3757 78.3982 63.3771 86.0032 63.3771 86.2028C63.3771 87.5423 64.4789 88.6315 65.8327 88.6315H84.1618C86.1847 88.6315 87.3403 86.3456 86.1267 84.7457C83.612 81.4294 81.5335 79.3546 81.5335 75.3531C81.5335 72.6452 84.2258 66.6857 86.8941 61.9809C93.8164 49.7729 84.7904 34.5716 70.5229 34.6739ZM84.4413 60.6205C83.4858 62.3049 78.721 70.9302 78.721 75.3531C78.721 80.2266 81.1447 82.8117 83.4488 85.8499H66.1896L66.1903 77.8468C66.191 76.5063 65.0945 75.4174 63.7343 75.4174H60.1279C58.2105 75.4174 55.0668 68.8818 54.8904 63.2324C54.8672 62.4818 54.2445 61.8849 53.4848 61.8849H51.1701C54.6917 57.016 54.8911 56.9809 54.8911 55.9615C54.8911 55.908 54.8911 53.3183 54.8889 53.2648H54.8904C54.8904 44.6099 61.9125 37.5177 70.5433 37.4544C82.6248 37.3616 90.3173 50.2575 84.4413 60.6205Z" fill="#5F266D"/>
<path d="M40.4703 60.3809L37.192 55.8488L37.1923 53.2651C37.1923 43.0596 28.8638 34.6731 18.6045 34.6731C4.40595 34.6731 -4.51706 49.825 2.37638 61.9808C10.6233 76.525 8.01228 78.3248 3.14314 84.7453C1.9299 86.3456 3.08548 88.6311 5.10802 88.6311H23.4371C24.7913 88.6311 25.8931 87.5415 25.8931 86.2024C25.8931 85.9934 25.8952 78.4065 25.8885 78.199H29.1422C33.6415 78.199 36.5247 69.9331 37.0942 64.6664H38.2417C40.4689 64.6664 41.7661 62.1731 40.4703 60.3809ZM35.7861 61.8852C35.0263 61.8852 34.4041 62.4818 34.3805 63.2327C34.2037 68.8821 31.06 75.4177 29.1426 75.4177H25.5359C24.1757 75.4177 23.0795 76.5062 23.0799 77.8468L23.0806 85.8502H5.82134C8.00525 82.9709 10.5495 80.2929 10.5495 75.3534C10.5495 70.9319 5.78478 62.3055 4.82958 60.6211C2.07158 55.7577 2.15138 49.9644 5.04298 45.1233C13.2477 31.3877 34.3798 37.3149 34.3798 53.2654H34.3812C34.3788 53.3259 34.3795 55.902 34.3795 55.9629C34.3795 56.9839 34.5841 57.0246 38.1004 61.8855H35.7861V61.8852Z" fill="#5F266D"/>
<path d="M52.7103 39.6249C52.7103 30.8632 52.344 29.0207 54.26 26.2877C55.5407 24.4667 56.2456 22.3425 56.3272 20.1224H68.1021C69.2654 20.1224 70.2114 21.0579 70.2114 22.2083V29.1615C70.2114 29.9294 70.8411 30.5521 71.6177 30.5521C72.3943 30.5521 73.0239 29.9294 73.0239 29.1615V22.2083C73.0239 19.5244 70.8161 17.3411 68.1021 17.3411H56.0965C55.6058 15.0178 54.3988 12.8685 52.6231 11.229C45.9526 5.07096 35.013 8.5291 33.1694 17.3411H21.1685C18.4544 17.3411 16.2466 19.5244 16.2466 22.2083V29.1615C16.2466 29.9294 16.8762 30.5521 17.6528 30.5521C18.4294 30.5521 19.0591 29.9294 19.0591 29.1615V22.2083C19.0591 21.0579 20.0051 20.1224 21.1685 20.1224H32.9402C33.1342 25.3595 36.0512 25.9762 36.0512 30.5556C36.0512 40.3031 36.0336 39.6867 36.0821 39.9134C36.4017 43.8506 39.7197 46.9058 43.7398 46.9058H45.0055C49.5438 46.9055 52.7103 43.0667 52.7103 39.6249ZM45.0055 44.1242H43.7398C41.6635 44.1242 39.8797 42.841 39.179 41.0162H49.5698C48.8688 42.8407 47.0835 44.1242 45.0055 44.1242ZM49.8978 38.2342H38.8633V35.1829H49.8978V38.2342ZM45.7866 32.4009V26.4098L49.4562 22.7809C50.0057 22.2379 50.0057 21.3573 49.4562 20.8146C48.9067 20.2712 48.0162 20.2712 47.4678 20.8146L45.788 22.4757V20.1266C45.788 19.3586 45.1587 18.7359 44.3818 18.7359C43.6052 18.7359 42.9755 19.3586 42.9755 20.1266V22.475L41.2965 20.8146C40.7473 20.2715 39.8572 20.2715 39.3077 20.8146C38.7582 21.3576 38.7582 22.2382 39.3077 22.7809L42.9741 26.407V32.4009H38.8633V30.5552C38.8633 24.8404 35.4676 24.1142 35.753 19.1705C36.1911 11.7359 45.2329 8.21308 50.7036 13.2617C54.0406 16.3423 54.3862 21.2366 51.9495 24.7014C50.1492 27.2692 49.8988 29.5887 49.8988 32.4006H45.7866V32.4009Z" fill="#5F266D"/>
<path d="M44.3613 6.51855C45.1379 6.51855 45.7676 5.8959 45.7676 5.12793V1.39062C45.7676 0.622652 45.1379 0 44.3613 0C43.5847 0 42.9551 0.622652 42.9551 1.39062V5.12793C42.9551 5.8959 43.5847 6.51855 44.3613 6.51855Z" fill="#5F266D"/>
<path d="M51.5831 8.53215C52.3404 8.53215 52.3847 8.31521 55.2499 5.48216C55.7994 4.93912 55.7994 4.05851 55.2499 3.51582C54.7011 2.97243 53.8099 2.97243 53.2615 3.51582L50.5889 6.1587C49.7001 7.03688 50.3417 8.53215 51.5831 8.53215Z" fill="#5F266D"/>
<path d="M38.2237 8.2134C39.465 8.2134 40.1066 6.71779 39.2182 5.83961L36.5457 3.19672C35.9962 2.65334 35.106 2.65334 34.5569 3.19672C34.0077 3.73976 34.0077 4.62038 34.5569 5.16307C37.4186 7.99368 37.4646 8.2134 38.2237 8.2134Z" fill="#5F266D"/>
</svg>
