<svg width="225" height="225" viewBox="0 0 225 225" fill="none" xmlns="http://www.w3.org/2000/svg">
<path d="M46.5518 182.328H124.138V190.086H46.5518V182.328Z" fill="#0078D1"/>
<path d="M38.7928 155.172L31.0342 225H42.6721L61.2928 155.172H38.7928Z" fill="#009FF5"/>
<path d="M131.896 155.172L139.655 225H128.017L109.396 155.172H131.896Z" fill="#009FF5"/>
<path d="M182.327 85.3448L197.844 100.862H225L213.362 85.3448L225 69.8276H197.844L182.327 85.3448Z" fill="#009FF5"/>
<path d="M85.3448 170.69C132.479 170.69 170.69 132.479 170.69 85.3448C170.69 38.2102 132.479 0 85.3448 0C38.2102 0 0 38.2102 0 85.3448C0 132.479 38.2102 170.69 85.3448 170.69Z" fill="#F07F2F"/>
<path d="M85.3448 147.414C119.625 147.414 147.414 119.625 147.414 85.3448C147.414 51.0651 119.625 23.2759 85.3448 23.2759C51.0651 23.2759 23.2759 51.0651 23.2759 85.3448C23.2759 119.625 51.0651 147.414 85.3448 147.414Z" fill="#E5E7E9"/>
<path d="M85.3449 124.138C106.77 124.138 124.138 106.77 124.138 85.3448C124.138 63.92 106.77 46.5517 85.3449 46.5517C63.92 46.5517 46.5518 63.92 46.5518 85.3448C46.5518 106.77 63.92 124.138 85.3449 124.138Z" fill="#F07F2F"/>
<path d="M85.3449 100.862C93.9148 100.862 100.862 93.9148 100.862 85.3448C100.862 76.7749 93.9148 69.8276 85.3449 69.8276C76.7749 69.8276 69.8276 76.7749 69.8276 85.3448C69.8276 93.9148 76.7749 100.862 85.3449 100.862Z" fill="#E5E7E9"/>
<path d="M85.3446 81.4655C84.3158 81.4655 83.3291 81.8742 82.6016 82.6017C81.874 83.3292 81.4653 84.316 81.4653 85.3448C81.4653 86.3737 81.874 87.3604 82.6016 88.0879C83.3291 88.8154 84.3158 89.2241 85.3446 89.2241H201.724V81.4655H85.3446Z" fill="#0078D1"/>
</svg>
