<svg width="92" height="89" viewBox="0 0 92 89" fill="none" xmlns="http://www.w3.org/2000/svg">
<path d="M38.4429 84.3991C38.4429 86.94 40.5271 89 43.0995 89H49.3084C51.88 89 53.965 86.94 53.965 84.3991V75.1974H38.4429V84.3991Z" fill="#EBEBEB"/>
<path d="M31.1287 58.5678C29.7713 57.7036 28.4912 56.7241 27.3043 55.642C26.2909 59.4918 22.4612 61.9331 18.4935 61.2591C14.525 60.5851 11.7405 57.0214 12.0853 53.0578C12.4302 49.0942 15.79 46.0524 19.8168 46.0584C20.054 46.0584 20.2822 46.1071 20.5088 46.1273C19.0377 42.7103 18.279 39.0358 18.2798 35.323H16.3039L15.2314 40.3634C15.1246 40.8659 14.7706 41.2823 14.2886 41.4725C13.8058 41.6634 13.2593 41.6028 12.8319 41.3115L8.54281 38.3903L3.88617 42.9911L6.83522 47.2281C7.13005 47.6512 7.19144 48.1911 6.99817 48.6673C6.80566 49.1444 6.38426 49.4941 5.87645 49.5989L0.781738 50.6593V56.7938L5.88252 57.8534C6.39032 57.959 6.81172 58.3087 7.00499 58.7849C7.1975 59.2612 7.13611 59.8019 6.84128 60.2242L3.88617 64.4619L8.54281 69.0628L12.8319 66.1483C13.2593 65.857 13.8065 65.7956 14.2893 65.9865C14.7721 66.1767 15.1261 66.5938 15.2329 67.0963L16.3039 72.13H22.5127L23.5837 67.0888C23.6905 66.5856 24.0445 66.1693 24.5273 65.979C25.0101 65.7881 25.5573 65.8487 25.9847 66.1408L30.2738 69.0628L35.1464 64.2485C34.6356 61.8979 33.1872 59.8498 31.1287 58.5678Z" fill="#C9DFFF"/>
<path d="M74.1447 35.3231C74.1432 22.0873 64.6336 10.7147 51.4784 8.21656C38.3233 5.71842 25.2242 12.7965 20.2568 25.0887C15.2894 37.3809 19.8506 51.4269 31.1291 58.5679C33.7136 60.1509 35.3014 62.9284 35.3393 65.9327V72.1301C35.3393 74.671 37.4236 76.731 39.996 76.731H52.4137C54.9853 76.731 57.0703 74.671 57.0703 72.1301V66.06C57.1097 62.9845 58.7294 60.1404 61.37 58.511C69.3387 53.4278 74.15 44.6948 74.1447 35.3231Z" fill="#FFB41F"/>
<path d="M83.7572 19.0986L88.6374 15.4825L83.0493 8.12064L78.1691 11.7368C77.1648 12.4804 75.8059 12.553 74.7259 11.921C73.6458 11.289 73.0577 10.0766 73.2343 8.84926L74.096 2.88474L64.876 1.58325L64.0142 7.54702C63.8376 8.77587 62.9289 9.77782 61.7124 10.0856C60.496 10.3941 59.2113 9.94781 58.4579 8.95484L54.7987 4.13306L47.3484 9.65426L51.0068 14.4761C51.7595 15.469 51.833 16.8109 51.1933 17.878C50.5536 18.9451 49.3265 19.5262 48.0843 19.3518L42.0475 18.5003L40.7295 27.61L46.7678 28.4614C48.0108 28.6366 49.0249 29.5345 49.3364 30.7364C49.6479 31.9383 49.1962 33.2076 48.1912 33.9519L43.3125 37.5681L48.9006 44.9292L53.7793 41.3145C54.7835 40.5702 56.1433 40.4968 57.224 41.1288C58.3041 41.7608 58.893 42.9739 58.7156 44.202L57.8463 50.1651L67.0664 51.4673L67.9357 45.5013C68.113 44.2732 69.0218 43.272 70.2382 42.9642C71.4547 42.6557 72.7394 43.1027 73.492 44.095L77.1527 48.9153L84.603 43.3941L80.9415 38.5738C80.1882 37.5815 80.1139 36.2381 80.7536 35.1703C81.3933 34.1032 82.6211 33.5213 83.8641 33.6973L89.9009 34.5495L91.2189 25.4398L85.1821 24.5877C83.9399 24.4117 82.9265 23.5146 82.6143 22.3127C82.3028 21.1115 82.7537 19.843 83.7572 19.0986ZM65.975 37.2595C59.9738 37.2595 55.1095 32.4535 55.1095 26.5242C55.1095 20.5956 59.9738 15.7888 65.975 15.7888C71.9761 15.7888 76.8405 20.5956 76.8405 26.5242C76.8405 32.4535 71.9761 37.2595 65.975 37.2595Z" fill="#1CC8EB"/>
<path d="M38.4429 79.7982H53.965V82.8655H38.4429V79.7982Z" fill="#9E9E9E"/>
<path d="M44.6519 67.5292H47.7563V72.1301H44.6519V67.5292Z" fill="#FFAA00"/>
<path d="M47.7569 64.4619H44.6525C44.6509 60.407 42.1203 56.7721 38.2882 55.3208C30.6492 52.3696 25.3422 45.4204 24.5677 37.3524C23.7931 29.2844 27.6819 21.4732 34.6229 17.1554L36.2699 19.7501C30.3187 23.4502 26.9831 30.1463 27.6471 37.0633C28.3102 43.9796 32.8593 49.9374 39.4084 52.467C44.4395 54.3683 47.7607 59.1399 47.7569 64.4619Z" fill="#FFAA00"/>
<path d="M77.249 56.7938H85.01C85.8673 56.7938 86.5623 57.4798 86.5623 58.3274C86.5623 59.1744 85.8673 59.8611 85.01 59.8611H77.249C76.3918 59.8611 75.6968 59.1744 75.6968 58.3274C75.6968 57.4798 76.3918 56.7938 77.249 56.7938Z" fill="#FFAA00"/>
<path d="M74.144 65.9963C74.6928 65.3455 75.6712 65.2572 76.3299 65.7993L83.2587 71.5033C83.9174 72.0454 84.0068 73.0122 83.4581 73.6629C82.9086 74.3137 81.9301 74.402 81.2715 73.8599L74.3426 68.1559C73.684 67.6138 73.5953 66.647 74.144 65.9963Z" fill="#FFAA00"/>
<path d="M67.935 69.0629C68.7922 69.0629 69.4872 69.7488 69.4872 70.5965V78.2646C69.4872 79.1116 68.7922 79.7983 67.935 79.7983C67.0778 79.7983 66.3828 79.1116 66.3828 78.2646V70.5965C66.3828 69.7488 67.0778 69.0629 67.935 69.0629Z" fill="#FFAA00"/>
<path d="M2.32023 25.7933L11.726 23.4718C12.5582 23.2667 13.4002 23.7661 13.6079 24.5876C13.8156 25.4091 13.31 26.2411 12.4778 26.4462L3.07208 28.7676C2.23989 28.9728 1.39785 28.4734 1.19018 27.6519C0.982507 26.8304 1.48804 25.9984 2.32023 25.7933Z" fill="#FFAA00"/>
<path d="M4.2939 9.25215C4.79185 8.56322 5.76122 8.40446 6.45851 8.89645L14.7971 14.7816C15.4951 15.2736 15.6566 16.2313 15.1586 16.9203C14.6607 17.6092 13.6913 17.7687 12.994 17.276L4.65542 11.3908C3.95738 10.8988 3.79595 9.94108 4.2939 9.25215Z" fill="#FFAA00"/>
<path d="M18.196 0.0481219C19.0267 -0.161554 19.8717 0.33343 20.084 1.15416L22.4896 10.451C22.7018 11.2718 22.2008 12.1075 21.3701 12.3171C20.5395 12.5268 19.6944 12.0311 19.4822 11.2111L17.0765 1.91423C16.8643 1.0935 17.3653 0.257797 18.196 0.0481219Z" fill="#FFAA00"/>
</svg>
