<svg width="96" height="96" viewBox="0 0 96 96" fill="none" xmlns="http://www.w3.org/2000/svg">
<path d="M95.25 91.5H92.25C91.8362 91.5 91.5 91.1638 91.5 90.75C91.5 90.3362 91.8362 90 92.25 90H95.25C95.6638 90 96 90.3362 96 90.75C96 91.1638 95.6638 91.5 95.25 91.5Z" fill="#263238"/>
<path d="M89.25 91.5H75.75C75.3362 91.5 75 91.1638 75 90.75C75 90.3362 75.3362 90 75.75 90H89.25C89.6638 90 90 90.3362 90 90.75C90 91.1638 89.6638 91.5 89.25 91.5Z" fill="#263238"/>
<path d="M3.75 91.5H0.75C0.336182 91.5 0 91.1638 0 90.75C0 90.3362 0.336182 90 0.75 90H3.75C4.16382 90 4.5 90.3362 4.5 90.75C4.5 91.1638 4.16382 91.5 3.75 91.5Z" fill="#263238"/>
<path d="M20.25 91.5H6.75C6.33618 91.5 6 91.1638 6 90.75C6 90.3362 6.33618 90 6.75 90H20.25C20.6638 90 21 90.3362 21 90.75C21 91.1638 20.6638 91.5 20.25 91.5Z" fill="#263238"/>
<path d="M72 33.6672H66C65.5862 33.6672 65.25 33.3318 65.25 32.9172C65.25 32.5034 65.5862 32.1672 66 32.1672H72C72.4138 32.1672 72.75 32.5034 72.75 32.9172C72.75 33.3318 72.4138 33.6672 72 33.6672Z" fill="#263238"/>
<path d="M69 36.6672C68.5862 36.6672 68.25 36.3318 68.25 35.9172V29.9172C68.25 29.5034 68.5862 29.1672 69 29.1672C69.4138 29.1672 69.75 29.5034 69.75 29.9172V35.9172C69.75 36.3333 69.4138 36.6672 69 36.6672Z" fill="#263238"/>
<path d="M81 26.1672H75C74.5862 26.1672 74.25 25.8318 74.25 25.4172C74.25 25.0034 74.5862 24.6672 75 24.6672H81C81.4138 24.6672 81.75 25.0034 81.75 25.4172C81.75 25.8318 81.4138 26.1672 81 26.1672Z" fill="#263238"/>
<path d="M78 29.1672C77.5862 29.1672 77.25 28.8318 77.25 28.4172V22.4172C77.25 22.0034 77.5862 21.6672 78 21.6672C78.4138 21.6672 78.75 22.0034 78.75 22.4172V28.4172C78.75 28.8333 78.4138 29.1672 78 29.1672Z" fill="#263238"/>
<path d="M33.144 91.5C26.9397 91.5 21.894 86.4543 21.894 80.25C21.894 74.0457 26.9397 69 33.144 69C39.3477 69 44.394 74.0457 44.394 80.25C44.394 86.4543 39.3462 91.5 33.144 91.5ZM33.144 70.5C27.7681 70.5 23.394 74.874 23.394 80.25C23.394 85.626 27.7681 90 33.144 90C38.52 90 42.894 85.626 42.894 80.25C42.894 74.874 38.52 70.5 33.144 70.5Z" fill="#263238"/>
<path d="M59.2285 48.4182L56.394 42.75L54.2334 15.75H44.394V54.75H60.8054C60.7498 52.5747 60.2246 50.4119 59.2285 48.4182Z" fill="#40C4FF"/>
<path d="M60.8054 55.5H44.394C43.9795 55.5 43.644 55.1638 43.644 54.75V15.75C43.644 15.3362 43.9795 15 44.394 15H54.2356C54.6267 15 54.9519 15.3003 54.9819 15.6899L57.1301 42.5442L59.9009 48.0828C60.9402 50.1584 61.4968 52.3953 61.5569 54.7302C61.5613 54.9331 61.4851 55.1294 61.3437 55.2722C61.2009 55.4172 61.0076 55.5 60.8054 55.5ZM45.144 54H60.0166C59.8723 52.1638 59.383 50.4045 58.5569 48.7529L55.7217 43.0847C55.6799 42.9976 55.6528 42.9045 55.6455 42.8086L53.5405 16.5H45.1426V54H45.144Z" fill="#263238"/>
<path d="M27.0715 72.969L26.4204 72.186C24.114 74.1123 22.644 77.0083 22.644 80.2485C22.644 86.0479 27.3447 90.7485 33.144 90.7485V89.7568C33.144 83.625 30.9958 77.6851 27.0715 72.969Z" fill="#FFD740"/>
<path d="M33.144 91.5C26.9397 91.5 21.894 86.4544 21.894 80.25C21.894 76.9065 23.3684 73.7593 25.9407 71.6118C26.0938 71.4859 26.2944 71.4287 26.4885 71.4405C26.6863 71.4588 26.8694 71.5547 26.9968 71.7078L27.6494 72.4893C27.6494 72.4893 27.6509 72.4893 27.6509 72.4908C31.677 77.3299 33.894 83.4617 33.894 89.7583V90.75C33.894 91.1638 33.5579 91.5 33.144 91.5ZM26.3428 73.2664C24.459 75.1004 23.3926 77.6053 23.3926 80.25C23.3926 85.374 27.3645 89.5877 32.3926 89.9715V89.7569C32.3926 83.8111 30.2986 78.0198 26.4958 73.4488L26.3428 73.2664Z" fill="#263238"/>
<path d="M60.8054 55.5H44.394C43.9795 55.5 43.644 55.1638 43.644 54.75V9.93018C43.644 6.93604 46.0801 4.5 49.0735 4.5C51.8845 4.5 54.262 6.69434 54.4861 9.49658L57.1287 42.5442L59.8994 48.0828C60.9387 50.1584 61.4954 52.3953 61.5554 54.7302C61.5598 54.9331 61.4829 55.1294 61.3423 55.2722C61.2009 55.4172 61.0076 55.5 60.8054 55.5ZM45.144 54H60.0166C59.8723 52.1638 59.3831 50.4045 58.5569 48.7529L55.7217 43.0847C55.6799 42.9976 55.6528 42.9045 55.6455 42.8086L52.9905 9.61523C52.8301 7.58862 51.1074 6 49.0735 6C46.9077 6 45.144 7.76221 45.144 9.93018V54Z" fill="#263238"/>
<path d="M65.854 91.5001L51.8911 91.4803C49.4111 91.4803 47.3926 89.4617 47.3926 86.9803C47.3926 84.5098 49.4111 82.5001 51.8926 82.5001H64.7459L58.2148 66.1707C57.7681 65.0552 57.7827 63.8314 58.2551 62.7269C58.7275 61.6231 59.6035 60.7669 60.7212 60.3209C61.8389 59.8697 63.0613 59.8858 64.1665 60.3604C65.2695 60.8328 66.1243 61.7088 66.571 62.8272L73.5144 80.1842C74.5332 82.7308 74.2227 85.6063 72.6853 87.8746C71.148 90.1458 68.5933 91.5001 65.854 91.5001ZM51.894 84.0001C50.2395 84.0001 48.894 85.3382 48.894 86.9803C48.894 88.6348 50.2395 89.9803 51.894 89.9803L65.8555 90.0001C68.0952 90.0001 70.1848 88.8919 71.4431 87.0345C72.7 85.1793 72.9556 82.8253 72.1213 80.7423L65.1794 63.3853C64.8806 62.6419 64.3108 62.0567 63.5754 61.7403C62.8408 61.4254 62.0278 61.4129 61.2808 61.7132C59.7449 62.3277 58.9949 64.0767 59.6079 65.6148L66.552 82.971C66.645 83.2017 66.6165 83.4632 66.4766 83.6697C66.3374 83.877 66.103 84.0001 65.854 84.0001H51.894Z" fill="#263238"/>
<path d="M48.144 86.9802C48.144 84.9089 49.822 83.25 51.894 83.25H56.3941V68.25L59.5186 61.218C60.4334 59.1584 60.8596 56.9487 60.804 54.75H44.3926V84.7442C44.3926 88.0606 47.082 90.7471 50.3984 90.7442C50.6746 90.7442 50.9382 90.6987 51.2056 90.6614C49.4653 90.3377 48.144 88.8164 48.144 86.9802Z" fill="#40C4FF"/>
<path d="M50.3984 91.4941C48.5937 91.4941 46.8989 90.7918 45.6238 89.5203C44.3457 88.2437 43.644 86.5488 43.644 84.7441V54.75C43.644 54.3362 43.9795 54 44.394 54H60.8054C61.2119 54 61.5444 54.3252 61.5554 54.7302C61.6125 57.0557 61.146 59.4031 60.2056 61.5227L57.144 68.4089V83.25C57.144 83.6638 56.8079 84 56.394 84H51.894C50.2395 84 48.894 85.3381 48.894 86.9802C48.894 88.4224 49.9246 89.6594 51.3447 89.9253C51.7065 89.9927 51.9658 90.3135 51.957 90.6812C51.946 91.0503 51.6721 91.3572 51.3044 91.4055C50.9053 91.4627 50.7046 91.5059 50.3984 91.4941ZM45.144 55.5V84.7441C45.144 86.1482 45.6897 87.4651 46.6829 88.4583C47.1208 88.8962 47.6233 89.2456 48.1675 89.502C47.676 88.7791 47.3926 87.9075 47.3926 86.9802C47.3926 84.5098 49.4111 82.5 51.8926 82.5H55.6426V68.25C55.6426 68.1453 55.6645 68.0398 55.707 67.9453L58.833 60.9133C59.5859 59.2185 60.0027 57.3618 60.0525 55.5H45.144Z" fill="#263238"/>
</svg>
