<svg width="376" height="377" viewBox="0 0 376 377" fill="none" xmlns="http://www.w3.org/2000/svg">
<path d="M190.16 6.25942e-10H18.9323C16.4396 -2.0256e-05 13.9717 0.491987 11.6697 1.44783C9.3678 2.40368 7.27723 3.80464 5.51822 5.5701C3.75922 7.33555 2.36631 9.43076 1.41939 11.7357C0.47247 14.0406 -0.00989702 16.5099 0.000153894 19.0016V190.091C-0.00989702 192.583 0.47247 195.052 1.41939 197.357C2.36631 199.662 3.75922 201.757 5.51822 203.523C7.27723 205.288 9.3678 206.689 11.6697 207.645C13.9717 208.6 16.4396 209.092 18.9323 209.092H190.16C192.653 209.092 195.121 208.6 197.423 207.645C199.725 206.689 201.815 205.288 203.574 203.523C205.333 201.757 206.726 199.662 207.673 197.357C208.62 195.052 209.102 192.583 209.092 190.091V19.0016C209.102 16.5099 208.62 14.0406 207.673 11.7357C206.726 9.43076 205.333 7.33555 203.574 5.5701C201.815 3.80464 199.725 2.40368 197.423 1.44783C195.121 0.491987 192.653 -2.0256e-05 190.16 6.25942e-10Z" fill="#DC395F"/>
<path d="M68.2673 68.1124C70.7669 68.0821 73.2015 67.3134 75.2652 65.9027C77.3288 64.4919 78.9292 62.5023 79.8648 60.1842C80.8004 57.8662 81.0296 55.3231 80.5234 52.8751C80.0173 50.4271 78.7984 48.1835 77.0202 46.4266C75.242 44.6696 72.9839 43.478 70.53 43.0013C68.0761 42.5247 65.5359 42.7843 63.2293 43.7478C60.9227 44.7113 58.9528 46.3355 57.567 48.416C56.1812 50.4965 55.4416 52.9404 55.4414 55.4401C55.4413 57.1173 55.7742 58.7778 56.4206 60.3253C57.0671 61.8729 58.0141 63.2768 59.2072 64.4556C60.4002 65.6344 61.8154 66.5645 63.3707 67.1922C64.9259 67.82 66.5903 68.1327 68.2673 68.1124Z" fill="white"/>
<path d="M44.3297 132.425C43.6078 135.473 43.23 138.592 43.2035 141.724C42.9497 144.195 43.2555 146.693 44.0983 149.03C44.9411 151.368 46.2993 153.487 48.0724 155.229C49.8455 156.972 51.9882 158.294 54.3418 159.097C56.6954 159.901 59.1998 160.165 61.6696 159.871C66.9001 159.63 71.9723 158.003 76.3652 155.156C80.7581 152.31 84.3133 148.347 86.666 143.673L82.9128 158.671H103.631L115.566 111.203C118.568 99.2052 124.273 92.9812 132.981 92.9812C134.482 92.8661 135.991 93.0794 137.401 93.6061C138.811 94.1329 140.09 94.9605 141.147 96.0312C142.205 97.102 143.016 98.3899 143.524 99.8058C144.033 101.222 144.226 102.731 144.09 104.229C144.103 106.49 143.774 108.741 143.115 110.904L137.034 132.65C136.184 135.651 135.755 138.755 135.758 141.874C135.586 144.35 135.963 146.834 136.863 149.147C137.762 151.461 139.161 153.549 140.961 155.26C142.76 156.972 144.915 158.266 147.273 159.05C149.63 159.834 152.132 160.089 154.6 159.796C165.484 159.796 174.191 152.747 178.996 135.95L170.813 132.875C166.76 144.123 163.307 146.148 160.53 146.148C157.752 146.148 156.251 144.273 156.251 140.599C156.333 138.671 156.635 136.759 157.152 134.9L163.082 113.678C164.419 109.303 165.102 104.754 165.109 100.18C165.109 84.3574 155.5 76.0337 143.865 76.0337C132.23 76.0337 121.871 85.8572 116.317 96.2056L120.37 77.6834H88.8429L84.4141 93.9561H99.4271L90.3443 130.4C88.8128 134.995 85.8702 138.989 81.9351 141.817C77.9999 144.644 73.2725 146.159 68.4254 146.148C65.723 145.548 63.9966 144.498 63.9966 140.974C64.085 138.133 64.5133 135.314 65.2725 132.575L79.1595 77.6834H44.0294L39.6006 93.9561H54.238L44.7801 132.425" fill="white"/>
<path d="M356.484 167.908H185.256C182.763 167.908 180.296 168.4 177.994 169.355C175.692 170.311 173.601 171.712 171.842 173.478C170.083 175.243 168.69 177.338 167.743 179.643C166.796 181.948 166.314 184.418 166.324 186.909V357.999C166.314 360.49 166.796 362.959 167.743 365.264C168.69 367.569 170.083 369.665 171.842 371.43C173.601 373.196 175.692 374.596 177.994 375.552C180.296 376.508 182.763 377 185.256 377H356.484C358.977 377 361.445 376.508 363.747 375.552C366.049 374.596 368.139 373.196 369.898 371.43C371.657 369.665 373.05 367.569 373.997 365.264C374.944 362.959 375.426 360.49 375.416 357.999V186.909C375.426 184.418 374.944 181.948 373.997 179.643C373.05 177.338 371.657 175.243 369.898 173.478C368.139 171.712 366.049 170.311 363.747 169.355C361.445 168.4 358.977 167.908 356.484 167.908Z" fill="#292929"/>
<path d="M249.465 332.647C254.844 332.647 260.004 330.413 263.808 326.436C267.612 322.459 269.75 317.064 269.75 311.44V290.233H249.465C244.085 290.233 238.925 292.467 235.121 296.444C231.317 300.421 229.179 305.815 229.179 311.44C229.179 317.064 231.317 322.459 235.121 326.436C238.925 330.413 244.085 332.647 249.465 332.647Z" fill="#0ACF83"/>
<path d="M229.179 270.891C229.174 268.348 229.693 265.828 230.709 263.477C231.724 261.125 233.216 258.988 235.098 257.187C236.98 255.386 239.216 253.958 241.677 252.983C244.139 252.008 246.777 251.507 249.442 251.507H269.75V290.233H249.442C244.068 290.233 238.914 288.195 235.114 284.568C231.314 280.941 229.179 276.021 229.179 270.891Z" fill="#A259FF"/>
<path d="M229.18 230.3C229.18 224.683 231.313 219.297 235.112 215.321C238.91 211.345 244.064 209.105 249.442 209.093H269.75V251.507H249.442C244.064 251.494 238.91 249.254 235.112 245.279C231.313 241.303 229.18 235.916 229.18 230.3Z" fill="#F24E1E"/>
<path d="M269.75 209.092H290.957C296.582 209.092 301.976 211.327 305.953 215.304C309.93 219.281 312.164 224.675 312.164 230.3C312.164 235.924 309.93 241.318 305.953 245.295C301.976 249.272 296.582 251.507 290.957 251.507H269.75V209.092Z" fill="#FF7262"/>
<path d="M312.164 270.87C312.164 274.699 310.92 278.443 308.59 281.627C306.26 284.812 302.948 287.293 299.073 288.759C295.198 290.224 290.934 290.608 286.82 289.861C282.706 289.114 278.927 287.27 275.961 284.562C272.996 281.854 270.976 278.403 270.157 274.647C269.339 270.891 269.759 266.998 271.364 263.46C272.969 259.922 275.688 256.898 279.175 254.77C282.663 252.642 286.763 251.507 290.957 251.507C296.582 251.507 301.976 253.547 305.953 257.178C309.93 260.809 312.164 265.734 312.164 270.87Z" fill="#1ABCFE"/>
</svg>
