<svg width="109" height="109" viewBox="0 0 109 109" fill="none" xmlns="http://www.w3.org/2000/svg">
<g clip-path="url(#clip0)">
<path d="M16.4646 41.8772L5.06653 71.0063L15.1979 63.4083L23.0816 64.9682C26.2351 56.7107 29.8715 49.5148 33.8274 43.2248L16.4646 41.8772Z" fill="#AFB6BB"/>
<path d="M67.1228 92.5356L37.9937 103.933L45.5917 93.8021L44.0318 85.9184C52.2894 82.7649 59.4852 79.1285 65.7753 75.1726L67.1228 92.5356Z" fill="#AFB6BB"/>
<path d="M28.8135 82.2519L26.748 80.1864C21.5292 76.2457 13.8467 78.5383 11.1105 84.5558L0 109L24.4439 97.8894C30.4616 95.1534 32.7562 87.4707 28.8135 82.2519Z" fill="#EBBA16"/>
<path d="M108.919 0.0818345C108.919 0.0818345 48.127 -4.98471 21.5312 64.6732L30.4673 73.6092L35.3929 78.5348L44.3289 87.4708C113.983 60.8733 108.919 0.0818345 108.919 0.0818345Z" fill="#E7ECED"/>
<path d="M52.6204 56.3798H39.9556L24.0626 84.9375L52.6204 67.6554V56.3798Z" fill="#AFB6BB"/>
<path d="M71.2178 7.97675L101.023 37.7825C110.364 17.5086 108.917 0.081978 108.917 0.081978C108.917 0.081978 91.4916 -1.36354 71.2178 7.97675Z" fill="#DD352E"/>
<path d="M69.6468 53.6718C77.5599 53.6718 83.9747 47.257 83.9747 39.344C83.9747 31.4309 77.5599 25.0161 69.6468 25.0161C61.7338 25.0161 55.319 31.4309 55.319 39.344C55.319 47.257 61.7338 53.6718 69.6468 53.6718Z" fill="#366DB6"/>
<path d="M69.6562 48.3833C67.3409 48.3833 65.0238 47.5019 63.2611 45.7392C59.7354 42.2135 59.7354 36.4762 63.2611 32.9505C66.7867 29.4249 72.526 29.4249 76.0497 32.9505C76.7846 33.6854 76.7846 34.8731 76.0497 35.6078C75.3167 36.3427 74.1254 36.3427 73.3924 35.6078C71.3308 33.5462 67.9782 33.5481 65.9185 35.6078C63.8588 37.6694 63.8588 41.0201 65.9185 43.0817C67.9802 45.1433 71.3327 45.1452 73.3924 43.0817C74.1254 42.3468 75.3167 42.3468 76.0497 43.0817C76.7846 43.8166 76.7846 45.0043 76.0497 45.739C74.2887 47.5 71.9733 48.3833 69.6562 48.3833Z" fill="white"/>
</g>
<defs>
<clipPath id="clip0">
<rect width="109" height="109" fill="white"/>
</clipPath>
</defs>
</svg>
