<svg width="109" height="109" viewBox="0 0 109 109" fill="none" xmlns="http://www.w3.org/2000/svg">
<path d="M50.4073 57.3513C52.1675 58.6234 54.332 59.3734 56.6723 59.3734H76.6914V69.0803L89.3815 59.3734H94.856C100.758 59.3734 105.542 54.604 105.542 48.7204V10.6531C105.542 4.76946 100.758 0 94.856 0H56.6721C50.7705 0 45.9863 4.76946 45.9863 10.6531V57.3513H50.4073Z" fill="#F7F3F1"/>
<path d="M94.856 0H85.7033C91.6051 0 96.3893 4.76968 96.3893 10.6531V48.7204C96.3893 54.604 91.6051 59.3734 85.7035 59.3734H80.229L76.6914 62.0793V69.0803L89.3815 59.3734H94.856C100.758 59.3734 105.542 54.604 105.542 48.7204V10.6531C105.542 4.76968 100.758 0 94.856 0V0Z" fill="#EFE7E3"/>
<path d="M67.5302 43.7586L68.6316 44.6501C70.3778 46.0636 72.5565 46.8349 74.8029 46.8349H90.4384C91.9205 46.8349 93.114 45.5984 93.0434 44.1007C92.9774 42.698 93.0465 29.923 93.0465 28.4828C93.0465 27.0426 91.8789 25.8747 90.4384 25.8747L79.836 25.8427L81.1341 22.7683C82.4829 19.5738 82.2649 15.9327 80.5444 12.9219C79.6116 11.4801 77.3466 12.0106 77.3025 13.7829C77.3025 16.54 76.2958 19.202 74.4718 21.2693L67.7111 28.9192H65.2465V43.7584H67.5302V43.7586Z" fill="#FFD36C"/>
<path d="M66.4749 46.1111H59.3364C58.8646 46.1111 58.4819 45.7287 58.4819 45.2567V27.0592C58.4819 26.5874 58.8644 26.2047 59.3364 26.2047H66.4749C66.9466 26.2047 67.3293 26.5872 67.3293 27.0592V45.2567C67.3291 45.7284 66.9466 46.1111 66.4749 46.1111Z" fill="#8EE6F3"/>
<path d="M50.4228 76.4288V38.0086C50.4228 33.3689 46.6501 29.6077 41.996 29.6077H11.8848C7.2309 29.6077 3.45801 33.3689 3.45801 38.0086V68.0279C3.45801 72.6675 7.23068 76.4288 11.8848 76.4288H28.4267V84.1553L38.4338 76.4288H50.4228Z" fill="#72D1FB"/>
<path d="M41.9961 29.6077H30.0634C34.7172 29.6077 38.4901 33.3689 38.4901 38.0086V76.4288H50.4229V38.0086C50.4227 33.3689 46.65 29.6077 41.9961 29.6077Z" fill="#62A6FD"/>
<path d="M37.9828 55.4864H31.9268L32.5903 51.4738H37.9828C40.1047 51.4738 40.1047 48.1841 37.9828 48.1841H33.1342L34.0399 42.7058C34.386 40.6126 31.1406 40.0757 30.7943 42.1693L29.7999 48.1841H25.8318L26.7376 42.7058C27.0837 40.6126 23.8387 40.0755 23.4919 42.1693L22.4976 48.1841H15.8977C13.7758 48.1841 13.7758 51.4738 15.8977 51.4738H21.9537L21.2902 55.4864H15.8977C13.7758 55.4864 13.7758 58.7762 15.8977 58.7762H20.7463L19.8405 64.2544C19.498 66.3254 22.7395 66.8873 23.0862 64.7909L24.0806 58.7762H28.0487L27.1429 64.2544C26.8003 66.3254 30.0418 66.8873 30.3885 64.7909L31.3829 58.7762H37.9828C40.1047 58.7762 40.1047 55.4864 37.9828 55.4864ZM28.5926 55.4864H24.6247L25.2881 51.4738H29.2562L28.5926 55.4864Z" fill="#F7F3F1"/>
<path d="M66.7231 70.2903H45.3547C42.052 70.2903 39.3746 72.9594 39.3746 76.2519V97.555C39.3746 100.848 42.052 103.517 45.3547 103.517H57.0936V109L64.1953 103.517H66.7231C70.0258 103.517 72.7032 100.848 72.7032 97.5552V76.2522C72.7032 72.9596 70.0258 70.2903 66.7231 70.2903Z" fill="#FA9084"/>
<path d="M66.7231 70.2903H57.5119C60.8145 70.2903 63.492 72.9594 63.492 76.2519V97.5552C63.492 100.848 60.8145 103.517 57.5119 103.517H57.0936V109L64.1953 103.517H66.7231C70.0258 103.517 72.7032 100.848 72.7032 97.5552V76.2519C72.7032 72.9596 70.0258 70.2903 66.7231 70.2903Z" fill="#FF6CB5"/>
<path d="M56.0389 94.142C61.181 91.4161 63.845 89.0966 63.845 85.5034C63.845 80.547 57.7735 79.3079 56.0389 83.0253C54.0563 79.1842 48.2328 80.5473 48.2328 85.5034C48.2328 89.0966 50.8968 91.4159 56.0389 94.142Z" fill="#F7F3F1"/>
</svg>
