<svg width="188" height="120" viewBox="0 0 188 120" fill="none" xmlns="http://www.w3.org/2000/svg">
<path d="M175.872 102.709C175.534 101.313 174.423 100.261 173.605 99.0786C171.605 96.1147 171.373 92.2846 173.001 89.1013C173.788 87.6046 175.021 86.0568 174.574 84.4224C174.275 83.323 173.282 82.5697 172.307 81.9797C168.601 79.7482 164.323 78.648 160.001 78.8152C154.702 79.0315 149.422 81.1478 144.225 80.0995C139.165 79.0748 134.878 76.5377 129.583 76.2368C125.628 76.0126 121.716 76.2643 117.753 75.8317C107.961 74.7694 98.0971 74.534 88.2657 75.1276C78.435 74.534 68.5716 74.7696 58.7803 75.8317C54.8272 76.2643 50.9134 76.0126 46.9504 76.2368C41.6402 76.5358 37.3625 79.0768 32.3001 80.0995C27.102 81.1497 21.8233 79.0315 16.5249 78.8152C12.2026 78.648 7.92433 79.7482 4.21898 81.9797C3.23561 82.5697 2.25224 83.323 1.95133 84.4224C1.50685 86.0548 2.73803 87.6026 3.52472 89.1013C5.15378 92.284 4.92347 96.1139 2.92487 99.0786C2.1067 100.259 0.995492 101.313 0.657212 102.709C-0.0232808 105.518 2.70656 107.992 5.37739 109.107C12.6642 112.153 21.5263 110.68 28.1916 114.923C31.1791 116.826 33.7929 119.883 37.333 119.997C39.7266 120.074 41.9037 118.744 43.9944 117.574C47.1229 115.822 50.3934 114.338 53.7711 113.135C56.7212 112.085 59.8463 111.243 62.9597 111.591C67.7133 112.116 88.2618 122.044 97.5252 116.177C103.87 112.155 108.818 112.122 113.584 111.589C116.697 111.241 119.82 112.083 122.772 113.133C126.15 114.336 129.42 115.82 132.549 117.572C134.638 118.742 136.817 120.072 139.21 119.995C142.75 119.881 145.364 116.824 148.352 114.921C155.013 110.676 163.873 112.151 171.166 109.105C173.823 107.986 176.555 105.52 175.872 102.709Z" fill="url(#paint0_linear)"/>
<path d="M174.915 102.673C174.581 101.296 173.481 100.25 172.673 99.0815C170.699 96.1483 170.473 92.3617 172.083 89.2144C172.87 87.7334 174.081 86.2033 173.64 84.5886C173.344 83.501 172.362 82.7556 171.398 82.1734C167.734 79.9661 163.503 78.8775 159.228 79.0424C153.989 79.2548 148.767 81.3494 143.626 80.3109C138.619 79.3 134.382 76.7865 129.137 76.4895C125.225 76.2693 121.349 76.5171 117.439 76.0962C107.755 75.0457 97.9992 74.8129 88.276 75.4C78.5528 74.8129 68.7974 75.0457 59.1132 76.0962C55.2033 76.5249 51.3268 76.2752 47.415 76.4895C42.1716 76.7845 37.9333 79.298 32.926 80.3109C27.7869 81.3494 22.5632 79.2548 17.3238 79.0424C13.0491 78.8775 8.81805 79.9661 5.15362 82.1734C4.18991 82.7634 3.20851 83.501 2.91153 84.5886C2.47098 86.2033 3.69823 87.7354 4.46919 89.2144C6.07936 92.3617 5.85299 96.1483 3.87917 99.0815C3.06887 100.25 1.97143 101.29 1.63708 102.673C0.946754 105.45 3.64709 107.896 6.28449 108.99C13.4926 112.001 22.2564 110.544 28.843 114.741C31.7931 116.623 34.3833 119.648 37.89 119.76C40.2501 119.837 42.4135 118.521 44.4786 117.362C47.5731 115.63 50.808 114.161 54.1491 112.971C57.0697 111.93 60.1575 111.098 63.2374 111.442C67.9576 111.97 88.274 121.782 97.4273 115.98C103.703 112.003 108.596 111.97 113.309 111.442C116.389 111.098 119.478 111.93 122.397 112.971C125.738 114.161 128.973 115.63 132.067 117.362C134.135 118.519 136.288 119.835 138.656 119.76C142.157 119.648 144.743 116.625 147.703 114.741C154.292 110.544 163.055 112.001 170.262 108.99C172.889 107.896 175.59 105.45 174.915 102.673Z" fill="#CFCFCF" fill-opacity="0.678431"/>
<path d="M6.85896 43.1373C7.42145 42.9406 8.01934 42.7537 8.6074 42.856C9.59077 43.0271 10.2811 43.9594 10.5741 44.9172C10.8672 45.875 10.8573 46.8839 11.0442 47.8673C11.231 48.8506 11.6775 49.8674 12.5586 50.3375C13.4397 50.8075 14.4801 50.6227 15.4576 50.5086C16.7397 50.3607 18.0338 50.3489 19.3183 50.4732C20.396 50.5774 21.6626 50.9413 21.9793 51.9778C22.2389 52.8235 21.7236 53.6869 21.3893 54.5031C20.7481 56.0292 20.697 57.8327 21.4306 59.3157C22.1641 60.7986 23.651 61.9039 24.2725 63.4694C24.4525 63.861 24.5048 64.2994 24.422 64.7223C24.3301 65.0184 24.1789 65.2928 23.9775 65.5286C23.4897 66.156 22.9076 66.7087 22.4631 67.3695C21.5368 68.7462 21.2831 70.4573 21.1768 72.1113C21.0708 73.7378 21.0801 75.3696 21.2044 76.9947C19.9968 76.6014 18.6633 76.9515 17.4184 76.6938C14.7692 76.1471 13.1152 73.0121 10.4168 72.8213C9.14038 72.7308 7.7676 73.3326 6.62885 72.7485C6.08485 72.435 5.65905 71.9512 5.41734 71.3718C4.93608 70.3463 4.82633 69.1848 5.10659 68.0873C5.30327 67.3282 5.69662 66.5848 5.61991 65.804C5.55501 65.1353 5.1538 64.5452 4.69358 64.0555C3.38176 62.6631 1.47795 61.8115 0.535883 60.1456C-0.339317 58.5294 -0.128286 56.5304 1.06494 55.1324C1.40125 54.8042 1.71967 54.4582 2.01881 54.0959C2.47116 53.4587 2.60883 52.6543 2.6698 51.8735C2.7996 50.0031 2.47312 48.0226 3.08478 46.2054C3.6335 44.5612 5.30917 43.6879 6.85896 43.1373Z" fill="white" fill-opacity="0.367059"/>
<path d="M6.89294 43.1489C6.89294 43.1489 12.2641 72.9785 19.2382 76.5363" stroke="#535461" stroke-opacity="0.6" stroke-width="0.00104493" stroke-miterlimit="10"/>
<path d="M21.8271 51.4202C21.8271 51.4202 16.0743 52.2069 10.3275 58.117" stroke="#535461" stroke-opacity="0.6" stroke-width="0.00104493" stroke-miterlimit="10"/>
<path d="M11.3442 61.5756C11.3442 61.5756 6.91703 57.2487 0 57.9823" stroke="#535461" stroke-opacity="0.6" stroke-width="0.00104493" stroke-miterlimit="10"/>
<path d="M24.3625 63.4577C24.3625 63.4577 16.2832 64.1441 13.2917 67.2456" stroke="#535461" stroke-opacity="0.6" stroke-width="0.00104493" stroke-miterlimit="10"/>
<path d="M14.5002 70.1395C14.5002 70.1395 9.97666 69.3528 5.80127 72.0178" stroke="#535461" stroke-opacity="0.6" stroke-width="0.00104493" stroke-miterlimit="10"/>
<path d="M173.152 19.7056C172.249 19.385 171.291 19.0919 170.349 19.2552C168.776 19.5305 167.667 21.0253 167.202 22.5573C166.738 24.0894 166.748 25.7238 166.449 27.2972C166.15 28.8706 165.434 30.501 164.022 31.2562C162.61 32.0115 160.942 31.7125 159.375 31.5316C157.322 31.2922 155.249 31.2704 153.191 31.4667C151.463 31.6339 149.435 32.218 148.927 33.8779C148.512 35.235 149.337 36.6156 149.887 37.9235C150.916 40.3682 150.998 43.2612 149.82 45.639C148.623 48.0581 146.261 49.7889 145.265 52.2965C145.014 52.9337 144.854 53.6397 145.025 54.3025C145.173 54.7779 145.416 55.2183 145.739 55.5966C146.526 56.6036 147.454 57.4906 148.166 58.5468C149.651 60.7495 150.054 63.4951 150.227 66.1463C150.397 68.7526 150.383 71.3676 150.184 73.9719C152.119 73.3347 154.259 73.9031 156.254 73.492C160.5 72.6168 163.151 67.5918 167.476 67.285C169.521 67.1414 171.722 68.1032 173.547 67.167C174.436 66.7107 175.067 65.8591 175.49 64.9524C176.249 63.3094 176.415 61.453 175.96 59.7012C175.64 58.4838 175.016 57.2939 175.138 56.0411C175.242 54.9693 175.884 54.0233 176.623 53.2405C178.726 51.0082 181.778 49.6433 183.288 46.9745C184.704 44.4728 184.346 41.088 182.441 38.9383C181.941 38.3739 181.347 37.8901 180.911 37.2764C180.185 36.2557 179.953 34.9655 179.866 33.7147C179.66 30.7154 180.169 27.543 179.2 24.6303C178.314 21.9791 175.63 20.5768 173.152 19.7056Z" fill="white" fill-opacity="0.378824"/>
<path d="M173.095 19.7602C173.095 19.7602 164.487 67.5737 153.306 73.2753" stroke="#535461" stroke-opacity="0.6" stroke-width="0.00104493" stroke-miterlimit="10"/>
<path d="M149.147 32.9929C149.147 32.9929 158.367 34.2594 167.579 43.7293" stroke="#535461" stroke-opacity="0.6" stroke-width="0.00104493" stroke-miterlimit="10"/>
<path d="M165.954 49.2743C165.954 49.2743 173.052 42.3337 184.136 43.5137" stroke="#535461" stroke-opacity="0.6" stroke-width="0.00104493" stroke-miterlimit="10"/>
<path d="M145.092 52.2935C145.092 52.2935 158.041 53.3929 162.836 58.3668" stroke="#535461" stroke-opacity="0.6" stroke-width="0.00104493" stroke-miterlimit="10"/>
<path d="M160.887 62.9935C160.887 62.9935 168.143 61.723 174.832 66.0027" stroke="#535461" stroke-opacity="0.6" stroke-width="0.00104493" stroke-miterlimit="10"/>
<path d="M14.7161 0V97.3931H157.684V4.91489V0H14.7161Z" fill="url(#paint1_linear)"/>
<path d="M156.175 4.40997H16.8413V95.6216H156.175V4.40997Z" fill="white"/>
<path d="M156.175 0.0919189H16.8413V6.80244H156.175V0.0919189Z" fill="#EEEEEE"/>
<path d="M22.1437 4.9538C23.042 4.9538 23.7702 4.22559 23.7702 3.3273C23.7702 2.42901 23.042 1.70081 22.1437 1.70081C21.2454 1.70081 20.5172 2.42901 20.5172 3.3273C20.5172 4.22559 21.2454 4.9538 22.1437 4.9538Z" fill="#FF5252"/>
<path d="M26.6126 4.9538C27.5109 4.9538 28.2391 4.22559 28.2391 3.3273C28.2391 2.42901 27.5109 1.70081 26.6126 1.70081C25.7143 1.70081 24.9861 2.42901 24.9861 3.3273C24.9861 4.22559 25.7143 4.9538 26.6126 4.9538Z" fill="#FFFF00"/>
<path d="M31.0929 4.9538C31.9912 4.9538 32.7194 4.22559 32.7194 3.3273C32.7194 2.42901 31.9912 1.70081 31.0929 1.70081C30.1946 1.70081 29.4664 2.42901 29.4664 3.3273C29.4664 4.22559 30.1946 4.9538 31.0929 4.9538Z" fill="#69F0AE"/>
<path d="M74.1049 32.6712H22.1829V34.8346H74.1049V32.6712Z" fill="#0F79D1" fill-opacity="0.5"/>
<path d="M74.1049 36.9921H22.1829V39.1555H74.1049V36.9921Z" fill="#0F79D1" fill-opacity="0.5"/>
<path d="M74.1049 41.3561H22.1829V43.5196H74.1049V41.3561Z" fill="#0F79D1" fill-opacity="0.5"/>
<path d="M74.1059 45.6772H40.0813V47.8406H74.1059V45.6772Z" fill="#0F79D1" fill-opacity="0.5"/>
<path d="M49.5206 49.9952H22.1829V52.1586H49.5206V49.9952Z" fill="#0F79D1" fill-opacity="0.5"/>
<path d="M57.9774 54.3161H36.9332V56.4795H57.9774V54.3161Z" fill="#0F79D1" fill-opacity="0.5"/>
<path d="M142.155 32.6712H80.9893V67.8759H142.155V32.6712Z" fill="#0F79D1" fill-opacity="0.5"/>
<path d="M149.427 36.0269H88.2614V71.2315H149.427V36.0269Z" fill="#EEEEEE"/>
<path d="M186.202 68.5097C186.33 68.3475 186.399 68.1475 186.399 67.9413C186.399 67.7352 186.399 67.9295 186.399 67.9256C186.399 67.9217 186.411 67.8843 186.416 67.8646V67.8391C186.416 67.82 186.416 67.8011 186.416 67.782C186.415 67.763 186.416 67.7663 186.416 67.7584C186.418 67.7348 186.418 67.7112 186.416 67.6876C186.3 66.9009 181.626 61.7756 180.457 55.5233C180.327 54.8426 180.135 54.1755 179.881 53.531C179.916 53.2087 179.897 52.8824 179.818 52.5673C179.621 51.7669 179.228 50.9546 179.425 50.1561C179.452 50.0517 179.488 49.9498 179.533 49.8512C179.779 49.4907 180.003 49.1173 180.207 48.7322C180.284 48.6067 180.349 48.4751 180.404 48.3388C181.122 46.4468 178.9 44.4938 179.309 42.5192C179.486 41.6637 180.148 40.9163 180.131 40.0451C180.109 39.0479 179.193 38.275 178.241 37.9053C177.289 37.5355 176.241 37.4293 175.306 37.0163C173.259 36.1096 172.138 33.9206 170.27 32.7032C167.896 31.1593 164.798 31.4347 161.952 31.8339C161.762 31.8619 161.598 31.983 161.516 32.1565H161.488C161.466 32.2194 161.441 32.2804 161.413 32.3413C161.02 33.012 160.357 33.5214 159.702 33.9914C158.904 34.5539 158.048 35.1086 157.56 35.9424C157.488 36.0664 157.427 36.1844 157.374 36.2984C156.312 38.1924 157.588 39.0106 159.144 39.4649C159.097 39.7357 159.073 40.0101 159.073 40.285C159.073 43.0385 161.376 45.2864 164.214 45.2864C164.438 45.2862 164.662 45.2717 164.885 45.2432L165.05 45.3513H165.087C165.614 45.7309 166.071 46.2069 166.267 46.7733L164.619 48.032C164.619 48.032 164.686 48.2051 164.784 48.4804L158.306 51.4659C155.851 51.58 151.879 43.8488 151.879 43.8488C151.879 43.8488 151.288 39.4157 149.19 38.6192C148.557 38.3792 148.305 38.8808 148.262 39.6989C147.324 40.6823 148.899 46.2049 148.899 46.2049L153.924 55.073C154.392 55.9816 154.514 56.55 156.729 56.8922C158.552 57.1715 164.232 55.1536 166.208 54.422L166.301 55.2087C166.071 55.8083 165.969 56.4495 166.002 57.0908C166.002 58.5403 166.649 60.6487 169.807 62.3283C169.807 62.3283 173.068 66.543 172.706 70.5217C172.706 70.5217 172.864 70.6869 173.115 70.9033C173.08 72.0243 172.919 73.4069 172.354 73.9458C172.28 74.0172 172.245 74.123 172.266 74.2251C172.241 74.3455 172.297 74.469 172.403 74.5299L168.287 81.738C168.134 81.9347 167.978 82.1314 167.819 82.3281C167.055 83.3022 166.207 84.2071 165.284 85.0323C164.597 85.644 163.884 86.3127 163.742 86.5625C163.524 86.9558 162.975 88.2244 163.207 89.2726C163.507 90.5437 163.63 91.8502 163.573 93.155L163.04 102.479C162.861 103.52 162.615 104.548 162.302 105.557H162.222C162.222 105.557 160.235 107.945 157.081 108.507C153.926 109.07 154.042 110.671 154.976 110.895C155.91 111.119 167.247 110.667 167.247 110.667C167.247 110.667 167.675 109.831 167.557 109.068C171.176 108.72 176.189 108.13 176.189 108.13C176.189 108.13 176.876 106.48 175.879 105.76C175.503 105.472 175.226 105.076 175.08 104.625C175.021 104.373 174.956 104.086 174.893 103.785C174.878 103.638 174.878 103.547 174.878 103.547H174.844C174.669 102.668 174.529 101.726 174.61 101.232C174.903 99.9245 175.662 92.3644 173.792 90.2049C172.942 89.2215 173.058 88.1044 173.436 87.1722C175.68 85.703 178.819 82.5424 180.634 80.6308C180.737 80.7153 180.831 80.7999 180.919 80.8845L180.978 80.9415C180.978 80.9415 187.156 77.8832 187.182 72.4845C187.191 71.0988 186.855 69.7323 186.202 68.5097ZM166.415 106.594C166.404 106.397 166.411 106.199 166.436 106.004L166.24 105.982C166.354 105.125 166.633 104.165 167.258 103.502C168.332 101.557 169.092 99.4539 169.508 97.2714L170.643 101.565C170.643 101.565 170.757 102.454 170.789 103.394H170.769C170.769 103.394 169.186 105.654 166.415 106.594Z" fill="url(#paint2_linear)"/>
<path d="M171.543 50.9728C171.543 50.9728 168.768 51.9719 167.217 53.6378C167.217 53.6378 159.666 56.6351 157.556 56.3027C155.446 55.9703 155.335 55.4137 154.891 54.5326L150.116 45.879C150.116 45.879 148.118 38.661 150.116 39.4379C152.114 40.2148 152.673 44.5514 152.673 44.5514C152.673 44.5514 156.449 52.1017 158.779 51.9916L165.102 48.9786C165.102 48.9786 166.546 46.8682 167.213 46.9803C167.879 47.0925 171.543 50.9728 171.543 50.9728Z" fill="#FDB797"/>
<path d="M171.543 50.9728C171.543 50.9728 168.768 51.9719 167.217 53.6378C167.217 53.6378 159.666 56.6351 157.556 56.3027C155.446 55.9703 155.335 55.4137 154.891 54.5326L150.116 45.879C150.116 45.879 148.118 38.661 150.116 39.4379C152.114 40.2148 152.673 44.5514 152.673 44.5514C152.673 44.5514 156.449 52.1017 158.779 51.9916L165.102 48.9786C165.102 48.9786 166.546 46.8682 167.213 46.9803C167.879 47.0925 171.543 50.9728 171.543 50.9728Z" fill="black" fill-opacity="0.05"/>
<path d="M166.985 46.8826L164.77 48.6212C164.77 48.6212 165.878 51.5182 165.6 52.533C165.323 53.5478 170.029 50.9399 170.029 50.9399L168.092 46.5934L166.985 46.8826Z" fill="#F9CE43"/>
<path d="M166.985 46.8826L164.77 48.6212C164.77 48.6212 165.878 51.5182 165.6 52.533C165.323 53.5478 170.029 50.9399 170.029 50.9399L168.092 46.5934L166.985 46.8826Z" fill="black" fill-opacity="0.05"/>
<path d="M163.162 44.9597C163.162 44.9597 168.103 46.5705 165.827 49.4007L172.933 45.9589C172.933 45.9589 169.936 46.1811 168.048 41.632L163.162 44.9597Z" fill="#FDB797"/>
<path d="M172.486 73.9354L166.379 84.9276L170.49 100.909C170.49 100.909 170.934 104.463 170.267 104.796H174.931C174.931 104.796 174.032 101.649 174.264 100.577C174.541 99.3005 175.263 91.9233 173.477 89.807C171.691 87.6908 174.366 84.9217 174.366 84.9217L179.696 76.4824L172.486 73.9354Z" fill="#FDB797"/>
<path d="M172.486 73.9354L166.379 84.9276L170.49 100.909C170.49 100.909 170.934 104.463 170.267 104.796H174.931C174.931 104.796 174.099 101.631 174.264 100.577C174.429 99.5227 175.263 91.9233 173.477 89.807C171.691 87.6908 174.366 84.9217 174.366 84.9217L179.696 76.4824L172.486 73.9354Z" fill="black" fill-opacity="0.05"/>
<path d="M170.606 102.702C170.606 102.702 168.914 105.194 165.964 105.985C163.014 106.775 163.254 108.317 164.157 108.467C165.059 108.616 175.76 107.32 175.76 107.32C175.76 107.32 176.411 105.709 175.465 105.005C174.519 104.301 174.513 102.842 174.513 102.842L170.606 102.702Z" fill="#0D134D"/>
<path d="M172.822 69.4795C172.822 69.4795 173.085 73.0904 172.123 74.0384C172.064 74.0935 172.031 74.1706 172.031 74.2512C172.031 74.3574 172.089 74.4555 172.182 74.5065L175.042 76.0307L177.599 71.1453L172.822 69.4795Z" fill="black" fill-opacity="0.1"/>
<path d="M172.822 69.3876C172.822 69.3876 173.085 72.9985 172.123 73.9465C172.064 74.0015 172.031 74.0786 172.031 74.1593C172.031 74.2655 172.089 74.3636 172.182 74.4146L175.042 75.9388L177.599 71.0534L172.822 69.3876Z" fill="#E23553"/>
<path d="M172.822 69.5715C172.822 69.5715 173.085 73.1824 172.123 74.1304C172.064 74.1854 172.031 74.2625 172.031 74.3432C172.031 74.4494 172.089 74.5475 172.182 74.5985L175.042 76.1227L177.599 71.2373L172.822 69.5715Z" fill="black" fill-opacity="0.1"/>
<path d="M172.933 76.5096C172.933 76.5096 171.283 77.611 167.819 82.1444C167.095 83.0937 166.289 83.9776 165.41 84.7857C164.759 85.3757 164.081 86.0365 163.945 86.2804C163.736 86.6561 163.215 87.9049 163.438 88.9276C163.723 90.1702 163.84 91.4457 163.786 92.7195L163.28 101.828C163.28 101.828 162.613 105.936 161.726 106.381L166.279 107.167C166.279 107.167 165.947 104.28 167.279 102.84C167.279 102.84 170.388 97.5105 169.611 91.5139C169.611 91.5139 169.279 88.849 172.276 87.4054C175.273 85.9618 181.382 78.9661 181.382 78.9661L172.933 76.5096Z" fill="#FDB797"/>
<path d="M162.496 104.814C162.496 104.814 160.608 107.146 157.611 107.701C154.613 108.256 154.723 109.811 155.612 110.034C156.501 110.256 167.271 109.811 167.271 109.811C167.271 109.811 168.058 108.258 167.161 107.479C166.264 106.7 166.494 105.258 166.494 105.258L162.496 104.814Z" fill="#0D134D"/>
<path d="M175.709 70.62C175.709 70.62 174.354 75.171 172.637 76.4966C172.582 76.5381 172.548 76.6036 172.548 76.673C172.548 76.7654 172.607 76.8486 172.694 76.8801C174.114 77.3974 178.676 79.1399 180.262 80.7251L180.317 80.7802C180.317 80.7802 189.81 75.9498 184.703 67.7328L175.709 70.62Z" fill="black" fill-opacity="0.1"/>
<path d="M175.709 70.4821C175.709 70.4821 174.354 75.0331 172.637 76.3587C172.582 76.4002 172.548 76.4657 172.548 76.5351C172.548 76.6276 172.607 76.7108 172.694 76.7422C174.114 77.2595 178.676 79.002 180.262 80.5872L180.317 80.6423C180.317 80.6423 189.81 75.812 184.703 67.5949L175.709 70.4821Z" fill="#E23553"/>
<path d="M167.91 47.9298C167.204 48.4043 166.433 48.7727 165.621 49.0233L166.384 55.8144C166.384 55.8144 164.6 59.8069 169.702 62.5958C169.702 62.5958 172.799 66.7122 172.455 70.5984C172.455 70.5984 174.117 72.3803 175.228 71.9378C176.339 71.4953 175.338 72.16 175.561 72.0499C175.783 71.9398 176.225 72.9408 179.669 72.0597C183.113 71.1786 185.569 68.8559 185.453 68.0771C185.337 67.2982 180.916 62.2909 179.82 56.1802C178.725 50.0696 172.186 45.7231 172.186 45.7231C172.186 45.7231 171.969 45.8431 171.596 46.0024C170.317 46.5448 169.085 47.1893 167.91 47.9298Z" fill="black" fill-opacity="0.1"/>
<path d="M172.549 76.5096C172.541 76.6074 172.6 76.6992 172.692 76.7319C173.916 77.1783 177.472 78.5334 179.446 79.9141C177.737 78.5334 174.101 77.0997 172.549 76.5096Z" fill="black"/>
<path d="M184.704 67.5949L184.507 67.6618C188.871 75.2908 180.652 79.8988 179.934 80.2824C180.058 80.3846 180.17 80.479 180.273 80.5872L180.328 80.6423C180.328 80.6423 189.811 75.812 184.704 67.5949Z" fill="black"/>
<path d="M179.711 71.8083C176.269 72.6973 175.825 71.6982 175.602 71.8083C175.38 71.9184 176.389 71.2537 175.27 71.6982C174.151 72.1426 172.495 70.3647 172.495 70.3647C172.511 70.168 172.519 69.9851 172.519 69.7944C172.53 66.0811 169.71 62.3699 169.71 62.3699C164.597 59.5948 166.378 55.5964 166.378 55.5964L166.17 53.7752L165.598 48.8072C166.409 48.5553 167.179 48.1856 167.883 47.7098C169.056 46.9676 170.287 46.3203 171.563 45.7745C171.938 45.6133 172.153 45.4933 172.153 45.4933C172.153 45.4933 178.704 49.8201 179.823 55.9308C180.942 62.0415 185.375 67.035 185.485 67.8119C185.595 68.5887 183.153 70.9193 179.711 71.8083Z" fill="#F9CE43"/>
<path d="M168.162 41.7238L163.277 45.0555C163.95 45.2891 164.591 45.6083 165.183 46.0054C166.847 45.7714 167.865 44.5795 168.552 43.1123C168.284 42.6836 168.402 42.3001 168.162 41.7238Z" fill="black" fill-opacity="0.1"/>
<path d="M164.383 45.9356C167.081 45.9356 169.268 43.7483 169.268 41.0502C169.268 38.3521 167.081 36.1648 164.383 36.1648C161.685 36.1648 159.498 38.3521 159.498 41.0502C159.498 43.7483 161.685 45.9356 164.383 45.9356Z" fill="#FDB797"/>
<path d="M180.49 71.2616C177.048 72.1506 176.603 71.1515 176.381 71.2616C176.159 71.3718 177.168 70.707 176.049 71.1515C174.93 71.596 173.274 69.818 173.274 69.818C173.289 69.6214 173.297 69.4384 173.297 69.2477C173.311 65.5404 170.497 61.8232 170.497 61.8232C165.383 59.0481 167.165 55.0498 167.165 55.0498L166.958 53.2266L166.418 48.5241C166.156 48.6419 165.886 48.7385 165.609 48.8132L166.172 53.7832L166.382 55.6044C166.382 55.6044 164.612 59.6028 169.714 62.3778C169.714 62.3778 172.528 66.095 172.514 69.8023C172.514 69.999 172.514 70.1819 172.491 70.3726C172.491 70.3726 174.157 72.1427 175.266 71.7061C176.375 71.2695 175.376 71.9283 175.598 71.8162C175.821 71.7041 176.265 72.7052 179.707 71.8162C181.268 71.4123 182.732 70.6956 184.008 69.7099C182.924 70.4112 181.739 70.9351 180.49 71.2616Z" fill="black" fill-opacity="0.1"/>
<path d="M171.268 51.9383C171.268 51.9383 168.493 52.9374 166.941 54.6032C166.941 54.6032 159.391 57.6005 157.28 57.2682C155.17 56.9358 155.06 56.3792 154.615 55.4981L149.84 46.8444C149.84 46.8444 147.842 39.6265 149.84 40.4033C151.838 41.1802 152.397 45.5169 152.397 45.5169C152.397 45.5169 156.173 53.0672 158.503 52.9571L164.829 49.9401C164.829 49.9401 166.272 47.8298 166.939 47.9419C167.606 48.054 171.268 51.9383 171.268 51.9383Z" fill="#FDB797"/>
<path d="M167.518 47.884C167.518 47.884 165.215 47.6735 164.548 50.5607C163.881 53.4479 169.661 55.2238 169.661 55.2238L172.771 50.897L167.518 47.884Z" fill="black" fill-opacity="0.1"/>
<path d="M167.633 47.884C167.633 47.884 165.33 47.6735 164.663 50.5607C163.996 53.4479 169.776 55.2238 169.776 55.2238L172.886 50.897L167.633 47.884Z" fill="#F9CE43"/>
<path d="M166.687 48.3862C166.339 48.5619 165.974 48.7029 165.598 48.8071L165.617 48.9743C165.984 48.7975 166.341 48.601 166.687 48.3862Z" fill="black"/>
<path d="M185.482 67.8119C185.372 67.0252 180.929 62.0375 179.82 55.9308C178.711 49.8241 172.15 45.4933 172.15 45.4933C172.15 45.4933 171.934 45.6133 171.56 45.7745C170.562 46.2033 169.591 46.6926 168.653 47.2398C169.276 46.9119 169.912 46.609 170.561 46.3311C170.936 46.1698 171.151 46.0499 171.151 46.0499C171.151 46.0499 177.702 50.3767 178.821 56.4874C179.94 62.598 184.373 67.5916 184.483 68.3685C184.554 68.8582 183.608 69.9655 182.037 70.941C184.194 69.8691 185.567 68.398 185.482 67.8119Z" fill="black"/>
<path d="M168.952 47.9266C168.952 47.9266 171.823 49.3485 172.364 52.0823" stroke="black" stroke-opacity="0.1" stroke-width="0.00104493" stroke-miterlimit="10"/>
<path d="M161.93 40.7778C162.388 40.8801 162.9 41.0236 163.126 41.4347C163.289 41.7336 163.26 42.1093 163.419 42.4181C163.828 43.189 165.028 42.9235 165.779 43.3759C167.156 44.2058 166.257 46.7941 167.628 47.628C167.885 47.7853 168.19 47.8482 168.456 47.9918C169.614 48.6251 169.451 50.3008 169.242 51.6047C169.034 52.9087 169.282 54.6925 170.59 54.8774C171.309 54.9777 172.118 54.5017 172.723 54.901C173.04 55.1095 173.184 55.491 173.449 55.7683C173.821 56.1394 174.381 56.2549 174.869 56.0614C175.314 55.8765 175.634 55.4536 176.096 55.3179C176.84 55.0996 177.67 55.7014 178.386 55.4241C179.102 55.1468 179.265 54.1123 179.08 53.3315C178.895 52.5507 178.518 51.7581 178.714 50.9714C178.877 50.3224 179.408 49.8268 179.641 49.2014C180.321 47.3546 178.211 45.4468 178.6 43.5175C178.769 42.6816 179.399 41.9441 179.387 41.1004C179.367 40.117 178.496 39.3716 177.589 39.0097C176.683 38.6478 175.687 38.5456 174.8 38.1424C172.855 37.2573 171.791 35.1175 170.013 33.9296C169.217 33.41 168.319 33.0654 167.38 32.9187C164.928 32.5242 162.422 33.2055 160.508 34.7871C160.333 34.9287 160.154 35.0625 159.973 35.1923C159.214 35.741 158.4 36.2818 157.938 37.0961C156.25 40.0344 160.127 40.3707 161.93 40.7778Z" fill="black" fill-opacity="0.1"/>
<path d="M162.068 40.4996C162.526 40.6019 163.038 40.7455 163.264 41.1565C163.427 41.4555 163.397 41.8311 163.557 42.1399C163.966 42.9108 165.166 42.6453 165.917 43.0977C167.294 43.9277 166.395 46.5159 167.766 47.3498C168.023 47.5071 168.328 47.5701 168.594 47.7136C169.752 48.3469 169.589 50.0226 169.38 51.3265C169.172 52.6305 169.42 54.4143 170.727 54.5992C171.447 54.6995 172.256 54.2235 172.861 54.6228C173.178 54.8313 173.322 55.2128 173.587 55.4901C173.959 55.8613 174.519 55.9767 175.007 55.7832C175.452 55.5983 175.772 55.1754 176.234 55.0397C176.978 54.8214 177.808 55.4233 178.524 55.1459C179.24 54.8686 179.403 53.8341 179.218 53.0533C179.033 52.2725 178.655 51.4799 178.852 50.6932C179.015 50.0442 179.546 49.5486 179.778 48.9232C180.459 47.0764 178.349 45.1687 178.738 43.2393C178.907 42.4034 179.537 41.6659 179.525 40.8222C179.505 39.8388 178.634 39.0934 177.727 38.7315C176.82 38.3696 175.825 38.2674 174.938 37.8642C172.993 36.9791 171.929 34.8393 170.151 33.6514C169.429 33.1772 168.62 32.8498 167.771 32.6877C165.243 32.2027 162.625 32.8726 160.64 34.5129C160.467 34.6525 160.288 34.7862 160.111 34.9062C159.352 35.4549 158.538 35.9958 158.075 36.81C156.388 39.7562 160.266 40.0945 162.068 40.4996Z" fill="#0F79D1"/>
<path d="M122.483 71.2177H88.2614V64.7687C96.622 60.8608 109.486 58.6659 122.483 71.2177Z" fill="#0F79D1"/>
<path d="M149.033 70.2952V71.2176H106.354V71.0209C106.354 71.0209 127.355 50.5727 149.033 70.2952Z" fill="black" fill-opacity="0.1"/>
<path d="M149.435 70.2952V71.2176H106.757V71.0209C106.757 71.0209 127.758 50.5727 149.435 70.2952Z" fill="#0F79D1"/>
<path d="M95.3483 45.4432C97.0862 45.4432 98.4951 44.0344 98.4951 42.2964C98.4951 40.5585 97.0862 39.1497 95.3483 39.1497C93.6104 39.1497 92.2015 40.5585 92.2015 42.2964C92.2015 44.0344 93.6104 45.4432 95.3483 45.4432Z" fill="#0F79D1"/>
<path d="M27.7974 71.2423C30.8983 71.2423 33.412 68.7286 33.412 65.6277C33.412 62.5269 30.8983 60.0132 27.7974 60.0132C24.6966 60.0132 22.1829 62.5269 22.1829 65.6277C22.1829 68.7286 24.6966 71.2423 27.7974 71.2423Z" fill="#0F79D1"/>
<path d="M43.5016 71.2423C46.6025 71.2423 49.1162 68.7286 49.1162 65.6277C49.1162 62.5269 46.6025 60.0132 43.5016 60.0132C40.4008 60.0132 37.8871 62.5269 37.8871 65.6277C37.8871 68.7286 40.4008 71.2423 43.5016 71.2423Z" fill="#0F79D1"/>
<path d="M60.1935 71.2423C63.2944 71.2423 65.8081 68.7286 65.8081 65.6277C65.8081 62.5269 63.2944 60.0132 60.1935 60.0132C57.0927 60.0132 54.579 62.5269 54.579 65.6277C54.579 68.7286 57.0927 71.2423 60.1935 71.2423Z" fill="#0F79D1"/>
<path d="M122.131 39.9204C121.771 39.9204 121.37 39.9204 121.096 39.9421C120.974 39.9487 120.853 39.9733 120.738 40.0148L118.888 40.6796C120.382 40.717 121.942 40.7052 123.474 40.6934L132.065 40.6265C132.942 40.6265 133.862 40.6108 134.592 40.5596C135.082 40.5242 135.442 40.4731 135.894 40.4337C137.521 40.2882 139.891 40.3157 142.009 40.3236C144.127 40.3315 146.684 40.2764 147.429 40.064H142.882C142.392 40.064 141.877 40.064 141.444 40.0404C140.939 40.0109 140.63 39.9558 140.186 39.9165C139.45 39.8536 138.435 39.8457 137.491 39.8418C132.309 39.8201 127.191 39.9421 122.131 39.9204Z" fill="#F4F4F4"/>
<path d="M127.224 43.7661C127.145 43.7661 127.059 43.7661 127 43.7661C126.973 43.7675 126.946 43.7728 126.921 43.7819L126.528 43.9254C126.852 43.9254 127.189 43.9254 127.521 43.9254L129.381 43.9117C129.578 43.9117 129.775 43.9117 129.928 43.8979C130.034 43.8979 130.113 43.8782 130.209 43.8704C130.561 43.8389 131.075 43.8448 131.535 43.8468C131.929 43.8599 132.324 43.8409 132.715 43.7897H131.732C131.625 43.7897 131.513 43.7897 131.421 43.7897C131.329 43.7897 131.244 43.772 131.148 43.7622C130.988 43.7484 130.768 43.7465 130.558 43.7465C129.437 43.7465 128.327 43.772 127.224 43.7661Z" fill="#F4F4F4"/>
<path d="M114.047 49.2793C113.968 49.2793 113.882 49.2793 113.823 49.2793C113.796 49.2806 113.77 49.2859 113.744 49.295L113.351 49.4386C113.675 49.4386 114.012 49.4386 114.344 49.4386L116.205 49.4248C116.401 49.4248 116.598 49.4248 116.751 49.411C116.858 49.411 116.936 49.3914 117.033 49.3835C117.385 49.352 117.898 49.3579 118.358 49.3599C118.752 49.3731 119.147 49.354 119.538 49.3029H118.555C118.449 49.3029 118.337 49.3029 118.244 49.3029C118.152 49.3029 118.067 49.2851 117.971 49.2753C117.811 49.2615 117.591 49.2596 117.381 49.2596C116.26 49.2596 115.15 49.2852 114.047 49.2793Z" fill="#F4F4F4"/>
<path d="M106.653 69.5064H105.174C105.174 69.5064 104.712 53.3319 106.653 48.3403H107.023C107.023 48.3403 105.728 66.6408 106.653 69.5064Z" fill="#0F79D1"/>
<path d="M105.642 47.5079C105.642 47.5079 104.44 50.8357 104.995 52.3147C104.995 52.3147 105.826 49.2642 106.796 48.8021C107.766 48.3399 108.782 52.3147 108.782 52.3147C108.782 52.3147 109.337 49.8189 108.32 47.7912C108.32 47.7912 110.354 48.9004 111.371 51.0264C111.371 51.0264 111.556 49.6497 109.152 46.7743C109.152 46.7743 111.278 47.329 112.665 48.6231C112.665 48.6231 113.127 47.6063 110.261 45.9424C110.261 45.9424 110.631 44.7407 112.85 45.2954C112.85 45.2954 112.85 43.722 109.337 44.0012C109.337 44.0012 109.337 42.9844 111.648 43.1693C111.648 43.1693 111.648 41.8752 108.967 42.3374C108.967 42.3374 109.522 41.5054 109.892 41.3206C109.43 41.2779 108.968 41.4099 108.598 41.6903C108.228 41.9708 108.69 40.0265 107.303 39.3794L107.119 41.6903C107.119 41.6903 105.565 39.8593 105.917 40.2113C106.009 40.3038 106.287 41.413 106.194 41.9676C106.194 41.9676 104.621 40.6735 102.682 42.0601C102.682 42.0601 105.085 42.2449 105.455 43.0769C105.455 43.0769 103.421 42.7071 102.959 42.9844C102.959 42.9844 104.532 43.5391 104.438 43.9088C104.438 43.9088 101.665 43.9088 101.291 44.9256C101.291 44.9256 104.157 45.2954 104.342 45.5727C104.342 45.5727 101.014 47.976 100.829 48.6231C100.829 48.6231 104.249 46.5895 104.804 46.5895C105.358 46.5895 102.308 49.5396 102.493 50.287C102.501 50.2811 105.004 47.3231 105.642 47.5079Z" fill="#0F79D1"/>
<path d="M124.892 68.8778H126.021C126.021 68.8778 126.375 56.5207 124.892 52.7072H124.609C124.609 52.7072 125.6 66.6849 124.892 68.8778Z" fill="#0F79D1"/>
<path d="M125.668 52.072C125.668 52.072 126.587 54.615 126.162 55.7439C126.162 55.7439 125.527 53.4133 124.785 53.0613C124.044 52.7092 123.267 55.7439 123.267 55.7439C123.267 55.7439 122.844 53.8381 123.621 52.2844C122.627 52.8727 121.819 53.7298 121.29 54.7566C120.762 55.7834 121.149 53.6965 122.986 51.5075C122.986 51.5075 121.361 51.9304 120.303 52.9197C120.303 52.9197 119.949 52.1428 122.14 50.8723C122.14 50.8723 121.857 49.9538 120.163 50.3786C120.163 50.3786 120.163 49.1789 122.846 49.3953C122.846 49.3953 122.846 48.6184 121.076 48.76C121.076 48.76 121.076 47.7766 123.123 48.1247C123.123 48.1247 122.7 47.4895 122.417 47.3479C122.769 47.3168 123.12 47.4179 123.401 47.6311C123.682 47.8443 123.33 46.3606 124.384 45.861L124.526 47.6311C124.526 47.6311 125.706 46.2327 125.444 46.5022C125.275 46.928 125.202 47.3862 125.232 47.8435C125.261 48.3008 126.431 46.8601 127.914 47.9143C127.914 47.9143 126.077 48.0559 125.796 48.6912C125.796 48.6912 127.35 48.408 127.702 48.6204C127.702 48.6204 126.502 49.0432 126.573 49.3264C126.573 49.3264 128.691 49.3264 128.974 50.1033C128.974 50.1033 126.785 50.3865 126.644 50.5969C126.644 50.5969 129.187 52.4339 129.326 52.9275C129.326 52.9275 126.715 51.3738 126.29 51.3738C125.865 51.3738 128.196 53.6336 128.06 54.198C128.07 54.1902 126.164 51.9343 125.668 52.072Z" fill="#0F79D1"/>
<path d="M138.409 66.4882H139.109C139.109 66.4882 139.327 58.8356 138.409 56.4735H138.234C138.234 56.4735 138.845 65.137 138.409 66.4882Z" fill="#0F79D1"/>
<path d="M138.898 56.0525C138.898 56.0525 139.466 57.6259 139.205 58.326C139.205 58.326 138.812 56.8824 138.351 56.6641C137.891 56.4458 137.411 58.326 137.411 58.326C137.411 58.326 137.15 57.146 137.63 56.1823C137.014 56.5463 136.514 57.0768 136.186 57.7124C135.858 58.3481 136.099 57.0555 137.236 55.7004C136.626 55.8702 136.059 56.1687 135.574 56.5756C135.089 56.9826 135.356 56.0938 136.711 55.3071C136.711 55.3071 136.536 54.7387 135.486 55.0003C135.486 55.0003 135.486 54.2568 137.148 54.3886C137.148 54.3886 137.148 53.9068 136.054 53.9953C136.054 53.9953 136.054 53.3836 137.323 53.6019C137.206 53.4176 137.058 53.2548 136.886 53.1201C137.105 53.1 137.323 53.1625 137.498 53.2951C137.673 53.4277 137.454 52.5084 138.109 52.2016L138.196 53.2951C138.196 53.2951 138.932 52.4297 138.764 52.5949C138.66 52.8585 138.615 53.1419 138.633 53.4249C139.131 53.0619 139.816 53.0798 140.294 53.4682C140.773 53.8566 139.158 53.5547 138.983 53.95C138.983 53.95 139.944 53.775 140.163 53.9068C140.163 53.9068 139.419 54.1683 139.463 54.3434C139.463 54.3434 140.774 54.3434 140.949 54.8252C140.949 54.8252 139.594 55.0003 139.506 55.132C139.506 55.132 141.079 56.2688 141.168 56.5756C141.168 56.5756 139.549 55.6139 139.287 55.6139C139.026 55.6139 140.468 57.0142 140.381 57.3623C140.385 57.3643 139.203 55.964 138.898 56.0525Z" fill="#0F79D1"/>
<path d="M112.845 57.7939L112.697 57.0072C112.697 56.8904 112.649 56.7787 112.564 56.6985L111.881 56.3641C111.831 56.3051 111.79 56.2388 111.759 56.1674L111.771 56.1497C111.809 56.1031 111.836 56.0487 111.85 55.9904C111.851 55.9753 111.851 55.9603 111.85 55.9452H111.86C111.989 55.9625 112.112 55.8766 112.141 55.7485V55.7308C112.116 55.8396 112.022 55.9198 111.911 55.9275C112.103 55.7985 112.219 55.5812 112.219 55.3493C112.219 55.1174 112.219 55.3296 112.219 55.3198C112.28 55.2824 112.323 55.2208 112.336 55.1506V55.1329C112.319 55.1996 112.275 55.2565 112.216 55.2903C112.211 55.223 112.196 55.1567 112.172 55.0936H112.19C112.329 55.0936 112.444 54.9791 112.444 54.8399C112.444 54.7006 112.444 54.8281 112.444 54.8222C112.434 54.954 112.324 55.0574 112.192 55.0582H112.16V55.0464C112.314 55.0002 112.428 54.8688 112.452 54.7101C112.475 54.5514 112.452 54.6983 112.452 54.6924C112.448 54.7416 112.43 54.789 112.4 54.8281C112.401 54.8236 112.401 54.819 112.401 54.8147C112.401 54.6755 112.286 54.561 112.147 54.561C112.031 54.561 111.929 54.6407 111.901 54.7534L111.856 54.7278C111.885 54.6241 111.976 54.5498 112.084 54.5429H112.066C111.957 54.5421 111.86 54.6112 111.824 54.714C111.511 54.5685 111.135 54.6765 110.947 54.9658C110.894 55.0051 110.825 55.0621 110.827 55.1113C110.804 55.1341 110.784 55.1591 110.766 55.186C110.691 55.3503 110.664 55.5322 110.687 55.7112C110.709 55.8915 110.642 56.0717 110.506 56.193C110.566 56.2178 110.632 56.2178 110.691 56.193C110.75 56.1682 110.805 56.136 110.855 56.0966C110.901 56.0683 110.941 56.0302 110.971 55.9845V55.9747C111.003 55.9965 111.038 56.015 111.075 56.0298C111.089 56.1478 111.093 56.2835 111.039 56.3287L111.049 56.3071C110.923 56.4025 110.765 56.4473 110.607 56.433C110.413 56.444 110.239 56.5561 110.148 56.728L109.934 57.6228V57.6543C109.941 57.6789 109.96 57.6978 109.985 57.7035L110.052 57.7212C110.062 57.874 110.047 58.0276 110.007 58.1755C109.962 58.3958 109.936 58.6196 109.93 58.8442C109.946 58.9563 109.973 59.5404 109.987 59.8177C109.963 59.9123 109.944 60.0083 109.93 60.1049L109.614 62.0047C109.614 62.0047 109.378 63.525 109.389 63.9852L109.348 64.2508C109.348 64.2508 108.705 65.0571 108.894 65.1712C109.083 65.2853 109.374 65.3344 109.651 64.9057C109.688 64.8046 109.749 64.7137 109.828 64.6402C109.892 64.5849 109.925 64.5019 109.916 64.4179L109.897 64.2213L109.93 64.2331H109.95C109.95 64.2331 110.266 63.1926 110.231 62.463C110.231 62.463 110.821 60.3743 111.264 60.0459V60.0321L111.305 60.0124L111.399 62.0362L111.303 64.2665L111.281 64.4002C111.281 64.4002 110.638 65.2066 110.827 65.3207C111.016 65.4347 111.307 65.4839 111.584 65.0552C111.622 64.9541 111.682 64.8632 111.761 64.7896C111.825 64.7344 111.858 64.6514 111.85 64.5674L111.82 64.2724C111.93 63.8967 112.214 62.815 112.098 62.1876L112.294 60.8542C112.491 60.6319 112.465 60.0675 112.465 60.0675C112.621 59.743 112.662 58.4705 112.662 58.4705L112.701 57.8411C112.731 57.8386 112.76 57.8386 112.79 57.8411H112.821V57.8293C112.827 57.8244 112.832 57.8183 112.835 57.8116H112.847V57.7959L112.845 57.7939ZM112.294 59.0723C112.277 59.0291 112.257 58.9858 112.235 58.9425H112.219V58.9268C112.219 58.9215 112.219 58.9164 112.219 58.911V58.8953C112.229 58.8743 112.237 58.8524 112.243 58.8304C112.268 58.7897 112.281 58.7427 112.28 58.6947C112.304 58.8192 112.308 58.9464 112.294 59.0723ZM112.235 58.5334L112.196 58.1126L112.208 58.0791L112.261 58.6141L112.235 58.5334ZM110.371 58.5905C110.343 58.6217 110.331 58.6632 110.335 58.7045C110.34 58.7458 110.335 58.7045 110.335 58.7183C110.336 58.7608 110.342 58.8033 110.353 58.8442L110.292 59.1077V58.6042C110.332 58.5511 110.368 58.4945 110.398 58.4351C110.404 58.4884 110.395 58.5425 110.371 58.5905Z" fill="url(#paint3_linear)"/>
<path d="M110.765 55.357C110.693 55.515 110.666 55.6902 110.688 55.8625C110.709 56.0363 110.644 56.2098 110.513 56.3266C110.57 56.3506 110.635 56.3506 110.692 56.3266C110.748 56.303 110.801 56.272 110.85 56.2342C110.895 56.2071 110.933 56.1701 110.962 56.126C110.989 56.058 110.998 55.984 110.987 55.9117C110.987 55.783 110.999 55.6548 111.021 55.5281C111.032 55.4495 111.107 55.2351 111.021 55.1938C110.934 55.1525 110.802 55.298 110.765 55.357Z" fill="#72351C"/>
<path d="M109.471 63.7327L109.41 64.1261C109.41 64.1261 108.79 64.9128 108.973 65.0131C109.156 65.1134 109.435 65.1704 109.703 64.7574C109.739 64.6603 109.797 64.5727 109.872 64.5017C109.933 64.4484 109.965 64.3682 109.957 64.2874L109.896 63.6875L109.471 63.7327Z" fill="#333333"/>
<path d="M111.332 63.8706L111.271 64.264C111.271 64.264 110.651 65.0507 110.834 65.151C111.017 65.2513 111.296 65.3083 111.564 64.8953C111.6 64.7981 111.658 64.7106 111.733 64.6396C111.794 64.5863 111.826 64.5061 111.818 64.4252L111.757 63.8254L111.332 63.8706Z" fill="#333333"/>
<path d="M110.371 59.1867C110.371 59.1867 110.08 59.3971 109.978 60.1288L109.673 61.9598C109.673 61.9598 109.415 63.6197 109.462 63.9384L109.978 64.1154C109.978 64.1154 110.283 63.1123 110.249 62.4141C110.249 62.4141 110.869 60.2074 111.303 60.054L111.396 62.0031L111.297 64.196L111.738 64.2845C111.738 64.2845 112.184 62.8881 112.043 62.1486L112.273 60.5752C112.273 60.5752 112.536 59.7354 112.171 59.0018L110.371 59.1867Z" fill="#4D8AF0"/>
<path d="M111.259 60.0925V60.0591C110.824 60.2145 110.205 62.4192 110.205 62.4192C110.194 62.9899 110.105 63.5563 109.939 64.1027L109.994 64.1224C109.994 64.1224 110.299 63.1193 110.266 62.4211C110.264 62.4231 110.83 60.417 111.259 60.0925Z" fill="black"/>
<path d="M112.188 59.0018H112.129C112.341 59.4947 112.376 60.046 112.228 60.5615L111.998 62.1348C112.133 62.835 111.738 64.1232 111.697 64.2589L111.754 64.2707C111.754 64.2707 112.2 62.8743 112.059 62.1348L112.289 60.5615C112.289 60.5615 112.554 59.7256 112.188 59.0018Z" fill="black"/>
<path d="M109.973 57.7455C109.972 57.7764 109.994 57.8039 110.024 57.8104C110.168 57.8466 110.302 57.9137 110.417 58.0071C110.634 58.1762 110.187 57.6688 110.187 57.6688L110.038 57.7023L109.977 57.7573L109.973 57.7455Z" fill="#F55F44"/>
<path d="M109.973 57.7455C109.972 57.7764 109.994 57.8039 110.024 57.8104C110.168 57.8466 110.302 57.9137 110.417 58.0071C110.634 58.1762 110.187 57.6688 110.187 57.6688L110.038 57.7023L109.977 57.7573L109.973 57.7455Z" fill="black" fill-opacity="0.1"/>
<path d="M112.098 58.2049C112.28 58.0757 112.491 57.9927 112.712 57.963C112.743 57.963 112.769 57.9373 112.769 57.906C112.769 57.8747 112.254 57.7034 112.098 58.2049Z" fill="#F55F44"/>
<path d="M112.769 57.8911C112.769 57.8911 112.254 57.6944 112.098 58.19C112.098 58.19 112.478 57.899 112.741 57.9462" fill="black" fill-opacity="0.1"/>
<path d="M111.505 56.206C111.876 56.206 112.176 55.9057 112.176 55.5353C112.176 55.165 111.876 54.8647 111.505 54.8647C111.135 54.8647 110.835 55.165 110.835 55.5353C110.835 55.9057 111.135 56.206 111.505 56.206Z" fill="#72351C"/>
<path d="M111.04 56.0062C111.04 56.0062 111.134 56.3995 111.04 56.4801C110.945 56.5608 110.754 56.7102 110.898 56.8263C111.042 56.9423 111.555 57.139 111.726 57.0426C111.897 56.9463 112.092 56.9758 112.045 56.7791C111.997 56.5824 111.624 56.6237 111.618 55.6462L111.04 56.0062Z" fill="#FDB797"/>
<path d="M110.089 57.6227C110.103 57.8361 110.089 58.0503 110.048 58.2599C110.004 58.4717 109.979 58.6869 109.973 58.903C109.993 59.0446 110.034 59.9808 110.034 59.9808C110.034 59.9808 109.959 60.8009 110.358 60.7262C110.758 60.6515 110.297 59.79 110.297 59.79L110.317 58.671C110.425 58.5238 110.493 58.351 110.514 58.1694C110.543 57.9 110.089 57.6227 110.089 57.6227Z" fill="black" fill-opacity="0.1"/>
<path d="M110.089 57.6227C110.103 57.8361 110.089 58.0503 110.048 58.2599C110.004 58.4717 109.979 58.6869 109.973 58.903C109.993 59.0446 110.034 59.9808 110.034 59.9808C110.034 59.9808 109.959 60.8009 110.358 60.7262C110.758 60.6515 110.297 59.79 110.297 59.79L110.317 58.671C110.425 58.5238 110.493 58.351 110.514 58.1694C110.541 57.9 110.089 57.6227 110.089 57.6227Z" fill="#FDB797"/>
<path d="M112.641 57.6688L112.586 58.544C112.586 58.544 112.552 59.7713 112.403 60.082C112.403 60.082 112.444 60.9435 112.043 60.9218C111.642 60.9002 112.11 59.9797 112.11 59.9797C112.11 59.9797 112.324 59.0219 112.214 58.7191L112.11 57.6688H112.641Z" fill="black" fill-opacity="0.1"/>
<path d="M112.641 57.6688L112.586 58.544C112.586 58.544 112.552 59.7713 112.403 60.082C112.403 60.082 112.444 60.9435 112.043 60.9218C111.642 60.9002 112.11 59.9797 112.11 59.9797C112.11 59.9797 112.324 59.0219 112.214 58.7191L112.11 57.6688H112.641Z" fill="#FDB797"/>
<path d="M111.343 56.8565C111.343 56.8565 111.667 57.006 111.844 56.5615L112.503 56.8841C112.585 56.962 112.631 57.0701 112.631 57.183L112.772 57.9422C112.772 57.9422 112.29 57.779 112.141 58.2274L112.182 58.6542C112.213 58.7596 112.206 58.8727 112.161 58.9728C112.153 58.9909 112.153 59.0117 112.161 59.0298C112.167 59.0503 112.17 59.0713 112.17 59.0927C112.17 59.2064 112.077 59.3 111.964 59.3012C111.787 59.3032 111.61 59.3171 111.435 59.3425C111.293 59.3838 110.865 59.2619 110.723 59.3425C110.581 59.4231 110.282 59.2815 110.282 59.2815L110.363 58.9354C110.363 58.9354 110.308 58.7663 110.377 58.7053C110.446 58.6443 110.404 58.1153 110.343 57.9658C110.343 57.9658 110.1 57.7357 109.95 57.7691L110.147 56.8939C110.233 56.7281 110.401 56.6196 110.587 56.6087C110.74 56.6223 110.892 56.5788 111.014 56.4868C111.136 56.3948 110.867 56.8093 111.343 56.8565Z" fill="black" fill-opacity="0.1"/>
<path d="M111.376 56.8194C111.464 56.843 111.7 56.8685 111.842 56.5126L112.501 56.8351C112.583 56.913 112.629 57.0212 112.629 57.134L112.77 57.8932C112.77 57.8932 112.289 57.73 112.139 58.1784L112.18 58.6052L112.208 58.6897C112.232 58.7631 112.219 58.8435 112.174 58.9061C112.156 58.9277 112.15 58.958 112.161 58.9847C112.167 59.0052 112.17 59.0262 112.17 59.0477C112.17 59.1614 112.077 59.255 111.964 59.2562C111.787 59.2581 111.61 59.2721 111.435 59.2975C111.293 59.3388 110.865 59.2168 110.723 59.2975C110.581 59.3781 110.282 59.2365 110.282 59.2365L110.363 58.8903C110.363 58.8903 110.308 58.7212 110.377 58.6602C110.446 58.5993 110.404 58.0702 110.343 57.9207C110.343 57.9207 110.1 57.6906 109.95 57.7241L110.147 56.8489C110.233 56.6831 110.401 56.5745 110.587 56.5637C110.74 56.5773 110.892 56.5338 111.014 56.4418C111.136 56.3497 110.855 56.7328 111.274 56.7958L111.376 56.8194Z" fill="black" fill-opacity="0.1"/>
<path d="M111.378 56.8233C111.466 56.8469 111.702 56.8725 111.844 56.5165L112.503 56.839C112.585 56.9169 112.631 57.0251 112.631 57.138L112.772 57.8971C112.772 57.8971 112.29 57.7339 112.141 58.1823L112.182 58.6091C112.213 58.7145 112.206 58.8276 112.161 58.9277C112.153 58.9458 112.153 58.9667 112.161 58.9847C112.167 59.0052 112.17 59.0262 112.17 59.0477C112.17 59.1614 112.077 59.255 111.964 59.2562C111.787 59.2581 111.61 59.2721 111.435 59.2975C111.293 59.3388 110.865 59.2168 110.723 59.2975C110.581 59.3781 110.282 59.2365 110.282 59.2365L110.363 58.8903C110.363 58.8903 110.308 58.7212 110.377 58.6602C110.446 58.5993 110.404 58.0702 110.343 57.9207C110.343 57.9207 110.1 57.6906 109.95 57.7241L110.147 56.8489C110.233 56.6831 110.401 56.5745 110.587 56.5637C110.74 56.5773 110.892 56.5338 111.014 56.4418C111.136 56.3497 110.855 56.7328 111.274 56.7958L111.378 56.8233Z" fill="#F55F44"/>
<path d="M111.629 55.6462L111.053 56.0062C111.068 56.0711 111.079 56.1367 111.087 56.2028C111.152 56.229 111.222 56.2424 111.293 56.2422C111.434 56.2323 111.567 56.1723 111.667 56.073C111.641 55.9322 111.628 55.7894 111.629 55.6462Z" fill="black" fill-opacity="0.1"/>
<path d="M111.277 56.2077C111.584 56.2077 111.833 55.9585 111.833 55.6511C111.833 55.3437 111.584 55.0945 111.277 55.0945C110.969 55.0945 110.72 55.3437 110.72 55.6511C110.72 55.9585 110.969 56.2077 111.277 56.2077Z" fill="#FDB797"/>
<path d="M112.102 55.2146C112.236 55.2146 112.345 55.1054 112.345 54.9707C112.345 54.836 112.236 54.7268 112.102 54.7268C111.967 54.7268 111.858 54.836 111.858 54.9707C111.858 55.1054 111.967 55.2146 112.102 55.2146Z" fill="#72351C"/>
<path d="M112.152 55.2362C112.024 55.2366 111.917 55.1371 111.908 55.01C111.899 54.883 111.908 55.0218 111.908 55.0277C111.908 55.1615 112.018 55.2716 112.152 55.2716C112.285 55.2716 112.396 55.1615 112.396 55.0277C112.396 54.894 112.396 55.0159 112.396 55.01C112.386 55.1371 112.279 55.2366 112.152 55.2362Z" fill="#72351C"/>
<path d="M112.013 55.454C111.888 55.4302 111.801 55.3128 111.816 55.1865V55.2023C111.813 55.2168 111.812 55.2318 111.812 55.2465C111.812 55.3804 111.922 55.4906 112.056 55.4906C112.173 55.4906 112.275 55.406 112.296 55.2908V55.2731C112.265 55.3983 112.139 55.4786 112.013 55.454Z" fill="#72351C"/>
<path d="M111.817 56.0515C111.692 56.0277 111.606 55.9103 111.62 55.7841V55.7998C111.618 55.8143 111.616 55.8293 111.616 55.844C111.616 55.978 111.726 56.0881 111.86 56.0881C111.978 56.0881 112.079 56.0035 112.1 55.8883V55.8706C112.069 55.9959 111.944 56.0761 111.817 56.0515Z" fill="#72351C"/>
<path d="M112.151 55.1007C112.023 55.1009 111.916 55.0004 111.907 54.8725C111.899 54.7447 111.907 54.8843 111.907 54.8902C111.907 55.024 112.018 55.1341 112.151 55.1341C112.285 55.1341 112.395 55.024 112.395 54.8902C112.395 54.7565 112.395 54.8784 112.395 54.8725C112.387 55.0004 112.279 55.1009 112.151 55.1007Z" fill="#72351C"/>
<path d="M111.809 54.9687C111.809 54.8407 111.911 54.7341 112.039 54.7268H112.021C111.887 54.7268 111.777 54.8369 111.777 54.9707C111.777 55.1044 111.887 55.2146 112.021 55.2146H112.039C111.91 55.2073 111.808 55.0981 111.809 54.9687Z" fill="#72351C"/>
<path d="M112.05 57.301C112.076 57.4216 112.076 57.5463 112.05 57.6668C112.024 57.7874 112.017 57.9855 112.07 58.0405" fill="black" fill-opacity="0.1"/>
<path d="M110.407 57.347C110.432 57.4675 110.432 57.5922 110.407 57.7128C110.381 57.8334 110.373 58.0314 110.426 58.0865" fill="black" fill-opacity="0.1"/>
<path d="M110.387 58.6486C110.439 58.6675 110.497 58.6675 110.55 58.6486C110.614 58.6292 110.683 58.6292 110.747 58.6486" fill="black" fill-opacity="0.1"/>
<path d="M110.479 58.1833C110.67 58.1926 110.862 58.1623 111.041 58.0948C111.221 58.0273 111.733 58.264 111.93 58.142" fill="black" fill-opacity="0.1"/>
<path fill-rule="evenodd" clip-rule="evenodd" d="M110.4 61.2481C110.4 61.1753 110.341 61.1163 110.268 61.1163H110.105C110.032 61.1163 109.973 61.1753 109.973 61.2481C109.973 61.3209 110.032 61.3799 110.105 61.3799H110.268C110.341 61.3799 110.4 61.3209 110.4 61.2481Z" fill="#FDB797"/>
<path d="M109.973 61.1721L110.201 61.1623L110.398 61.1938H110.329L109.973 61.1721Z" fill="#F0E4E4"/>
<path d="M111.513 60.0591H111.741L111.938 60.0787H111.869L111.513 60.0591Z" fill="#F0E4E4"/>
<path d="M111.513 60.105H111.741L111.938 60.1247H111.869L111.513 60.105Z" fill="#F0E4E4"/>
<path d="M111.513 60.197H111.741L111.938 60.2167H111.869L111.513 60.197Z" fill="#F0E4E4"/>
<path d="M111.513 60.243H111.741L111.938 60.2626H111.869L111.513 60.243Z" fill="#F0E4E4"/>
<path d="M109.973 61.3463H110.201L110.398 61.3699H110.329L109.973 61.3463Z" fill="#F0E4E4"/>
<path d="M109.973 61.3463H110.201L110.398 61.3699H110.329L109.973 61.3463Z" fill="#F0E4E4"/>
<path d="M109.973 61.3003H110.201L110.398 61.3239H110.329L109.973 61.3003Z" fill="#F0E4E4"/>
<path d="M109.973 61.3003H110.201L110.398 61.3239H110.329L109.973 61.3003Z" fill="#F0E4E4"/>
<path d="M109.973 61.1262L110.201 61.1163L110.398 61.1478H110.329L109.973 61.1262Z" fill="#F0E4E4"/>
<path d="M109.973 61.1262L110.201 61.1163L110.398 61.1478H110.329L109.973 61.1262Z" fill="#F0E4E4"/>
<path d="M111.371 55.3028C111.349 55.5107 111.376 55.7208 111.45 55.9165C111.523 56.1084 111.512 56.3228 111.42 56.5065C111.481 56.5207 111.546 56.5045 111.593 56.4632C111.642 56.4203 111.684 56.3708 111.719 56.3157C111.756 56.2709 111.782 56.2186 111.796 56.1623C111.802 56.074 111.788 55.9853 111.756 55.9027C111.718 55.752 111.691 55.5988 111.674 55.4444C111.662 55.35 111.674 55.0786 111.568 55.0511C111.461 55.0236 111.391 55.2242 111.371 55.3028Z" fill="black" fill-opacity="0.1"/>
<path d="M111.394 55.3029C111.372 55.5107 111.399 55.7208 111.473 55.9165C111.546 56.1084 111.535 56.3228 111.443 56.5065C111.504 56.5207 111.569 56.5045 111.616 56.4632C111.665 56.4204 111.707 56.3708 111.742 56.3157C111.779 56.2709 111.805 56.2186 111.819 56.1623C111.825 56.074 111.811 55.9853 111.779 55.9027C111.741 55.7521 111.714 55.5989 111.697 55.4445C111.685 55.3501 111.697 55.0787 111.591 55.0511C111.484 55.0236 111.413 55.2222 111.394 55.3029Z" fill="#72351C"/>
<path d="M111.153 55.4374C111.2 55.4865 111.21 55.5593 111.249 55.6144C111.32 55.6903 111.421 55.7306 111.524 55.7245C111.552 55.7229 111.58 55.7292 111.605 55.7422C111.648 55.7697 111.65 55.8327 111.678 55.8759C111.707 55.9078 111.749 55.9259 111.793 55.9259C111.836 55.9259 111.878 55.9078 111.908 55.8759C111.965 55.8081 111.996 55.7225 111.996 55.634C112.006 55.5367 112.006 55.4383 111.996 55.341C111.994 55.2295 111.95 55.1227 111.872 55.042C111.808 54.9942 111.733 54.962 111.654 54.9476C111.546 54.9095 111.43 54.9006 111.318 54.9221C111.263 54.9402 111.212 54.9661 111.164 54.9988C111.098 55.042 111.032 55.0859 110.968 55.1305C110.895 55.1817 110.757 55.2839 110.891 55.339C110.976 55.3784 111.082 55.3607 111.153 55.4374Z" fill="black" fill-opacity="0.1"/>
<path d="M111.164 55.4374C111.211 55.4865 111.221 55.5593 111.26 55.6144C111.331 55.6903 111.432 55.7306 111.536 55.7245C111.564 55.7229 111.592 55.7292 111.616 55.7422C111.66 55.7697 111.662 55.8327 111.689 55.8759C111.719 55.9078 111.761 55.9259 111.804 55.9259C111.848 55.9259 111.89 55.9078 111.919 55.8759C111.976 55.8081 112.007 55.7225 112.008 55.634C112.017 55.5367 112.017 55.4383 112.008 55.341C112.005 55.2295 111.961 55.1227 111.884 55.042C111.819 54.9942 111.745 54.962 111.666 54.9476C111.558 54.9095 111.442 54.9006 111.329 54.9221C111.275 54.9402 111.223 54.9661 111.176 54.9988C111.109 55.042 111.044 55.0859 110.979 55.1305C110.906 55.1817 110.769 55.2839 110.902 55.339C110.987 55.3784 111.099 55.3626 111.164 55.4374Z" fill="#72351C"/>
<path d="M111.524 60.0591H111.753L111.949 60.0787H111.884L111.524 60.0591Z" fill="#F0E4E4"/>
<path d="M111.524 60.105H111.753L111.949 60.1247H111.884L111.524 60.105Z" fill="#F0E4E4"/>
<path d="M111.524 60.197H111.753L111.949 60.2167H111.884L111.524 60.197Z" fill="#F0E4E4"/>
<path d="M111.524 60.243H111.753L111.949 60.2626H111.884L111.524 60.243Z" fill="#F0E4E4"/>
<path d="M111.421 62.8172H111.649L111.846 62.8369H111.777L111.421 62.8172Z" fill="#F0E4E4"/>
<path d="M111.421 62.8601H111.649L111.846 62.8798H111.777L111.421 62.8601Z" fill="#F0E4E4"/>
<path d="M111.421 62.9061H111.649L111.846 62.9257H111.777L111.421 62.9061Z" fill="#F0E4E4"/>
<path d="M111.421 62.952H111.649L111.846 62.9716H111.777L111.421 62.952Z" fill="#F0E4E4"/>
<path d="M149.425 6.80029H22.5391V16.206H149.425V6.80029Z" fill="#0F79D1" fill-opacity="0.729412"/>
<defs>
<linearGradient id="paint0_linear" x1="88.2618" y1="119.999" x2="88.2618" y2="74.8149" gradientUnits="userSpaceOnUse">
<stop stop-color="#808080" stop-opacity="0.123529"/>
<stop offset="0.54" stop-color="#808080" stop-opacity="0.0588235"/>
<stop offset="1" stop-color="#808080" stop-opacity="0.0490196"/>
</linearGradient>
<linearGradient id="paint1_linear" x1="86.1993" y1="97.3931" x2="86.1993" y2="0" gradientUnits="userSpaceOnUse">
<stop stop-color="#808080" stop-opacity="0.247059"/>
<stop offset="0.54" stop-color="#808080" stop-opacity="0.117647"/>
<stop offset="1" stop-color="#808080" stop-opacity="0.0980392"/>
</linearGradient>
<linearGradient id="paint2_linear" x1="167.581" y1="110.95" x2="167.581" y2="31.5192" gradientUnits="userSpaceOnUse">
<stop stop-color="#808080" stop-opacity="0.123529"/>
<stop offset="0.54" stop-color="#808080" stop-opacity="0.0588235"/>
<stop offset="1" stop-color="#808080" stop-opacity="0.0490196"/>
</linearGradient>
<linearGradient id="paint3_linear" x1="110.855" y1="65.4092" x2="110.855" y2="54.5252" gradientUnits="userSpaceOnUse">
<stop stop-color="#808080" stop-opacity="0.247059"/>
<stop offset="0.54" stop-color="#808080" stop-opacity="0.117647"/>
<stop offset="1" stop-color="#808080" stop-opacity="0.0980392"/>
</linearGradient>
</defs>
</svg>
