<svg width="125" height="125" viewBox="0 0 125 125" fill="none" xmlns="http://www.w3.org/2000/svg">
<g clip-path="url(#clip0)">
<path d="M34.3218 46.3333C26.6189 45.2862 17.6334 48.6164 11.4307 54.8201L1.07287 65.178C-0.0982393 66.3491 -0.338565 68.162 0.491132 69.5983C1.3008 71.0154 2.99643 71.7373 4.61005 71.3053C11.1828 69.5429 19.8822 68.9564 22.0213 70.5901L34.3218 46.3333Z" fill="#FF637B"/>
<path d="M78.4436 90.7316L54.1516 102.45C55.5048 104.294 55.398 110.125 53.8206 120.802C53.5851 122.381 54.4014 123.91 55.7957 124.607C57.2062 125.32 58.9133 125.045 60.031 123.927L70.3888 113.569C76.2406 107.717 79.4039 98.7529 78.4436 90.7316Z" fill="#E63950"/>
<path d="M57.8031 103.7C49.2582 108.309 48.171 108.568 46.8759 109.448C45.4254 110.38 43.561 110.173 42.3183 108.931L16.4232 83.0355C15.2321 81.8443 14.9736 79.9275 15.9054 78.4779C16.7856 77.1828 16.8896 76.354 21.5502 67.4467L31.805 67.3428L57.7001 93.2379L57.8031 103.7Z" fill="#7C8388"/>
<path d="M57.8031 103.7C49.2582 108.309 48.171 108.568 46.8759 109.448C45.4254 110.38 43.561 110.173 42.3183 108.931L29.3703 95.9826L44.9076 80.4463L57.6992 93.2379L57.8031 103.7Z" fill="#575F64"/>
<path d="M57.8031 103.699L21.5502 67.4466C39.5212 33.5245 61.118 12.3415 86.1843 4.05603L103.793 21.5607L120.987 38.7554C112.701 63.7177 91.5707 85.4691 57.8031 103.699Z" fill="#FAECD8"/>
<path d="M57.8031 103.7L39.7281 85.6247L103.793 21.5607L120.987 38.7545C112.701 63.7178 91.5708 85.4692 57.8031 103.7Z" fill="#F4D7AF"/>
<path d="M92.5026 32.8511L92.3471 32.6957C85.2003 25.5489 73.5989 25.5479 66.452 32.6957C59.3052 39.8425 59.3052 51.444 66.452 58.5898L66.6075 58.7453C73.7543 65.6852 85.2518 65.6852 92.3471 58.5898C99.4425 51.4955 99.4425 39.997 92.5026 32.8511Z" fill="#64E1DC"/>
<path d="M92.3472 58.5899C85.2519 65.6853 73.7544 65.6853 66.6075 58.7454L92.5026 32.8512C99.4425 39.9971 99.4425 51.4955 92.3472 58.5899Z" fill="#00C8C8"/>
<path d="M120.987 38.7545C113.064 38.1851 104.57 34.4563 97.682 27.6718L97.5266 27.5164C90.5867 20.5765 86.7024 12.0306 86.1846 4.05503C88.5668 3.22629 91.0006 2.553 93.4353 1.98365C102.291 -0.0362285 111.562 -0.502575 121.195 0.534069C122.127 0.637066 123.007 1.10341 123.525 1.8282C124.042 2.34605 124.406 3.01934 124.457 3.79659C125.545 13.3772 124.975 22.6479 122.955 31.5037C122.386 33.9384 121.764 36.3207 120.987 38.7545Z" fill="#FF637B"/>
<path d="M120.987 38.7545C113.064 38.1852 104.57 34.4563 97.6821 27.6719L123.525 1.82825C124.043 2.34609 124.405 3.01939 124.457 3.79663C125.545 13.3782 124.975 22.6479 122.955 31.5037C122.386 33.9385 121.764 36.3207 120.987 38.7545Z" fill="#E63950"/>
<path d="M57.1813 71.4864C57.1298 70.6052 56.7675 69.8289 56.1457 69.2071C55.5239 68.3784 54.5406 67.809 53.5049 67.809C40.039 67.7051 37.035 72.4697 36.2587 73.2469C13.834 95.6716 13.5746 106.704 13.5746 107.842C13.6261 108.827 13.9885 109.708 14.6618 110.38C14.7133 110.432 14.7657 110.484 14.8697 110.484C15.3875 111.002 16.1123 111.313 16.8886 111.364C18.753 111.571 29.2663 111.313 51.795 88.7842C56.8714 83.7087 57.2338 78.9956 57.1813 71.4864Z" fill="#FF637B"/>
<path d="M57.1814 71.4864C57.2338 78.9957 56.8714 83.7087 51.795 88.7842C29.2664 111.313 18.7531 111.571 16.8896 111.364C16.1123 111.313 15.3875 111.002 14.8697 110.484L56.1466 69.2072C56.7675 69.8289 57.1299 70.6052 57.1814 71.4864Z" fill="#E63950"/>
</g>
<defs>
<clipPath id="clip0">
<rect width="125" height="125" fill="white"/>
</clipPath>
</defs>
</svg>
