<svg width="124" height="124" viewBox="0 0 124 124" fill="none" xmlns="http://www.w3.org/2000/svg">
<g clip-path="url(#clip0)">
<path d="M124 62C124 71.171 122.009 79.8765 118.435 87.7088C112.327 101.098 101.594 111.931 88.2802 118.172C85.8687 119.301 83.3712 120.28 80.7998 121.095C77.9077 122.019 74.9239 122.729 71.8616 123.218C71.8493 123.22 71.8341 123.223 71.8209 123.223C70.3186 123.464 68.8021 123.648 67.2666 123.778C66.9393 123.805 66.611 123.831 66.2818 123.853C65.8182 123.884 65.3528 123.911 64.8845 123.932C63.928 123.977 62.9669 124 62 124C61.0076 124 60.0237 123.977 59.0446 123.929C58.6018 123.909 58.1581 123.884 57.7154 123.851C57.3842 123.828 57.055 123.805 56.7258 123.778C55.1544 123.646 53.5982 123.453 52.0627 123.205C51.3286 123.086 50.5973 122.957 49.8736 122.813C46.7327 122.19 43.6808 121.333 40.7329 120.255C39.0244 119.632 37.3517 118.936 35.717 118.17C35.1607 117.908 34.6063 117.638 34.0567 117.357C32.6452 116.644 31.2658 115.876 29.9196 115.059C23.1753 110.975 17.2738 105.64 12.5313 99.3773C9.68466 95.6168 7.25806 91.5223 5.31961 87.1591C1.9006 79.4716 0 70.9581 0 62C0 27.7579 27.7579 0 62 0C96.2421 0 124 27.7579 124 62Z" fill="#FFE152"/>
<path d="M49.8736 80.4583V122.813C46.7327 122.19 43.6808 121.333 40.7329 120.255C39.0243 119.632 37.3517 118.936 35.717 118.17C35.1607 117.908 34.6063 117.638 34.0567 117.357C32.6452 116.644 31.2658 115.876 29.9196 115.059C23.1753 110.975 17.2738 105.64 12.5313 99.3773C9.68466 95.6168 7.25806 91.5223 5.31961 87.1591V80.4583C5.31961 72.6847 10.5985 66.1428 17.7677 64.227C18.0307 64.1561 18.2937 64.0898 18.5623 64.035C19.2728 63.8779 20.0041 63.771 20.7487 63.7105C21.2018 63.6755 21.6597 63.6547 22.1223 63.6547H33.0671C34.2894 63.6547 35.4814 63.7843 36.6309 64.035C36.6961 64.0473 36.7624 64.0624 36.8276 64.0775C37.0206 64.1211 37.2155 64.1684 37.4047 64.2195C37.4104 64.2223 37.4151 64.2223 37.4199 64.2242C39.3129 64.7303 41.0716 65.5581 42.6382 66.6461C47.0109 69.68 49.8736 74.7338 49.8736 80.4583Z" fill="#2BA1CF"/>
<path d="M49.8736 80.4583V122.813C46.7327 122.19 43.6808 121.333 40.7329 120.255C39.0244 119.632 37.3517 118.936 35.717 118.17C35.1607 117.908 34.6063 117.638 34.0567 117.357C32.6452 116.644 31.2658 115.876 29.9196 115.059C23.1753 110.975 17.2738 105.64 12.5313 99.3773V80.4583C12.5313 72.6847 17.8102 66.1428 24.9794 64.227C25.2433 64.1561 25.5063 64.0898 25.774 64.035C26.4855 63.8779 27.2168 63.771 27.9604 63.7105C28.4135 63.6755 28.8714 63.6547 29.335 63.6547H33.0671C34.2894 63.6547 35.4814 63.7843 36.6309 64.035C36.6961 64.0473 36.7624 64.0624 36.8276 64.0775C37.0206 64.1211 37.2155 64.1684 37.4047 64.2195C37.4104 64.2223 37.4151 64.2223 37.4199 64.2242C39.3129 64.7303 41.0716 65.5581 42.6382 66.6461C47.0109 69.68 49.8736 74.7338 49.8736 80.4583Z" fill="#66BAED"/>
<path d="M37.4615 64.0339L37.4218 64.2241L32.3945 87.6056C31.912 89.8524 29.9348 91.4815 27.6378 91.4834C27.6236 91.4834 27.6103 91.4834 27.5971 91.4834C27.5819 91.4834 27.5677 91.4834 27.5526 91.4834C25.2547 91.4815 23.2784 89.8524 22.7959 87.6056L17.7686 64.226L17.7289 64.0339H37.4615Z" fill="#F2F0EC"/>
<path d="M27.5952 70.5343L20.0297 74.7385L17.7289 64.034L22.4298 61.2659" fill="#D8D5D0"/>
<path d="M27.5952 70.5343L35.1607 74.7385L37.4615 64.034L32.7606 61.2659" fill="#D8D5D0"/>
<path d="M5.00742 59.6046V34.262C5.00742 31.6869 5.43692 29.1638 6.28458 26.7627C9.45667 17.7374 18.0212 11.6714 27.5961 11.6714C28.7825 11.6714 29.966 11.7632 31.1164 11.9448C36.3764 12.7669 41.2031 15.4518 44.7025 19.5056C48.2388 23.6029 50.1867 28.843 50.1867 34.262V59.6046" fill="#CC7A3B"/>
<path d="M14.2995 35.2515C14.2995 44.2153 19.5491 54.5858 22.4317 59.6046H5.00647V34.2619C5.00647 31.6877 5.43692 29.1646 6.28363 26.7626C9.4368 17.7894 17.9228 11.7413 27.4315 11.6732C20.4866 11.8463 14.2995 22.9889 14.2995 35.2515Z" fill="#A35418"/>
<path d="M33.5922 57.1818V64.5401C33.5922 67.2335 31.8164 69.5106 29.37 70.2665C28.8099 70.4406 28.213 70.5342 27.5961 70.5342C24.285 70.5342 21.602 67.8513 21.602 64.5401V57.1818H33.5922Z" fill="#EAB599"/>
<path d="M33.5922 64.0737V64.5401C33.5922 67.2335 31.8164 69.5107 29.37 70.2665C27.1628 69.5882 25.5035 67.6687 25.197 65.3206C25.5971 65.3452 26.0002 65.3575 26.4041 65.3575C27.5384 65.3575 28.651 65.2676 29.7332 65.0898C31.0681 64.875 32.3585 64.5316 33.5922 64.0737Z" fill="#F6CAAE"/>
<path d="M11.151 45.1235C11.151 47.8992 9.12366 50.2009 6.46811 50.6276C6.17862 50.6749 5.87967 50.6995 5.57504 50.6995C2.49567 50.6995 0 48.2038 0 45.1235C0 42.0441 2.49567 39.5485 5.57504 39.5485C5.87967 39.5485 6.17862 39.5731 6.46811 39.6204C9.12366 40.047 11.151 42.3478 11.151 45.1235Z" fill="#F6CAAE"/>
<path d="M11.151 45.1235C11.151 47.8992 9.12366 50.2009 6.46811 50.6276C5.98657 48.8746 5.7283 47.0288 5.7283 45.1235C5.7283 43.2191 5.98657 41.3734 6.46811 39.6204C9.12366 40.047 11.151 42.3478 11.151 45.1235Z" fill="#EAB599"/>
<path d="M7.56836 45.1235C7.56836 46.2247 6.67624 47.1168 5.57504 47.1168C4.47479 47.1168 3.58267 46.2247 3.58267 45.1235C3.58267 44.0232 4.47479 43.1311 5.57504 43.1311C6.67624 43.1311 7.56836 44.0232 7.56836 45.1235Z" fill="#EAB599"/>
<path d="M41.9126 38.0045V57.1695C38.9506 59.9972 35.1522 61.9555 30.9262 62.6367C30.8931 62.6423 30.8571 62.648 30.824 62.6537C29.7739 62.8211 28.6964 62.9044 27.5961 62.9044C16.1405 62.9044 6.85315 53.6171 6.85315 42.1614V34.2619C6.85315 33.2506 6.92505 32.2554 7.06506 31.2828C12.0006 34.8324 19.077 34.4814 23.5858 30.2204C25.0787 28.8099 26.1165 27.1306 26.7031 25.3492C27.0294 28.4684 28.4561 31.5042 30.9849 33.8949C33.9952 36.7368 37.9724 38.1076 41.9126 38.0045Z" fill="#EAB599"/>
<path d="M41.9126 38.0045V57.1695C38.9506 59.9972 35.1522 61.9555 30.9262 62.6367C30.8931 62.6423 30.8571 62.648 30.824 62.6537C20.9019 61.1031 13.3127 52.5168 13.3127 42.1614V34.2619C13.3127 34.0519 13.3165 33.8428 13.3241 33.6347C16.9815 34.0093 20.7808 32.8722 23.5858 30.2195C25.0787 28.8099 26.1165 27.1297 26.7031 25.3492C27.0294 28.4684 28.4561 31.5042 30.9849 33.8949C33.9952 36.7368 37.9723 38.1076 41.9126 38.0045Z" fill="#F6CAAE"/>
<path d="M38.7377 40.4094C38.7377 38.5059 37.1947 36.9639 35.2922 36.9639C33.3897 36.9639 31.8467 38.5059 31.8467 40.4094" fill="#EAB599"/>
<path d="M23.3493 40.4094C23.3493 38.5059 21.8063 36.9639 19.9038 36.9639C18.0013 36.9639 16.4593 38.5059 16.4593 40.4094" fill="#EAB599"/>
<path d="M22.2576 41.8758C22.2576 43.1756 21.2037 44.2295 19.9038 44.2295C18.604 44.2295 17.551 43.1756 17.551 41.8758C17.551 40.5759 18.604 39.5229 19.9038 39.5229C21.2037 39.5229 22.2576 40.5759 22.2576 41.8758Z" fill="#3D4159"/>
<path d="M37.645 41.8758C37.645 43.1756 36.5921 44.2295 35.2922 44.2295C33.9923 44.2295 32.9394 43.1756 32.9394 41.8758C32.9394 40.5759 33.9923 39.5229 35.2922 39.5229C36.5921 39.5229 37.645 40.5759 37.645 41.8758Z" fill="#3D4159"/>
<path d="M29.9518 47.8008H25.2452C24.6842 47.8008 24.2301 47.3458 24.2301 46.7857C24.2301 46.2257 24.6842 45.7706 25.2452 45.7706H29.9518C30.5118 45.7706 30.9659 46.2257 30.9659 46.7857C30.9659 47.3458 30.5118 47.8008 29.9518 47.8008Z" fill="#EAB599"/>
<path d="M27.5981 54.2235C25.8611 54.2235 24.1242 53.7884 22.5405 52.917C22.094 52.672 21.9312 52.111 22.1763 51.6645C22.4222 51.218 22.9832 51.0552 23.4298 51.3003C26.0399 52.7354 29.1562 52.7354 31.7663 51.3003C32.2129 51.0543 32.7739 51.218 33.0198 51.6645C33.2649 52.111 33.1021 52.672 32.6556 52.917C31.0719 53.7884 29.335 54.2235 27.5981 54.2235Z" fill="#EAB599"/>
<path d="M21.778 41.4604C21.778 42.0176 21.3257 42.4689 20.7695 42.4689C20.2122 42.4689 19.761 42.0176 19.761 41.4604C19.761 40.9032 20.2122 40.4519 20.7695 40.4519C21.3257 40.4519 21.778 40.9032 21.778 41.4604Z" fill="white"/>
<path d="M37.2808 41.4604C37.2808 42.0176 36.8295 42.4689 36.2733 42.4689C35.716 42.4689 35.2648 42.0176 35.2648 41.4604C35.2648 40.9032 35.716 40.4519 36.2733 40.4519C36.8295 40.4519 37.2808 40.9032 37.2808 41.4604Z" fill="white"/>
<path d="M41.7168 47.6078C41.7168 49.0344 40.5598 50.1914 39.1322 50.1914C37.7056 50.1914 36.5486 49.0344 36.5486 47.6078C36.5486 46.1802 37.7056 45.0232 39.1322 45.0232C40.5598 45.0232 41.7168 46.1802 41.7168 47.6078Z" fill="#EAB599"/>
<path d="M18.6456 47.6078C18.6456 49.0344 17.4895 50.1914 16.062 50.1914C14.6353 50.1914 13.4783 49.0344 13.4783 47.6078C13.4783 46.1802 14.6353 45.0232 16.062 45.0232C17.4895 45.0232 18.6456 46.1802 18.6456 47.6078Z" fill="#EAB599"/>
<path d="M118.435 79.9474V87.7087C112.327 101.098 101.594 111.931 88.2802 118.172C85.8687 119.301 83.3712 120.28 80.7998 121.095C77.9077 122.019 74.9239 122.729 71.8616 123.218C71.8493 123.22 71.8341 123.223 71.8209 123.223V79.9474C71.8209 70.7234 78.9247 63.156 87.9642 62.4276C88.4401 62.3869 88.9178 62.3699 89.4012 62.3699H100.85C102.204 62.3699 103.522 62.5184 104.788 62.8098C112.602 64.5959 118.435 71.5938 118.435 79.9474Z" fill="#BFD5DE"/>
<path d="M118.435 79.9474V87.7087C112.327 101.098 101.594 111.931 88.2802 118.172C85.8687 119.301 83.3712 120.28 80.7998 121.095V79.9474C80.7998 70.24 88.6728 62.3699 98.383 62.3699H100.852C110.565 62.3699 118.435 70.24 118.435 79.9474Z" fill="#DDE8ED"/>
<path d="M77.92 42.9798C77.92 45.8842 75.799 48.2918 73.0214 48.7384C72.7177 48.7876 72.4055 48.8131 72.0867 48.8131C68.8645 48.8131 66.2534 46.202 66.2534 42.9798C66.2534 39.7576 68.8645 37.1465 72.0867 37.1465C72.4055 37.1465 72.7177 37.172 73.0214 37.2212C75.799 37.6687 77.92 40.0764 77.92 42.9798Z" fill="#D3A489"/>
<path d="M99.8475 68.7112L95.1277 76.2814L90.4078 68.7112" fill="#F74F4F"/>
<path d="M101.478 97.6658L95.1277 105.679L88.7769 97.6658L95.1286 74.3118L101.478 97.6658Z" fill="#F74F4F"/>
<path d="M77.92 42.9798C77.92 45.8841 75.799 48.2918 73.0214 48.7383C72.5172 46.904 72.2476 44.9731 72.2476 42.9798C72.2476 40.9874 72.5172 39.0565 73.0214 37.2212C75.799 37.6687 77.92 40.0764 77.92 42.9798Z" fill="#BF8E75"/>
<path d="M74.1718 42.9798C74.1718 44.1311 73.2381 45.0648 72.0867 45.0648C70.9354 45.0648 70.0026 44.1311 70.0026 42.9798C70.0026 41.8284 70.9354 40.8956 72.0867 40.8956C73.2381 40.8956 74.1718 41.8284 74.1718 42.9798Z" fill="#BF8E75"/>
<path d="M95.1258 69.5655L87.2112 73.9646L84.8035 62.7643L89.721 59.8676" fill="#BFD5DE"/>
<path d="M95.1258 69.5655L103.041 73.9646L105.449 62.7643L100.531 59.8676" fill="#BFD5DE"/>
<path d="M112.333 42.9798C112.333 45.8842 114.454 48.2918 117.232 48.7384C117.536 48.7876 117.848 48.8131 118.167 48.8131C121.389 48.8131 124 46.202 124 42.9798C124 39.7576 121.389 37.1465 118.167 37.1465C117.848 37.1465 117.536 37.172 117.232 37.2212C114.454 37.6687 112.333 40.0764 112.333 42.9798Z" fill="#D3A489"/>
<path d="M112.333 42.9798C112.333 45.8841 114.454 48.2918 117.232 48.7383C117.737 46.904 118.006 44.9731 118.006 42.9798C118.006 40.9874 117.737 39.0565 117.232 37.2212C114.454 37.6687 112.333 40.0764 112.333 42.9798Z" fill="#BF8E75"/>
<path d="M120.252 42.9798C120.252 44.1311 119.318 45.0648 118.167 45.0648C117.015 45.0648 116.082 44.1311 116.082 42.9798C116.082 41.8284 117.015 40.8956 118.167 40.8956C119.318 40.8956 120.252 41.8284 120.252 42.9798Z" fill="#BF8E75"/>
<path d="M116.831 39.8796C116.831 50.6797 108.941 59.6397 98.61 61.3028C97.4776 61.4892 96.314 61.5829 95.1267 61.5829C83.1394 61.5829 73.4235 51.867 73.4235 39.8796C73.4235 34.2081 75.3932 25.6937 78.955 21.8272C82.9208 17.5218 88.8109 18.1755 95.1267 18.1755C96.314 18.1755 97.4767 18.2701 98.61 18.4565C108.941 20.1196 116.831 29.0787 116.831 39.8796Z" fill="#BF8E75"/>
<path d="M101.4 55.5963V63.2943C101.4 66.1125 99.5419 68.4947 96.9819 69.2856C96.3963 69.4672 95.7719 69.5656 95.1258 69.5656C91.6623 69.5656 88.8544 66.7578 88.8544 63.2943V55.5963H101.4Z" fill="#BF8E75"/>
<path d="M101.4 62.806V63.2942C101.4 66.1125 99.5419 68.4946 96.9819 69.2855C94.6726 68.576 92.9366 66.5675 92.6159 64.1106C93.035 64.1362 93.456 64.1494 93.8798 64.1494C95.0662 64.1494 96.2298 64.0548 97.3632 63.8694C98.7595 63.6442 100.109 63.2857 101.4 62.806Z" fill="#D3A489"/>
<path d="M116.831 39.8796C116.831 50.6796 108.941 59.6396 98.61 61.3028C88.2802 59.6396 80.3902 50.6796 80.3902 39.8796C80.3902 33.2289 83.3816 27.2764 88.0938 23.2945C91.0322 20.8101 94.6414 19.095 98.61 18.4554C108.241 20.006 115.753 27.9008 116.724 37.715C116.795 38.4274 116.831 39.1502 116.831 39.8796Z" fill="#D3A489"/>
<path d="M95.1277 50.5689C93.3094 50.5689 91.493 50.1139 89.8365 49.2029C89.3682 48.9465 89.1979 48.359 89.4552 47.8916C89.7116 47.4243 90.2991 47.254 90.7664 47.5113C93.4967 49.0118 96.7577 49.0118 99.4889 47.5113C99.9553 47.254 100.543 47.4243 100.799 47.8916C101.057 48.359 100.886 48.9465 100.419 49.2029C98.7624 50.1139 96.9441 50.5689 95.1277 50.5689Z" fill="#BF8E75"/>
<path d="M90.5053 38.6166C90.5053 39.9761 89.4031 41.0782 88.0427 41.0782C86.6833 41.0782 85.5811 39.9761 85.5811 38.6166C85.5811 37.2562 86.6833 36.1541 88.0427 36.1541C89.4031 36.1541 90.5053 37.2562 90.5053 38.6166Z" fill="#3D4159"/>
<path d="M104.673 38.6166C104.673 39.9761 103.571 41.0782 102.212 41.0782C100.851 41.0782 99.7491 39.9761 99.7491 38.6166C99.7491 37.2562 100.851 36.1541 102.212 36.1541C103.571 36.1541 104.673 37.2562 104.673 38.6166Z" fill="#3D4159"/>
<path d="M90.0029 38.1814C90.0029 38.7642 89.5309 39.2372 88.9481 39.2372C88.3653 39.2372 87.8932 38.7642 87.8932 38.1814C87.8932 37.5996 88.3653 37.1266 88.9481 37.1266C89.5309 37.1266 90.0029 37.5996 90.0029 38.1814Z" fill="white"/>
<path d="M104.292 38.1814C104.292 38.7642 103.82 39.2372 103.237 39.2372C102.654 39.2372 102.182 38.7642 102.182 38.1814C102.182 37.5996 102.654 37.1266 103.237 37.1266C103.82 37.1266 104.292 37.5996 104.292 38.1814Z" fill="white"/>
<path d="M97.5893 44.8152H92.6651C92.0786 44.8152 91.6027 44.3393 91.6027 43.7527C91.6027 43.1662 92.0786 42.6913 92.6651 42.6913H97.5893C98.1758 42.6913 98.6517 43.1662 98.6517 43.7527C98.6507 44.3393 98.1758 44.8152 97.5893 44.8152Z" fill="#BF8E75"/>
<path d="M102.273 79.3713H111.735V82.2672H102.273V79.3713Z" fill="#BFD5DE"/>
<path d="M93.8571 11.9759C100.432 12.4452 105.711 17.7563 106.045 24.442L106.107 25.6974H109.89L111.927 39.2428L116.86 37.7159L116.198 24.4429C115.848 17.4195 110.039 11.9154 103.01 11.9419L93.8571 11.9759Z" fill="#2A2F4F"/>
<path d="M115.78 6.73682C121.015 11.9722 121.015 20.4611 115.78 25.6965C110.544 30.9319 102.056 30.9319 96.8201 25.6965L115.78 6.73682Z" fill="#3D4159"/>
<path d="M96.8201 25.6965H80.3665L78.3287 39.2429L73.3951 37.716L74.0564 24.4421C74.4064 17.4205 80.2151 11.9145 87.2452 11.941L111.009 12.0309L114.151 17.6854" fill="#3D4159"/>
<path d="M96.3972 11.9759C89.8222 12.4452 84.5433 17.7563 84.2094 24.442L84.1469 25.6974H80.3656L78.3278 39.2428L73.3942 37.7159L74.0564 24.4429C74.4064 17.4195 80.2151 11.9154 87.2443 11.9419L96.3972 11.9759Z" fill="#2A2F4F"/>
<path d="M88.2802 113.524V118.172C80.3012 121.91 71.3961 124 62 124C52.6039 124 43.6959 121.91 35.717 118.17V113.524C35.717 104.35 41.9448 96.6338 50.4043 94.3718C50.7137 94.2886 51.0249 94.2119 51.3409 94.1438C52.181 93.9612 53.0438 93.8354 53.9198 93.7645C54.4562 93.7209 54.9955 93.6982 55.5423 93.6982H68.453C69.8976 93.6982 71.3025 93.8506 72.6591 94.1438C72.7376 94.159 72.8161 94.1769 72.8918 94.1949C73.1198 94.2479 73.3469 94.3037 73.572 94.3643C73.5805 94.3662 73.5824 94.3661 73.59 94.369C75.8227 94.9659 77.9002 95.9432 79.745 97.226C84.9047 100.805 88.2802 106.769 88.2802 113.524Z" fill="#3D4159"/>
<path d="M73.6382 94.1438L73.59 94.369L67.2666 123.778C66.9393 123.805 66.611 123.831 66.2818 123.853C65.8182 123.884 65.3528 123.911 64.8845 123.932C63.928 123.977 62.9669 124 62 124C61.0076 124 60.0237 123.977 59.0446 123.929C58.6018 123.909 58.1581 123.884 57.7154 123.851C57.3842 123.828 57.055 123.805 56.7258 123.778L50.4043 94.3718L50.357 94.1438H73.6382Z" fill="#66BAED"/>
<path d="M67.3206 100.852L61.9981 109.387L56.6766 100.852" fill="#3D4159"/>
<path d="M66.2818 123.853C65.8182 123.884 65.3528 123.911 64.8845 123.932C63.928 123.977 62.9669 124 62 124C61.0076 124 60.0237 123.977 59.0446 123.929C58.6018 123.909 58.1581 123.884 57.7154 123.85L62 107.166L66.2818 123.853Z" fill="#3D4159"/>
<path d="M61.9972 101.814L53.0712 106.774L50.3561 94.1456L55.9018 90.8789" fill="#2BA1CF"/>
<path d="M61.9972 101.814L70.9221 106.774L73.6373 94.1456L68.0916 90.8789" fill="#2BA1CF"/>
<path d="M73.975 111.188H76.8065L71.8616 123.218C69.574 123.585 67.2458 123.825 64.8845 123.932L73.572 94.3642L73.6382 94.1438L79.745 96.1381L73.975 111.188Z" fill="#2A2F4F"/>
<path d="M59.0446 123.929C56.6804 123.82 54.3503 123.575 52.0627 123.205L47.1225 111.188H49.954L44.1822 96.1381L50.2908 94.1438L50.357 94.3642L59.0446 123.929Z" fill="#2A2F4F"/>
<path d="M69.0717 86.0618V94.7417C69.0717 97.9204 66.9762 100.606 64.0898 101.498C63.4285 101.704 62.7247 101.814 61.9962 101.814C58.09 101.814 54.9245 98.6479 54.9245 94.7417V86.0618H69.0717Z" fill="#EAB599"/>
<path d="M69.0717 94.192V94.7426C69.0717 97.9204 66.9762 100.606 64.0898 101.499C61.4854 100.698 59.527 98.4341 59.1656 95.6631C59.6387 95.6924 60.1136 95.7066 60.5904 95.7066C61.929 95.7066 63.2412 95.6007 64.5184 95.3916C66.0935 95.1381 67.6148 94.7322 69.0717 94.192Z" fill="#F6CAAE"/>
<path d="M42.5947 71.8351C42.5947 75.1094 40.2022 77.8246 37.0698 78.3288C36.7274 78.3837 36.3754 78.413 36.0169 78.413C32.3831 78.413 29.4381 75.4689 29.4381 71.8351C29.4381 68.2014 32.3822 65.2563 36.0169 65.2563C36.3754 65.2563 36.7274 65.2857 37.0698 65.3415C40.2022 65.8457 42.5947 68.5609 42.5947 71.8351Z" fill="#F6CAAE"/>
<path d="M42.5947 71.8351C42.5947 75.1094 40.2022 77.8245 37.0698 78.3287C36.5013 76.2597 36.1976 74.0819 36.1976 71.8351C36.1976 69.5873 36.5013 67.4104 37.0698 65.3414C40.2022 65.8457 42.5947 68.5608 42.5947 71.8351Z" fill="#EAB599"/>
<path d="M38.3678 71.8351C38.3678 73.133 37.3148 74.186 36.0169 74.186C34.718 74.186 33.666 73.133 33.666 71.8351C33.666 70.5361 34.718 69.4841 36.0169 69.4841C37.3148 69.4841 38.3678 70.5361 38.3678 71.8351Z" fill="#EAB599"/>
<path d="M81.4005 71.8351C81.4005 75.1094 83.7931 77.8246 86.9254 78.3288C87.267 78.3837 87.6198 78.413 87.9784 78.413C91.6122 78.413 94.5572 75.4689 94.5572 71.8351C94.5572 68.2014 91.6131 65.2563 87.9784 65.2563C87.6198 65.2563 87.267 65.2857 86.9254 65.3415C83.7931 65.8457 81.4005 68.5609 81.4005 71.8351Z" fill="#F6CAAE"/>
<path d="M81.4005 71.8351C81.4005 75.1094 83.7931 77.8245 86.9254 78.3287C87.494 76.2597 87.7977 74.0819 87.7977 71.8351C87.7977 69.5873 87.494 67.4104 86.9254 65.3414C83.7931 65.8457 81.4005 68.5608 81.4005 71.8351Z" fill="#EAB599"/>
<path d="M86.4723 59.0199V68.3394C86.4723 80.5188 77.5747 90.6216 65.9251 92.4967C65.8864 92.5033 65.8447 92.5099 65.8059 92.5165C64.5666 92.7152 63.2951 92.8127 61.9972 92.8127C48.481 92.8127 37.5249 81.8556 37.5249 68.3404V59.0199C37.5249 56.1742 38.0102 53.4392 38.907 50.8981C42.2542 41.3734 51.3296 34.5448 61.9972 34.5448H61.9991C63.2951 34.5448 64.5685 34.6451 65.8097 34.8409C77.5161 36.6696 86.4723 46.7999 86.4723 59.0199Z" fill="#EAB599"/>
<path d="M90.3293 71.8351C90.3293 73.133 89.2773 74.186 87.9784 74.186C86.6804 74.186 85.6275 73.133 85.6275 71.8351C85.6275 70.5361 86.6804 69.4841 87.9784 69.4841C89.2773 69.4841 90.3293 70.5361 90.3293 71.8351Z" fill="#EAB599"/>
<path d="M86.4713 59.02V68.3395C86.4713 80.5179 77.5747 90.6216 65.9251 92.4967C65.8854 92.5033 65.8447 92.51 65.805 92.5166C54.0996 90.6869 45.1453 80.5576 45.1453 68.3395V59.02C45.1453 46.7999 54.1015 36.6696 65.8097 34.8409C77.5161 36.6696 86.4713 46.7999 86.4713 59.02Z" fill="#F6CAAE"/>
<path d="M56.7854 66.9138C56.7854 68.4473 55.5423 69.6904 54.0097 69.6904C52.4762 69.6904 51.2331 68.4473 51.2331 66.9138C51.2331 65.3812 52.4762 64.1381 54.0097 64.1381C55.5423 64.1381 56.7854 65.3812 56.7854 66.9138Z" fill="#3D4159"/>
<path d="M72.7632 66.9138C72.7632 68.4473 71.5201 69.6904 69.9865 69.6904C68.453 69.6904 67.2099 68.4473 67.2099 66.9138C67.2099 65.3812 68.453 64.1381 69.9865 64.1381C71.5201 64.1381 72.7632 65.3812 72.7632 66.9138Z" fill="#3D4159"/>
<path d="M56.2197 66.4246C56.2197 67.0812 55.687 67.6138 55.0295 67.6138C54.373 67.6138 53.8404 67.0812 53.8404 66.4246C53.8404 65.7671 54.373 65.2345 55.0295 65.2345C55.687 65.2345 56.2197 65.7671 56.2197 66.4246Z" fill="white"/>
<path d="M72.3327 66.4246C72.3327 67.0812 71.8001 67.6138 71.1435 67.6138C70.486 67.6138 69.9534 67.0812 69.9534 66.4246C69.9534 65.7671 70.486 65.2345 71.1435 65.2345C71.8001 65.2345 72.3327 65.7671 72.3327 66.4246Z" fill="white"/>
<path d="M64.7748 72.8162H59.2215C58.5602 72.8162 58.0238 72.2798 58.0238 71.6185C58.0238 70.9562 58.5602 70.4208 59.2215 70.4208H64.7748C65.436 70.4208 65.9724 70.9562 65.9724 71.6185C65.9715 72.2798 65.4351 72.8162 64.7748 72.8162Z" fill="#EAB599"/>
<path d="M61.9981 80.393C59.949 80.393 57.8989 79.8793 56.0314 78.8519C55.5045 78.5624 55.3115 77.9002 55.6019 77.3742C55.8914 76.8472 56.5536 76.6552 57.0806 76.9437C60.16 78.6372 63.8363 78.6372 66.9157 76.9437C67.4426 76.6543 68.1048 76.8463 68.3943 77.3742C68.6848 77.9002 68.4918 78.5624 67.9648 78.8519C66.0964 79.8793 64.0473 80.393 61.9981 80.393Z" fill="#EAB599"/>
<path d="M86.4723 50.5623V60.1089H81.9171V52.6323L49.0363 46.5227L42.0791 45.2295V60.1089H37.5239V50.5614C37.5239 39.6781 46.3448 30.8572 57.2263 30.8572H66.77C67.0292 30.8572 67.2884 30.8619 67.5476 30.8752C78.0667 31.2801 86.4723 39.9383 86.4723 50.5623Z" fill="#2A2F4F"/>
<path d="M86.4723 50.5623V60.1089H81.9171V52.6323L49.0363 46.5227C50.848 37.821 58.3975 31.228 67.5476 30.8751C78.0667 31.28 86.4723 39.9382 86.4723 50.5623Z" fill="#3D4159"/>
</g>
<defs>
<clipPath id="clip0">
<rect width="124" height="124" fill="white"/>
</clipPath>
</defs>
</svg>
