<svg width="29" height="24" viewBox="0 0 29 24" fill="none" xmlns="http://www.w3.org/2000/svg">
<path d="M28.824 3.62057C27.0377 3.70179 27.0767 3.69516 26.8748 3.71183L27.9327 0.731475C27.9327 0.731475 24.6305 1.92982 23.7933 2.14418C21.5947 0.194818 18.3267 0.108688 15.9903 1.52524C14.077 2.68554 13.0501 4.67807 13.3926 7.00701C9.669 6.49728 6.53164 4.75608 4.05463 1.82082L3.27121 0.892622L2.68581 1.95311C1.94594 3.29315 1.70025 4.82533 1.99382 6.26731C2.11428 6.8589 2.31901 7.42313 2.60261 7.95145L1.93055 7.69455L1.85082 8.80228C1.77001 9.92752 2.14981 11.2411 2.86693 12.3157C3.06885 12.6183 3.32884 12.9506 3.65837 13.2785L3.31107 13.2259L3.73485 14.4952C4.29187 16.1629 5.4488 17.4531 6.95021 18.1704C5.45075 18.7981 4.23944 19.1986 2.24839 19.8447L0.426758 20.4354L2.10929 21.3429C2.75081 21.6889 5.01766 22.8445 7.25743 23.1911C12.2361 23.9614 17.8416 23.3341 21.6153 19.9815C24.7938 17.1575 25.8368 13.1406 25.6202 8.96043C25.5874 8.3276 25.7631 7.72362 26.115 7.26006C26.8198 6.33186 28.8197 3.62677 28.824 3.62057ZM24.7845 6.27693C24.2002 7.04655 23.9075 8.02946 23.9599 9.04421C24.1785 13.2607 23.0155 16.5307 20.503 18.7628C17.568 21.3704 12.8339 22.394 7.51503 21.5709C6.55178 21.4219 5.55626 21.0883 4.73232 20.7551C6.40164 20.1886 7.69073 19.6835 9.77256 18.7115L12.6788 17.3546L9.47011 17.152C7.93317 17.055 6.6534 16.3202 5.86672 15.1272C6.28443 15.1032 6.68719 15.0366 7.08822 14.9263L10.1485 14.0855L7.06265 13.34C5.56319 12.9778 4.70849 12.0927 4.25547 11.414C3.958 10.9679 3.76366 10.511 3.6471 10.0897C3.95649 10.1716 4.31721 10.2299 4.89893 10.2868L7.75508 10.5655L5.49213 8.82408C3.86159 7.56952 3.20816 5.68471 3.68718 3.87277C8.77596 9.07947 14.7508 8.68815 15.3523 8.82579C15.2199 7.55734 15.2164 7.55435 15.1818 7.4336C14.4116 4.74775 16.0995 3.38398 16.8608 2.92234C18.4511 1.95824 20.9753 1.81291 22.7237 3.4013C23.1013 3.74411 23.612 3.87897 24.0899 3.76185C24.5189 3.65669 24.871 3.54534 25.2157 3.42416L24.4981 5.44555L25.4141 5.44619C25.2412 5.67488 25.0339 5.94865 24.7845 6.27693Z" fill="#F2F2F2"/>
</svg>
