<svg width="194" height="201" viewBox="0 0 194 201" fill="none" xmlns="http://www.w3.org/2000/svg">
<path d="M98.2319 117.139L110.649 104.722L147.911 141.984L135.494 154.401L98.2319 117.139Z" fill="#87828E"/>
<path d="M175.485 195.017L188.571 181.931C191.629 178.873 191.629 173.915 188.571 170.856L153.611 135.896C150.544 132.829 145.571 132.829 142.504 135.896L129.435 148.965C126.367 152.032 126.367 157.006 129.435 160.073L164.378 195.016C167.444 198.084 172.417 198.084 175.485 195.017Z" fill="#796E84"/>
<path d="M69.5609 136.66C106.242 136.66 135.978 106.924 135.978 70.2432C135.978 33.5619 106.242 3.82587 69.5609 3.82587C32.8796 3.82587 3.14355 33.5619 3.14355 70.2432C3.14355 106.924 32.8796 136.66 69.5609 136.66Z" fill="#5FCDFF"/>
<path d="M91.5086 92.0077L108.674 82.0978C110.8 80.8702 110.8 77.8023 108.674 76.5746L91.5086 66.6648C77.9268 58.8238 61.1939 58.8238 47.6121 66.6648L30.4472 76.5746C28.321 77.8023 28.321 80.8702 30.4472 82.0978L47.6121 92.0077C61.1939 99.8495 77.9268 99.8495 91.5086 92.0077Z" fill="#FFE2E2"/>
<path d="M69.5611 91.2591C76.146 91.2591 81.484 85.921 81.484 79.3362C81.484 72.7513 76.146 67.4133 69.5611 67.4133C62.9763 67.4133 57.6382 72.7513 57.6382 79.3362C57.6382 85.921 62.9763 91.2591 69.5611 91.2591Z" fill="#307FED"/>
<path d="M75.4484 136.392C73.5084 136.573 71.5448 136.659 69.5576 136.659C32.8777 136.659 3.14111 106.922 3.14111 70.2424C3.14111 33.5625 32.8777 3.82587 69.5576 3.82587C71.5448 3.82587 73.5084 3.91226 75.4484 4.09292C41.5254 7.06187 14.9227 35.5497 14.9227 70.2424C14.9227 104.935 41.5254 133.423 75.4484 136.392Z" fill="#73D7F9"/>
<path d="M135.982 70.2424C135.982 106.922 106.246 136.659 69.5578 136.659C67.5706 136.659 65.607 136.573 63.667 136.392C97.5979 133.423 124.201 104.935 124.201 70.2424C124.201 35.5497 97.5979 7.06187 63.667 4.09292C65.607 3.91226 67.5706 3.82587 69.5578 3.82587C106.246 3.82587 135.982 33.5625 135.982 70.2424Z" fill="#30B6FF"/>
<path d="M177.657 192.849L175.481 195.017C172.418 198.08 167.446 198.08 164.375 195.017L129.431 160.073C126.368 157.01 126.368 152.03 129.431 148.967L131.607 146.799L177.657 192.849Z" fill="#87828E"/>
<path d="M190.792 168.635L155.831 133.675C152.2 130.043 146.645 129.5 142.423 132.021L123.951 113.55C160.103 68.2379 127.754 0.684113 69.5598 0.684113C31.2046 0.684113 0 31.8887 0 70.2439C0 108.598 31.2046 139.803 69.5598 139.803C82.9508 139.803 95.4682 135.995 106.092 129.412L125.561 148.881C123.035 153.103 123.577 158.663 127.212 162.296L162.155 197.239C164.298 199.382 167.113 200.454 169.929 200.454C172.746 200.454 175.562 199.383 177.704 197.239L190.791 184.153C195.069 179.874 195.069 172.912 190.792 168.635ZM6.28506 70.2439C6.28506 35.3533 34.6707 6.96761 69.5614 6.96761C104.451 6.96761 132.837 35.3533 132.837 70.2439C132.837 105.134 104.451 133.52 69.5614 133.52C34.67 133.519 6.28506 105.134 6.28506 70.2439ZM119.81 118.293L137.737 136.219L129.761 144.194L111.367 125.8C114.381 123.526 117.205 121.016 119.81 118.293ZM186.349 179.709L173.263 192.796C171.425 194.63 168.435 194.632 166.598 192.796L131.655 157.852C129.818 156.014 129.818 153.025 131.655 151.187L144.724 138.118C145.643 137.199 146.85 136.741 148.056 136.741C149.263 136.741 150.47 137.199 151.389 138.118L186.349 173.078C188.176 174.907 188.176 177.881 186.349 179.709Z" fill="#5F266D"/>
<path d="M110.244 73.8538L93.0794 63.9432C78.5732 55.5665 60.549 55.5681 46.0412 63.9432L28.8755 73.8538C26.8946 74.9974 25.7109 77.0466 25.7109 79.3354C25.7102 81.6242 26.893 83.6734 28.8755 84.8185L46.0404 94.7284C60.5466 103.104 78.5708 103.105 93.0786 94.7284L110.244 84.8185C112.226 83.6734 113.409 81.6242 113.409 79.3354C113.41 77.0474 112.226 74.9974 110.244 73.8538ZM107.103 79.3778L89.9377 89.2877C77.3691 96.5443 61.7531 96.5443 49.1829 89.2877L32.0235 79.2922L49.1829 69.3847C61.7523 62.1288 77.3683 62.1273 89.9377 69.3847L107.103 79.2953V79.3778Z" fill="#5F266D"/>
<path d="M95.9043 56.2184C119.694 69.9533 118.146 69.2448 119.303 69.2448C122.504 69.2448 123.655 64.9854 120.877 63.3816L99.0461 50.7769C80.8585 40.2764 58.2623 40.2764 40.0747 50.7769L18.2435 63.3816C16.7409 64.2487 16.2265 66.1706 17.0936 67.6732C17.9607 69.1757 19.8819 69.691 21.3852 68.8231L43.2164 56.2184C59.4655 46.8371 79.6552 46.8371 95.9043 56.2184Z" fill="#5F266D"/>
<path d="M69.5611 64.2708C61.2543 64.2708 54.4956 71.0287 54.4956 79.3362C54.4956 87.6438 61.2535 94.4017 69.5611 94.4017C77.8686 94.4017 84.6257 87.6438 84.6257 79.3362C84.6257 71.0287 77.8678 64.2708 69.5611 64.2708ZM69.5611 88.1174C64.7188 88.1174 60.7791 84.1777 60.7791 79.3354C60.7791 74.4932 64.7188 70.5535 69.5611 70.5535C74.4025 70.5535 78.3422 74.4932 78.3422 79.3354C78.3422 84.1777 74.4025 88.1174 69.5611 88.1174Z" fill="#5F266D"/>
<path d="M70.24 83.6622C72.6257 83.2755 74.2461 81.028 73.8594 78.6424C73.4726 76.2568 71.2252 74.6363 68.8396 75.0231C66.454 75.4098 64.8335 77.6572 65.2203 80.0429C65.607 82.4285 67.8544 84.0489 70.24 83.6622Z" fill="#5F266D"/>
<path d="M103.545 33.6725C106.219 33.6725 107.697 30.493 105.902 28.454C105.397 27.8815 104.861 27.3144 104.306 26.7661C103.072 25.5456 101.082 25.5581 99.8633 26.7936C98.6435 28.0275 98.6561 30.0171 99.8908 31.2361C101.216 32.5462 101.783 33.6725 103.545 33.6725Z" fill="#5F266D"/>
<path d="M78.6582 20.2478C78.7179 20.2611 84.6974 21.5925 91.0712 24.9565C92.6083 25.7678 94.5067 25.178 95.3157 23.6448C96.1255 22.1108 95.5388 20.2101 94.004 19.4003C86.8345 15.6153 80.2675 14.1677 79.991 14.108C78.2984 13.7428 76.6262 14.8165 76.2579 16.5107C75.8895 18.2049 76.9648 19.8778 78.6582 20.2478Z" fill="#5F266D"/>
</svg>
