<svg width="355" height="431" viewBox="0 0 355 431" fill="none" xmlns="http://www.w3.org/2000/svg">
<path d="M137 274C212.663 274 274 212.663 274 137C274 61.3368 212.663 0 137 0C61.337 0 0 61.3368 0 137C0 212.663 61.337 274 137 274Z" fill="#5E3C16"/>
<path d="M273.624 125.908L218.656 69.4648H193.287V92.9987L206.065 106.105H193.287V127.535L136.909 69.4648H108.721L57.8873 202.441L128.171 274C131.46 274 134.842 274 138.225 274C156.051 274.013 173.704 270.449 190.177 263.512C206.649 256.575 221.618 246.402 234.227 233.573C246.836 220.744 256.838 205.511 263.663 188.744C270.487 171.978 274 154.007 274 135.857C274 132.605 273.906 128.969 273.624 125.908Z" fill="#472E11"/>
<path d="M189.099 204.535H159.534L147.843 173.829H94.1242L83.0133 204.535H54.0282L106.588 69.4648H135.573L189.099 204.535ZM139.148 151.09L120.597 100.949L102.433 151.09H139.148Z" fill="#DF871E"/>
<path d="M192.958 93.3693V69.4648H219.972V93.3693H192.958ZM192.958 204.535V106.682H219.972V204.535H192.958Z" fill="#DF871E"/>
<path d="M349.366 219.366C349.127 218.738 348.716 218.186 348.178 217.773C347.64 217.36 346.996 217.1 346.317 217.023C345.641 216.952 344.958 217.056 344.336 217.325C343.714 217.594 343.175 218.02 342.774 218.558C338.092 224.268 331.594 228.278 324.317 229.946C317.704 231.973 311.43 234.939 305.695 238.75C301.495 241.165 298.147 244.779 296.101 249.109C294.054 253.44 293.405 258.28 294.242 262.982C290.437 257.59 286.222 252.487 281.635 247.716C260.576 226.236 231.832 213.61 201.462 212.5H197.507C180.771 212.65 164.261 216.3 149.08 223.207C133.899 230.114 120.398 240.118 109.477 252.55C98.5574 264.983 90.4707 279.557 85.7579 295.299C81.0452 311.041 79.815 327.588 82.1496 343.833C82.5616 346.499 83.1384 349.245 83.7152 351.91C91.955 387.53 113.049 414.588 141.394 426.139C148.054 428.97 155.228 430.454 162.488 430.5C171.009 430.443 179.352 428.102 186.613 423.732C193.875 419.361 199.779 413.127 203.687 405.704C207.041 399.995 209.277 393.722 210.278 387.207C210.732 383.586 210.732 379.924 210.278 376.303C209.785 372.793 209.785 369.232 210.278 365.722C210.634 362.066 212.42 358.686 215.262 356.292C218.104 353.898 221.781 352.675 225.522 352.879C227.955 352.908 230.371 353.289 232.691 354.01C229.889 359.099 227.335 363.864 225.11 368.387C221.18 375.847 217.927 383.631 215.387 391.649C214.316 395.365 211.597 405.138 218.353 409.742C219.472 410.498 220.735 411.023 222.066 411.287C223.397 411.55 224.769 411.547 226.099 411.277C228.653 410.792 236.481 409.338 259.058 384.541C264.991 377.918 271.418 370.245 278.174 361.683C286.534 359.009 294.061 354.291 300.044 347.974C306.027 341.657 310.269 333.949 312.369 325.579C313.233 321.299 313.593 316.935 313.44 312.575C319.867 302.801 325.553 293.755 331.238 283.901C331.265 283.714 331.265 283.523 331.238 283.336C335.586 281.988 339.587 279.74 342.971 276.744C346.354 273.748 349.041 270.074 350.849 265.97C353.824 258.506 355.225 250.529 354.971 242.519C354.716 234.51 352.809 226.634 349.366 219.366ZM256.421 280.347C254.974 282.642 252.947 284.532 250.536 285.834C248.126 287.136 245.413 287.806 242.661 287.778C239.744 287.7 236.9 286.864 234.421 285.355C232.604 284.258 231.033 282.813 229.801 281.106C228.569 279.398 227.702 277.465 227.252 275.42C226.755 273.094 226.787 270.688 227.347 268.375C227.907 266.063 228.981 263.899 230.492 262.04C232.003 260.181 233.914 258.671 236.089 257.619C238.263 256.568 240.648 255.999 243.073 255.955C246.13 255.96 249.126 256.799 251.724 258.378C255.314 260.679 257.847 264.261 258.785 268.363C259.724 272.465 258.994 276.764 256.751 280.347H256.421ZM277.515 309.183C285.755 297.309 294.407 285.517 302.646 275.016C304.043 276.276 305.53 277.437 307.096 278.49C309.626 280.264 312.401 281.678 315.336 282.69C308.414 294.321 300.916 305.952 291.852 319.037C278.476 338.712 263.921 357.591 248.264 375.576C242.509 382.243 236.228 388.454 229.477 394.153C232.383 385.809 235.965 377.706 240.189 369.922C251.304 348.97 263.686 328.687 277.268 309.183H277.515ZM133.401 309.183C130.559 309.083 127.791 308.264 125.368 306.806C122.944 305.347 120.946 303.299 119.569 300.86C118.192 298.42 117.483 295.673 117.51 292.886C117.537 290.098 118.299 287.365 119.723 284.951C121.184 282.476 123.288 280.425 125.822 279.008C128.356 277.591 131.228 276.858 134.145 276.885C137.062 276.912 139.919 277.698 142.425 279.162C144.931 280.626 146.996 282.715 148.408 285.218C149.82 287.72 150.53 290.544 150.464 293.403C150.398 296.262 149.56 299.052 148.033 301.489C146.507 303.927 144.349 305.923 141.778 307.274C139.207 308.626 136.316 309.284 133.401 309.183ZM116.345 344.076C117.25 341.885 118.634 339.915 120.4 338.306C122.166 336.697 124.271 335.487 126.566 334.763C128.86 334.038 131.29 333.815 133.682 334.111C136.074 334.407 138.371 335.213 140.41 336.474C142.45 337.735 144.182 339.419 145.485 341.407C146.788 343.396 147.63 345.641 147.952 347.983C148.274 350.326 148.067 352.709 147.347 354.964C146.626 357.22 145.41 359.293 143.783 361.037C142.336 363.332 140.309 365.222 137.899 366.524C135.488 367.826 132.775 368.496 130.023 368.468C126.374 368.407 122.849 367.161 120.001 364.924C117.152 362.688 115.142 359.588 114.285 356.11C113.34 351.989 114.079 347.669 116.345 344.076ZM168.338 249.574C169.819 247.31 171.854 245.445 174.257 244.147C176.659 242.85 179.355 242.161 182.098 242.143C185.028 242.213 187.881 243.08 190.338 244.647C193.919 246.934 196.453 250.495 197.406 254.579C198.36 258.663 197.657 262.95 195.447 266.536C194 268.831 191.973 270.721 189.562 272.023C187.151 273.324 184.438 273.994 181.686 273.966C178.763 273.924 175.91 273.085 173.446 271.543C169.796 269.29 167.193 265.723 166.196 261.608C165.226 257.498 165.936 253.178 168.173 249.574H168.338Z" fill="#5E3C16"/>
</svg>
