<svg width="119" height="119" viewBox="0 0 119 119" fill="none" xmlns="http://www.w3.org/2000/svg">
<path d="M101.15 3.96666H17.85H7.93537C4.64892 3.96666 1.98328 6.63231 1.98328 9.91876V79.3334H17.85H47.6H71.4H101.15H117.017V9.91852C117.017 6.63208 114.351 3.96643 111.065 3.96643H101.15V3.96666Z" fill="#E7ECED"/>
<path d="M109.083 11.9H9.91675V75.3668H109.083V11.9Z" fill="#28384C"/>
<path d="M27.7667 19.8333V57.5167H74.9839L83.3 49.1828V19.8333H27.7667Z" fill="#E7ECED"/>
<path d="M111.065 91.2332H7.93537C4.64892 91.2332 1.98328 88.5676 1.98328 85.2811V75.3665H117.017V85.2811C117.017 88.5678 114.351 91.2332 111.065 91.2332Z" fill="#AFB6BB"/>
<path d="M85.2833 115.033H33.7167C31.5252 115.033 29.75 113.258 29.75 111.066C29.75 108.875 31.525 107.1 33.7167 107.1H85.2835C87.475 107.1 89.2502 108.875 89.2502 111.066C89.25 113.258 87.475 115.033 85.2833 115.033Z" fill="#AFB6BB"/>
<path d="M69.4167 91.2333H49.5835C49.5835 100.003 46.4537 107.1 37.6835 107.1H81.3167C72.5463 107.1 69.4167 100.004 69.4167 91.2333Z" fill="#6C797A"/>
<path d="M93.3695 61.8245L87.366 55.8211C87.2628 55.7179 87.2628 55.5512 87.366 55.4483L91.2453 51.5668L71.4121 45.6168L77.3621 65.4501L81.1424 61.6697C81.3784 61.4338 81.7612 61.4338 81.9992 61.6697L87.7607 67.4333L93.3695 61.8245Z" fill="#7383BF"/>
<path d="M83.3 19.8333H27.7667V29.75H83.3V19.8333Z" fill="#556080"/>
<path d="M51.5668 41.65H35.7001V49.5833H51.5668V41.65Z" fill="#DD352E"/>
<path d="M117.017 77.35H1.98326C0.888549 77.35 0 76.4615 0 75.3668V9.91862C0 5.54351 3.56001 1.98328 7.93535 1.98328H111.065C115.44 1.98328 119 5.54351 119 9.91862V75.3665C119 76.4615 118.111 77.35 117.017 77.35ZM3.96674 73.3833H115.033V9.91862C115.033 7.72898 113.252 5.95002 111.065 5.95002H7.93535C5.74779 5.95002 3.96674 7.72898 3.96674 9.91862V73.3833Z" fill="#4D007E"/>
<path d="M111.065 93.2168H7.93535C3.56001 93.2168 0 89.6566 0 85.2814V75.3668C0 74.2721 0.888549 73.3835 1.98326 73.3835H117.017C118.111 73.3835 119 74.2721 119 75.3668V85.2814C119 89.6566 115.44 93.2168 111.065 93.2168ZM3.96674 77.3501V85.2814C3.96674 87.4711 5.74779 89.25 7.93535 89.25H111.065C113.252 89.25 115.033 87.4711 115.033 85.2814V77.3501H3.96674Z" fill="#4D007E"/>
<path d="M65.45 85.2833H53.55C52.4553 85.2833 51.5668 84.3947 51.5668 83.3C51.5668 82.2053 52.4553 81.3168 53.55 81.3168H65.45C66.5447 81.3168 67.4333 82.2053 67.4333 83.3C67.4333 84.3947 66.5447 85.2833 65.45 85.2833Z" fill="#4D007E"/>
<path d="M109.083 77.35H9.91673C8.82202 77.35 7.93347 76.4614 7.93347 75.3667V11.9C7.93347 10.8053 8.82202 9.91675 9.91673 9.91675H109.083C110.178 9.91675 111.067 10.8053 111.067 11.9V75.3667C111.067 76.4614 110.178 77.35 109.083 77.35ZM11.9 73.3833H107.1V13.8833H11.9V73.3833Z" fill="#4D007E"/>
<path d="M85.2832 117.017H33.7167C30.4363 117.017 27.7667 114.347 27.7667 111.067C27.7667 107.786 30.4363 105.117 33.7167 105.117H85.2835C88.5639 105.117 91.2335 107.786 91.2335 111.067C91.2335 114.347 88.5636 117.017 85.2832 117.017ZM33.7167 109.083C32.622 109.083 31.7335 109.974 31.7335 111.067C31.7335 112.159 32.622 113.05 33.7167 113.05H85.2835C86.3782 113.05 87.2667 112.159 87.2667 111.067C87.2667 109.974 86.3782 109.083 85.2835 109.083H33.7167Z" fill="#4D007E"/>
<path d="M81.3168 109.083H37.6833C36.5886 109.083 35.7001 108.195 35.7001 107.1C35.7001 106.005 36.5886 105.117 37.6833 105.117C44.2641 105.117 47.6001 100.446 47.6001 91.2335C47.6001 90.1388 48.4886 89.2502 49.5833 89.2502H69.4166C70.5113 89.2502 71.3998 90.1388 71.3998 91.2335C71.3998 100.446 74.7358 105.117 81.3166 105.117C82.4113 105.117 83.2998 106.005 83.2998 107.1C83.2998 108.195 82.4115 109.083 81.3168 109.083ZM47.3442 105.117H71.6578C69.2144 102.412 67.7764 98.3833 67.4889 93.2168H51.5131C51.2235 98.3833 49.7858 102.411 47.3442 105.117Z" fill="#4D007E"/>
<path d="M87.7605 69.4167C87.235 69.4167 86.7292 69.2085 86.3583 68.8357L81.5706 64.0459L78.7662 66.8524C78.2723 67.3463 77.5525 67.5406 76.878 67.374C76.2017 67.2034 75.6643 66.6897 75.464 66.0194L69.514 46.1862C69.3036 45.488 69.4942 44.7305 70.0118 44.2148C70.5276 43.699 71.2832 43.5068 71.9832 43.7169L91.8165 49.6669C92.4849 49.8691 92.9986 50.4046 93.1692 51.081C93.3398 51.7573 93.1415 52.4753 92.6476 52.9692L89.9841 55.6327L94.7717 60.4204C95.5473 61.196 95.5473 62.4494 94.7717 63.2248L89.1629 68.8357C88.792 69.2085 88.2862 69.4167 87.7605 69.4167ZM81.5706 59.51C82.233 59.51 82.8954 59.7619 83.4012 60.2677L87.7605 64.6291L90.5649 61.8226L85.9636 57.2213C85.5392 56.8009 85.3052 56.2335 85.3052 55.6327C85.3052 55.0338 85.5371 54.4704 85.9597 54.046L87.4948 52.5108L74.3711 48.5739L78.3081 61.6975L79.7401 60.2656C80.2437 59.7638 80.9061 59.51 81.5706 59.51ZM88.7641 54.4128L88.7701 54.4188C88.768 54.4167 88.7662 54.4148 88.7641 54.4128Z" fill="#4D007E"/>
<path d="M83.3001 31.7334H27.7668C26.6721 31.7334 25.7836 30.8448 25.7836 29.7501V19.8334C25.7836 18.7386 26.6721 17.8501 27.7668 17.8501H83.3001C84.3948 17.8501 85.2833 18.7386 85.2833 19.8334V29.7501C85.2833 30.8448 84.3948 31.7334 83.3001 31.7334ZM29.7501 27.7668H81.3168V21.8168H29.7501V27.7668Z" fill="#4D007E"/>
<path d="M51.5667 51.5667H35.6999C34.6052 51.5667 33.7167 50.6782 33.7167 49.5835V41.65C33.7167 40.5553 34.6052 39.6667 35.6999 39.6667H51.5667C52.6614 39.6667 53.5499 40.5553 53.5499 41.65V49.5833C53.5499 50.6782 52.6614 51.5667 51.5667 51.5667ZM37.6832 47.6H49.5832V43.6333H37.6832V47.6Z" fill="#4D007E"/>
<path d="M74.9819 59.5001H27.7668C26.6721 59.5001 25.7836 58.6115 25.7836 57.5168V19.8334C25.7836 18.7386 26.6721 17.8501 27.7668 17.8501H83.3001C84.3948 17.8501 85.2833 18.7386 85.2833 19.8334V49.1829C85.2833 49.8097 84.9879 50.4006 84.484 50.7736C83.9822 51.1485 83.3317 51.2635 82.7309 51.0829L74.3711 48.5739L76.882 56.9456C77.0626 57.5466 76.9475 58.1971 76.5726 58.7008C76.1998 59.2047 75.6106 59.5001 74.9819 59.5001ZM29.7501 55.5334H72.3163L69.5119 46.1879C69.3015 45.4878 69.4921 44.7322 70.0097 44.2144C70.5255 43.6987 71.2811 43.5065 71.9811 43.7166L81.3166 46.517V21.8168H29.7501V55.5334Z" fill="#4D007E"/>
</svg>
