<svg width="27" height="29" viewBox="0 0 27 29" fill="none" xmlns="http://www.w3.org/2000/svg">
<path d="M23.046 4.24691C20.4961 1.50828 17.106 0 13.5 0C9.89402 0 6.50389 1.50828 3.95402 4.24691C1.40426 6.98566 0 10.6269 0 14.5C0 18.3731 1.40426 22.0143 3.95402 24.7531C6.50389 27.4917 9.89402 29 13.5 29C14.8987 29 16.2777 28.7711 17.5986 28.3195L17.1187 26.7003C15.9532 27.0987 14.7357 27.3008 13.5 27.3008C6.9284 27.3008 1.58203 21.5584 1.58203 14.5C1.58203 7.44162 6.9284 1.69922 13.5 1.69922C20.0716 1.69922 25.418 7.44162 25.418 14.5V19.2481C25.418 21.0229 24.0737 22.4668 22.4212 22.4668H21.4858L23.3628 20.4509L18.2426 14.9514L16.2627 17.0779C15.4008 16.4418 14.5638 15.6891 13.7677 14.834C12.955 13.9611 12.2425 13.0438 11.6435 12.0997L13.6155 9.98161L8.4953 4.48209L5.87108 7.30075L5.84945 7.32494C4.85541 8.48023 4.77035 10.393 5.60988 12.7107C6.37353 14.8192 7.83522 17.0986 9.7258 19.1291C11.639 21.184 13.7836 22.7632 15.7645 23.5758C16.7252 23.9699 17.6083 24.1658 18.3862 24.1658C18.4179 24.1658 18.4488 24.1646 18.4801 24.1639V24.1659H22.4212C24.946 24.1659 27 21.9597 27 19.248V14.5C27 10.6269 25.5957 6.98566 23.046 4.24691ZM16.3289 21.9884C14.5514 21.2593 12.6037 19.8172 10.8445 17.9276C7.19049 14.003 5.8908 9.81191 7.00223 8.48873L8.4953 6.88506L11.3782 9.98149L9.62666 11.8628L9.95915 12.4356C10.6858 13.6876 11.5908 14.8988 12.6491 16.0354C13.6894 17.1528 14.7984 18.1122 15.9453 18.8871L16.4795 19.248L18.2427 17.3543L21.1255 20.4507L19.6751 22.0086C19.4105 22.2928 19.0116 22.4452 18.509 22.4667H18.4802V22.468C17.8883 22.4874 17.1554 22.3275 16.3289 21.9884Z" fill="white"/>
</svg>
